<svg id="Layer_3" data-name="Layer 3" xmlns="http://www.w3.org/2000/svg" viewBox="0 0 1236 840"><title>banner analytics</title><rect y="48" width="1236" height="792" style="fill:#f1f3f5;opacity:0.3"/><path d="M1232,0H4A4,4,0,0,0,0,4V48H1236V4A4,4,0,0,0,1232,0Z" style="fill:#f1f3f5"/><circle cx="30.77" cy="24.5" r="8.08" style="fill:#dee2e6"/><circle cx="60.5" cy="24.5" r="8.08" style="fill:#dee2e6"/><circle cx="90.23" cy="24.5" r="8.08" style="fill:#dee2e6"/><rect x="265.27" y="-23.76" width="705.46" height="932.36" rx="12" ry="12" transform="translate(1060.42 -175.58) rotate(90)" style="fill:#fff"/><path d="M1072.18,89.68a12,12,0,0,1,12,12V783.15a12,12,0,0,1-12,12H163.82a12,12,0,0,1-12-12V101.68a12,12,0,0,1,12-12h908.36m0-2H163.82a14,14,0,0,0-14,14V783.15a14,14,0,0,0,14,14h908.36a14,14,0,0,0,14-14V101.68a14,14,0,0,0-14-14h0Z" style="fill:#f1f3f5"/><path d="M369.45,185.68H182v-31a3,3,0,0,1,3-3H366.45a3,3,0,0,1,3,3v31Z" style="fill:#f1f3f5"/><path d="M366.45,219.68H185a3,3,0,0,1-3-3v-31H369.45v31A3,3,0,0,1,366.45,219.68Z" style="fill:#f05050"/><path d="M575.22,185.68H390.78v-31a3,3,0,0,1,3-3H572.22a3,3,0,0,1,3,3v31Z" style="fill:#f1f3f5"/><path d="M572.22,219.68H393.78a3,3,0,0,1-3-3v-31H575.22v31A3,3,0,0,1,572.22,219.68Z" style="fill:#36a2eb"/><path d="M599.55,151.68H788a3,3,0,0,1,3,3v31a0,0,0,0,1,0,0H596.55a0,0,0,0,1,0,0v-31a3,3,0,0,1,3-3Z" style="fill:#f1f3f5"/><path d="M596.55,185.68H791a0,0,0,0,1,0,0v31a3,3,0,0,1-3,3H599.55a3,3,0,0,1-3-3v-31A0,0,0,0,1,596.55,185.68Z" style="fill:#5fcf80"/><path d="M295.83,211.25V197.88l-2.57,2.71-1.2-1.22,4-4.13h1.75v16h-2Z" style="fill:#fff"/><path d="M308.32,211.25v-4.06h-7.61v-1.66l6.87-10.3h2.74v10.2h2.26v1.75h-2.26v4.06h-2Zm0-14.16-5.62,8.35h5.62v-8.35Z" style="fill:#fff"/><path d="M315,210.17a1.32,1.32,0,1,1,1.32,1.32A1.33,1.33,0,0,1,315,210.17Z" style="fill:#fff"/><path d="M320.63,211.25v-1.58c5.76-4.54,8.88-7.2,8.88-10,0-2-1.68-2.93-3.34-2.93a5.35,5.35,0,0,0-4.34,2l-1.22-1.27a6.93,6.93,0,0,1,5.57-2.52c2.66,0,5.38,1.51,5.38,4.7s-3.31,6.24-7.78,9.77h7.85v1.78h-11Z" style="fill:#fff"/><path d="M336.59,211.25L343,197h-8.62v-1.78h10.92v1.37l-6.55,14.64h-2.21Z" style="fill:#fff"/><path d="M347.53,207.19c0-2.14,1.82-3.6,3.82-4.2-1.85-.53-3.55-1.73-3.55-3.84,0-2.88,2.81-4.15,5.47-4.15s5.5,1.27,5.5,4.15c0,2.11-1.73,3.31-3.58,3.84,2,0.6,3.82,2.06,3.82,4.2,0,2.71-2.59,4.34-5.74,4.34S347.53,209.93,347.53,207.19ZM357,207c0-2.09-2.74-3-3.72-3.1-1,.12-3.74,1-3.74,3.1,0,1.73,1.75,2.78,3.74,2.78S357,208.71,357,207Zm-0.24-7.56c0-1.66-1.56-2.64-3.48-2.64s-3.48,1-3.48,2.64c0,1.94,2.52,2.59,3.48,2.76C354.25,202,356.75,201.36,356.75,199.42Z" style="fill:#fff"/><path d="M196.79,175.58l-4.65-12h2.92l3.33,9.24,3.31-9.24h2.92l-4.63,12h-3.21Z" style="fill:#f05050"/><path d="M205.91,175.58v-12h2.56v12h-2.56Z" style="fill:#f05050"/><path d="M211,175.58v-12h8.5v2.25h-5.94v2.54h5.82v2.25h-5.82v2.72h5.94v2.25H211Z" style="fill:#f05050"/><path d="M230.88,175.58l-2.11-8.25-2.09,8.25H224l-3.44-12h2.86l2.11,8.68,2.29-8.68h2l2.27,8.68,2.09-8.68H237l-3.42,12h-2.72Z" style="fill:#f05050"/><path d="M237.59,173.89l1.39-1.94a5.27,5.27,0,0,0,3.82,1.62c1.4,0,2.09-.65,2.09-1.33,0-2.12-6.91-.67-6.91-5.19,0-2,1.73-3.66,4.56-3.66a6.68,6.68,0,0,1,4.68,1.67l-1.42,1.87a5.16,5.16,0,0,0-3.49-1.31c-1.1,0-1.71.49-1.71,1.21,0,1.91,6.9.63,6.9,5.11,0,2.2-1.57,3.85-4.81,3.85A6.85,6.85,0,0,1,237.59,173.89Z" style="fill:#f05050"/><path d="M403.84,169.59a6.1,6.1,0,0,1,6.39-6.21,5.5,5.5,0,0,1,5,2.94l-2.2,1.08a3.25,3.25,0,0,0-2.83-1.75,3.95,3.95,0,0,0,0,7.89,3.22,3.22,0,0,0,2.83-1.75l2.2,1.06a5.53,5.53,0,0,1-5,3A6.1,6.1,0,0,1,403.84,169.59Z" style="fill:#36a2eb"/><path d="M417,175.58v-12h2.56v9.76h5.08v2.25H417Z" style="fill:#36a2eb"/><path d="M426.56,175.58v-12h2.56v12h-2.56Z" style="fill:#36a2eb"/><path d="M431.09,169.59a6.1,6.1,0,0,1,6.39-6.21,5.5,5.5,0,0,1,5,2.94l-2.2,1.08a3.25,3.25,0,0,0-2.83-1.75,3.95,3.95,0,0,0,0,7.89,3.22,3.22,0,0,0,2.83-1.75l2.2,1.06a5.53,5.53,0,0,1-5,3A6.1,6.1,0,0,1,431.09,169.59Z" style="fill:#36a2eb"/><path d="M451.35,175.58l-3.64-4.81-0.94,1.12v3.69h-2.56v-12h2.56v5.37l4.25-5.37h3.15l-4.77,5.64,5.1,6.37h-3.15Z" style="fill:#36a2eb"/><path d="M455,173.89l1.39-1.94a5.27,5.27,0,0,0,3.82,1.62c1.4,0,2.09-.65,2.09-1.33,0-2.12-6.91-.67-6.91-5.19,0-2,1.73-3.66,4.56-3.66a6.68,6.68,0,0,1,4.68,1.67l-1.42,1.87a5.16,5.16,0,0,0-3.49-1.31c-1.1,0-1.71.49-1.71,1.21,0,1.91,6.9.63,6.9,5.11,0,2.2-1.57,3.85-4.81,3.85A6.85,6.85,0,0,1,455,173.89Z" style="fill:#36a2eb"/><path d="M611.17,169.59a6.1,6.1,0,0,1,6.39-6.21,5.5,5.5,0,0,1,5,2.94l-2.2,1.08a3.25,3.25,0,0,0-2.83-1.75,3.95,3.95,0,0,0,0,7.89,3.22,3.22,0,0,0,2.83-1.75l2.2,1.06a5.53,5.53,0,0,1-5,3A6.1,6.1,0,0,1,611.17,169.59Z" style="fill:#5fcf80"/><path d="M627.07,175.58v-9.76h-3.51v-2.25h9.58v2.25h-3.49v9.76h-2.58Z" style="fill:#5fcf80"/><path d="M641.74,175.58l-2.36-4.27h-1.87v4.27H635v-12h5.62a3.74,3.74,0,0,1,4,3.87A3.45,3.45,0,0,1,642,171l2.7,4.57h-2.93Zm0.25-8.14a1.63,1.63,0,0,0-1.8-1.62h-2.68v3.24h2.68A1.63,1.63,0,0,0,642,167.44Z" style="fill:#5fcf80"/><path d="M510.66,208.9l1.18-1.25a5.56,5.56,0,0,0,4.46,2.11c2.33,0,3.74-1.15,3.74-3s-1.63-2.83-4-2.83c-0.67,0-1.42,0-1.66,0v-1.82c0.26,0,1,0,1.66,0,2,0,3.72-.79,3.72-2.64s-1.63-2.74-3.58-2.74a5.42,5.42,0,0,0-4.22,1.94l-1.1-1.25a6.94,6.94,0,0,1,5.47-2.47c3.07,0,5.42,1.56,5.42,4.27a3.9,3.9,0,0,1-3.46,3.72,4,4,0,0,1,3.7,3.94c0,2.66-2.14,4.61-5.66,4.61A6.75,6.75,0,0,1,510.66,208.9Z" style="fill:#fff"/><path d="M525,210.17a1.32,1.32,0,1,1,1.32,1.32A1.33,1.33,0,0,1,525,210.17Z" style="fill:#fff"/><path d="M530.66,211.25L537.11,197H528.5v-1.78h10.92v1.37l-6.55,14.64h-2.21Z" style="fill:#fff"/><path d="M543.25,211.25L549.71,197h-8.62v-1.78H552v1.37l-6.55,14.64h-2.21Z" style="fill:#fff"/><path d="M554.25,211.25v-1.58c5.76-4.54,8.88-7.2,8.88-10,0-2-1.68-2.93-3.34-2.93a5.35,5.35,0,0,0-4.34,2l-1.22-1.27a6.93,6.93,0,0,1,5.57-2.52c2.66,0,5.38,1.51,5.38,4.7s-3.31,6.24-7.78,9.77h7.85v1.78h-11Z" style="fill:#fff"/><path d="M707.75,208.9l1.18-1.25a5.56,5.56,0,0,0,4.46,2.11c2.33,0,3.74-1.15,3.74-3s-1.63-2.83-4-2.83c-0.67,0-1.42,0-1.66,0v-1.82c0.26,0,1,0,1.66,0,2,0,3.72-.79,3.72-2.64s-1.63-2.74-3.58-2.74a5.42,5.42,0,0,0-4.22,1.94l-1.1-1.25a6.94,6.94,0,0,1,5.47-2.47c3.07,0,5.42,1.56,5.42,4.27a3.9,3.9,0,0,1-3.46,3.72,4,4,0,0,1,3.7,3.94c0,2.66-2.14,4.61-5.66,4.61A6.75,6.75,0,0,1,707.75,208.9Z" style="fill:#fff"/><path d="M723.57,211.25L730,197h-8.62v-1.78h10.92v1.37l-6.55,14.64h-2.21Z" style="fill:#fff"/><path d="M732.38,210.17a1.32,1.32,0,1,1,1.32,1.32A1.33,1.33,0,0,1,732.38,210.17Z" style="fill:#fff"/><path d="M738.28,209l1.22-1.32a5.27,5.27,0,0,0,4.42,2.11,3.46,3.46,0,0,0,3.7-3.43,3.37,3.37,0,0,0-3.67-3.46,5,5,0,0,0-3.7,1.51l-1.46-.5v-8.64h9.79V197h-7.8v5.57a5.42,5.42,0,0,1,3.74-1.44,4.9,4.9,0,0,1,5.09,5.11c0,3.26-2.47,5.28-5.69,5.28A6.54,6.54,0,0,1,738.28,209Z" style="fill:#fff"/><path d="M752.32,203.28c0-4.34,2-8.28,6.5-8.28a5.57,5.57,0,0,1,4.44,1.92l-1,1.49a4.1,4.1,0,0,0-3.43-1.63c-3.1,0-4.51,3.14-4.51,6.29a5.33,5.33,0,0,0,0,.62,5.75,5.75,0,0,1,4.54-2.5c2.88,0,5.23,1.7,5.23,5.11a5.25,5.25,0,0,1-5.62,5.23C754,211.54,752.32,207.63,752.32,203.28Zm9.77,3.1c0-2.35-1.63-3.46-3.7-3.46a4.92,4.92,0,0,0-4,2.4c0.19,2,1.25,4.44,4,4.44A3.46,3.46,0,0,0,762.09,206.38Z" style="fill:#fff"/><path d="M766.26,199a3.86,3.86,0,1,1,3.84,3.91A3.74,3.74,0,0,1,766.26,199Zm6.29,0a2.44,2.44,0,1,0-2.45,2.71A2.53,2.53,0,0,0,772.55,199Zm-4,12.26,10.22-16h1.32l-10.25,16h-1.3Zm6-3.62a3.85,3.85,0,1,1,3.84,3.91A3.74,3.74,0,0,1,774.62,207.63Zm6.29,0a2.45,2.45,0,1,0-2.45,2.71A2.53,2.53,0,0,0,780.9,207.63Z" style="fill:#fff"/><rect x="150.75" y="250.55" width="670.97" height="41.12" style="fill:#f1f3f5"/><rect x="148.44" y="568.68" width="673.28" height="2" style="fill:#f1f3f5"/><rect x="213" y="533.54" width="564.08" height="1" style="fill:#f1f3f5"/><rect x="213" y="483.34" width="564.08" height="1" style="fill:#f1f3f5"/><rect x="213" y="433.15" width="564.08" height="1" style="fill:#f1f3f5"/><rect x="213" y="382.95" width="564.08" height="1" style="fill:#f1f3f5"/><rect x="468.8" y="440.89" width="705.84" height="2" transform="translate(1263.6 -379.83) rotate(90)" style="fill:#f1f3f5"/><g style="opacity:0.4"><polygon points="1149.95 449.54 1148.54 448.13 1176.25 420.41 1147.71 391.87 1149.12 390.46 1178.37 419.71 1178.37 421.12 1149.95 449.54" style="fill:#586979;opacity:0.8"/><polygon points="96.07 449.54 66.82 420.29 66.82 418.88 95.24 390.46 96.65 391.87 68.94 419.59 97.48 448.13 96.07 449.54" style="fill:#586979;opacity:0.8"/></g><path d="M182.28,276.58v-12h5.91c2.2,0,3.42,1.37,3.42,3.06a2.7,2.7,0,0,1-2.09,2.75,3,3,0,0,1,2.32,3,3.15,3.15,0,0,1-3.49,3.24h-6.07Zm7.17-8.59a1.53,1.53,0,0,0-1.69-1.57h-3.37v3.12h3.37A1.52,1.52,0,0,0,189.44,268Zm0.23,5.06a1.65,1.65,0,0,0-1.84-1.66h-3.46v3.33h3.46A1.62,1.62,0,0,0,189.68,273.05Z" style="fill:#586979"/><path d="M199.38,276.58v-0.94a3.67,3.67,0,0,1-2.81,1.15,2.89,2.89,0,0,1-3-2.88,2.8,2.8,0,0,1,3-2.83,3.6,3.6,0,0,1,2.81,1.12v-1.3c0-1-.83-1.62-2-1.62a3.56,3.56,0,0,0-2.57,1.1L194,269.08a5.17,5.17,0,0,1,3.66-1.41c1.93,0,3.62.81,3.62,3.15v5.76h-1.89Zm0-2v-1.31a2.55,2.55,0,0,0-2.07-.9,1.58,1.58,0,1,0,0,3.12A2.55,2.55,0,0,0,199.38,274.6Z" style="fill:#586979"/><path d="M209.77,276.58v-5.44a1.55,1.55,0,0,0-1.75-1.8,2.86,2.86,0,0,0-2.23,1.17v6.07H203.9v-8.7h1.89v1.19a4.11,4.11,0,0,1,3.06-1.41,2.51,2.51,0,0,1,2.81,2.79v6.12h-1.89Z" style="fill:#586979"/><path d="M220.15,276.58v-5.44a1.55,1.55,0,0,0-1.75-1.8,2.86,2.86,0,0,0-2.23,1.17v6.07h-1.89v-8.7h1.89v1.19a4.11,4.11,0,0,1,3.06-1.41,2.51,2.51,0,0,1,2.81,2.79v6.12h-1.89Z" style="fill:#586979"/><path d="M224.13,272.23a4.4,4.4,0,0,1,4.41-4.56c2.61,0,4.29,2,4.29,4.74v0.45h-6.72a2.63,2.63,0,0,0,2.77,2.4,3.68,3.68,0,0,0,2.47-1l0.86,1.24a5.07,5.07,0,0,1-3.53,1.26A4.37,4.37,0,0,1,224.13,272.23Zm4.41-3a2.4,2.4,0,0,0-2.45,2.3H231A2.33,2.33,0,0,0,228.54,269.22Z" style="fill:#586979"/><path d="M234.87,276.58v-8.7h1.89v1.28a3.71,3.71,0,0,1,2.83-1.48v1.87a2.78,2.78,0,0,0-.59-0.05,3,3,0,0,0-2.23,1.15v5.92h-1.89Z" style="fill:#586979"/><path d="M245.38,274.89l1.17-1.62a5.18,5.18,0,0,0,3.8,1.66c1.73,0,2.41-.85,2.41-1.64,0-2.52-7-1-7-5.38,0-2,1.75-3.51,4.38-3.51a6.25,6.25,0,0,1,4.5,1.67l-1.21,1.57a4.88,4.88,0,0,0-3.48-1.37c-1.24,0-2,.59-2,1.5,0,2.23,7,.85,7,5.33,0,2-1.4,3.71-4.65,3.71A6.43,6.43,0,0,1,245.38,274.89Z" style="fill:#586979"/><path d="M257.08,274.57v-5h-1.44v-1.66h1.44v-2.38H259v2.38h1.76v1.66H259v4.56a0.88,0.88,0,0,0,.83,1,1.22,1.22,0,0,0,.85-0.31l0.45,1.42a2.5,2.5,0,0,1-1.78.56A2,2,0,0,1,257.08,274.57Z" style="fill:#586979"/><path d="M267.94,276.58v-0.94a3.67,3.67,0,0,1-2.81,1.15,2.89,2.89,0,0,1-3-2.88,2.8,2.8,0,0,1,3-2.83,3.6,3.6,0,0,1,2.81,1.12v-1.3c0-1-.83-1.62-2-1.62a3.56,3.56,0,0,0-2.57,1.1l-0.77-1.31a5.17,5.17,0,0,1,3.66-1.41c1.93,0,3.62.81,3.62,3.15v5.76h-1.89Zm0-2v-1.31a2.55,2.55,0,0,0-2.07-.9,1.58,1.58,0,1,0,0,3.12A2.55,2.55,0,0,0,267.94,274.6Z" style="fill:#586979"/><path d="M272.83,274.57v-5h-1.44v-1.66h1.44v-2.38h1.89v2.38h1.76v1.66h-1.76v4.56a0.88,0.88,0,0,0,.83,1,1.22,1.22,0,0,0,.85-0.31l0.45,1.42a2.5,2.5,0,0,1-1.78.56A2,2,0,0,1,272.83,274.57Z" style="fill:#586979"/><path d="M277.62,275.45l0.86-1.37a4.49,4.49,0,0,0,3,1.22c1.13,0,1.71-.49,1.71-1.17,0-1.71-5.26-.49-5.26-3.82,0-1.42,1.22-2.65,3.42-2.65a5,5,0,0,1,3.38,1.22l-0.79,1.33a3.51,3.51,0,0,0-2.58-1c-1,0-1.62.45-1.62,1.06,0,1.55,5.26.4,5.26,3.85,0,1.53-1.28,2.7-3.62,2.7A5.29,5.29,0,0,1,277.62,275.45Z" style="fill:#586979"/><g style="opacity:0.75"><path d="M190.22,334.58l-4.83-12h1.71l4.05,10.37,4.05-10.37h1.71l-4.84,12h-1.85Z" style="fill:#586979"/><path d="M198.37,323.74a0.91,0.91,0,1,1,1.82,0A0.91,0.91,0,0,1,198.37,323.74Zm0.23,10.84v-8.7H200v8.7H198.6Z" style="fill:#586979"/><path d="M202.33,330.23a4.35,4.35,0,0,1,4.29-4.56c2.63,0,4.18,2.05,4.18,4.66v0.34h-7a3.06,3.06,0,0,0,3.13,3,3.8,3.8,0,0,0,2.68-1.1l0.65,0.88a4.72,4.72,0,0,1-3.46,1.33A4.31,4.31,0,0,1,202.33,330.23Zm4.27-3.44a2.9,2.9,0,0,0-2.84,2.9h5.71A2.82,2.82,0,0,0,206.6,326.79Z" style="fill:#586979"/><path d="M220.67,334.58l-2.27-7-2.27,7h-1.35l-2.77-8.7h1.4l2.13,6.93,2.29-6.93H219l2.29,6.93,2.13-6.93h1.4l-2.77,8.7h-1.35Z" style="fill:#586979"/><path d="M225.78,333.43l0.7-1a3.94,3.94,0,0,0,2.86,1.24c1.33,0,2.05-.63,2.05-1.5,0-2.11-5.38-.81-5.38-4,0-1.35,1.17-2.5,3.24-2.5a4.4,4.4,0,0,1,3.22,1.26l-0.63.94a3.39,3.39,0,0,0-2.59-1.1c-1.19,0-1.93.59-1.93,1.37,0,1.91,5.38.65,5.38,4,0,1.46-1.17,2.63-3.42,2.63A4.63,4.63,0,0,1,225.78,333.43Z" style="fill:#586979"/><path d="M244.79,334.94V322.21h1v12.73h-1Z" style="fill:#586979;opacity:0.4"/><path d="M257.7,332.89l0.88-1.13a5.07,5.07,0,0,0,3.78,1.71c2.14,0,2.83-1.15,2.83-2.07,0-3.1-7.11-1.39-7.11-5.67,0-2,1.76-3.33,4.12-3.33a5.65,5.65,0,0,1,4.27,1.67l-0.9,1.1a4.6,4.6,0,0,0-3.48-1.44c-1.44,0-2.47.77-2.47,1.91,0,2.7,7.11,1.15,7.11,5.64,0,1.75-1.19,3.53-4.43,3.53A6,6,0,0,1,257.7,332.89Z" style="fill:#586979;opacity:0.4"/><path d="M269.05,332.76v-5.69h-1.44v-1.19h1.44v-2.38h1.35v2.38h1.76v1.19h-1.76v5.4a0.94,0.94,0,0,0,.88,1.12,1.3,1.3,0,0,0,.92-0.36l0.4,1a2.21,2.21,0,0,1-1.62.56A1.78,1.78,0,0,1,269.05,332.76Z" style="fill:#586979;opacity:0.4"/><path d="M279.69,334.58v-1a3.76,3.76,0,0,1-2.88,1.21,2.9,2.9,0,0,1-3-2.88,2.85,2.85,0,0,1,3-2.86,3.63,3.63,0,0,1,2.88,1.19v-1.57a1.92,1.92,0,0,0-2.2-1.84,3.45,3.45,0,0,0-2.67,1.21l-0.63-.94a4.55,4.55,0,0,1,3.47-1.44c1.84,0,3.37.83,3.37,2.94v6h-1.35Zm0-1.84v-1.64A2.91,2.91,0,0,0,277.3,330a1.91,1.91,0,1,0,0,3.8A2.91,2.91,0,0,0,279.69,332.75Z" style="fill:#586979;opacity:0.4"/><path d="M284.19,332.76v-5.69h-1.44v-1.19h1.44v-2.38h1.35v2.38h1.76v1.19h-1.76v5.4a0.94,0.94,0,0,0,.88,1.12,1.3,1.3,0,0,0,.92-0.36l0.4,1a2.21,2.21,0,0,1-1.62.56A1.78,1.78,0,0,1,284.19,332.76Z" style="fill:#586979;opacity:0.4"/><path d="M288.64,333.43l0.7-1a3.94,3.94,0,0,0,2.86,1.24c1.33,0,2.05-.63,2.05-1.5,0-2.11-5.38-.81-5.38-4,0-1.35,1.17-2.5,3.24-2.5a4.4,4.4,0,0,1,3.22,1.26l-0.63.94a3.39,3.39,0,0,0-2.59-1.1c-1.19,0-1.93.59-1.93,1.37,0,1.91,5.38.65,5.38,4,0,1.46-1.17,2.63-3.42,2.63A4.63,4.63,0,0,1,288.64,333.43Z" style="fill:#586979;opacity:0.4"/><path d="M307.65,334.94V322.21h1v12.73h-1Z" style="fill:#586979;opacity:0.4"/><path d="M320.79,328.59a6,6,0,0,1,6.18-6.21,5.37,5.37,0,0,1,4.56,2.38l-1.26.7a4.05,4.05,0,0,0-3.29-1.75,4.89,4.89,0,0,0,0,9.76,4,4,0,0,0,3.29-1.75l1.28,0.7A5.43,5.43,0,0,1,327,334.8,6,6,0,0,1,320.79,328.59Z" style="fill:#586979;opacity:0.4"/><path d="M336.59,334.58V323.91h-3.8v-1.33h9.11v1.33h-3.82v10.68h-1.5Z" style="fill:#586979;opacity:0.4"/><path d="M351,334.58l-3.06-4.77h-2.4v4.77h-1.49v-12h4.83a3.5,3.5,0,0,1,3.76,3.62,3.32,3.32,0,0,1-3.12,3.49l3.24,4.9H351Zm0.09-8.39a2.23,2.23,0,0,0-2.39-2.29h-3.15v4.59h3.15A2.25,2.25,0,0,0,351.1,326.19Z" style="fill:#586979;opacity:0.4"/></g><g style="opacity:0.75"><path d="M183.85,384.74l0.59-.62a2.78,2.78,0,0,0,2.23,1.06c1.16,0,1.87-.58,1.87-1.5s-0.82-1.42-2-1.42c-0.33,0-.71,0-0.83,0v-0.91h0.83c1,0,1.86-.4,1.86-1.32a1.54,1.54,0,0,0-1.79-1.37,2.71,2.71,0,0,0-2.11,1L184,379a3.46,3.46,0,0,1,2.73-1.24c1.54,0,2.71.78,2.71,2.13a2,2,0,0,1-1.73,1.86,2,2,0,0,1,1.85,2c0,1.33-1.07,2.3-2.83,2.3A3.37,3.37,0,0,1,183.85,384.74Z" style="fill:#586979"/><path d="M190.92,381.92c0-2,.86-4.12,3.06-4.12S197,380,197,381.92s-0.88,4.14-3.06,4.14S190.92,383.87,190.92,381.92Zm5.1,0c0-1.59-.52-3.24-2-3.24s-2,1.64-2,3.24,0.52,3.25,2,3.25S196,383.52,196,381.92Z" style="fill:#586979"/><path d="M198.38,381.92c0-2,.86-4.12,3.06-4.12s3.06,2.17,3.06,4.13-0.88,4.14-3.06,4.14S198.38,383.87,198.38,381.92Zm5.1,0c0-1.59-.52-3.24-2-3.24s-2,1.64-2,3.24,0.52,3.25,2,3.25S203.48,383.52,203.48,381.92Z" style="fill:#586979"/></g><g style="opacity:0.75"><path d="M184.15,436.92v-0.79c2.88-2.27,4.44-3.6,4.44-5a1.5,1.5,0,0,0-1.67-1.46,2.68,2.68,0,0,0-2.17,1l-0.61-.64a3.46,3.46,0,0,1,2.78-1.26,2.43,2.43,0,0,1,2.69,2.35c0,1.63-1.66,3.12-3.89,4.88h3.92v0.89h-5.49Z" style="fill:#586979"/><path d="M191.29,432.92c0-2,.86-4.12,3.06-4.12s3.06,2.17,3.06,4.13-0.88,4.14-3.06,4.14S191.29,434.87,191.29,432.92Zm5.1,0c0-1.59-.52-3.24-2-3.24s-2,1.64-2,3.24,0.52,3.25,2,3.25S196.39,434.52,196.39,432.92Z" style="fill:#586979"/><path d="M198.75,432.92c0-2,.86-4.12,3.06-4.12s3.06,2.17,3.06,4.13-0.88,4.14-3.06,4.14S198.75,434.87,198.75,432.92Zm5.1,0c0-1.59-.52-3.24-2-3.24s-2,1.64-2,3.24,0.52,3.25,2,3.25S203.85,434.52,203.85,432.92Z" style="fill:#586979"/></g><g style="opacity:0.75"><path d="M185.64,486.92v-6.68l-1.28,1.36-0.6-.61,2-2.06h0.88v8h-1Z" style="fill:#586979"/><path d="M188.3,482.92c0-2,.86-4.12,3.06-4.12s3.06,2.17,3.06,4.13-0.88,4.14-3.06,4.14S188.3,484.87,188.3,482.92Zm5.1,0c0-1.59-.52-3.24-2-3.24s-2,1.64-2,3.24,0.52,3.25,2,3.25S193.4,484.52,193.4,482.92Z" style="fill:#586979"/><path d="M195.76,482.92c0-2,.86-4.12,3.06-4.12s3.06,2.17,3.06,4.13-0.88,4.14-3.06,4.14S195.76,484.87,195.76,482.92Zm5.1,0c0-1.59-.52-3.24-2-3.24s-2,1.64-2,3.24,0.52,3.25,2,3.25S200.86,484.52,200.86,482.92Z" style="fill:#586979"/></g><g style="opacity:0.75"><path d="M197.77,533.67c0-2,.86-4.12,3.06-4.12s3.06,2.17,3.06,4.13-0.88,4.14-3.06,4.14S197.77,535.62,197.77,533.67Zm5.1,0c0-1.59-.52-3.24-2-3.24s-2,1.64-2,3.24,0.52,3.25,2,3.25S202.87,535.27,202.87,533.67Z" style="fill:#586979"/></g><path d="M855.58,128.68v-12h5.91c2.2,0,3.42,1.37,3.42,3.06a2.7,2.7,0,0,1-2.09,2.75,3,3,0,0,1,2.32,3,3.15,3.15,0,0,1-3.49,3.24h-6.07Zm7.17-8.59a1.53,1.53,0,0,0-1.69-1.57h-3.37v3.12h3.37A1.52,1.52,0,0,0,862.75,120.09Zm0.23,5.06a1.65,1.65,0,0,0-1.84-1.66h-3.46v3.33h3.46A1.62,1.62,0,0,0,863,125.15Z" style="fill:#586979"/><path d="M872.68,128.68v-0.94a3.67,3.67,0,0,1-2.81,1.15,2.89,2.89,0,0,1-3-2.88,2.8,2.8,0,0,1,3-2.83,3.6,3.6,0,0,1,2.81,1.12V123c0-1-.83-1.62-2-1.62a3.56,3.56,0,0,0-2.57,1.1l-0.77-1.31a5.17,5.17,0,0,1,3.66-1.41c1.93,0,3.62.81,3.62,3.15v5.76h-1.89Zm0-2v-1.31a2.55,2.55,0,0,0-2.07-.9,1.58,1.58,0,1,0,0,3.12A2.55,2.55,0,0,0,872.68,126.7Z" style="fill:#586979"/><path d="M883.07,128.68v-5.44a1.55,1.55,0,0,0-1.75-1.8,2.86,2.86,0,0,0-2.23,1.17v6.07H877.2V120h1.89v1.19a4.11,4.11,0,0,1,3.06-1.41,2.51,2.51,0,0,1,2.81,2.79v6.12h-1.89Z" style="fill:#586979"/><path d="M893.45,128.68v-5.44a1.55,1.55,0,0,0-1.75-1.8,2.86,2.86,0,0,0-2.23,1.17v6.07h-1.89V120h1.89v1.19a4.11,4.11,0,0,1,3.06-1.41,2.51,2.51,0,0,1,2.81,2.79v6.12h-1.89Z" style="fill:#586979"/><path d="M897.43,124.32a4.4,4.4,0,0,1,4.41-4.56c2.61,0,4.29,2,4.29,4.74V125h-6.72a2.63,2.63,0,0,0,2.77,2.4,3.68,3.68,0,0,0,2.47-1l0.86,1.24a5.07,5.07,0,0,1-3.53,1.26A4.37,4.37,0,0,1,897.43,124.32Zm4.41-3a2.4,2.4,0,0,0-2.45,2.3h4.9A2.33,2.33,0,0,0,901.84,121.31Z" style="fill:#586979"/><path d="M908.18,128.68V120h1.89v1.28a3.71,3.71,0,0,1,2.83-1.48v1.87a2.78,2.78,0,0,0-.59-0.05,3,3,0,0,0-2.23,1.15v5.92h-1.89Z" style="fill:#586979"/><path d="M927.82,128.68v-5.24h-6.25v5.24h-2.11v-12h2.11v4.92h6.25v-4.92h2.11v12h-2.11Z" style="fill:#586979"/><path d="M932.06,124.32a4.4,4.4,0,0,1,4.41-4.56c2.61,0,4.29,2,4.29,4.74V125H934a2.63,2.63,0,0,0,2.77,2.4,3.68,3.68,0,0,0,2.47-1l0.86,1.24a5.07,5.07,0,0,1-3.53,1.26A4.37,4.37,0,0,1,932.06,124.32Zm4.41-3a2.4,2.4,0,0,0-2.45,2.3h4.9A2.33,2.33,0,0,0,936.47,121.31Z" style="fill:#586979"/><path d="M948.12,128.68v-0.94a3.67,3.67,0,0,1-2.81,1.15,2.89,2.89,0,0,1-3-2.88,2.8,2.8,0,0,1,3-2.83,3.59,3.59,0,0,1,2.81,1.12V123c0-1-.83-1.62-2-1.62a3.56,3.56,0,0,0-2.57,1.1l-0.77-1.31a5.17,5.17,0,0,1,3.66-1.41c1.93,0,3.62.81,3.62,3.15v5.76h-1.89Zm0-2v-1.31a2.55,2.55,0,0,0-2.07-.9,1.58,1.58,0,1,0,0,3.12A2.55,2.55,0,0,0,948.12,126.7Z" style="fill:#586979"/><path d="M953,126.66v-5h-1.44V120H953V117.6h1.89V120h1.76v1.66H954.9v4.56a0.88,0.88,0,0,0,.83,1,1.22,1.22,0,0,0,.85-0.31l0.45,1.42a2.49,2.49,0,0,1-1.78.56A2,2,0,0,1,953,126.66Z" style="fill:#586979"/><path d="M969.22,128.68V123a1.34,1.34,0,0,0-1.42-1.57,2.64,2.64,0,0,0-2,1.15v6.09h-1.89V123a1.35,1.35,0,0,0-1.44-1.57,2.63,2.63,0,0,0-2,1.17v6.07h-1.89V120h1.89v1.19a3.75,3.75,0,0,1,2.83-1.41,2.27,2.27,0,0,1,2.38,1.6,3.69,3.69,0,0,1,3-1.6c1.6,0,2.5.86,2.5,2.63v6.28h-1.89Z" style="fill:#586979"/><path d="M979,128.68v-0.94a3.67,3.67,0,0,1-2.81,1.15,2.89,2.89,0,0,1-3-2.88,2.8,2.8,0,0,1,3-2.83A3.59,3.59,0,0,1,979,124.3V123c0-1-.83-1.62-2-1.62a3.56,3.56,0,0,0-2.57,1.1l-0.77-1.31a5.17,5.17,0,0,1,3.66-1.41c1.93,0,3.62.81,3.62,3.15v5.76H979Zm0-2v-1.31a2.55,2.55,0,0,0-2.07-.9,1.58,1.58,0,1,0,0,3.12A2.55,2.55,0,0,0,979,126.7Z" style="fill:#586979"/><path d="M985.45,127.47V132h-1.89V120h1.89v1.19a3.47,3.47,0,0,1,2.79-1.41c2.25,0,3.85,1.69,3.85,4.56s-1.6,4.57-3.85,4.57A3.42,3.42,0,0,1,985.45,127.47Zm4.68-3.15c0-1.67-1-2.88-2.45-2.88a2.82,2.82,0,0,0-2.23,1.17V126a2.87,2.87,0,0,0,2.23,1.17C989.18,127.22,990.13,126,990.13,124.32Z" style="fill:#586979"/><path d="M709.14,274.89l1.17-1.62a5.18,5.18,0,0,0,3.8,1.66c1.73,0,2.41-.85,2.41-1.64,0-2.52-7-1-7-5.38,0-2,1.75-3.51,4.38-3.51a6.25,6.25,0,0,1,4.5,1.67l-1.21,1.57a4.88,4.88,0,0,0-3.48-1.37c-1.24,0-2,.59-2,1.5,0,2.23,7,.85,7,5.33,0,2-1.4,3.71-4.65,3.71A6.43,6.43,0,0,1,709.14,274.89Z" style="fill:#36a2eb"/><path d="M720.19,272.23a4.4,4.4,0,0,1,4.41-4.56c2.61,0,4.29,2,4.29,4.74v0.45h-6.72a2.63,2.63,0,0,0,2.77,2.4,3.68,3.68,0,0,0,2.47-1l0.86,1.24a5.07,5.07,0,0,1-3.53,1.26A4.37,4.37,0,0,1,720.19,272.23Zm4.41-3a2.4,2.4,0,0,0-2.45,2.3h4.9A2.33,2.33,0,0,0,724.61,269.22Z" style="fill:#36a2eb"/><path d="M730.4,272.23a4.4,4.4,0,0,1,4.41-4.56c2.61,0,4.29,2,4.29,4.74v0.45h-6.72a2.63,2.63,0,0,0,2.77,2.4,3.68,3.68,0,0,0,2.47-1l0.86,1.24A5.07,5.07,0,0,1,735,276.8,4.37,4.37,0,0,1,730.4,272.23Zm4.41-3a2.4,2.4,0,0,0-2.45,2.3h4.9A2.33,2.33,0,0,0,734.81,269.22Z" style="fill:#36a2eb"/><path d="M756.61,276.58v-5.67a1.34,1.34,0,0,0-1.42-1.57,2.64,2.64,0,0,0-2,1.15v6.09h-1.89v-5.67a1.35,1.35,0,0,0-1.44-1.57,2.63,2.63,0,0,0-2,1.17v6.07H746v-8.7h1.89v1.19a3.75,3.75,0,0,1,2.83-1.41,2.27,2.27,0,0,1,2.38,1.6,3.69,3.69,0,0,1,3-1.6c1.6,0,2.5.86,2.5,2.63v6.28h-1.89Z" style="fill:#36a2eb"/><path d="M760.59,272.23a4.48,4.48,0,1,1,4.46,4.57A4.35,4.35,0,0,1,760.59,272.23Zm7,0a2.54,2.54,0,1,0-2.52,2.9A2.61,2.61,0,0,0,767.57,272.23Z" style="fill:#36a2eb"/><path d="M771.62,276.58v-8.7h1.89v1.28a3.71,3.71,0,0,1,2.83-1.48v1.87a2.78,2.78,0,0,0-.59-0.05,3,3,0,0,0-2.23,1.15v5.92h-1.89Z" style="fill:#36a2eb"/><path d="M777.5,272.23a4.4,4.4,0,0,1,4.41-4.56c2.61,0,4.29,2,4.29,4.74v0.45h-6.72a2.63,2.63,0,0,0,2.77,2.4,3.68,3.68,0,0,0,2.47-1l0.86,1.24a5.07,5.07,0,0,1-3.53,1.26A4.37,4.37,0,0,1,777.5,272.23Zm4.41-3a2.4,2.4,0,0,0-2.45,2.3h4.9A2.33,2.33,0,0,0,781.92,269.22Z" style="fill:#36a2eb"/><path d="M183.28,126.68v-12h2.11v10.16h5.29v1.85h-7.4Z" style="fill:#586979"/><path d="M192.48,115.75a1.17,1.17,0,1,1,1.17,1.17A1.18,1.18,0,0,1,192.48,115.75Zm0.23,10.93V118h1.89v8.7h-1.89Z" style="fill:#586979"/><path d="M197.68,126.68v-7h-1.44V118h1.44V117.5a2.68,2.68,0,0,1,2.75-3,2.84,2.84,0,0,1,2.09.76l-0.74,1.17a1.42,1.42,0,0,0-1-.38,1.22,1.22,0,0,0-1.21,1.46V118h1.76v1.66h-1.76v7h-1.89Z" style="fill:#586979"/><path d="M202.41,122.32a4.4,4.4,0,0,1,4.41-4.56c2.61,0,4.29,2,4.29,4.74V123h-6.72a2.63,2.63,0,0,0,2.77,2.4,3.68,3.68,0,0,0,2.47-1l0.86,1.24a5.07,5.07,0,0,1-3.53,1.26A4.37,4.37,0,0,1,202.41,122.32Zm4.41-3a2.4,2.4,0,0,0-2.45,2.3h4.9A2.33,2.33,0,0,0,206.82,119.31Z" style="fill:#586979"/><path d="M213.54,124.66v-5H212.1V118h1.44V115.6h1.89V118h1.76v1.66h-1.76v4.56a0.88,0.88,0,0,0,.83,1,1.22,1.22,0,0,0,.85-0.31l0.45,1.42a2.5,2.5,0,0,1-1.78.56A2,2,0,0,1,213.54,124.66Z" style="fill:#586979"/><path d="M218.85,115.75a1.17,1.17,0,1,1,1.17,1.17A1.18,1.18,0,0,1,218.85,115.75Zm0.23,10.93V118H221v8.7h-1.89Z" style="fill:#586979"/><path d="M234.26,126.68V121a1.34,1.34,0,0,0-1.42-1.57,2.64,2.64,0,0,0-2,1.15v6.09h-1.89V121a1.35,1.35,0,0,0-1.44-1.57,2.63,2.63,0,0,0-2,1.17v6.07H223.6V118h1.89v1.19a3.75,3.75,0,0,1,2.83-1.41,2.27,2.27,0,0,1,2.38,1.6,3.69,3.69,0,0,1,3-1.6c1.6,0,2.5.86,2.5,2.63v6.28h-1.89Z" style="fill:#586979"/><path d="M238.23,122.32a4.4,4.4,0,0,1,4.41-4.56c2.61,0,4.29,2,4.29,4.74V123h-6.72a2.63,2.63,0,0,0,2.77,2.4,3.68,3.68,0,0,0,2.47-1l0.86,1.24a5.07,5.07,0,0,1-3.53,1.26A4.37,4.37,0,0,1,238.23,122.32Zm4.41-3a2.4,2.4,0,0,0-2.45,2.3h4.9A2.33,2.33,0,0,0,242.64,119.31Z" style="fill:#586979"/><path d="M253,125.54l0.86-1.37a4.49,4.49,0,0,0,3,1.22c1.13,0,1.71-.49,1.71-1.17,0-1.71-5.26-.49-5.26-3.82,0-1.42,1.22-2.65,3.42-2.65A5,5,0,0,1,260.1,119l-0.79,1.33a3.51,3.51,0,0,0-2.58-1c-1,0-1.62.45-1.62,1.06,0,1.55,5.26.4,5.26,3.85,0,1.53-1.28,2.7-3.62,2.7A5.29,5.29,0,0,1,253,125.54Z" style="fill:#586979"/><path d="M262.84,124.66v-5H261.4V118h1.44V115.6h1.89V118h1.76v1.66h-1.76v4.56a0.88,0.88,0,0,0,.83,1,1.22,1.22,0,0,0,.85-0.31l0.45,1.42a2.5,2.5,0,0,1-1.78.56A2,2,0,0,1,262.84,124.66Z" style="fill:#586979"/><path d="M273.69,126.68v-0.94a3.67,3.67,0,0,1-2.81,1.15,2.89,2.89,0,0,1-3-2.88,2.8,2.8,0,0,1,3-2.83,3.6,3.6,0,0,1,2.81,1.12V121c0-1-.83-1.62-2-1.62a3.56,3.56,0,0,0-2.57,1.1l-0.77-1.31a5.17,5.17,0,0,1,3.66-1.41c1.93,0,3.62.81,3.62,3.15v5.76h-1.89Zm0-2v-1.31a2.55,2.55,0,0,0-2.07-.9,1.58,1.58,0,1,0,0,3.12A2.55,2.55,0,0,0,273.69,124.7Z" style="fill:#586979"/><path d="M278.59,124.66v-5h-1.44V118h1.44V115.6h1.89V118h1.76v1.66h-1.76v4.56a0.88,0.88,0,0,0,.83,1,1.22,1.22,0,0,0,.85-0.31l0.45,1.42a2.5,2.5,0,0,1-1.78.56A2,2,0,0,1,278.59,124.66Z" style="fill:#586979"/><path d="M283.37,125.54l0.86-1.37a4.49,4.49,0,0,0,3,1.22c1.13,0,1.71-.49,1.71-1.17,0-1.71-5.26-.49-5.26-3.82,0-1.42,1.22-2.65,3.42-2.65a5,5,0,0,1,3.38,1.22l-0.79,1.33a3.51,3.51,0,0,0-2.58-1c-1,0-1.62.45-1.62,1.06,0,1.55,5.26.4,5.26,3.85,0,1.53-1.28,2.7-3.62,2.7A5.29,5.29,0,0,1,283.37,125.54Z" style="fill:#586979"/><path d="M356.71,765a66.49,66.49,0,1,1,66.49-66.49A66.56,66.56,0,0,1,356.71,765Zm0-125a58.49,58.49,0,1,0,58.49,58.49A58.56,58.56,0,0,0,356.71,640Z" style="fill:#f1f3f5"/><path d="M178.28,615.65v-12h4.47c3.75,0,6.28,2.49,6.28,6s-2.54,6-6.28,6h-4.47Zm8.59-6a3.89,3.89,0,0,0-4.12-4.16h-2.36v8.3h2.36A3.94,3.94,0,0,0,186.87,609.66Z" style="fill:#586979"/><path d="M190.64,611.29a4.4,4.4,0,0,1,4.41-4.56c2.61,0,4.29,2,4.29,4.74v0.45h-6.72a2.63,2.63,0,0,0,2.77,2.4,3.68,3.68,0,0,0,2.47-1l0.86,1.24a5.07,5.07,0,0,1-3.53,1.26A4.37,4.37,0,0,1,190.64,611.29Zm4.41-3a2.4,2.4,0,0,0-2.45,2.3h4.9A2.33,2.33,0,0,0,195.06,608.29Z" style="fill:#586979"/><path d="M203.68,615.65l-3.55-8.7h2l2.54,6.52,2.54-6.52h2l-3.55,8.7h-2Z" style="fill:#586979"/><path d="M210.39,604.72a1.17,1.17,0,1,1,1.17,1.17A1.18,1.18,0,0,1,210.39,604.72Zm0.23,10.93V607h1.89v8.7h-1.89Z" style="fill:#586979"/><path d="M214.6,611.29a4.36,4.36,0,0,1,4.5-4.56,3.9,3.9,0,0,1,3.33,1.55l-1.24,1.15a2.32,2.32,0,0,0-2-1,2.9,2.9,0,0,0,0,5.78,2.37,2.37,0,0,0,2-1l1.24,1.15a3.9,3.9,0,0,1-3.33,1.55A4.37,4.37,0,0,1,214.6,611.29Z" style="fill:#586979"/><path d="M223.73,611.29a4.4,4.4,0,0,1,4.41-4.56c2.61,0,4.29,2,4.29,4.74v0.45h-6.72a2.63,2.63,0,0,0,2.77,2.4,3.68,3.68,0,0,0,2.47-1l0.86,1.24a5.07,5.07,0,0,1-3.53,1.26A4.37,4.37,0,0,1,223.73,611.29Zm4.41-3a2.4,2.4,0,0,0-2.45,2.3h4.9A2.33,2.33,0,0,0,228.14,608.29Z" style="fill:#586979"/><path d="M233.72,614.52l0.86-1.37a4.49,4.49,0,0,0,3,1.22c1.13,0,1.71-.49,1.71-1.17,0-1.71-5.26-.49-5.26-3.82,0-1.42,1.22-2.65,3.42-2.65a5,5,0,0,1,3.38,1.22L240,609.3a3.51,3.51,0,0,0-2.57-1c-1,0-1.62.45-1.62,1.06,0,1.55,5.26.4,5.26,3.85,0,1.53-1.28,2.7-3.62,2.7A5.29,5.29,0,0,1,233.72,614.52Z" style="fill:#586979"/><path d="M316.44,618.17V606.62H321c3.62,0,6.13,2.3,6.13,5.78s-2.51,5.77-6.13,5.77h-4.56Zm8.17-5.77a3.38,3.38,0,0,0-3.62-3.62h-2.1V616H321A3.46,3.46,0,0,0,324.61,612.4Z" style="fill:#ff5d8a"/><path d="M329,618.17V606.62h8.17v2.17H331.5v2.44h5.59v2.16H331.5V616h5.71v2.17H329Z" style="fill:#ff5d8a"/><path d="M338.54,616.54l1.33-1.87a5.06,5.06,0,0,0,3.67,1.56c1.35,0,2-.62,2-1.28,0-2-6.65-.64-6.65-5,0-1.92,1.66-3.52,4.38-3.52a6.43,6.43,0,0,1,4.5,1.61l-1.37,1.8a5,5,0,0,0-3.36-1.26c-1.06,0-1.65.47-1.65,1.16,0,1.84,6.63.61,6.63,4.92,0,2.11-1.51,3.71-4.62,3.71A6.59,6.59,0,0,1,338.54,616.54Z" style="fill:#ff5d8a"/><path d="M356.74,618.17l-3.5-4.62-0.9,1.07v3.55h-2.46V606.62h2.46v5.16l4.09-5.16h3L354.87,612l4.9,6.13h-3Z" style="fill:#ff5d8a"/><path d="M363.74,618.17v-9.39h-3.38v-2.17h9.21v2.17h-3.36v9.39h-2.48Z" style="fill:#ff5d8a"/><path d="M370.36,612.4a6,6,0,1,1,6,6A5.8,5.8,0,0,1,370.36,612.4Zm9.54,0a3.52,3.52,0,1,0-3.52,3.79A3.51,3.51,0,0,0,379.9,612.4Z" style="fill:#ff5d8a"/><path d="M384.33,618.17V606.62h5.4a3.73,3.73,0,1,1,0,7.45h-2.94v4.1h-2.46Zm6.77-7.83a1.55,1.55,0,0,0-1.7-1.56h-2.62v3.12h2.62A1.56,1.56,0,0,0,391.11,610.34Z" style="fill:#ff5d8a"/><path d="M513.32,619.17v-9.39h-3.38v-2.17h9.21v2.17h-3.36v9.39h-2.48Z" style="fill:#7c4dff"/><path d="M527.76,619.17l-0.71-2h-5l-0.73,2h-2.81L523,607.62h3.08l4.45,11.55h-2.81Zm-3.19-9.09-1.8,5h3.6Z" style="fill:#7c4dff"/><path d="M531.82,619.17V607.62h6.08c2.2,0,3.33,1.4,3.33,2.94a2.56,2.56,0,0,1-2,2.65,2.8,2.8,0,0,1,2.22,2.84,3,3,0,0,1-3.36,3.12h-6.27Zm6.89-8.17a1.24,1.24,0,0,0-1.35-1.26h-3.08v2.51h3.08A1.23,1.23,0,0,0,538.71,611Zm0.22,4.71a1.35,1.35,0,0,0-1.49-1.35h-3.17V617h3.17A1.3,1.3,0,0,0,538.93,615.7Z" style="fill:#7c4dff"/><path d="M543.47,619.17V607.62h2.46V617h4.88v2.17h-7.34Z" style="fill:#7c4dff"/><path d="M552.71,619.17V607.62h8.17v2.17h-5.71v2.44h5.59v2.16h-5.59V617h5.71v2.17h-8.17Z" style="fill:#7c4dff"/><path d="M565.65,619.17v-9.39h-3.38v-2.17h9.21v2.17h-3.36v9.39h-2.48Z" style="fill:#7c4dff"/><path d="M699.26,619.17v-8.09L696,619.17h-1.07l-3.26-8.09v8.09h-2.46V607.62h3.45l2.81,7,2.81-7h3.46v11.55h-2.48Z" style="fill:#4dd0e1"/><path d="M703.64,613.4a6,6,0,1,1,6,6A5.8,5.8,0,0,1,703.64,613.4Zm9.54,0a3.52,3.52,0,1,0-3.52,3.79A3.51,3.51,0,0,0,713.19,613.4Z" style="fill:#4dd0e1"/><path d="M717.62,619.17V607.62h6.08c2.2,0,3.33,1.4,3.33,2.94a2.56,2.56,0,0,1-2,2.65,2.8,2.8,0,0,1,2.22,2.84,3,3,0,0,1-3.36,3.12h-6.27Zm6.89-8.17a1.24,1.24,0,0,0-1.35-1.26h-3.08v2.51h3.08A1.23,1.23,0,0,0,724.51,611Zm0.22,4.71a1.35,1.35,0,0,0-1.49-1.35h-3.17V617h3.17A1.3,1.3,0,0,0,724.74,615.7Z" style="fill:#4dd0e1"/><path d="M729.28,619.17V607.62h2.46v11.55h-2.46Z" style="fill:#4dd0e1"/><path d="M734.2,619.17V607.62h2.46V617h4.88v2.17H734.2Z" style="fill:#4dd0e1"/><path d="M743.43,619.17V607.62h8.17v2.17h-5.71v2.44h5.59v2.16h-5.59V617h5.71v2.17h-8.17Z" style="fill:#4dd0e1"/><path d="M323.9,705.34c0-4.07,3.55-6.74,7.27-7.75-3.46-.92-6.79-3.15-6.79-7,0-5.17,4.82-7.53,9.46-7.53s9.46,2.36,9.46,7.53c0,3.9-3.33,6.13-6.79,7,3.72,1,7.22,3.68,7.22,7.75,0,4.73-4.29,7.84-9.89,7.84S323.9,710.11,323.9,705.34Zm17.34-.18c0-4.46-5.65-6.22-7.4-6.43-1.79.22-7.4,2-7.4,6.43,0,3.55,3.5,5.74,7.4,5.74S341.24,708.71,341.24,705.16Zm-0.48-14.36c0-3.5-3.11-5.52-6.92-5.52s-6.92,2-6.92,5.52c0,4.07,5.17,5.38,6.92,5.73C335.64,696.19,340.76,694.87,340.76,690.8Z" style="fill:#ff5d8a"/><path d="M355,712.65V686.86l-4.68,5-1.53-1.62,6.43-6.79h2.28v29.2H355Z" style="fill:#ff5d8a"/><path d="M363.92,690.23c0-4.12,2.8-7.22,6.83-7.22s6.87,3.11,6.87,7.22a6.73,6.73,0,0,1-6.87,7.09C366.73,697.32,363.92,694.3,363.92,690.23Zm11.69,0c0-3.06-2-5.52-4.86-5.52s-4.82,2.45-4.82,5.52,2,5.43,4.82,5.43S375.61,693.16,375.61,690.23ZM368,712.65l18.65-29.2h2L370,712.65h-2ZM378.76,706c0-4.12,2.85-7.22,6.87-7.22s6.87,3.11,6.87,7.22A6.88,6.88,0,1,1,378.76,706Zm11.69,0c0-3-1.93-5.52-4.82-5.52s-4.86,2.5-4.86,5.52,2,5.43,4.86,5.43S390.45,709,390.45,706Z" style="fill:#ff5d8a"/><path d="M517.39,713.19l12.26-26.92H513.5V684h19.13v1.75l-12.48,27.45h-2.76Z" style="fill:#7c4dff"/><path d="M536.83,690.78c0-4.12,2.8-7.22,6.83-7.22s6.87,3.11,6.87,7.22a6.73,6.73,0,0,1-6.87,7.09C539.64,697.87,536.83,694.85,536.83,690.78Zm11.69,0c0-3.06-2-5.52-4.86-5.52s-4.82,2.45-4.82,5.52,2,5.43,4.82,5.43S548.52,693.71,548.52,690.78Zm-7.57,22.41L559.6,684h2l-18.69,29.2h-2Zm10.73-6.61c0-4.12,2.85-7.22,6.87-7.22s6.87,3.11,6.87,7.22A6.88,6.88,0,1,1,551.67,706.58Zm11.69,0c0-3-1.93-5.52-4.82-5.52s-4.86,2.5-4.86,5.52,2,5.43,4.86,5.43S563.36,709.56,563.36,706.58Z" style="fill:#7c4dff"/><path d="M686.3,713.1V687.32l-4.68,5-1.53-1.62,6.43-6.79h2.28v29.2h-2.5Z" style="fill:#4dd0e1"/><path d="M696.2,713.1V711c9.94-8,16.59-13.7,16.59-19.35,0-4.2-3.46-6-6.65-6a9.54,9.54,0,0,0-8,3.81L696.42,688a11.84,11.84,0,0,1,9.72-4.51c4.29,0,9.19,2.45,9.19,8.23,0,6.44-6.79,12.3-15.23,19.13h15.37v2.28H696.2Z" style="fill:#4dd0e1"/><path d="M722,690.69c0-4.12,2.8-7.22,6.83-7.22s6.87,3.11,6.87,7.22a6.73,6.73,0,0,1-6.87,7.09C724.83,697.78,722,694.76,722,690.69Zm11.69,0c0-3.06-2-5.52-4.86-5.52s-4.82,2.45-4.82,5.52,2,5.43,4.82,5.43S733.72,693.62,733.72,690.69Zm-7.57,22.41,18.65-29.2h2l-18.69,29.2h-2Zm10.73-6.61c0-4.12,2.85-7.22,6.87-7.22s6.87,3.11,6.87,7.22A6.88,6.88,0,1,1,736.87,706.49Zm11.69,0c0-3-1.93-5.52-4.82-5.52s-4.86,2.5-4.86,5.52,2,5.43,4.86,5.43S748.56,709.47,748.56,706.49Z" style="fill:#4dd0e1"/><path d="M356.71,765a66.17,66.17,0,0,1-46.12-18.59l5.55-5.76A58.49,58.49,0,1,0,356.71,640v-8A66.49,66.49,0,0,1,356.71,765Z" style="fill:#ff5d8a"/><path d="M538.87,766a66.49,66.49,0,1,1,66.49-66.49A66.56,66.56,0,0,1,538.87,766Zm0-125a58.49,58.49,0,1,0,58.49,58.49A58.56,58.56,0,0,0,538.87,641Z" style="fill:#f1f3f5"/><path d="M714.8,766a66.49,66.49,0,1,1,66.49-66.49A66.56,66.56,0,0,1,714.8,766Zm0-125a58.49,58.49,0,1,0,58.49,58.49A58.56,58.56,0,0,0,714.8,641Z" style="fill:#f1f3f5"/><path d="M583.41,661.56A58.44,58.44,0,0,0,538.87,641v-8a66.43,66.43,0,0,1,50.63,23.38Z" style="fill:#7c4dff"/><path d="M768.29,675.77A58.57,58.57,0,0,0,714.8,641v-8a66.58,66.58,0,0,1,60.8,39.54Z" style="fill:#4dd0e1"/><rect x="943.65" y="483.98" width="15.08" height="203.48" rx="1" ry="1" transform="translate(1536.91 -365.47) rotate(90)" style="fill:#f1f3f5"/><rect x="886.69" y="575.33" width="15.08" height="89.57" rx="1" ry="1" transform="translate(1514.35 -274.12) rotate(90)" style="fill:#f1f3f5"/><rect x="943.65" y="552.76" width="15.08" height="203.48" rx="1" ry="1" transform="translate(1605.69 -296.69) rotate(90)" style="fill:#f1f3f5"/><rect x="943.65" y="587.15" width="15.08" height="203.48" rx="1" ry="1" transform="translate(1640.08 -262.3) rotate(90)" style="fill:#f1f3f5"/><rect x="925.18" y="640.02" width="15.08" height="166.54" rx="1" ry="1" transform="translate(1656 -209.43) rotate(90)" style="fill:#f1f3f5"/><rect x="898.69" y="700.9" width="15.08" height="113.56" rx="1" ry="1" transform="translate(1663.9 -148.55) rotate(90)" style="fill:#f1f3f5"/><g style="opacity:0.6"><polyline points="213 534.04 237.67 492.34 249.67 511.68 293.29 440.42 321.33 501.01 337 475.68 359.33 516.34 409.67 437.88 437 494.34 448.67 480.34 460 505.01 498.87 426.34 510.67 444 531.33 409.01 577.96 506.5 598.33 453.01 627.67 373.95 651 448.83 676 420 693.78 461.01 721.95 355.01 755.33 464.34 777.08 447.68 777.08 533.54" style="fill:#5481ff"/><polygon points="213.86 534.55 212.14 533.53 237.65 490.42 249.66 509.77 293.42 438.3 321.46 498.9 337.05 473.69 359.4 514.39 409.79 435.84 437.23 492.51 448.91 478.49 460.03 502.69 498.74 424.35 510.62 442.12 531.43 406.89 577.85 503.96 597.4 452.65 627.75 370.85 651.42 446.82 676.28 418.14 693.55 457.97 721.88 351.37 755.87 462.68 778.08 445.65 778.08 533.54 776.08 533.54 776.08 449.7 754.8 466.01 722.01 358.65 694 464.05 675.72 421.86 650.58 450.85 627.59 377.05 599.27 453.36 578.06 509.03 531.24 411.13 510.72 445.88 499 428.34 459.97 507.33 448.42 482.2 436.77 496.18 409.55 439.93 359.27 518.3 336.95 477.66 321.21 503.12 293.17 442.53 249.67 513.58 237.69 494.27 213.86 534.55" style="fill:#2962ff"/></g></svg>