<?xml version="1.0" encoding="utf-8"?>
<!-- Generator: Adobe Illustrator 19.2.1, SVG Export Plug-In . SVG Version: 6.00 Build 0)  -->
<svg version="1.1" id="Layer_3" xmlns="http://www.w3.org/2000/svg" xmlns:xlink="http://www.w3.org/1999/xlink" x="0px" y="0px"
	 viewBox="0 0 540 540" style="enable-background:new 0 0 540 540;" xml:space="preserve">
<style type="text/css">
	.st0{fill:#9798E3;}
	.st1{fill:url(#SVGID_1_);}
	.st2{fill:url(#SVGID_2_);}
	.st3{fill:url(#SVGID_3_);}
	.st4{fill:url(#SVGID_4_);}
	.st5{fill:#6365D5;}
	.st6{fill:#FFFFFF;}
	.st7{fill:#CACBF1;}
	.st8{fill:#28B446;}
	.st9{fill:#219B38;}
	.st10{fill:#518EF8;}
	.st11{fill:#3ABCEB;}
	.st12{fill:#95BF46;}
	.st13{fill:#5E8E3E;}
	.st14{fill:#00AEEF;}
	.st15{fill:#369647;}
	.st16{fill:#AEEA00;}
	.st17{opacity:0.15;fill:url(#SVGID_5_);enable-background:new    ;}
	.st18{opacity:0.15;fill:url(#SVGID_6_);enable-background:new    ;}
	.st19{opacity:0.4;fill:url(#SVGID_7_);enable-background:new    ;}
	.st20{opacity:0.25;fill:url(#SVGID_8_);enable-background:new    ;}
	.st21{fill:#00749A;}
</style>
<title>SVG_compatibility</title>
<path class="st0" d="M270,208.9c-0.1,0-0.3,0-0.4-0.1c-0.1-0.1-0.2-0.1-0.3-0.2c-0.2-0.2-0.3-0.4-0.3-0.7c0-0.3,0.1-0.5,0.3-0.7
	c0.1-0.1,0.2-0.2,0.3-0.2c0.2-0.1,0.4-0.1,0.6-0.1c0.1,0,0.1,0,0.2,0.1c0.1,0,0.1,0.1,0.2,0.1c0.1,0,0.1,0.1,0.1,0.1
	c0.1,0.1,0.2,0.2,0.2,0.3l0.1,0.2c0,0.1,0,0.1,0,0.2c0,0.1,0,0.3-0.1,0.4c0,0.1-0.1,0.2-0.2,0.3c0,0.1-0.1,0.1-0.1,0.1l-0.2,0.1
	h-0.2C270.1,208.9,270.1,208.9,270,208.9z"/>
<path class="st0" d="M85.6,163.7h-0.2c-0.1,0-0.1,0-0.2-0.1l-0.2-0.1l-0.2-0.1c0,0-0.1-0.1-0.1-0.1c0-0.1-0.1-0.1-0.1-0.2
	c0-0.1-0.1-0.1-0.1-0.2c0-0.1,0-0.1,0-0.2c0-0.3,0.1-0.5,0.3-0.7c0,0,0.1-0.1,0.2-0.1l0.2-0.1h0.2c0.1,0,0.3,0,0.4,0H86
	c0.1,0,0.1,0.1,0.2,0.1c0.1,0,0.1,0.1,0.2,0.1c0.2,0.2,0.3,0.4,0.3,0.7c0,0.1,0,0.1,0,0.2c0,0.1,0,0.1-0.1,0.2
	c0,0.1-0.1,0.1-0.1,0.2c0,0.1-0.1,0.1-0.1,0.1C86.2,163.6,85.9,163.7,85.6,163.7z"/>
<linearGradient id="SVGID_1_" gradientUnits="userSpaceOnUse" x1="286.3328" y1="260.1157" x2="116.6228" y2="578.3157" gradientTransform="matrix(0.53 -0.85 0.85 0.53 -94.58 370.07)">
	<stop  offset="0" style="stop-color:#EDEEFA"/>
	<stop  offset="0.63" style="stop-color:#FFFFFF"/>
</linearGradient>
<polygon class="st1" points="534,534 534,424 270,270 270,534 "/>
<linearGradient id="SVGID_2_" gradientUnits="userSpaceOnUse" x1="318.6187" y1="315.9406" x2="33.7041" y2="555.016" gradientTransform="matrix(1 0 0 1 0 12)">
	<stop  offset="0" style="stop-color:#EDEEFA"/>
	<stop  offset="0.41" style="stop-color:#FFFFFF"/>
</linearGradient>
<polygon class="st2" points="6,534 270,534 270,270 6,425 "/>
<path class="st0" d="M332.3,305.9L332.3,305.9c0.2,0,0.3,0,0.5,0.1l0,0c0.5,0.3,0.6,0.9,0.4,1.4c0,0,0,0,0,0l0,0
	c-0.3,0.5-0.9,0.6-1.4,0.4c0,0,0,0,0,0l0,0c-0.5-0.3-0.6-0.9-0.4-1.4C331.6,306.1,332,305.9,332.3,305.9z M327.2,302.6L327.2,302.6
	c0.2,0,0.3,0,0.5,0.1l0,0c0.5,0.3,0.6,0.9,0.4,1.4c0,0,0,0,0,0l0,0c-0.3,0.5-0.9,0.6-1.4,0.4c0,0,0,0,0,0l0,0
	c-0.5-0.3-0.6-0.9-0.4-1.4C326.5,302.8,326.9,302.6,327.2,302.6L327.2,302.6z M338.5,309.4L338.5,309.4c0.2,0,0.3,0.1,0.5,0.1l0,0
	c0.5,0.3,0.6,0.9,0.4,1.4l0,0c-0.3,0.5-0.9,0.6-1.4,0.4c0,0,0,0,0,0l0,0c-0.5-0.3-0.6-0.9-0.4-1.4c0,0,0,0,0,0
	C337.8,309.6,338.1,309.4,338.5,309.4z M344.6,312.9L344.6,312.9c0.2,0,0.3,0.1,0.5,0.1l0,0c0.5,0.3,0.6,0.9,0.4,1.4l0,0
	c-0.3,0.5-0.9,0.6-1.4,0.4l0,0c-0.5-0.3-0.6-0.9-0.4-1.4C343.9,313.1,344.2,312.9,344.6,312.9L344.6,312.9z M350.7,316.4
	L350.7,316.4c0.2,0,0.3,0,0.5,0.1l0,0c0.5,0.3,0.6,0.9,0.4,1.4c0,0,0,0,0,0l0,0c-0.3,0.5-0.9,0.6-1.4,0.4l0,0
	c-0.5-0.3-0.6-0.9-0.4-1.4C350,316.6,350.3,316.4,350.7,316.4L350.7,316.4z M356.8,319.9L356.8,319.9c0.2,0,0.4,0,0.5,0.1l0,0
	c0.5,0.3,0.6,0.9,0.4,1.4l0,0c-0.3,0.5-0.9,0.6-1.4,0.4l0,0c-0.4-0.3-0.6-0.9-0.2-1.4C356.2,320.2,356.5,320,356.8,319.9
	L356.8,319.9z M362.9,323.5L362.9,323.5c0.2,0,0.3,0.1,0.5,0.1l0,0c0.5,0.3,0.6,0.9,0.4,1.4l0,0c-0.3,0.5-0.9,0.6-1.4,0.4
	c0,0,0,0,0,0l0,0c-0.5-0.3-0.6-0.9-0.4-1.4C362.2,323.7,362.5,323.5,362.9,323.5L362.9,323.5z M369,327L369,327c0.2,0,0.3,0,0.5,0.1
	l0,0c0.5,0.3,0.6,0.9,0.4,1.4c0,0,0,0,0,0l0,0c-0.3,0.5-0.9,0.6-1.4,0.4c0,0,0,0,0,0l0,0c-0.5-0.3-0.6-0.9-0.3-1.4
	C368.3,327.2,368.7,327,369,327z M375.1,330.5L375.1,330.5c0.2,0,0.3,0,0.5,0.1l0,0c0.5,0.3,0.6,0.9,0.4,1.4c0,0,0,0,0,0l0,0
	c-0.3,0.5-0.9,0.6-1.4,0.4l0,0c-0.5-0.3-0.6-0.9-0.4-1.4C374.4,330.7,374.7,330.5,375.1,330.5L375.1,330.5z M381.2,334L381.2,334
	c0.2,0,0.3,0,0.5,0.1l0,0c0.5,0.3,0.6,0.9,0.4,1.4c0,0,0,0,0,0l0,0c-0.3,0.5-0.9,0.6-1.4,0.4l0,0c-0.5-0.2-0.7-0.8-0.5-1.3
	C380.4,334.2,380.8,334,381.2,334L381.2,334z M387.3,337.6L387.3,337.6c0.2,0,0.3,0.1,0.5,0.1l0,0c0.5,0.3,0.6,0.9,0.4,1.4l0,0
	c-0.3,0.5-0.9,0.6-1.4,0.4l0,0c-0.5-0.3-0.7-0.9-0.4-1.4C386.6,337.8,386.9,337.6,387.3,337.6L387.3,337.6z M393.4,341.1
	L393.4,341.1c0.2,0,0.3,0,0.5,0.1l0,0c0.5,0.3,0.6,0.9,0.4,1.4c0,0,0,0,0,0l0,0c-0.3,0.5-0.9,0.6-1.4,0.4c0,0,0,0,0,0l0,0
	c-0.5-0.3-0.6-0.9-0.4-1.4C392.7,341.3,393,341.1,393.4,341.1L393.4,341.1z M399.5,344.6L399.5,344.6c0.2,0,0.3,0,0.5,0.1l0,0
	c0.5,0.3,0.6,0.9,0.4,1.4c0,0,0,0,0,0l0,0c-0.3,0.5-0.9,0.6-1.4,0.4c0,0,0,0,0,0l0,0c-0.5-0.3-0.7-0.9-0.4-1.4
	C398.8,344.8,399.1,344.6,399.5,344.6L399.5,344.6z M405.6,348.1L405.6,348.1c0.2,0,0.3,0,0.5,0.1l0,0c0.5,0.3,0.6,0.9,0.4,1.4
	c0,0,0,0,0,0l0,0c-0.3,0.5-0.9,0.6-1.4,0.4c0,0,0,0,0,0l0,0c-0.5-0.3-0.7-0.9-0.4-1.4C404.9,348.3,405.2,348.1,405.6,348.1
	L405.6,348.1z M411.7,351.6L411.7,351.6c0.2,0,0.3,0.1,0.5,0.1l0,0c0.5,0.3,0.6,0.9,0.4,1.4l0,0c-0.3,0.5-0.9,0.6-1.4,0.4
	c0,0,0,0,0,0l0,0c-0.5-0.3-0.6-0.9-0.4-1.4c0,0,0,0,0,0C411,351.9,411.3,351.7,411.7,351.6L411.7,351.6z M417.8,355.2L417.8,355.2
	c0.2,0,0.4,0,0.5,0.1l0,0c0.5,0.3,0.6,0.9,0.4,1.4c0,0,0,0,0,0l0,0c-0.3,0.5-0.9,0.6-1.4,0.4l0,0c-0.5-0.3-0.6-0.9-0.4-1.4
	C417.1,355.4,417.4,355.2,417.8,355.2L417.8,355.2z M423.9,358.7L423.9,358.7c0.2,0,0.3,0,0.5,0.1l0,0c0.5,0.3,0.6,0.9,0.4,1.4
	c0,0,0,0,0,0l0,0c-0.3,0.5-0.9,0.6-1.4,0.4l0,0c-0.5-0.3-0.7-0.9-0.4-1.4C423.2,358.9,423.5,358.7,423.9,358.7L423.9,358.7z
	 M430,362.2L430,362.2c0.2,0,0.3,0.1,0.5,0.1l0,0c0.5,0.3,0.6,0.9,0.4,1.4l0,0c-0.3,0.5-0.9,0.6-1.4,0.4l0,0
	c-0.5-0.3-0.6-0.9-0.4-1.4C429.3,362.4,429.6,362.2,430,362.2L430,362.2z M436.1,365.7L436.1,365.7c0.2,0,0.3,0.1,0.5,0.1l0,0
	c0.5,0.3,0.6,0.9,0.4,1.4l0,0c-0.3,0.5-0.9,0.6-1.4,0.4c0,0,0,0,0,0l0,0c-0.5-0.3-0.7-0.9-0.4-1.4
	C435.4,365.9,435.7,365.8,436.1,365.7L436.1,365.7z M442.2,369.3L442.2,369.3c0.2,0,0.3,0,0.5,0.1l0,0c0.5,0.3,0.6,0.9,0.4,1.4
	c0,0,0,0,0,0l0,0c-0.3,0.5-0.9,0.6-1.4,0.4c0,0,0,0,0,0l0,0c-0.5-0.3-0.6-0.9-0.4-1.4C441.5,369.5,441.8,369.3,442.2,369.3
	L442.2,369.3z M448.3,372.8L448.3,372.8c0.2,0,0.3,0,0.5,0.1l0,0c0.5,0.3,0.6,0.9,0.4,1.4c0,0,0,0,0,0l0,0c-0.3,0.5-0.9,0.6-1.4,0.4
	c0,0,0,0,0,0l0,0c-0.5-0.3-0.7-0.9-0.4-1.4C447.6,373,447.9,372.8,448.3,372.8L448.3,372.8z"/>
<path class="st0" d="M207.6,305.9L207.6,305.9c0.4,0,0.7,0.2,0.9,0.5l0,0c0.3,0.5,0.1,1.1-0.4,1.4c0,0,0,0,0,0l0,0
	c-0.5,0.3-1.1,0.1-1.4-0.4c0,0,0,0,0,0l0,0c-0.3-0.5-0.1-1.1,0.4-1.4C207.3,305.9,207.5,305.9,207.6,305.9z M201.5,309.4
	L201.5,309.4c0.4,0,0.7,0.2,0.9,0.5l0,0c0.3,0.5,0.1,1.1-0.4,1.4c0,0,0,0,0,0l0,0c-0.5,0.3-1.1,0.1-1.4-0.4c0,0,0,0,0,0l0,0
	c-0.3-0.5-0.1-1.1,0.4-1.4C201.2,309.4,201.4,309.4,201.5,309.4L201.5,309.4z M195.4,312.9L195.4,312.9c0.4,0,0.7,0.2,0.9,0.5l0,0
	c0.3,0.5,0.1,1.1-0.4,1.4c0,0,0,0,0,0l0,0c-0.5,0.3-1.1,0.1-1.4-0.4c0,0,0,0,0,0l0,0c-0.3-0.5-0.1-1.1,0.3-1.4c0,0,0,0,0.1,0
	C195.1,312.9,195.3,312.9,195.4,312.9L195.4,312.9z M219.8,298.8L219.8,298.8c0.4,0,0.7,0.2,0.9,0.5l0,0c0.3,0.5,0.1,1.1-0.4,1.4
	c0,0,0,0,0,0l0,0c-0.5,0.3-1.1,0.1-1.4-0.4c0,0,0,0,0,0l0,0c-0.3-0.5-0.1-1.1,0.4-1.4C219.5,298.8,219.7,298.8,219.8,298.8
	L219.8,298.8z M213.7,302.3L213.7,302.3c0.4,0,0.7,0.2,0.9,0.5l0,0c0.3,0.5,0.1,1.1-0.4,1.4c0,0,0,0,0,0l0,0
	c-0.5,0.3-1.1,0.1-1.4-0.4c0,0,0,0,0,0l0,0c-0.3-0.5-0.1-1.1,0.4-1.4c0,0,0,0,0,0C213.4,302.4,213.6,302.3,213.7,302.3L213.7,302.3z
	 M189.3,316.4L189.3,316.4c0.4,0,0.7,0.2,0.9,0.5l0,0c0.3,0.5,0.1,1.1-0.4,1.4l0,0c-0.5,0.3-1.1,0.1-1.4-0.4l0,0
	c-0.3-0.5-0.1-1.1,0.4-1.4C189,316.5,189.2,316.4,189.3,316.4L189.3,316.4z M183.2,319.9L183.2,319.9c0.4,0,0.7,0.2,0.9,0.5l0,0
	c0.3,0.5,0.1,1.1-0.4,1.4c0,0,0,0,0,0l0,0c-0.5,0.3-1.1,0.1-1.4-0.4l0,0c-0.3-0.5-0.1-1.1,0.4-1.4c0,0,0,0,0,0
	C182.9,320,183.1,320,183.2,319.9L183.2,319.9z M177.1,323.5L177.1,323.5c0.4,0,0.7,0.2,0.9,0.5l0,0c0.3,0.5,0.1,1.1-0.4,1.4
	c0,0,0,0,0,0l0,0c-0.5,0.3-1.1,0.1-1.4-0.4c0,0,0,0,0,0l0,0c-0.3-0.5-0.1-1.1,0.4-1.4C176.8,323.5,177,323.5,177.1,323.5
	L177.1,323.5z M171,327L171,327c0.4,0,0.7,0.2,0.9,0.5l0,0c0.3,0.5,0.1,1.1-0.4,1.4l0,0c-0.5,0.3-1.1,0.1-1.4-0.4c0,0,0,0,0,0l0,0
	c-0.3-0.5-0.1-1.1,0.4-1.4C170.7,327.1,170.8,327,171,327z M164.9,330.5L164.9,330.5c0.4,0,0.7,0.2,0.9,0.5l0,0
	c0.3,0.5,0.1,1.1-0.4,1.4c0,0,0,0,0,0l0,0c-0.5,0.3-1.1,0.1-1.4-0.4c0,0,0,0,0,0l0,0c-0.3-0.5-0.1-1.1,0.4-1.4c0,0,0,0,0,0
	C164.6,330.6,164.8,330.5,164.9,330.5L164.9,330.5z M158.8,334L158.8,334c0.4,0,0.7,0.2,0.9,0.5l0,0c0.3,0.5,0.1,1.1-0.4,1.4
	c0,0,0,0,0,0l0,0c-0.5,0.3-1.1,0.1-1.4-0.4c0,0,0,0,0,0l0,0c-0.3-0.5-0.1-1.1,0.4-1.4C158.5,334.1,158.6,334,158.8,334L158.8,334z
	 M152.7,337.6L152.7,337.6c0.4,0,0.7,0.2,0.9,0.5l0,0c0.3,0.5,0.1,1.1-0.4,1.4c0,0,0,0,0,0l0,0c-0.5,0.3-1.1,0.1-1.4-0.4
	c0,0,0,0,0,0l0,0c-0.3-0.5-0.1-1.1,0.4-1.4C152.4,337.6,152.5,337.6,152.7,337.6L152.7,337.6z M146.6,341.1L146.6,341.1
	c0.4,0,0.7,0.2,0.9,0.5l0,0c0.3,0.5,0.1,1.1-0.4,1.4l0,0c-0.5,0.3-1.1,0.1-1.4-0.4l0,0c-0.3-0.5-0.1-1.1,0.3-1.4
	C146.2,341.1,146.4,341.1,146.6,341.1L146.6,341.1z M140.5,344.6L140.5,344.6c0.4,0,0.7,0.2,0.9,0.5l0,0c0.3,0.5,0.1,1.1-0.4,1.4
	l0,0c-0.5,0.3-1.1,0.1-1.4-0.4l0,0c-0.3-0.5-0.1-1.1,0.3-1.4C140.1,344.7,140.3,344.6,140.5,344.6L140.5,344.6z M134.4,348.1
	L134.4,348.1c0.4,0,0.7,0.2,0.9,0.5l0,0c0.3,0.5,0.1,1.1-0.4,1.4c0,0,0,0,0,0l0,0c-0.5,0.3-1.1,0.1-1.4-0.4c0,0,0,0,0,0l0,0
	c-0.3-0.5-0.1-1.1,0.3-1.4C134,348.2,134.2,348.1,134.4,348.1L134.4,348.1z M128.3,351.7L128.3,351.7c0.4,0,0.7,0.2,0.9,0.5l0,0
	c0.3,0.5,0.1,1.1-0.4,1.4l0,0c-0.5,0.3-1.1,0.1-1.4-0.4c0,0,0,0,0,0l0,0c-0.3-0.5-0.1-1.1,0.4-1.4
	C128,351.7,128.1,351.6,128.3,351.7L128.3,351.7z M122.2,355.2L122.2,355.2c0.4,0,0.7,0.2,0.9,0.5l0,0c0.3,0.5,0.1,1.1-0.4,1.4l0,0
	c-0.5,0.3-1.1,0.1-1.4-0.4c0,0,0,0,0,0l0,0c-0.3-0.5-0.1-1.1,0.4-1.4c0,0,0,0,0,0C121.9,355.2,122,355.2,122.2,355.2L122.2,355.2z
	 M116.1,358.7L116.1,358.7c0.4,0,0.7,0.2,0.9,0.5l0,0c0.3,0.5,0.1,1.1-0.4,1.4c0,0,0,0,0,0l0,0c-0.5,0.3-1.1,0.1-1.4-0.4l0,0
	c-0.3-0.5-0.1-1.1,0.4-1.4c0,0,0,0,0,0C115.8,358.7,115.9,358.7,116.1,358.7L116.1,358.7z M110,362.2L110,362.2
	c0.4,0,0.7,0.2,0.9,0.5l0,0c0.3,0.5,0.1,1.1-0.4,1.4c0,0,0,0,0,0l0,0c-0.5,0.3-1.1,0.1-1.4-0.4l0,0c-0.3-0.5-0.1-1.1,0.4-1.4
	C109.7,362.3,109.8,362.2,110,362.2z M103.9,365.8L103.9,365.8c0.4,0,0.7,0.2,0.9,0.5l0,0c0.3,0.5,0.1,1.1-0.4,1.4l0,0
	c-0.5,0.3-1.1,0.1-1.4-0.4l0,0c-0.3-0.5-0.1-1.1,0.4-1.4c0,0,0,0,0,0C103.6,365.8,103.7,365.7,103.9,365.8L103.9,365.8z M97.8,369.3
	L97.8,369.3c0.4,0,0.7,0.2,0.9,0.5l0,0c0.3,0.5,0.1,1.1-0.4,1.4l0,0c-0.5,0.3-1.1,0.1-1.4-0.4c0,0,0,0,0,0l0,0
	c-0.3-0.5-0.1-1.1,0.4-1.4C97.5,369.3,97.6,369.3,97.8,369.3L97.8,369.3z M91.7,372.8L91.7,372.8c0.4,0,0.7,0.2,0.9,0.5l0,0
	c0.3,0.5,0.1,1.1-0.4,1.4c0,0,0,0,0,0l0,0c-0.5,0.3-1.1,0.1-1.4-0.4l0,0c-0.3-0.5-0.1-1.1,0.4-1.4c0,0,0,0,0,0
	C91.4,372.8,91.5,372.8,91.7,372.8L91.7,372.8z"/>
<linearGradient id="SVGID_3_" gradientUnits="userSpaceOnUse" x1="321.327" y1="312.0745" x2="100.5188" y2="548.2519" gradientTransform="matrix(0.5289 0.8487 0.8487 -0.5289 -93.8764 181.3412)">
	<stop  offset="0" style="stop-color:#EDEEFA"/>
	<stop  offset="0.63" style="stop-color:#FFFFFF"/>
</linearGradient>
<polygon class="st3" points="534,6 534,116 270,270 270,6 "/>
<linearGradient id="SVGID_4_" gradientUnits="userSpaceOnUse" x1="318.6187" y1="327.9406" x2="33.7041" y2="567.016" gradientTransform="matrix(1 0 0 -1 0 540)">
	<stop  offset="0" style="stop-color:#EDEEFA"/>
	<stop  offset="0.41" style="stop-color:#FFFFFF"/>
</linearGradient>
<polygon class="st4" points="6,6 270,6 270,270 6,115 "/>
<path class="st0" d="M269,200.9c0-0.6,0.4-1,1-1l0,0c0.6,0,1,0.4,1,1l0,0c0,0.6-0.4,1-1,1l0,0C269.4,201.9,269,201.5,269,200.9z
	 M269,207.9c0-0.6,0.4-1,1-1l0,0c0.6,0,1,0.4,1,1l0,0c0,0.6-0.4,1-1,1l0,0C269.5,208.9,269,208.5,269,207.9L269,207.9z M269,193.8
	c0-0.6,0.4-1,1-1l0,0c0.6,0,1,0.4,1,1l0,0c0,0.6-0.4,1-1,1l0,0C269.5,194.8,269,194.4,269,193.8L269,193.8z M269,186.8
	c0-0.6,0.4-1,1-1l0,0c0.6,0,1,0.4,1,1l0,0c0,0.6-0.4,1-1,1l0,0C269.4,187.8,269,187.4,269,186.8z M269,179.8c0-0.6,0.4-1,1-1l0,0
	c0.6,0,1,0.4,1,1l0,0c0,0.6-0.4,1-1,1l0,0C269.4,180.8,269,180.4,269,179.8C269,179.8,269,179.8,269,179.8L269,179.8z M269,172.8
	c0-0.6,0.4-1,1-1l0,0c0.6,0,1,0.4,1,1l0,0c0,0.6-0.4,1-1,1l0,0C269.4,173.8,269,173.4,269,172.8C269,172.8,269,172.8,269,172.8
	L269,172.8z M269,165.8c0-0.6,0.4-1,1-1l0,0c0.6,0,1,0.4,1,1l0,0c0,0.6-0.4,1-1,1l0,0C269.4,166.8,269,166.3,269,165.8
	C269,165.7,269,165.7,269,165.8L269,165.8z M269,158.8c0-0.6,0.4-1,1-1l0,0c0.6,0,1,0.4,1,1l0,0c0,0.6-0.4,1-1,1l0,0
	C269.4,159.8,269,159.3,269,158.8c0,0,0-0.1,0-0.1V158.8z M269,151.7c0-0.6,0.4-1,1-1l0,0c0.6,0,1,0.4,1,1l0,0c0,0.6-0.4,1-1,1l0,0
	C269.4,152.7,269,152.3,269,151.7c0,0,0-0.1,0-0.1V151.7z M269,144.7c0-0.6,0.4-1,1-1l0,0c0.6,0,1,0.4,1,1l0,0c0,0.6-0.4,1-1,1l0,0
	C269.4,145.7,269,145.3,269,144.7c0,0,0-0.1,0-0.2V144.7z M269,137.7c0-0.6,0.4-1,1-1l0,0c0.6,0,1,0.4,1,1l0,0c0,0.6-0.4,1-1,1l0,0
	C269.4,138.7,269,138.3,269,137.7c0-0.1,0-0.1,0-0.2V137.7z M269,130.7c0-0.6,0.4-1,1-1l0,0c0.6,0,1,0.4,1,1l0,0c0,0.6-0.4,1-1,1
	l0,0C269.4,131.7,269,131.2,269,130.7c0-0.1,0-0.1,0-0.2V130.7z M269,123.7c0-0.6,0.4-1,1-1l0,0c0.6,0,1,0.4,1,1l0,0
	c0,0.6-0.4,1-1,1l0,0C269.4,124.7,269,124.3,269,123.7c0-0.1,0-0.2,0-0.3V123.7z M269,116.7c0-0.6,0.4-1,1-1l0,0c0.6,0,1,0.4,1,1
	l0,0c0,0.6-0.4,1-1,1l0,0C269.4,117.7,269,117.3,269,116.7c-0.1-0.1,0-0.2,0-0.3V116.7z M269,109.7c0-0.6,0.4-1,1-1l0,0
	c0.6,0,1,0.4,1,1l0,0c0,0.6-0.4,1-1,1l0,0C269.4,110.7,269,110.3,269,109.7c-0.1-0.1,0-0.2,0-0.3V109.7z M269,102.7c0-0.6,0.4-1,1-1
	l0,0c0.6,0,1,0.4,1,1l0,0c0,0.6-0.4,1-1,1l0,0C269.4,103.7,269,103.3,269,102.7c-0.1-0.1-0.1-0.2,0-0.4V102.7z M269,95.7
	c0-0.6,0.4-1,1-1l0,0c0.6,0,1,0.4,1,1l0,0c0,0.6-0.4,1-1,1l0,0c-0.5,0.1-1-0.3-1.1-0.9c0-0.2,0-0.4,0.1-0.6V95.7z M269,88.6
	c0-0.6,0.4-1,1-1l0,0c0.6,0,1,0.4,1,1l0,0c0,0.6-0.4,1-1,1l0,0c-0.5,0.1-1-0.3-1.1-0.9c0-0.2,0-0.4,0.1-0.6V88.6z M269,81.6
	c0-0.6,0.4-1,1-1l0,0c0.6,0,1,0.4,1,1l0,0c0,0.6-0.4,1-1,1l0,0c-0.5,0.1-1-0.3-1.1-0.9c0-0.2,0-0.4,0.1-0.6V81.6z M269,74.6
	c0-0.6,0.4-1,1-1l0,0c0.6,0,1,0.4,1,1l0,0c0,0.6-0.4,1-1,1l0,0c-0.5,0.1-1-0.3-1.1-0.9c0-0.2,0-0.4,0.1-0.6V74.6z"/>
<path class="st0" d="M207.1,234c-0.5-0.3-0.6-0.9-0.4-1.4c0,0,0,0,0,0l0,0c0.3-0.5,0.9-0.6,1.4-0.4c0,0,0,0,0,0l0,0
	c0.5,0.3,0.6,0.9,0.4,1.4c0,0,0,0,0,0l0,0c-0.2,0.3-0.5,0.5-0.9,0.5l0,0C207.5,234.1,207.3,234.1,207.1,234z M201,230.5
	c-0.5-0.3-0.6-0.9-0.4-1.4l0,0c0.3-0.5,0.9-0.6,1.4-0.4c0,0,0,0,0,0l0,0c0.5,0.3,0.6,0.9,0.4,1.4c0,0,0,0,0,0l0,0
	c-0.2,0.3-0.5,0.5-0.9,0.5l0,0C201.4,230.6,201.2,230.6,201,230.5L201,230.5z M195,227c-0.5-0.3-0.6-0.9-0.4-1.4c0,0,0,0,0,0l0,0
	c0.3-0.5,0.9-0.6,1.4-0.4c0,0,0,0,0,0l0,0c0.5,0.3,0.6,0.9,0.4,1.4c0,0,0,0,0,0l0,0c-0.2,0.3-0.5,0.5-0.9,0.5l0,0
	C195.3,227.1,195.2,227.1,195,227z M188.9,223.5c-0.5-0.3-0.6-0.9-0.4-1.4c0,0,0,0,0,0l0,0c0.3-0.5,0.9-0.6,1.4-0.4l0,0
	c0.5,0.3,0.6,0.9,0.4,1.4l0,0c-0.2,0.3-0.5,0.5-0.9,0.5l0,0C189.2,223.6,189,223.5,188.9,223.5L188.9,223.5z M182.8,220
	c-0.5-0.3-0.6-0.9-0.4-1.4c0,0,0,0,0,0l0,0c0.3-0.5,0.9-0.6,1.4-0.4l0,0c0.5,0.3,0.6,0.9,0.4,1.4c0,0,0,0,0,0l0,0
	c-0.2,0.3-0.5,0.5-0.9,0.5l0,0C183.1,220.1,182.9,220,182.8,220L182.8,220z M176.7,216.4c-0.5-0.3-0.6-0.9-0.4-1.4l0,0
	c0.3-0.5,0.9-0.6,1.4-0.4c0,0,0,0,0,0l0,0c0.4,0.3,0.6,0.9,0.3,1.3l0,0c-0.2,0.3-0.5,0.5-0.9,0.5l0,0
	C177,216.5,176.8,216.5,176.7,216.4L176.7,216.4z M170.6,212.9c-0.5-0.3-0.6-0.9-0.4-1.4l0,0c0.3-0.5,0.9-0.6,1.4-0.4c0,0,0,0,0,0
	l0,0c0.5,0.3,0.6,0.9,0.4,1.4l0,0c-0.2,0.3-0.5,0.5-0.9,0.5l0,0C170.9,213,170.7,213,170.6,212.9L170.6,212.9z M164.5,209.4
	c-0.5-0.3-0.6-0.9-0.4-1.4c0,0,0,0,0,0l0,0c0.3-0.5,0.9-0.6,1.4-0.4c0,0,0,0,0,0l0,0c0.5,0.3,0.6,0.9,0.4,1.4c0,0,0,0,0,0l0,0
	c-0.2,0.3-0.5,0.5-0.9,0.5l0,0C164.8,209.5,164.6,209.5,164.5,209.4L164.5,209.4z M158.4,205.9c-0.5-0.3-0.6-0.9-0.4-1.4l0,0
	c0.3-0.5,0.9-0.6,1.4-0.4c0,0,0,0,0,0l0,0c0.5,0.3,0.6,0.9,0.4,1.4c0,0,0,0,0,0l0,0c-0.2,0.3-0.5,0.5-0.9,0.5l0,0
	C158.7,206,158.5,205.9,158.4,205.9L158.4,205.9z M152.3,202.3c-0.5-0.3-0.6-0.9-0.4-1.4l0,0c0.3-0.5,0.9-0.6,1.4-0.4c0,0,0,0,0,0
	l0,0c0.5,0.3,0.6,0.9,0.4,1.4c0,0,0,0,0,0l0,0c-0.2,0.3-0.5,0.5-0.9,0.5l0,0C152.6,202.5,152.4,202.4,152.3,202.3L152.3,202.3z
	 M146.2,198.8c-0.5-0.3-0.6-0.9-0.4-1.4c0,0,0,0,0,0l0,0c0.3-0.5,0.9-0.6,1.4-0.4l0,0c0.5,0.3,0.6,0.9,0.4,1.4l0,0
	c-0.2,0.3-0.5,0.5-0.9,0.5l0,0C146.5,198.9,146.3,198.9,146.2,198.8L146.2,198.8z M140.1,195.3c-0.5-0.3-0.6-0.9-0.4-1.4
	c0,0,0,0,0,0l0,0c0.3-0.5,0.9-0.6,1.4-0.4l0,0c0.5,0.3,0.6,0.9,0.4,1.4l0,0c-0.2,0.3-0.5,0.5-0.9,0.5l0,0
	C140.4,195.4,140.2,195.4,140.1,195.3L140.1,195.3z M134,191.8c-0.5-0.3-0.6-0.9-0.4-1.4c0,0,0,0,0,0l0,0c0.3-0.5,0.9-0.6,1.4-0.4
	c0,0,0,0,0,0l0,0c0.5,0.3,0.6,0.9,0.4,1.4c0,0,0,0,0,0l0,0c-0.2,0.3-0.5,0.5-0.9,0.5l0,0C134.3,191.9,134.1,191.8,134,191.8
	L134,191.8z M127.9,188.2c-0.5-0.3-0.6-0.9-0.4-1.4l0,0c0.3-0.5,0.9-0.6,1.4-0.4c0,0,0,0,0,0l0,0c0.5,0.3,0.6,0.9,0.4,1.4l0,0
	c-0.2,0.3-0.5,0.5-0.9,0.5l0,0C128.2,188.4,128,188.3,127.9,188.2L127.9,188.2z M121.8,184.7c-0.5-0.3-0.6-0.9-0.4-1.4c0,0,0,0,0,0
	l0,0c0.3-0.5,0.9-0.6,1.4-0.4c0,0,0,0,0,0l0,0c0.5,0.3,0.6,0.9,0.4,1.4l0,0c-0.2,0.3-0.5,0.5-0.9,0.5l0,0
	C122.1,184.9,121.9,184.8,121.8,184.7L121.8,184.7z M115.7,181.2c-0.5-0.3-0.6-0.9-0.4-1.4c0,0,0,0,0,0l0,0c0.3-0.5,0.9-0.6,1.4-0.4
	l0,0c0.5,0.3,0.6,0.9,0.4,1.4c0,0,0,0,0,0l0,0c-0.2,0.3-0.5,0.5-0.9,0.5l0,0C116,181.3,115.8,181.3,115.7,181.2L115.7,181.2z
	 M109.6,177.7c-0.5-0.3-0.6-0.9-0.4-1.4l0,0c0.3-0.5,0.9-0.6,1.4-0.4l0,0c0.5,0.3,0.6,0.9,0.4,1.4c0,0,0,0,0,0l0,0
	c-0.2,0.3-0.5,0.5-0.9,0.5l0,0C109.9,177.8,109.7,177.8,109.6,177.7L109.6,177.7z M103.5,174.2c-0.5-0.3-0.6-0.9-0.4-1.4
	c0,0,0,0,0,0l0,0c0.3-0.5,0.9-0.6,1.4-0.4l0,0c0.5,0.3,0.6,0.9,0.4,1.4l0,0c-0.2,0.3-0.5,0.5-0.9,0.5l0,0
	C103.8,174.3,103.6,174.2,103.5,174.2L103.5,174.2z M97.4,170.6c-0.5-0.3-0.6-0.9-0.4-1.4c0,0,0,0,0,0l0,0c0.3-0.5,0.9-0.6,1.4-0.4
	c0,0,0,0,0,0l0,0c0.5,0.3,0.6,0.9,0.4,1.4l0,0c-0.2,0.3-0.5,0.5-0.9,0.5l0,0C97.7,170.8,97.5,170.7,97.4,170.6L97.4,170.6z
	 M91.3,167.1c-0.5-0.3-0.6-0.9-0.4-1.4c0,0,0,0,0,0l0,0c0.3-0.5,0.9-0.6,1.4-0.4l0,0c0.5,0.3,0.6,0.9,0.4,1.4c0,0,0,0,0,0l0,0
	c-0.2,0.3-0.5,0.5-0.9,0.5l0,0C91.6,167.2,91.4,167.2,91.3,167.1L91.3,167.1z"/>
<path class="st5" d="M321.5,281.9l-15.4-15.2l8.3-36.1c1.9-8.4-3.5-15.3-12.2-15.3h-73.6c-8.7,0-14.4,6.9-12.8,15.5l10.9,58.3
	c1,5.5,6.3,9.2,11.8,8.2c0.1,0,0.2,0,0.3-0.1l9-1.9l-0.8,15.3c-0.4,8.6,9,13,15.2,6.7l8.5-8.7l9.6,25.3c2,5.2,7.5,8,12.9,6.6
	l14.3-3.9c5.3-1.4,8.5-6.8,7.1-12.1c-0.2-0.7-0.4-1.4-0.8-2.1l-12.6-25.1h14C323.8,297.2,327.5,287.8,321.5,281.9z"/>
<path class="st6" d="M318,289.5c-0.5,1.1-1.6,1.7-2.8,1.5H291l17.2,34.2c0.5,1,0.6,2.2,0.1,3.2c-0.5,1-1.4,1.8-2.5,2.1l-14.3,3.9
	c-0.4,0.1-0.7,0.1-1.1,0.1l0,0c-1.9,0-3.6-1.2-4.3-2.9l-13-34.4v-0.1l-0.1,0.1l-15.4,15.7c-0.5,0.6-1.3,1-2.2,1.1
	c-0.6,0-1.1-0.2-1.6-0.7c-0.6-0.7-0.8-1.5-0.7-2.4l3.6-69.2c0.3-5.2,2.9-7,5.2-7c1.8,0,3.6,1,5.5,2.8l49.5,48.9
	C318.1,287.1,318.4,288.3,318,289.5z"/>
<path class="st7" d="M279.6,402c0-0.6,0.4-1,0.9-1.1c0,0,0,0,0,0l0,0c0.5,0,1,0.4,1.1,0.9l0,0c0,0.5-0.4,1-0.9,1.1h-0.1
	C280.1,402.9,279.7,402.5,279.6,402z M259.3,402.9c-0.5,0-1-0.5-0.9-1.1l0,0c0-0.5,0.5-1,1.1-0.9l0,0c0.6,0,1,0.5,0.9,1.1
	c0,0,0,0,0,0l0,0C260.4,402.5,259.9,402.9,259.3,402.9L259.3,402.9L259.3,402.9z M286.6,401.3c-0.1-0.5,0.3-1.1,0.9-1.1c0,0,0,0,0,0
	l0,0c0.5-0.1,1,0.3,1.1,0.9l0,0c0.1,0.5-0.3,1-0.9,1.1h-0.1C287,402.2,286.6,401.8,286.6,401.3L286.6,401.3z M252.3,402.2
	L252.3,402.2c-0.5-0.1-0.9-0.6-0.9-1.1l0,0c0.1-0.5,0.6-0.9,1.1-0.9l0,0c0.5,0.1,0.9,0.6,0.9,1.1l0,0c-0.1,0.5-0.5,0.9-1,0.9
	L252.3,402.2L252.3,402.2z M245.4,401c-0.5-0.1-0.9-0.6-0.8-1.2c0,0,0,0,0,0l0,0c0.1-0.5,0.6-0.9,1.2-0.8c0,0,0,0,0,0l0,0
	c0.5,0.1,0.9,0.6,0.8,1.2c0,0,0,0,0,0l0,0c-0.1,0.5-0.5,0.8-1,0.8l0,0L245.4,401z M293.5,400.2c-0.1-0.5,0.3-1.1,0.8-1.2
	c0,0,0,0,0,0l0,0c0.5-0.1,1.1,0.3,1.2,0.8c0,0,0,0,0,0l0,0c0.1,0.5-0.3,1.1-0.8,1.2c0,0,0,0,0,0l0,0h-0.2l0,0
	C294,401,293.6,400.7,293.5,400.2L293.5,400.2z M238.5,399.5c-0.5-0.1-0.9-0.7-0.7-1.2l0,0c0.1-0.5,0.7-0.9,1.2-0.7l0,0
	c0.5,0.1,0.9,0.7,0.7,1.2c0,0,0,0,0,0l0,0c-0.1,0.5-0.5,0.8-1,0.8l0,0C238.6,399.6,238.6,399.6,238.5,399.5L238.5,399.5z
	 M300.2,398.8c-0.1-0.5,0.2-1.1,0.7-1.2l0,0c0.5-0.1,1.1,0.2,1.2,0.7c0,0,0,0,0,0l0,0c0.1,0.5-0.2,1.1-0.7,1.2l0,0
	c-0.1,0-0.2,0-0.2,0l0,0C300.8,399.5,300.4,399.2,300.2,398.8L300.2,398.8z M231.7,397.7c-0.5-0.2-0.8-0.7-0.7-1.2l0,0
	c0.2-0.5,0.7-0.8,1.2-0.7c0,0,0,0,0,0l0,0c0.5,0.1,0.9,0.7,0.8,1.2c0,0,0,0,0,0l0,0c-0.1,0.4-0.5,0.7-1,0.7l0,0
	C231.9,397.7,231.8,397.7,231.7,397.7L231.7,397.7z M307,397c-0.2-0.5,0.1-1.1,0.7-1.2l0,0c0.5-0.2,1.1,0.1,1.2,0.7c0,0,0,0,0,0l0,0
	c0.2,0.5-0.1,1.1-0.7,1.2l0,0c-0.1,0-0.2,0-0.3,0l0,0C307.5,397.7,307.2,397.4,307,397L307,397z M225,395.5
	c-0.5-0.2-0.8-0.8-0.6-1.3l0,0c0.2-0.5,0.8-0.8,1.3-0.6l0,0c0.5,0.2,0.8,0.8,0.6,1.3l0,0c-0.1,0.4-0.5,0.7-0.9,0.7l0,0
	C225.2,395.6,225.1,395.5,225,395.5L225,395.5z M313.7,394.9c-0.2-0.5,0.1-1.1,0.6-1.3l0,0c0.5-0.2,1.1,0.1,1.3,0.6c0,0,0,0,0,0l0,0
	c0.2,0.5-0.1,1.1-0.6,1.3l0,0c-0.1,0-0.2,0.1-0.3,0.1l0,0C314.2,395.5,313.8,395.3,313.7,394.9L313.7,394.9z M218.5,393
	c-0.5-0.2-0.7-0.8-0.5-1.3l0,0c0.2-0.5,0.8-0.8,1.3-0.5c0,0,0,0,0,0l0,0c0.5,0.2,0.7,0.8,0.5,1.3l0,0c-0.2,0.4-0.5,0.6-0.9,0.6l0,0
	C218.7,393.1,218.6,393,218.5,393z M320.2,392.5c-0.2-0.5,0-1.1,0.5-1.3l0,0c0.5-0.2,1.1,0,1.3,0.5c0,0,0,0,0,0l0,0
	c0.2,0.5,0,1.1-0.5,1.3l0,0c-0.1,0-0.3,0.1-0.4,0.1l0,0C320.7,393.1,320.4,392.8,320.2,392.5L320.2,392.5z M212,390.1
	c-0.5-0.2-0.7-0.8-0.5-1.3l0,0c0.2-0.5,0.8-0.7,1.3-0.5l0,0c0.5,0.2,0.7,0.8,0.5,1.3c0,0,0,0,0,0l0,0c-0.2,0.3-0.5,0.6-0.9,0.6l0,0
	C212.3,390.2,212.2,390.1,212,390.1L212,390.1z M326.6,389.6c-0.2-0.5,0-1.1,0.5-1.3c0,0,0,0,0,0l0,0c0.5-0.2,1.1,0,1.3,0.5l0,0
	c0.2,0.5,0,1.1-0.5,1.3l0,0c-0.1,0.1-0.3,0.1-0.4,0.1l0,0C327.1,390.2,326.7,390,326.6,389.6L326.6,389.6z M332.8,386.5
	c-0.3-0.5-0.1-1.1,0.4-1.4c0,0,0,0,0,0l0,0c0.5-0.3,1.1-0.1,1.4,0.4c0,0,0,0,0,0l0,0c0.3,0.5,0.1,1.1-0.4,1.4c0,0,0,0,0,0l0,0
	c-0.1,0.1-0.3,0.1-0.5,0.1l0,0C333.3,387,333,386.8,332.8,386.5L332.8,386.5z M205.8,386.9c-0.5-0.3-0.7-0.9-0.4-1.4c0,0,0,0,0,0
	l0,0c0.3-0.5,0.9-0.7,1.4-0.4c0,0,0,0,0,0l0,0c0.5,0.3,0.7,0.9,0.4,1.4c0,0,0,0,0,0l0,0c-0.2,0.3-0.5,0.5-0.9,0.5l0,0
	C206.1,387,205.9,386.9,205.8,386.9L205.8,386.9z M338.8,383c-0.3-0.5-0.1-1.1,0.3-1.4c0,0,0,0,0,0l0,0c0.5-0.3,1.1-0.1,1.4,0.3l0,0
	c0.3,0.5,0.2,1.1-0.3,1.4c0,0,0,0,0,0l0,0c-0.2,0.1-0.3,0.1-0.5,0.1l0,0C339.3,383.5,339,383.3,338.8,383L338.8,383z M199.7,383.3
	c-0.5-0.3-0.6-0.9-0.3-1.4c0,0,0,0,0,0l0,0c0.3-0.5,0.9-0.6,1.4-0.3c0,0,0,0,0,0l0,0c0.5,0.3,0.6,0.9,0.3,1.4c0,0,0,0,0,0l0,0
	c-0.2,0.3-0.5,0.5-0.9,0.5l0,0C200,383.4,199.9,383.4,199.7,383.3L199.7,383.3z M344.7,379.2c-0.3-0.5-0.2-1.1,0.2-1.4l0,0
	c0.5-0.3,1.1-0.2,1.4,0.2l0,0c0.3,0.5,0.2,1.1-0.2,1.4l0,0c-0.2,0.1-0.4,0.2-0.6,0.2l0,0C345.2,379.6,344.9,379.4,344.7,379.2
	L344.7,379.2z M193.8,379.4L193.8,379.4c-0.5-0.3-0.6-0.9-0.2-1.4l0,0c0.3-0.5,0.9-0.6,1.4-0.3c0,0,0,0,0,0l0,0
	c0.4,0.3,0.6,0.9,0.2,1.4l0,0c-0.2,0.3-0.5,0.4-0.8,0.4l0,0C194.2,379.6,194,379.5,193.8,379.4L193.8,379.4z M350.3,375.1
	c-0.3-0.4-0.3-1.1,0.2-1.4l0,0c0.4-0.3,1.1-0.3,1.4,0.2l0,0c0.3,0.4,0.3,1.1-0.2,1.4c0,0,0,0,0,0l0,0c-0.2,0.1-0.4,0.2-0.6,0.2l0,0
	C350.8,375.5,350.5,375.3,350.3,375.1L350.3,375.1z M188.2,375.2c-0.4-0.3-0.5-1-0.2-1.4l0,0c0.3-0.4,1-0.5,1.4-0.2c0,0,0,0,0,0l0,0
	c0.4,0.3,0.5,1,0.2,1.4c0,0,0,0,0,0l0,0c-0.2,0.2-0.5,0.4-0.8,0.4l0,0C188.6,375.4,188.3,375.3,188.2,375.2L188.2,375.2z
	 M355.8,370.7c-0.4-0.4-0.3-1,0.1-1.4l0,0c0.4-0.4,1-0.3,1.4,0.1l0,0c0.4,0.4,0.3,1-0.1,1.4l0,0c-0.2,0.2-0.4,0.2-0.7,0.2l0,0
	C356.2,371,356,370.9,355.8,370.7L355.8,370.7z M182.8,370.8c-0.4-0.4-0.5-1-0.1-1.4l0,0c0.4-0.4,1-0.5,1.4-0.1l0,0
	c0.4,0.4,0.5,1,0.1,1.4l0,0c-0.2,0.2-0.5,0.3-0.8,0.3l0,0C183.2,371,182.9,370.9,182.8,370.8L182.8,370.8z M361,366
	c-0.4-0.4-0.4-1,0-1.4l0,0c0.4-0.4,1-0.4,1.4,0l0,0c0.4,0.4,0.4,1,0,1.4l0,0c-0.2,0.2-0.4,0.3-0.7,0.3l0,0
	C361.4,366.3,361.2,366.2,361,366z M177.6,366c-0.4-0.4-0.4-1,0-1.4c0,0,0,0,0,0l0,0c0.4-0.4,1-0.4,1.4,0c0,0,0,0,0,0l0,0
	c0.4,0.4,0.4,1,0,1.4l0,0c-0.2,0.2-0.4,0.3-0.7,0.3l0,0C178,366.3,177.7,366.2,177.6,366L177.6,366z M365.9,361.1
	c-0.4-0.4-0.4-1,0-1.4l0,0c0.4-0.4,1-0.4,1.4,0l0,0c0.4,0.4,0.4,1,0,1.4l0,0c-0.2,0.2-0.5,0.3-0.7,0.3l0,0
	C366.3,361.4,366.1,361.3,365.9,361.1L365.9,361.1z M172.6,361c-0.4-0.4-0.4-1,0-1.4c0,0,0,0,0,0l0,0c0.4-0.4,1-0.4,1.4,0
	c0,0,0,0,0,0l0,0c0.4,0.4,0.4,1,0,1.4l0,0c-0.2,0.2-0.4,0.3-0.7,0.3l0,0C173.1,361.3,172.8,361.2,172.6,361z M370.6,355.9
	c-0.4-0.4-0.5-1-0.1-1.4c0,0,0,0,0,0l0,0c0.4-0.4,1-0.5,1.4-0.1c0,0,0,0,0,0l0,0c0.4,0.4,0.5,1,0.1,1.4c0,0,0,0,0,0l0,0
	c-0.2,0.2-0.5,0.4-0.8,0.4l0,0C371,356.1,370.8,356.1,370.6,355.9L370.6,355.9z M168,355.7c-0.4-0.4-0.3-1.1,0.1-1.4c0,0,0,0,0,0
	l0,0c0.4-0.4,1.1-0.3,1.4,0.1c0,0,0,0,0,0l0,0c0.4,0.4,0.3,1.1-0.1,1.4c0,0,0,0,0,0l0,0c-0.2,0.2-0.4,0.2-0.6,0.2l0,0
	C168.5,356.1,168.2,355.9,168,355.7z M375,350.5c-0.4-0.3-0.5-1-0.2-1.4l0,0c0.3-0.4,1-0.5,1.4-0.2l0,0c0.4,0.3,0.5,1,0.2,1.4l0,0
	c-0.2,0.2-0.5,0.4-0.8,0.4l0,0C375.4,350.7,375.2,350.6,375,350.5z M163.6,350.2c-0.3-0.4-0.2-1.1,0.2-1.4l0,0
	c0.4-0.3,1.1-0.2,1.4,0.2l0,0c0.3,0.4,0.3,1.1-0.2,1.4c0,0,0,0,0,0l0,0c-0.2,0.1-0.4,0.2-0.6,0.2l0,0
	C164.1,350.6,163.8,350.5,163.6,350.2L163.6,350.2z M379.1,344.8c-0.5-0.3-0.6-0.9-0.3-1.4l0,0c0.3-0.5,0.9-0.6,1.4-0.3c0,0,0,0,0,0
	l0,0c0.5,0.3,0.6,0.9,0.3,1.4c0,0,0,0,0,0l0,0c-0.2,0.3-0.5,0.4-0.8,0.4l0,0C379.5,345,379.3,344.9,379.1,344.8L379.1,344.8z
	 M159.5,344.5c-0.3-0.5-0.2-1.1,0.3-1.4c0,0,0,0,0,0l0,0c0.5-0.3,1.1-0.2,1.4,0.3l0,0c0.3,0.5,0.2,1.1-0.3,1.4l0,0
	c-0.2,0.1-0.4,0.2-0.6,0.2l0,0C160,344.9,159.7,344.8,159.5,344.5L159.5,344.5z M386.4,332.9c-0.5-0.3-0.7-0.9-0.4-1.4l0,0
	c0.3-0.5,0.9-0.7,1.4-0.4l0,0c0.5,0.3,0.7,0.9,0.4,1.4l0,0c-0.2,0.3-0.5,0.5-0.9,0.5l0,0C386.7,333,386.6,333,386.4,332.9
	L386.4,332.9z M152.2,332.4c-0.3-0.5-0.1-1.1,0.4-1.4l0,0c0.5-0.3,1.1-0.1,1.4,0.4c0,0,0,0,0,0l0,0c0.3,0.5,0.1,1.1-0.4,1.4l0,0
	c-0.1,0.1-0.3,0.1-0.5,0.1l0,0C152.7,333,152.4,332.8,152.2,332.4L152.2,332.4z M389.6,326.6c-0.5-0.2-0.7-0.8-0.5-1.3l0,0
	c0.2-0.5,0.8-0.7,1.3-0.5c0,0,0,0,0,0l0,0c0.5,0.2,0.7,0.8,0.5,1.3l0,0c-0.2,0.4-0.5,0.6-0.9,0.6l0,0
	C389.9,326.8,389.7,326.7,389.6,326.6L389.6,326.6z M149.1,326.1c-0.2-0.5,0-1.1,0.5-1.3l0,0c0.5-0.2,1.1,0,1.3,0.5l0,0
	c0.2,0.5,0,1.1-0.5,1.3c0,0,0,0,0,0l0,0c-0.1,0.1-0.3,0.1-0.4,0.1l0,0C149.6,326.7,149.3,326.5,149.1,326.1L149.1,326.1z
	 M146.3,319.7L146.3,319.7c-0.2-0.5,0-1.1,0.6-1.3c0,0,0,0,0,0l0,0c0.5-0.2,1.1,0,1.3,0.5l0,0c0.2,0.5,0,1.1-0.6,1.3c0,0,0,0,0,0
	l0,0c-0.1,0-0.2,0.1-0.4,0.1l0,0C146.8,320.3,146.4,320.1,146.3,319.7L146.3,319.7z M392.4,320.3c-0.5-0.2-0.8-0.8-0.6-1.3
	c0,0,0,0,0,0l0,0c0.2-0.5,0.8-0.8,1.3-0.6c0,0,0,0,0,0l0,0c0.5,0.2,0.8,0.8,0.5,1.3l0,0c-0.2,0.4-0.5,0.6-0.9,0.6l0,0
	C392.7,320.3,392.5,320.3,392.4,320.3L392.4,320.3z M143.8,313.1c-0.2-0.5,0.1-1.1,0.6-1.3l0,0c0.5-0.2,1.1,0.1,1.3,0.6l0,0
	c0.2,0.5-0.1,1.1-0.6,1.3l0,0c-0.1,0-0.2,0.1-0.3,0.1l0,0C144.4,313.8,144,313.5,143.8,313.1L143.8,313.1z M394.9,313.7
	c-0.5-0.2-0.8-0.7-0.6-1.3l0,0c0.2-0.5,0.7-0.8,1.3-0.6l0,0c0.5,0.2,0.8,0.7,0.6,1.3l0,0c-0.1,0.4-0.5,0.7-0.9,0.7l0,0
	C395.1,313.8,395,313.8,394.9,313.7L394.9,313.7z M141.7,306.4c-0.1-0.5,0.2-1.1,0.7-1.2l0,0c0.5-0.2,1.1,0.1,1.2,0.7l0,0l0,0
	c0.2,0.5-0.2,1.1-0.7,1.2c0,0,0,0,0,0l0,0c-0.1,0-0.2,0-0.3,0l0,0C142.3,307.1,141.9,306.8,141.7,306.4L141.7,306.4z M397,307.1
	c-0.5-0.2-0.8-0.7-0.7-1.2l0,0c0.2-0.5,0.7-0.8,1.2-0.7l0,0c0.5,0.1,0.8,0.7,0.7,1.2c0,0,0,0,0,0l0,0c-0.1,0.4-0.5,0.7-1,0.7l0,0
	C397.2,307.1,397.1,307.1,397,307.1z M140,299.6c-0.1-0.5,0.2-1.1,0.8-1.2l0,0c0.5-0.1,1.1,0.2,1.2,0.7c0,0,0,0,0,0l0,0
	c0.1,0.5-0.2,1.1-0.8,1.2c0,0,0,0,0,0l0,0c-0.1,0-0.1,0-0.2,0l0,0C140.5,300.4,140.1,300,140,299.6z M398.8,300.3
	c-0.5-0.1-0.9-0.7-0.8-1.2c0,0,0,0,0,0l0,0c0.1-0.5,0.7-0.9,1.2-0.8c0,0,0,0,0,0l0,0c0.5,0.1,0.9,0.7,0.8,1.2c0,0,0,0,0,0l0,0
	c-0.1,0.5-0.5,0.8-1,0.8l0,0L398.8,300.3z M138.6,292.7c-0.1-0.5,0.3-1.1,0.8-1.2c0,0,0,0,0,0l0,0c0.5-0.1,1.1,0.3,1.2,0.8
	c0,0,0,0,0,0l0,0c0.1,0.5-0.3,1.1-0.8,1.1l0,0h-0.2l0,0C139.1,293.5,138.7,293.2,138.6,292.7L138.6,292.7z M400.2,293.5
	c-0.5-0.1-0.9-0.6-0.8-1.1l0,0c0.1-0.5,0.6-0.9,1.2-0.8c0,0,0,0,0,0l0,0c0.5,0.1,0.9,0.6,0.8,1.2c0,0,0,0,0,0l0,0
	c-0.1,0.5-0.5,0.8-1,0.8l0,0L400.2,293.5z M137.6,285.7c-0.1-0.5,0.3-1,0.9-1.1l0,0c0.5-0.1,1,0.3,1.1,0.9l0,0
	c0.1,0.5-0.3,1-0.9,1.1h-0.1C138.1,286.6,137.7,286.2,137.6,285.7z M401.3,286.6c-0.5-0.1-0.9-0.6-0.9-1.1l0,0
	c0.1-0.5,0.6-0.9,1.1-0.9l0,0c0.5,0.1,0.9,0.6,0.9,1.1l0,0c-0.1,0.5-0.5,0.9-1,0.9L401.3,286.6L401.3,286.6z M137,278.7
	c0-0.5,0.4-1,0.9-1.1l0,0c0.5,0,1,0.4,1.1,0.9l0,0c0,0.6-0.4,1-0.9,1.1c0,0,0,0,0,0H138C137.5,279.7,137,279.3,137,278.7z
	 M402,279.6c-0.6,0-1-0.5-0.9-1.1c0,0,0,0,0,0l0,0c0-0.5,0.5-1,1.1-0.9l0,0c0.5,0,1,0.5,0.9,1.1l0,0
	C403,279.2,402.6,279.6,402,279.6L402,279.6z M136.7,271.7c0-0.6,0.4-1,1-1l0,0c0.6,0,1,0.4,1,1l0,0c0,0.6-0.4,1-1,1l0,0
	C137.2,272.7,136.7,272.3,136.7,271.7C136.7,271.7,136.7,271.7,136.7,271.7L136.7,271.7z M402.3,272.7c-0.6,0-1-0.4-1-1l0,0
	c0-0.6,0.4-1,1-1l0,0c0.6,0,1,0.4,1,1l0,0C403.3,272.2,402.9,272.7,402.3,272.7L402.3,272.7z M137.8,265.7c-0.6,0-1-0.4-1-1l0,0
	c0-0.6,0.4-1,1-1l0,0c0.6,0,1,0.4,1,1l0,0C138.8,265.3,138.3,265.7,137.8,265.7L137.8,265.7z M401.2,264.7c0-0.6,0.4-1,1-1l0,0
	c0.6,0,1,0.4,1,1l0,0c0,0.6-0.4,1-1,1l0,0C401.7,265.7,401.2,265.3,401.2,264.7C401.2,264.7,401.2,264.7,401.2,264.7L401.2,264.7z
	 M138.2,258.7c-0.5-0.1-0.9-0.5-0.9-1.1l0,0c0-0.5,0.5-1,1.1-0.9l0,0c0.6,0,1,0.5,0.9,1.1c0,0,0,0,0,0l0,0
	C139.2,258.3,138.8,258.7,138.2,258.7L138.2,258.7L138.2,258.7z M400.8,257.8c-0.1-0.5,0.4-1,0.9-1.1l0,0c0.5-0.1,1,0.4,1.1,0.9
	c0,0,0,0,0,0l0,0c0,0.5-0.4,1-0.9,1.1h-0.1C401.3,258.7,400.8,258.3,400.8,257.8L400.8,257.8z M138.9,251.8
	c-0.5-0.1-0.9-0.6-0.8-1.1l0,0c0.1-0.5,0.6-0.9,1.1-0.8l0,0c0.5,0.1,0.9,0.6,0.9,1.1l0,0c-0.1,0.5-0.5,0.9-1,0.9l0,0L138.9,251.8z
	 M399.9,250.9L399.9,250.9c-0.1-0.5,0.3-1.1,0.9-1.1l0,0c0.5-0.1,1.1,0.3,1.1,0.8c0,0,0,0,0,0l0,0c0.1,0.5-0.3,1.1-0.8,1.1
	c0,0,0,0,0,0h-0.1C400.5,251.7,400,251.4,399.9,250.9L399.9,250.9z M140.1,244.9c-0.5-0.1-0.9-0.6-0.8-1.2c0,0,0,0,0,0l0,0
	c0.1-0.5,0.6-0.9,1.2-0.8l0,0c0.5,0.1,0.9,0.6,0.8,1.2l0,0c-0.1,0.5-0.5,0.8-1,0.8l0,0L140.1,244.9z M398.8,244.1
	c-0.1-0.5,0.2-1.1,0.8-1.2c0,0,0,0,0,0l0,0c0.5-0.1,1.1,0.2,1.2,0.8c0,0,0,0,0,0l0,0c0.1,0.5-0.2,1.1-0.8,1.2c0,0,0,0,0,0l0,0h-0.2
	l0,0C399.3,244.9,398.9,244.5,398.8,244.1L398.8,244.1z M141.6,238.1c-0.5-0.1-0.9-0.7-0.7-1.2c0,0,0,0,0,0l0,0
	c0.1-0.5,0.7-0.9,1.2-0.7c0,0,0,0,0,0l0,0c0.5,0.1,0.9,0.7,0.7,1.2c0,0,0,0,0,0l0,0c-0.1,0.5-0.5,0.8-1,0.8l0,0
	C141.7,238.1,141.6,238.1,141.6,238.1L141.6,238.1z M397.2,237.3c-0.1-0.5,0.2-1.1,0.7-1.2l0,0c0.5-0.1,1.1,0.2,1.2,0.7l0,0
	c0.1,0.5-0.2,1.1-0.7,1.2c0,0,0,0,0,0l0,0c-0.1,0-0.2,0-0.2,0l0,0C397.7,238,397.3,237.8,397.2,237.3L397.2,237.3z M143.4,231.3
	c-0.5-0.2-0.8-0.7-0.7-1.3c0,0,0,0,0,0l0,0c0.2-0.5,0.7-0.8,1.2-0.6l0,0c0.5,0.2,0.8,0.7,0.7,1.2l0,0c-0.1,0.4-0.5,0.7-1,0.7l0,0
	C143.6,231.4,143.5,231.4,143.4,231.3L143.4,231.3z M395.3,230.6L395.3,230.6c-0.2-0.5,0.1-1.1,0.6-1.2l0,0c0.5-0.2,1.1,0.1,1.3,0.6
	c0,0,0,0,0,0l0,0c0.2,0.5-0.1,1.1-0.7,1.2l0,0c-0.1,0-0.2,0-0.3,0l0,0C395.8,231.3,395.5,231.1,395.3,230.6L395.3,230.6z
	 M145.6,224.7c-0.5-0.2-0.8-0.8-0.6-1.3l0,0c0.2-0.5,0.8-0.8,1.3-0.6c0,0,0,0,0,0l0,0c0.5,0.2,0.8,0.8,0.6,1.3c0,0,0,0,0,0l0,0
	c-0.1,0.4-0.5,0.7-0.9,0.6l0,0C145.9,224.8,145.8,224.8,145.6,224.7L145.6,224.7z M393.1,224.1c-0.2-0.5,0.1-1.1,0.6-1.3
	c0,0,0,0,0,0l0,0c0.5-0.2,1.1,0.1,1.3,0.6c0,0,0,0,0,0l0,0c0.2,0.5-0.1,1.1-0.6,1.3c0,0,0,0,0,0l0,0c-0.1,0-0.2,0.1-0.4,0.1l0,0
	C393.6,224.7,393.2,224.5,393.1,224.1L393.1,224.1z M390.5,217.7c-0.2-0.5,0-1.1,0.5-1.3c0,0,0,0,0,0l0,0c0.5-0.2,1.1,0,1.3,0.5
	c0,0,0,0,0,0l0,0c0.2,0.5,0,1.1-0.5,1.3c0,0,0,0,0,0l0,0c-0.1,0.1-0.3,0.1-0.4,0.1l0,0C391,218.3,390.6,218.1,390.5,217.7
	L390.5,217.7z M148.2,218.2c-0.5-0.2-0.7-0.8-0.5-1.3c0,0,0,0,0,0l0,0c0.2-0.5,0.8-0.7,1.3-0.5c0,0,0,0,0,0l0,0
	c0.5,0.2,0.7,0.8,0.5,1.3c0,0,0,0,0,0l0,0c-0.2,0.4-0.5,0.6-0.9,0.6l0,0C148.5,218.3,148.4,218.3,148.2,218.2L148.2,218.2z
	 M387.5,211.4c-0.2-0.5-0.1-1.1,0.4-1.3l0,0c0.5-0.3,1.1-0.1,1.3,0.4c0,0,0,0,0,0l0,0c0.2,0.5,0,1.1-0.5,1.3l0,0
	c-0.1,0.1-0.3,0.1-0.5,0.1l0,0C388.1,212,387.7,211.8,387.5,211.4L387.5,211.4z M151.1,211.8c-0.5-0.2-0.7-0.8-0.4-1.3l0,0
	c0.2-0.5,0.8-0.7,1.3-0.4l0,0c0.5,0.2,0.7,0.8,0.4,1.3l0,0c-0.2,0.3-0.5,0.5-0.9,0.6l0,0C151.4,211.9,151.3,211.9,151.1,211.8
	L151.1,211.8z M380.7,199.4L380.7,199.4c-0.3-0.5-0.2-1.1,0.3-1.4l0,0c0.5-0.3,1.1-0.2,1.4,0.3c0,0,0,0,0,0l0,0
	c0.3,0.5,0.2,1.1-0.3,1.4c0,0,0,0,0,0l0,0c-0.2,0.1-0.3,0.2-0.5,0.2l0,0C381.2,199.9,380.9,199.7,380.7,199.4L380.7,199.4z
	 M157.9,199.6c-0.5-0.3-0.6-0.9-0.3-1.4l0,0c0.3-0.4,0.9-0.5,1.4-0.2l0,0c0.5,0.3,0.6,0.9,0.3,1.4c0,0,0,0,0,0l0,0
	c-0.2,0.3-0.5,0.5-0.9,0.5l0,0C158.3,199.8,158.1,199.8,157.9,199.6L157.9,199.6z M376.8,193.6c-0.3-0.4-0.2-1.1,0.2-1.4l0,0
	c0.4-0.3,1.1-0.2,1.4,0.2l0,0c0.3,0.4,0.2,1.1-0.2,1.4l0,0c-0.2,0.1-0.4,0.2-0.6,0.2l0,0C377.3,194,377,193.9,376.8,193.6
	L376.8,193.6z M161.8,193.8c-0.4-0.3-0.5-0.9-0.2-1.4l0,0c0.3-0.4,0.9-0.5,1.4-0.2l0,0c0.4,0.3,0.5,0.9,0.2,1.4l0,0
	c-0.2,0.3-0.5,0.4-0.8,0.4l0,0C162.2,194,162,193.9,161.8,193.8L161.8,193.8z M372.6,188.1c-0.3-0.4-0.3-1.1,0.2-1.4c0,0,0,0,0,0
	l0,0c0.4-0.3,1.1-0.3,1.4,0.2l0,0c0.3,0.4,0.3,1.1-0.2,1.4c0,0,0,0,0,0l0,0c-0.2,0.1-0.4,0.2-0.6,0.2l0,0
	C373.1,188.5,372.8,188.4,372.6,188.1L372.6,188.1z M166,188.2c-0.4-0.3-0.5-1-0.2-1.4l0,0c0.3-0.4,1-0.5,1.4-0.2c0,0,0,0,0,0l0,0
	c0.4,0.3,0.5,1,0.2,1.4c0,0,0,0,0,0l0,0c-0.2,0.2-0.5,0.4-0.8,0.4l0,0C166.4,188.5,166.2,188.4,166,188.2z M368.2,182.9
	c-0.4-0.4-0.3-1,0.1-1.4l0,0c0.4-0.4,1-0.3,1.4,0.1l0,0c0.4,0.4,0.3,1-0.1,1.4l0,0c-0.2,0.2-0.4,0.3-0.7,0.2l0,0
	C368.6,183.2,368.4,183.1,368.2,182.9L368.2,182.9z M170.5,182.9c-0.4-0.4-0.4-1-0.1-1.4l0,0c0.4-0.4,1-0.4,1.4-0.1l0,0
	c0.4,0.4,0.4,1,0.1,1.4l0,0c-0.2,0.2-0.5,0.3-0.7,0.3l0,0C170.9,183.1,170.7,183,170.5,182.9L170.5,182.9z M363.5,177.8
	c-0.4-0.4-0.4-1,0-1.4c0,0,0,0,0,0l0,0c0.4-0.4,1-0.4,1.4,0l0,0c0.4,0.4,0.4,1,0,1.4c0,0,0,0,0,0l0,0c-0.2,0.2-0.4,0.3-0.7,0.3l0,0
	C363.9,178.1,363.6,178,363.5,177.8L363.5,177.8z M175.2,177.7c-0.4-0.4-0.4-1,0-1.4l0,0c0.4-0.4,1-0.4,1.4,0c0,0,0,0,0,0l0,0
	c0.4,0.4,0.4,1,0,1.4l0,0c-0.2,0.2-0.4,0.3-0.7,0.3l0,0C175.7,178,175.4,177.9,175.2,177.7L175.2,177.7z M358.4,173L358.4,173
	c-0.4-0.4-0.4-1-0.1-1.4l0,0c0.4-0.4,1-0.4,1.4-0.1l0,0c0.4,0.4,0.4,1,0.1,1.4l0,0c-0.2,0.2-0.5,0.3-0.7,0.3l0,0
	C358.9,173.3,358.6,173.2,358.4,173z M180.2,172.9c-0.4-0.4-0.3-1,0.1-1.4l0,0c0.4-0.4,1-0.3,1.4,0.1l0,0c0.4,0.4,0.3,1-0.1,1.4l0,0
	c-0.2,0.2-0.4,0.3-0.7,0.3l0,0C180.7,173.2,180.4,173.1,180.2,172.9L180.2,172.9z M353.2,168.5c-0.4-0.3-0.5-1-0.1-1.4l0,0
	c0.3-0.4,1-0.5,1.4-0.1c0,0,0,0,0,0l0,0c0.4,0.3,0.5,1,0.1,1.4c0,0,0,0,0,0l0,0c-0.2,0.2-0.5,0.4-0.8,0.4l0,0
	C353.6,168.7,353.4,168.6,353.2,168.5L353.2,168.5z M185.5,168.3c-0.3-0.4-0.3-1.1,0.1-1.4l0,0c0.4-0.3,1-0.3,1.4,0.1l0,0
	c0.3,0.4,0.3,1.1-0.1,1.4l0,0c-0.2,0.1-0.4,0.2-0.6,0.2l0,0C185.9,168.6,185.7,168.5,185.5,168.3L185.5,168.3z M347.7,164.2
	L347.7,164.2c-0.4-0.3-0.5-1-0.2-1.4c0,0,0,0,0,0l0,0c0.3-0.4,1-0.5,1.4-0.2c0,0,0,0,0,0l0,0c0.4,0.3,0.5,1,0.2,1.4c0,0,0,0,0,0l0,0
	c-0.2,0.3-0.5,0.4-0.8,0.4l0,0C348.1,164.4,347.9,164.3,347.7,164.2L347.7,164.2z M191,164c-0.3-0.4-0.2-1.1,0.2-1.4c0,0,0,0,0,0
	l0,0c0.4-0.3,1.1-0.2,1.4,0.2c0,0,0,0,0,0l0,0c0.3,0.4,0.2,1.1-0.2,1.4l0,0c-0.2,0.1-0.4,0.2-0.6,0.2l0,0
	C191.4,164.4,191.1,164.2,191,164L191,164z M342,160.2c-0.5-0.3-0.6-0.9-0.3-1.4c0,0,0,0,0,0l0,0c0.3-0.5,0.9-0.6,1.4-0.3l0,0
	c0.5,0.3,0.6,0.9,0.3,1.4l0,0c-0.2,0.3-0.5,0.4-0.8,0.4l0,0C342.4,160.4,342.2,160.3,342,160.2z M196.6,159.9
	c-0.3-0.5-0.2-1.1,0.3-1.4l0,0c0.5-0.3,1.1-0.2,1.4,0.3l0,0c0.3,0.5,0.2,1.1-0.3,1.4c0,0,0,0,0,0l0,0c-0.2,0.1-0.4,0.2-0.6,0.2l0,0
	C197.1,160.4,196.8,160.2,196.6,159.9L196.6,159.9z M336.1,156.6L336.1,156.6c-0.5-0.3-0.6-0.9-0.4-1.4c0,0,0,0,0,0l0,0
	c0.3-0.5,0.9-0.6,1.4-0.4c0,0,0,0,0,0l0,0c0.5,0.3,0.6,0.9,0.4,1.4c0,0,0,0,0,0l0,0c-0.2,0.3-0.5,0.5-0.9,0.5l0,0
	C336.4,156.7,336.3,156.7,336.1,156.6L336.1,156.6z M202.5,156.2c-0.3-0.5-0.1-1.1,0.4-1.4c0,0,0,0,0,0l0,0c0.5-0.3,1.1-0.1,1.4,0.4
	c0,0,0,0,0,0l0,0c0.3,0.5,0.1,1.1-0.4,1.4c0,0,0,0,0,0l0,0c-0.2,0.1-0.3,0.1-0.5,0.1l0,0C203,156.7,202.7,156.5,202.5,156.2
	L202.5,156.2z M330,153.2c-0.5-0.3-0.7-0.9-0.4-1.3l0,0c0.2-0.5,0.8-0.7,1.3-0.4c0,0,0,0,0,0l0,0c0.5,0.3,0.7,0.9,0.4,1.3
	c0,0,0,0,0,0l0,0c-0.2,0.3-0.5,0.5-0.9,0.5l0,0C330.3,153.3,330.2,153.3,330,153.2L330,153.2z M208.6,152.8
	c-0.2-0.5-0.1-1.1,0.4-1.3l0,0c0.5-0.3,1.1-0.1,1.3,0.4c0,0,0,0,0,0l0,0c0.2,0.5,0.1,1.1-0.4,1.3l0,0c-0.1,0.1-0.3,0.1-0.4,0.1l0,0
	C209.1,153.3,208.8,153.1,208.6,152.8L208.6,152.8z M323.8,150.2c-0.5-0.2-0.7-0.8-0.5-1.3l0,0c0.2-0.5,0.8-0.7,1.3-0.5l0,0
	c0.5,0.2,0.7,0.8,0.5,1.3c0,0,0,0,0,0l0,0c-0.2,0.4-0.5,0.6-0.9,0.6l0,0C324.1,150.3,323.9,150.3,323.8,150.2L323.8,150.2z
	 M214.8,149.7c-0.2-0.5,0-1.1,0.5-1.3l0,0c0.5-0.2,1.1,0,1.3,0.5c0,0,0,0,0,0l0,0c0.2,0.5,0,1.1-0.5,1.3l0,0
	c-0.1,0.1-0.3,0.1-0.4,0.1l0,0C215.4,150.3,215,150.1,214.8,149.7L214.8,149.7z M221.3,146.9c-0.2-0.5,0-1.1,0.6-1.3c0,0,0,0,0,0
	l0,0c0.5-0.2,1.1,0,1.3,0.6c0,0,0,0,0,0l0,0c0.2,0.5-0.1,1.1-0.6,1.3l0,0c-0.1,0-0.2,0.1-0.4,0.1l0,0
	C221.8,147.6,221.5,147.3,221.3,146.9L221.3,146.9z M317.4,147.5L317.4,147.5c-0.5-0.2-0.8-0.8-0.6-1.3c0,0,0,0,0,0l0,0
	c0.2-0.5,0.8-0.8,1.3-0.6l0,0c0.5,0.2,0.8,0.8,0.6,1.3c0,0,0,0,0,0l0,0c-0.1,0.4-0.5,0.6-0.9,0.6l0,0
	C317.6,147.6,317.5,147.6,317.4,147.5L317.4,147.5z M227.8,144.5c-0.2-0.5,0.1-1.1,0.6-1.3l0,0c0.5-0.2,1.1,0.1,1.3,0.6l0,0
	c0.2,0.5-0.1,1.1-0.6,1.3l0,0c-0.1,0-0.2,0.1-0.3,0.1l0,0C228.3,145.2,228,144.9,227.8,144.5L227.8,144.5z M310.8,145.1
	c-0.5-0.2-0.8-0.7-0.6-1.3l0,0c0.2-0.5,0.7-0.8,1.3-0.6c0,0,0,0,0,0l0,0c0.5,0.2,0.8,0.7,0.6,1.3l0,0c-0.1,0.4-0.5,0.7-1,0.7l0,0
	C311,145.2,311,145.2,310.8,145.1L310.8,145.1z M234.4,142.4c-0.1-0.5,0.2-1.1,0.7-1.2c0,0,0,0,0,0l0,0c0.5-0.1,1.1,0.2,1.2,0.7
	c0,0,0,0,0,0l0,0c0.1,0.5-0.2,1.1-0.7,1.2l0,0c-0.1,0-0.2,0-0.3,0l0,0C235,143.1,234.7,142.9,234.4,142.4L234.4,142.4z M304.2,143.1
	c-0.5-0.1-0.8-0.7-0.7-1.2c0,0,0,0,0,0l0,0c0.1-0.5,0.7-0.8,1.2-0.7c0,0,0,0,0,0l0,0c0.5,0.1,0.8,0.7,0.7,1.2l0,0
	c-0.1,0.4-0.5,0.8-1,0.7l0,0L304.2,143.1z M241.2,140.8c-0.1-0.5,0.2-1.1,0.8-1.2c0,0,0,0,0,0l0,0c0.5-0.1,1.1,0.2,1.2,0.8
	c0,0,0,0,0,0l0,0c0.1,0.5-0.2,1.1-0.8,1.2c0,0,0,0,0,0l0,0c-0.1,0-0.1,0-0.2,0l0,0c-0.4,0-0.7-0.3-0.9-0.7L241.2,140.8z
	 M297.4,141.5c-0.5-0.1-0.9-0.6-0.8-1.2c0,0,0,0,0,0l0,0c0.1-0.5,0.6-0.9,1.2-0.8c0,0,0,0,0,0l0,0c0.5,0.1,0.9,0.7,0.8,1.2l0,0
	c-0.1,0.5-0.5,0.8-1,0.8l0,0L297.4,141.5z M290.6,140.2L290.6,140.2c-0.5-0.1-0.9-0.6-0.8-1.1l0,0c0.1-0.5,0.6-0.9,1.1-0.8
	c0,0,0,0,0,0l0,0c0.5,0.1,0.9,0.6,0.8,1.1l0,0c-0.1,0.5-0.5,0.8-1,0.8H290.6L290.6,140.2z M248,139.4c-0.1-0.5,0.3-1.1,0.8-1.1
	c0,0,0,0,0,0l0,0c0.5-0.1,1.1,0.3,1.1,0.8l0,0c0.1,0.5-0.3,1.1-0.8,1.1H249c-0.4,0-0.8-0.4-0.9-0.8L248,139.4z M283.7,139.3
	c-0.5-0.1-0.9-0.5-0.9-1.1l0,0c0.1-0.5,0.5-0.9,1.1-0.9c0,0,0,0,0,0l0,0c0.5,0.1,0.9,0.5,0.9,1.1l0,0c-0.1,0.5-0.5,0.9-1,0.9
	L283.7,139.3L283.7,139.3z M255,138.5c-0.1-0.5,0.3-1,0.9-1.1c0,0,0,0,0,0l0,0c0.5-0.1,1,0.3,1.1,0.9l0,0c0.1,0.5-0.3,1-0.9,1.1
	c0,0,0,0,0,0H256C255.5,139.4,255.1,139,255,138.5z M276.9,138.9c-0.6,0-1-0.4-1-1l0,0c0-0.6,0.4-1,1-1l0,0c0.5,0,0.9,0.5,0.9,1l0,0
	C277.8,138.4,277.4,138.9,276.9,138.9L276.9,138.9L276.9,138.9z M262,137.9c0-0.6,0.4-1,1-1l0,0c0.6,0,1,0.4,1,1l0,0
	c0,0.6-0.4,1-1,1l0,0C262.4,138.8,262,138.4,262,137.9L262,137.9z"/>
<path class="st0" d="M331.5,233.6c-0.3-0.5-0.1-1.1,0.4-1.4c0,0,0,0,0,0l0,0c0.5-0.3,1.1-0.1,1.4,0.4c0,0,0,0,0,0l0,0
	c0.3,0.5,0.1,1.1-0.4,1.4c0,0,0,0,0,0l0,0c-0.2,0.1-0.3,0.1-0.5,0.1l0,0C332,234.1,331.7,233.9,331.5,233.6z M337.6,230.1
	c-0.3-0.5-0.1-1.1,0.4-1.4c0,0,0,0,0,0l0,0c0.5-0.3,1.1-0.1,1.4,0.4c0,0,0,0,0,0l0,0c0.3,0.5,0.1,1.1-0.4,1.4l0,0
	c-0.1,0.1-0.3,0.1-0.5,0.1l0,0C338.1,230.6,337.8,230.4,337.6,230.1L337.6,230.1z M319.3,240.6c-0.3-0.5-0.1-1.1,0.4-1.4
	c0,0,0,0,0,0l0,0c0.5-0.3,1.1-0.1,1.4,0.4c0,0,0,0,0,0l0,0c0.3,0.5,0.1,1.1-0.4,1.4c0,0,0,0,0,0l0,0c-0.2,0.1-0.3,0.1-0.5,0.1l0,0
	C319.8,241.1,319.4,240.9,319.3,240.6z M325.4,237.1c-0.3-0.5-0.1-1.1,0.4-1.4c0,0,0,0,0,0l0,0c0.5-0.3,1.1-0.1,1.4,0.4c0,0,0,0,0,0
	l0,0c0.3,0.5,0.1,1.1-0.4,1.4l0,0c-0.1,0.1-0.3,0.1-0.5,0.1l0,0C325.9,237.6,325.5,237.4,325.4,237.1L325.4,237.1z M343.7,226.6
	c-0.3-0.5-0.1-1.1,0.4-1.4c0,0,0,0,0,0l0,0c0.5-0.3,1.1-0.1,1.4,0.4l0,0c0.3,0.5,0.1,1.1-0.4,1.4l0,0c-0.2,0.1-0.3,0.1-0.5,0.1l0,0
	C344.2,227.1,343.9,226.9,343.7,226.6L343.7,226.6z M349.8,223.1c-0.3-0.5-0.1-1.1,0.4-1.4l0,0c0.5-0.3,1.1-0.1,1.4,0.4l0,0
	c0.3,0.5,0.1,1.1-0.4,1.4c0,0,0,0,0,0l0,0c-0.2,0.1-0.3,0.1-0.5,0.1l0,0C350.3,223.6,350,223.4,349.8,223.1L349.8,223.1z
	 M355.9,219.5c-0.3-0.5-0.1-1.1,0.4-1.4l0,0c0.5-0.3,1.1-0.1,1.4,0.4l0,0c0.3,0.5,0.1,1.1-0.4,1.4l0,0c-0.1,0.1-0.3,0.1-0.5,0.1l0,0
	C356.4,220.1,356.1,219.9,355.9,219.5L355.9,219.5z M362,216c-0.3-0.5-0.1-1.1,0.4-1.4c0,0,0,0,0,0l0,0c0.5-0.3,1.1-0.1,1.4,0.4
	c0,0,0,0,0,0l0,0c0.3,0.5,0.1,1.1-0.4,1.4l0,0c-0.2,0.1-0.3,0.1-0.5,0.1l0,0C362.5,216.5,362.2,216.3,362,216z M368.1,212.5
	c-0.3-0.5-0.1-1.1,0.4-1.4l0,0c0.5-0.3,1.1-0.1,1.4,0.4c0,0,0,0,0,0l0,0c0.3,0.5,0.1,1.1-0.4,1.4c0,0,0,0,0,0l0,0
	c-0.2,0.1-0.3,0.1-0.5,0.1l0,0C368.6,213,368.3,212.8,368.1,212.5L368.1,212.5z M374.2,208.9c-0.3-0.5-0.1-1.1,0.4-1.4l0,0
	c0.5-0.3,1.1-0.1,1.4,0.4l0,0c0.3,0.5,0.1,1.1-0.4,1.4c0,0,0,0,0,0l0,0c-0.1,0.1-0.3,0.1-0.5,0.1l0,0
	C374.7,209.5,374.4,209.3,374.2,208.9L374.2,208.9z M380.3,205.4c-0.3-0.5-0.1-1.1,0.4-1.4c0,0,0,0,0,0l0,0c0.5-0.3,1.1-0.1,1.4,0.4
	l0,0c0.3,0.5,0.1,1.1-0.4,1.4c0,0,0,0,0,0l0,0c-0.1,0.1-0.3,0.1-0.5,0.1l0,0C380.8,205.9,380.5,205.8,380.3,205.4L380.3,205.4z
	 M386.4,201.9c-0.3-0.5-0.1-1.1,0.4-1.4l0,0c0.5-0.3,1.1-0.1,1.4,0.4l0,0c0.3,0.5,0.1,1.1-0.4,1.4l0,0c-0.2,0.1-0.3,0.1-0.5,0.1l0,0
	C386.9,202.4,386.6,202.2,386.4,201.9L386.4,201.9z M392.5,198.4c-0.3-0.5-0.1-1.1,0.4-1.4l0,0c0.5-0.3,1.1-0.1,1.4,0.4c0,0,0,0,0,0
	l0,0c0.3,0.5,0.1,1.1-0.4,1.4c0,0,0,0,0,0l0,0c-0.2,0.1-0.3,0.1-0.5,0.1l0,0C393,198.9,392.7,198.7,392.5,198.4L392.5,198.4z
	 M398.6,194.9c-0.3-0.5-0.1-1.1,0.4-1.4c0,0,0,0,0,0l0,0c0.5-0.3,1.1-0.1,1.4,0.4c0,0,0,0,0,0l0,0c0.3,0.5,0.1,1.1-0.4,1.4
	c0,0,0,0,0,0l0,0c-0.2,0.1-0.3,0.1-0.5,0.1l0,0C399.1,195.4,398.8,195.2,398.6,194.9L398.6,194.9z M404.7,191.3
	c-0.3-0.5-0.1-1.1,0.4-1.4c0,0,0,0,0,0l0,0c0.5-0.3,1.1-0.1,1.4,0.4c0,0,0,0,0,0l0,0c0.3,0.5,0.1,1.1-0.4,1.4c0,0,0,0,0,0l0,0
	c-0.2,0.1-0.3,0.1-0.5,0.1l0,0C405.2,191.9,404.9,191.7,404.7,191.3L404.7,191.3z M410.8,187.8c-0.3-0.5-0.1-1.1,0.4-1.4
	c0,0,0,0,0,0l0,0c0.5-0.3,1.1-0.1,1.4,0.4c0,0,0,0,0,0l0,0c0.3,0.5,0.1,1.1-0.4,1.4l0,0c-0.2,0.1-0.3,0.1-0.5,0.1l0,0
	C411.3,188.3,411,188.2,410.8,187.8L410.8,187.8z M416.9,184.3c-0.3-0.5-0.1-1.1,0.4-1.4l0,0c0.5-0.3,1.1-0.1,1.4,0.4l0,0
	c0.3,0.5,0.1,1.1-0.4,1.4c0,0,0,0,0,0l0,0c-0.2,0.1-0.3,0.1-0.5,0.1l0,0C417.4,184.8,417.1,184.6,416.9,184.3L416.9,184.3z
	 M423,180.8c-0.3-0.5-0.1-1.1,0.4-1.4c0,0,0,0,0,0l0,0c0.5-0.3,1.1-0.1,1.4,0.4l0,0c0.3,0.5,0.1,1.1-0.4,1.4c0,0,0,0,0,0l0,0
	c-0.2,0.1-0.3,0.1-0.5,0.1l0,0C423.5,181.3,423.2,181.1,423,180.8L423,180.8z M429.1,177.2c-0.3-0.5-0.1-1.1,0.4-1.4c0,0,0,0,0,0
	l0,0c0.5-0.3,1.1-0.1,1.4,0.4l0,0c0.3,0.5,0.1,1.1-0.4,1.4l0,0c-0.2,0.1-0.3,0.1-0.5,0.1l0,0C429.6,177.8,429.3,177.6,429.1,177.2
	L429.1,177.2z M435.2,173.7c-0.3-0.5-0.1-1.1,0.4-1.4l0,0c0.5-0.3,1.1-0.1,1.4,0.4c0,0,0,0,0,0l0,0c0.3,0.5,0.1,1.1-0.4,1.4l0,0
	c-0.2,0.1-0.3,0.1-0.5,0.1l0,0C435.7,174.2,435.4,174.1,435.2,173.7L435.2,173.7z M441.3,170.2c-0.3-0.5-0.1-1.1,0.4-1.4l0,0
	c0.5-0.3,1.1-0.1,1.4,0.4c0,0,0,0,0,0l0,0c0.3,0.5,0.1,1.1-0.4,1.4c0,0,0,0,0,0l0,0c-0.2,0.1-0.3,0.1-0.5,0.1l0,0
	C441.8,170.7,441.5,170.5,441.3,170.2L441.3,170.2z M447.4,166.7c-0.3-0.5-0.1-1.1,0.4-1.4c0,0,0,0,0,0l0,0c0.5-0.3,1.1-0.1,1.4,0.4
	c0,0,0,0,0,0l0,0c0.3,0.5,0.1,1.1-0.4,1.4c0,0,0,0,0,0l0,0c-0.2,0.1-0.3,0.1-0.5,0.1l0,0C447.9,167.2,447.6,167,447.4,166.7
	L447.4,166.7z M454.4,163.7c-0.3,0-0.5-0.1-0.7-0.3c-0.1-0.1-0.2-0.2-0.2-0.3c-0.1-0.1-0.1-0.2-0.1-0.4c0-0.3,0.1-0.5,0.3-0.7
	c0,0,0.1-0.1,0.1-0.1c0.1,0,0.1-0.1,0.2-0.1h0.2c0.3-0.1,0.7,0,0.9,0.3l0.1,0.1l0.1,0.2l0.1,0.2c0,0.1,0,0.1,0,0.2
	C455.4,163.3,454.9,163.7,454.4,163.7L454.4,163.7z"/>
<path class="st8" d="M292.8,58h-11.6c-1.8,0-3.4-1.2-4-2.8l-6.4-18.1l-0.8-2.3l0.2-11.1l7.1-9.8l2.1,6L292.8,58z"/>
<polygon class="st9" points="279.4,20 270.8,37.1 270,34.8 270.2,23.8 277.3,14 "/>
<path class="st10" d="M277.3,14L270,34.8l-7.1,20.3c-0.6,1.7-2.2,2.8-4,2.8h-11.6l15.5-44H277.3z"/>
<path class="st11" d="M516.5,378.7c-1.8,0.8-3.7,1.3-5.6,1.6c2.1-1.2,3.6-3.2,4.3-5.5c-1.9,1.2-4.1,2-6.3,2.4
	c-3.7-4-10-4.1-13.9-0.4c-2,1.9-3.1,4.4-3.1,7.2c0,0.8,0.1,1.5,0.2,2.2c-7.9-0.4-15.3-4.1-20.3-10.3c-2.6,4.5-1.3,10.2,3,13.1
	c-1.6,0-3.1-0.5-4.5-1.2v0.1c0,4.7,3.3,8.7,7.9,9.7c-0.8,0.2-1.7,0.3-2.6,0.3c-0.6,0-1.2-0.1-1.9-0.2c1.3,4,5,6.8,9.2,6.8
	c-3.5,2.7-7.8,4.2-12.2,4.2c-0.8,0-1.6,0-2.3-0.1c4.5,2.9,9.7,4.4,15.1,4.4c18.1,0,28-15,28-28v-1.3
	C513.5,382.4,515.1,380.7,516.5,378.7L516.5,378.7L516.5,378.7z"/>
<path class="st12" d="M65.4,368.9c0-0.2-0.2-0.4-0.4-0.4l-3.9-0.3l-2.8-2.8c-0.3-0.2-0.7-0.2-1-0.1l-1.4,0.4c-0.9-2.5-2.4-4.7-5-4.7
	h-0.3c-0.6-0.8-1.5-1.4-2.5-1.4c-6.2,0-9.2,7.7-10.1,11.7l-4.3,1.3c-1.3,0.4-1.4,0.5-1.6,1.7c-0.1,1-3.6,28.1-3.6,28.1l27.4,5.1
	l14.8-3.2C70.6,404.4,65.4,369.2,65.4,368.9L65.4,368.9L65.4,368.9z M54.3,366.2l-2.3,0.7c0-0.2,0-0.3,0-0.5c0-1.3-0.2-2.5-0.5-3.7
	C52.8,362.9,53.7,364.4,54.3,366.2z M49.7,363c0.5,1.3,0.7,2.8,0.6,4.2c0,0.1,0,0.2,0,0.3l-4.8,1.5C46.5,365.4,48.2,363.7,49.7,363
	L49.7,363L49.7,363z M47.9,361.3c0.3,0,0.6,0.1,0.8,0.3c-2,0.9-4.1,3.3-5,8l-3.8,1.2C40.9,367.1,43.4,361.3,47.9,361.3L47.9,361.3
	L47.9,361.3z"/>
<path class="st13" d="M65,368.5l-3.9-0.3l-2.8-2.8c-0.1-0.1-0.3-0.2-0.4-0.2l-2.1,42.3l14.8-3.2c0,0-5.2-35.2-5.2-35.5
	C65.4,368.7,65.2,368.5,65,368.5"/>
<path class="st6" d="M50.8,376.7l-1.8,5.4c-1.1-0.5-2.3-0.8-3.6-0.9c-2.9,0-3,1.8-3,2.3c0,2.5,6.5,3.4,6.5,9.3
	c0,4.6-2.9,7.5-6.8,7.5c-2.7,0.1-5.3-1-7.1-2.9l1.3-4.2c0,0,2.5,2.1,4.5,2.1c1,0,1.9-0.7,1.9-1.8c0,0,0-0.1,0-0.1
	c0-3.2-5.3-3.4-5.3-8.7c0-4.5,3.2-8.8,9.7-8.8C48.3,375.9,49.6,376.2,50.8,376.7"/>
<path class="st14" d="M49.2,163.6H23.6v-12.4h25.6c4.4,0,7.9-3.6,7.9-8c0-4.4-3.6-7.9-8-7.9c-3,0-5.8,1.8-7.1,4.5l-11.2-5.4
	c4.9-10.1,17.1-14.4,27.2-9.5s14.4,17.1,9.5,27.2C64.1,159.1,57,163.6,49.2,163.6z"/>
<path class="st15" d="M497.2,127.4c-1.6,0-3.2,0.2-4.8,0.6c8.3,2.2,14.2,9.6,14.4,18.2v0.8c-0.2,5.2-4.5,9.2-9.6,9.3
	c-1.7,0-3.3-0.4-4.8-1.3c-3-1.7-4.8-4.9-4.8-8.3c0-3.4,1.8-6.6,4.8-8.3c-1.4-0.9-3.1-1.3-4.8-1.3c-5.2,0-9.4,4.1-9.6,9.3v0.7
	c0.2,10.6,9,19,19.6,18.8c10.6-0.2,19-9,18.8-19.6C516.2,135.8,507.7,127.4,497.2,127.4L497.2,127.4L497.2,127.4z"/>
<path class="st16" d="M506.8,146.2c-0.2-10.6-8.9-19-19.5-18.8s-19,8.9-18.8,19.5c0.2,10.5,8.7,18.8,19.2,18.8
	c1.6,0,3.2-0.2,4.8-0.6c-8.3-2.1-14.2-9.6-14.4-18.2v-0.7c0.2-5.2,4.4-9.2,9.6-9.3c1.7,0,3.3,0.4,4.8,1.3c3,1.7,4.8,4.9,4.8,8.3
	c0,3.4-1.8,6.6-4.8,8.3c1.5,0.8,3.1,1.3,4.8,1.3c5.2,0,9.4-4.1,9.6-9.3v-0.4C506.8,146.4,506.8,146.3,506.8,146.2z"/>
<linearGradient id="SVGID_5_" gradientUnits="userSpaceOnUse" x1="-2857.5027" y1="-2479.2129" x2="-2857.5027" y2="-2486.9629" gradientTransform="matrix(4.93 0 0 -4.93 14575.0996 -12107.71)">
	<stop  offset="0" style="stop-color:#000000;stop-opacity:0.6"/>
	<stop  offset="0.6" style="stop-color:#000000;stop-opacity:0.1"/>
</linearGradient>
<path class="st17" d="M506.8,146.2c-0.2-10.6-8.9-19-19.5-18.8s-19,8.9-18.8,19.5c0.2,10.5,8.7,18.8,19.2,18.8
	c1.6,0,3.2-0.2,4.8-0.6c-8.3-2.1-14.2-9.6-14.4-18.2v-0.7c0.2-5.2,4.4-9.2,9.6-9.3c1.7,0,3.3,0.4,4.8,1.3c3,1.7,4.8,4.9,4.8,8.3
	c0,3.4-1.8,6.6-4.8,8.3c1.5,0.8,3.1,1.3,4.8,1.3c5.2,0,9.4-4.1,9.6-9.3v-0.4C506.8,146.4,506.8,146.3,506.8,146.2z"/>
<linearGradient id="SVGID_6_" gradientUnits="userSpaceOnUse" x1="-2855.5461" y1="-2486.9229" x2="-2855.5461" y2="-2479.1829" gradientTransform="matrix(4.93 0 0 -4.93 14575.0996 -12107.71)">
	<stop  offset="0" style="stop-color:#000000;stop-opacity:0.6"/>
	<stop  offset="0.6" style="stop-color:#000000;stop-opacity:0.1"/>
</linearGradient>
<path class="st18" d="M497.2,127.4c-1.6,0-3.2,0.2-4.8,0.6c8.3,2.2,14.2,9.6,14.4,18.2v0.8c-0.2,5.2-4.5,9.2-9.6,9.3
	c-1.7,0-3.3-0.4-4.8-1.3c-3-1.7-4.8-4.9-4.8-8.3c0-3.4,1.8-6.6,4.8-8.3c-1.4-0.9-3.1-1.3-4.8-1.3c-5.2,0-9.4,4.1-9.6,9.3v0.7
	c0.2,10.6,9,19,19.6,18.8c10.6-0.2,19-9,18.8-19.6C516.2,135.8,507.7,127.4,497.2,127.4L497.2,127.4L497.2,127.4z"/>
<linearGradient id="SVGID_7_" gradientUnits="userSpaceOnUse" x1="-2859.0127" y1="-2484.7363" x2="-2857.6926" y2="-2488.9763" gradientTransform="matrix(4.93 0 0 -4.93 14575.0996 -12107.71)">
	<stop  offset="0" style="stop-color:#000000;stop-opacity:0.5"/>
	<stop  offset="0.75" style="stop-color:#000000;stop-opacity:3.000000e-02"/>
</linearGradient>
<path class="st19" d="M492.4,165.2c-8.3-2.2-14.2-9.6-14.3-18.2l0,0c0,6.8,2.4,13.5,6.9,18.6c0.9,0.1,1.7,0.2,2.6,0.2
	C489.2,165.8,490.8,165.6,492.4,165.2z"/>
<linearGradient id="SVGID_8_" gradientUnits="userSpaceOnUse" x1="-2856.8372" y1="-2484.6848" x2="-2853.0271" y2="-2484.6848" gradientTransform="matrix(4.93 0 0 -4.93 14575.0996 -12107.71)">
	<stop  offset="0" style="stop-color:#000000;stop-opacity:0.9"/>
	<stop  offset="0.6" style="stop-color:#000000;stop-opacity:0.1"/>
</linearGradient>
<path class="st20" d="M478.1,146.3c1.5-5,6.7-7.8,11.7-6.4c0.2,0.1,0.3,0.1,0.5,0.1c0.6-0.7,1.3-1.2,2.1-1.7
	c-1.4-0.9-3.1-1.3-4.8-1.3C482.5,137,478.3,141.1,478.1,146.3v0.3C478.1,146.5,478.1,146.4,478.1,146.3L478.1,146.3L478.1,146.3z"/>
<path class="st21" d="M252.1,503.9c0,7.2,4.1,13.8,10.6,17l-9-24.7C252.7,498.6,252.1,501.3,252.1,503.9L252.1,503.9L252.1,503.9z
	 M283.7,502.9c0-1.8-0.6-3.6-1.6-5.2c-1-1.5-1.9-2.9-1.9-4.4c0-1.8,1.4-3.2,3.2-3.3h0.2c-7.7-7-19.6-6.5-26.7,1.2
	c-0.7,0.7-1.3,1.5-1.8,2.4h1.2c2,0,5-0.2,5-0.2c0.4,0,0.8,0.4,0.8,0.8c0,0.4-0.3,0.7-0.7,0.8c0,0-1,0.1-2.2,0.2l6.9,20.4l4.1-12.4
	l-2.9-8.1c-1-0.1-2-0.2-2-0.2c-0.4-0.1-0.7-0.5-0.6-0.9c0.1-0.4,0.4-0.7,0.8-0.7c0,0,3.1,0.2,5,0.2s5-0.2,5-0.2
	c0.4,0,0.8,0.4,0.8,0.8c0,0.4-0.3,0.7-0.7,0.8c0,0-1,0.1-2.2,0.2l6.8,20.3l1.9-6.3C283.1,506.4,283.7,504.5,283.7,502.9L283.7,502.9
	L283.7,502.9z"/>
<path class="st21" d="M271.3,505.5l-5.7,16.5c3.8,1.1,7.9,1,11.6-0.3c-0.1-0.1-0.1-0.2-0.1-0.3L271.3,505.5z M287.6,494.8
	c0.1,0.6,0.1,1.3,0.1,1.9c0,2.3-0.5,4.6-1.4,6.8l-5.8,16.7C289.3,515.1,292.5,503.8,287.6,494.8L287.6,494.8L287.6,494.8z"/>
<path class="st21" d="M271,481.9c-12.2,0-22,9.8-22,22s9.8,22,22,22s22-9.8,22-22S283.2,481.9,271,481.9L271,481.9z M271,524.9
	c-11.6,0-21-9.4-21-21c0-11.6,9.4-21,21-21s21,9.4,21,21C292,515.5,282.6,524.9,271,524.9L271,524.9L271,524.9z"/>
<path class="st0" d="M269,456.9c0-0.6,0.4-1,1-1l0,0c0.6,0,1,0.4,1,1l0,0c0,0.6-0.4,1-1,1l0,0C269.4,457.9,269,457.5,269,456.9z
	 M269,463.9c0-0.6,0.4-1,1-1l0,0c0.6,0,1,0.4,1,1l0,0c0,0.6-0.4,1-1,1l0,0C269.5,464.9,269,464.5,269,463.9L269,463.9z M269,449.8
	c0-0.6,0.4-1,1-1l0,0c0.6,0,1,0.4,1,1l0,0c0,0.6-0.4,1-1,1l0,0C269.5,450.8,269,450.4,269,449.8L269,449.8z M269,442.8
	c0-0.6,0.4-1,1-1l0,0c0.6,0,1,0.4,1,1l0,0c0,0.6-0.4,1-1,1l0,0C269.4,443.8,269,443.4,269,442.8z M269,435.8c0-0.6,0.4-1,1-1l0,0
	c0.6,0,1,0.4,1,1l0,0c0,0.6-0.4,1-1,1l0,0C269.4,436.8,269,436.4,269,435.8C269,435.8,269,435.8,269,435.8L269,435.8z M269,428.8
	c0-0.6,0.4-1,1-1l0,0c0.6,0,1,0.4,1,1l0,0c0,0.6-0.4,1-1,1l0,0C269.4,429.8,269,429.4,269,428.8C269,428.8,269,428.8,269,428.8
	L269,428.8z M269,421.8c0-0.6,0.4-1,1-1l0,0c0.6,0,1,0.4,1,1l0,0c0,0.6-0.4,1-1,1l0,0C269.4,422.8,269,422.3,269,421.8
	C269,421.7,269,421.7,269,421.8L269,421.8z M269,414.8c0-0.6,0.4-1,1-1l0,0c0.6,0,1,0.4,1,1l0,0c0,0.6-0.4,1-1,1l0,0
	C269.4,415.8,269,415.3,269,414.8c0,0,0-0.1,0-0.1V414.8z M269,407.7c0-0.6,0.4-1,1-1l0,0c0.6,0,1,0.4,1,1l0,0c0,0.6-0.4,1-1,1l0,0
	C269.4,408.7,269,408.3,269,407.7c0,0,0-0.1,0-0.1V407.7z M269,400.7c0-0.6,0.4-1,1-1l0,0c0.6,0,1,0.4,1,1l0,0c0,0.6-0.4,1-1,1l0,0
	C269.4,401.7,269,401.3,269,400.7c0,0,0-0.1,0-0.2V400.7z M269,393.7c0-0.6,0.4-1,1-1l0,0c0.6,0,1,0.4,1,1l0,0c0,0.6-0.4,1-1,1l0,0
	C269.4,394.7,269,394.3,269,393.7c0-0.1,0-0.1,0-0.2V393.7z M269,386.7c0-0.6,0.4-1,1-1l0,0c0.6,0,1,0.4,1,1l0,0c0,0.6-0.4,1-1,1
	l0,0C269.4,387.7,269,387.2,269,386.7c0-0.1,0-0.1,0-0.2V386.7z M269,379.7c0-0.6,0.4-1,1-1l0,0c0.6,0,1,0.4,1,1l0,0
	c0,0.6-0.4,1-1,1l0,0C269.4,380.7,269,380.3,269,379.7c0-0.1,0-0.2,0-0.3V379.7z M269,372.7c0-0.6,0.4-1,1-1l0,0c0.6,0,1,0.4,1,1
	l0,0c0,0.6-0.4,1-1,1l0,0C269.4,373.7,269,373.3,269,372.7c-0.1-0.1,0-0.2,0-0.3V372.7z M269,365.7c0-0.6,0.4-1,1-1l0,0
	c0.6,0,1,0.4,1,1l0,0c0,0.6-0.4,1-1,1l0,0C269.4,366.7,269,366.3,269,365.7c-0.1-0.1,0-0.2,0-0.3V365.7z M269,358.7c0-0.6,0.4-1,1-1
	l0,0c0.6,0,1,0.4,1,1l0,0c0,0.6-0.4,1-1,1l0,0C269.4,359.7,269,359.3,269,358.7c-0.1-0.1-0.1-0.2,0-0.4V358.7z M269,351.7
	c0-0.6,0.4-1,1-1l0,0c0.6,0,1,0.4,1,1l0,0c0,0.6-0.4,1-1,1l0,0c-0.5,0.1-1-0.3-1.1-0.9c0-0.2,0-0.4,0.1-0.6V351.7z M269,344.6
	c0-0.6,0.4-1,1-1l0,0c0.6,0,1,0.4,1,1l0,0c0,0.6-0.4,1-1,1l0,0c-0.5,0.1-1-0.3-1.1-0.9c0-0.2,0-0.4,0.1-0.6V344.6z M269,337.6
	c0-0.6,0.4-1,1-1l0,0c0.6,0,1,0.4,1,1l0,0c0,0.6-0.4,1-1,1l0,0c-0.5,0.1-1-0.3-1.1-0.9c0-0.2,0-0.4,0.1-0.6V337.6z M269,330.6
	c0-0.6,0.4-1,1-1l0,0c0.6,0,1,0.4,1,1l0,0c0,0.6-0.4,1-1,1l0,0c-0.5,0.1-1-0.3-1.1-0.9c0-0.2,0-0.4,0.1-0.6V330.6z"/>
</svg>
