<svg id="Layer_2" data-name="Layer 2" xmlns="http://www.w3.org/2000/svg" viewBox="0 0 150 60"><title>svg</title><path d="M14.59,19.45v-15h5.49v15a6.78,6.78,0,0,1-2.13,5.32,7.87,7.87,0,0,1-5.46,1.91A7.85,7.85,0,0,1,7,24.79a6.79,6.79,0,0,1-2.12-5.34h5.54A2.75,2.75,0,0,0,11,21.3a1.87,1.87,0,0,0,1.43.59,1.92,1.92,0,0,0,1.45-.59A2.61,2.61,0,0,0,14.59,19.45Z" style="fill:#ec118f"/><path d="M24.37,17.61V4.48h5.31V17.61a4.37,4.37,0,0,0,1.27,3,3.89,3.89,0,0,0,3,1.06,4,4,0,0,0,3-1.06,4.25,4.25,0,0,0,1.22-3V4.48h5.39V17.61a8.82,8.82,0,0,1-1.42,5,8.42,8.42,0,0,1-3.58,3.08,11.37,11.37,0,0,1-4.71,1,9.87,9.87,0,0,1-6.71-2.38A8.41,8.41,0,0,1,24.37,17.61Z" style="fill:#ec118f"/><path d="M54.73,8.4A2.65,2.65,0,0,0,53,8.93a1.85,1.85,0,0,0-.67,1.53A2.16,2.16,0,0,0,53,12.08a4.06,4.06,0,0,0,1.61.94q1,0.33,2.22.63t2.43,0.72a10.84,10.84,0,0,1,2.2,1A4.67,4.67,0,0,1,63,17.18a5.69,5.69,0,0,1,.62,2.74,6,6,0,0,1-2.36,4.78,9.33,9.33,0,0,1-6.22,2,10.05,10.05,0,0,1-6.22-1.79,6,6,0,0,1-2.36-5.07h5.93a2.54,2.54,0,0,0,2.8,2.63,2.74,2.74,0,0,0,1.89-.61,2,2,0,0,0,.68-1.55,2,2,0,0,0-.62-1.53,4.35,4.35,0,0,0-1.61-.94q-1-.34-2.21-0.64a22.92,22.92,0,0,1-2.43-.74,12,12,0,0,1-2.2-1,4.53,4.53,0,0,1-1.61-1.75,5.61,5.61,0,0,1-.62-2.71A5.92,5.92,0,0,1,48.87,6a9.61,9.61,0,0,1,6.07-1.85,10.13,10.13,0,0,1,6,1.61,6,6,0,0,1,2.38,5.09H57.24A2.89,2.89,0,0,0,56.44,9,2.37,2.37,0,0,0,54.73,8.4Z" style="fill:#ec118f"/><path d="M65.31,9.31V4.48H83.94V9.31H77.39V26.47H72V9.31H65.31Z" style="fill:#ec118f"/><path d="M8.54,52.11a10.43,10.43,0,0,1-3.35-8,10.48,10.48,0,0,1,3.35-8A11.55,11.55,0,0,1,16.75,33a12.17,12.17,0,0,1,6.43,1.71,9.82,9.82,0,0,1,4.09,4.84H22.81a6.38,6.38,0,0,0-6.06-3.29,7.57,7.57,0,0,0-5.59,2.16A7.72,7.72,0,0,0,9,44.13a7.71,7.71,0,0,0,2.17,5.72A7.57,7.57,0,0,0,16.75,52a6.38,6.38,0,0,0,6.06-3.29h4.46a9.73,9.73,0,0,1-4.09,4.82,12.26,12.26,0,0,1-6.43,1.69A11.58,11.58,0,0,1,8.54,52.11Z"/><path d="M34,46.22V55H30.3V33.28h7.82A8.7,8.7,0,0,1,44,35.11a5.92,5.92,0,0,1,2.08,4.65,6.2,6.2,0,0,1-1.38,3.95A6.74,6.74,0,0,1,40.5,46l6,9.05H42l-5.67-8.83H34Zm0-10.15v7.36h4.1a4.5,4.5,0,0,0,3.16-1,3.52,3.52,0,0,0,1-2.71,3.52,3.52,0,0,0-1-2.71,4.5,4.5,0,0,0-3.16-1H34Z"/><path d="M62.09,33.25V36H53.3v6.61h7.82V45.4H53.3v6.86h8.8V55H49.58V33.25H62.09Z"/><path d="M80.63,55L79,50.6H69.52L67.89,55H64l8.11-21.8h4.3L84.53,55H80.63Zm-10.1-7.24H78L74.27,37.57Z"/><path d="M85.58,36.07V33.28h15.8v2.79h-6V55H91.64v-19H85.58Z"/><path d="M103.82,55V33.28h3.71V55h-3.71Z"/><path d="M117.82,55l-8.53-21.77h4l6.68,18.07,6.74-18.07h3.94L122.12,55h-4.3Z"/><path d="M144.93,33.25V36h-8.8v6.61h7.82V45.4h-7.82v6.86h8.8V55H132.42V33.25h12.51Z"/><path d="M86.17,5.13V4.46H90V5.13H88.52V9.7H87.62V5.13H86.17Z" style="fill:#ec118f"/><path d="M96.82,4.46V9.7H95.93V6.11L94.26,9.7H93.65L92,6.11V9.7H91.08V4.46h1L94,8.57l1.9-4.11h1Z" style="fill:#ec118f"/></svg>
