<svg id="Layer_2" data-name="Layer 2" xmlns="http://www.w3.org/2000/svg" viewBox="0 0 150 40"><title>svg</title><path d="M8.83,14.88a0.8,0.8,0,0,1-.2.23,0.44,0.44,0,0,1-.27.08A0.72,0.72,0,0,1,8,15a6.71,6.71,0,0,0-.59-0.39,4.82,4.82,0,0,0-.86-0.39,3.71,3.71,0,0,0-1.22-.18,3.61,3.61,0,0,0-1.19.18,2.54,2.54,0,0,0-.87.49,2,2,0,0,0-.52.73,2.32,2.32,0,0,0-.18.91,1.68,1.68,0,0,0,.31,1,2.64,2.64,0,0,0,.81.7,6.17,6.17,0,0,0,1.14.5l1.31,0.44q0.67,0.23,1.31.51a4.6,4.6,0,0,1,1.14.72,3.3,3.3,0,0,1,.81,1.07,3.57,3.57,0,0,1,.31,1.56,5,5,0,0,1-.33,1.83,4.22,4.22,0,0,1-1,1.49,4.55,4.55,0,0,1-1.57,1,5.78,5.78,0,0,1-2.11.36A6.45,6.45,0,0,1,2,27.08a6.17,6.17,0,0,1-2-1.42l0.58-1a0.76,0.76,0,0,1,.2-0.19A0.47,0.47,0,0,1,1,24.44a0.83,0.83,0,0,1,.5.23,8.22,8.22,0,0,0,.7.51,5.39,5.39,0,0,0,1,.51,4,4,0,0,0,1.46.23A3.83,3.83,0,0,0,6,25.74a2.72,2.72,0,0,0,1-.56,2.4,2.4,0,0,0,.6-0.86,2.85,2.85,0,0,0,.21-1.11,1.87,1.87,0,0,0-.31-1.11,2.54,2.54,0,0,0-.8-0.72,5.67,5.67,0,0,0-1.14-.49L4.2,20.48A13.21,13.21,0,0,1,2.89,20a4.25,4.25,0,0,1-1.14-.73A3.34,3.34,0,0,1,1,18.14a4.08,4.08,0,0,1,.89-4.49,4.31,4.31,0,0,1,1.44-.91,5.27,5.27,0,0,1,2-.34,6.3,6.3,0,0,1,2.28.4,5.23,5.23,0,0,1,1.8,1.14Z" style="fill:#414a52"/><path d="M15.44,27.44h-2V12.56h2V27.44Z" style="fill:#414a52"/><path d="M23.71,19.8L18.8,12.56h2a0.57,0.57,0,0,1,.32.07,0.68,0.68,0,0,1,.19.21l3.89,6a2.79,2.79,0,0,1,.22-0.48l3.67-5.44a1,1,0,0,1,.2-0.23,0.41,0.41,0,0,1,.27-0.09h1.92L26.54,19.7l5.1,7.74h-2a0.51,0.51,0,0,1-.36-0.12,1.07,1.07,0,0,1-.21-0.26l-4-6.24a2.2,2.2,0,0,1-.19.42L21,27.06a1.5,1.5,0,0,1-.21.26,0.45,0.45,0,0,1-.34.12H18.59Z" style="fill:#414a52"/><path d="M41.5,21.23v6.21h-2V12.56H43.7a9.2,9.2,0,0,1,2.44.29,4.66,4.66,0,0,1,1.7.83,3.29,3.29,0,0,1,1,1.3,4.35,4.35,0,0,1,.32,1.71,4.28,4.28,0,0,1-.25,1.47,3.89,3.89,0,0,1-.72,1.23,4.3,4.3,0,0,1-1.15.93,5.73,5.73,0,0,1-1.54.58,2.12,2.12,0,0,1,.66.63l4.34,5.91H48.7A0.88,0.88,0,0,1,47.89,27L44,21.7a1.13,1.13,0,0,0-.38-0.36A1.39,1.39,0,0,0,43,21.23H41.5Zm0-1.46h2.11a5.13,5.13,0,0,0,1.55-.21,3.15,3.15,0,0,0,1.12-.6A2.5,2.5,0,0,0,47,18a3,3,0,0,0,.23-1.19,2.37,2.37,0,0,0-.88-2,4.24,4.24,0,0,0-2.61-.68H41.5v5.62Z" style="fill:#414a52"/><path d="M62.67,12.56V14.2H55.52v4.94H61.3v1.58H55.52V25.8h7.15v1.64H53.49V12.56h9.17Z" style="fill:#414a52"/><path d="M64.67,12.56h1.61a0.67,0.67,0,0,1,.44.13A0.84,0.84,0,0,1,67,13l4.21,10.5a7.14,7.14,0,0,1,.26.77c0.08,0.28.16,0.56,0.23,0.86,0.06-.3.13-0.59,0.2-0.86a6.2,6.2,0,0,1,.25-0.77L76.31,13a0.87,0.87,0,0,1,.25-0.33A0.65,0.65,0,0,1,77,12.56h1.62L72.55,27.44H70.74Z" style="fill:#414a52"/><path d="M83.74,27.44h-2V12.56h2V27.44Z" style="fill:#414a52"/><path d="M96.18,14.88a0.8,0.8,0,0,1-.2.23,0.44,0.44,0,0,1-.27.08A0.72,0.72,0,0,1,95.31,15a6.71,6.71,0,0,0-.59-0.39,4.82,4.82,0,0,0-.86-0.39,3.71,3.71,0,0,0-1.22-.18,3.61,3.61,0,0,0-1.19.18,2.54,2.54,0,0,0-.87.49,2,2,0,0,0-.52.73,2.32,2.32,0,0,0-.18.91,1.68,1.68,0,0,0,.31,1,2.64,2.64,0,0,0,.81.7,6.17,6.17,0,0,0,1.14.5l1.31,0.44q0.67,0.23,1.31.51a4.6,4.6,0,0,1,1.14.72,3.3,3.3,0,0,1,.81,1.07A3.57,3.57,0,0,1,97,22.92a5,5,0,0,1-.33,1.83,4.22,4.22,0,0,1-1,1.49,4.55,4.55,0,0,1-1.57,1,5.78,5.78,0,0,1-2.11.36,6.45,6.45,0,0,1-2.63-.52,6.17,6.17,0,0,1-2-1.42l0.58-1a0.76,0.76,0,0,1,.2-0.19,0.47,0.47,0,0,1,.26-0.08,0.83,0.83,0,0,1,.5.23,8.22,8.22,0,0,0,.7.51,5.39,5.39,0,0,0,1,.51,4,4,0,0,0,1.46.23,3.83,3.83,0,0,0,1.28-.2,2.72,2.72,0,0,0,1-.56,2.4,2.4,0,0,0,.6-0.86,2.85,2.85,0,0,0,.21-1.11,1.87,1.87,0,0,0-.31-1.11,2.54,2.54,0,0,0-.8-0.72,5.67,5.67,0,0,0-1.14-.49l-1.31-.42A13.21,13.21,0,0,1,90.25,20a4.25,4.25,0,0,1-1.14-.73,3.34,3.34,0,0,1-.8-1.12,4.08,4.08,0,0,1,.89-4.49,4.31,4.31,0,0,1,1.44-.91,5.27,5.27,0,0,1,2-.34,6.3,6.3,0,0,1,2.28.4,5.23,5.23,0,0,1,1.8,1.14Z" style="fill:#414a52"/><path d="M102.79,27.44h-2V12.56h2V27.44Z" style="fill:#414a52"/><path d="M121.44,20a8.59,8.59,0,0,1-.53,3.07,7,7,0,0,1-1.5,2.4A6.67,6.67,0,0,1,117.09,27a8.34,8.34,0,0,1-6,0,6.7,6.7,0,0,1-2.32-1.56,7,7,0,0,1-1.5-2.4,9.16,9.16,0,0,1,0-6.14,7.08,7.08,0,0,1,1.5-2.41A6.73,6.73,0,0,1,111.1,13a8.27,8.27,0,0,1,6,0,6.7,6.7,0,0,1,2.32,1.57,7.08,7.08,0,0,1,1.5,2.41A8.6,8.6,0,0,1,121.44,20Zm-2.07,0a7.56,7.56,0,0,0-.37-2.46,5.21,5.21,0,0,0-1.06-1.84,4.59,4.59,0,0,0-1.66-1.16,6,6,0,0,0-4.35,0,4.65,4.65,0,0,0-1.67,1.16,5.17,5.17,0,0,0-1.07,1.84,7.56,7.56,0,0,0-.37,2.46,7.51,7.51,0,0,0,.37,2.46,5.17,5.17,0,0,0,1.07,1.84,4.59,4.59,0,0,0,1.67,1.15,6.12,6.12,0,0,0,4.35,0,4.53,4.53,0,0,0,1.66-1.15A5.21,5.21,0,0,0,119,22.46,7.51,7.51,0,0,0,119.37,20Z" style="fill:#414a52"/><path d="M126.46,12.62a1,1,0,0,1,.3.28l8.62,11.22c0-.18,0-0.35,0-0.52s0-.33,0-0.49V12.56h1.77V27.44h-1a0.86,0.86,0,0,1-.4-0.08,1,1,0,0,1-.32-0.28l-8.61-11.21c0,0.17,0,.34,0,0.51s0,0.32,0,.46V27.44H125V12.56h1A0.91,0.91,0,0,1,126.46,12.62Z" style="fill:#414a52"/><path d="M149.18,14.88a0.8,0.8,0,0,1-.2.23,0.44,0.44,0,0,1-.27.08A0.72,0.72,0,0,1,148.3,15a6.71,6.71,0,0,0-.59-0.39,4.82,4.82,0,0,0-.86-0.39,3.71,3.71,0,0,0-1.22-.18,3.61,3.61,0,0,0-1.19.18,2.54,2.54,0,0,0-.87.49,2,2,0,0,0-.52.73,2.32,2.32,0,0,0-.18.91,1.68,1.68,0,0,0,.31,1,2.64,2.64,0,0,0,.81.7,6.17,6.17,0,0,0,1.14.5l1.31,0.44q0.67,0.23,1.31.51a4.6,4.6,0,0,1,1.14.72,3.3,3.3,0,0,1,.81,1.07,3.57,3.57,0,0,1,.31,1.56,5,5,0,0,1-.33,1.83,4.22,4.22,0,0,1-1,1.49,4.55,4.55,0,0,1-1.57,1,5.78,5.78,0,0,1-2.11.36,6.45,6.45,0,0,1-2.63-.52,6.17,6.17,0,0,1-2-1.42l0.58-1a0.76,0.76,0,0,1,.2-0.19,0.47,0.47,0,0,1,.26-0.08,0.83,0.83,0,0,1,.5.23,8.22,8.22,0,0,0,.7.51,5.39,5.39,0,0,0,1,.51,4,4,0,0,0,1.46.23,3.83,3.83,0,0,0,1.28-.2,2.72,2.72,0,0,0,1-.56,2.4,2.4,0,0,0,.6-0.86,2.85,2.85,0,0,0,.21-1.11,1.87,1.87,0,0,0-.31-1.11,2.54,2.54,0,0,0-.8-0.72,5.67,5.67,0,0,0-1.14-.49l-1.31-.42a13.21,13.21,0,0,1-1.31-.49,4.25,4.25,0,0,1-1.14-.73,3.34,3.34,0,0,1-.8-1.12,4.08,4.08,0,0,1,.89-4.49,4.31,4.31,0,0,1,1.44-.91,5.27,5.27,0,0,1,2-.34,6.3,6.3,0,0,1,2.28.4,5.23,5.23,0,0,1,1.8,1.14Z" style="fill:#414a52"/></svg>
