<svg id="Layer_2" data-name="Layer 2" xmlns="http://www.w3.org/2000/svg" viewBox="0 0 150 40"><title>svg</title><path d="M15,28.47H14.23L2.76,17.32V28.47H0V11.85H0.74l11.48,11v-11H15V28.47ZM31.76,21.4H23.41V26h9.87v2.43H20.65V11.85H33.24v2.43H23.37v4.77h8.35V21.4h0ZM42,28.47H39.21V11.85H42V28.47Zm6.58,0V11.85H51.3V26h9.22v2.43h-12ZM65.78,11.85H73c4.16,0,6.71,2,6.71,5.64,0,3.83-2.76,5.88-6.87,5.88H68.54v5.14H65.78V11.85h0Zm7.12,2.43H68.54v6.66H72.9c2.47,0,4-1,4-3.33S75.33,14.28,72.9,14.28ZM90,11.85h0.53L99,28.47H95.86L94.62,26H86l-1.23,2.51H81.66Zm0.37,5.06H90.22l-3,6.5-0.16.29h6.46l-0.16-.29-3-6.5h0Zm9.83-5.06h13.95v2.43h-5.6V28.47h-2.76V14.28h-5.6V11.85h0Zm30.36,9.54h-8.35V26h9.87v2.43H119.51V11.85H132.1v2.43h-9.87v4.77h8.35V21.4ZM138,28.47V11.85h2.76V26H150v2.43H138Z" style="fill:#ec6437"/></svg>
