<svg id="Layer_2" data-name="Layer 2" xmlns="http://www.w3.org/2000/svg" viewBox="0 0 150 60"><title>svg</title><path d="M145,14H100v4.65A25.38,25.38,0,0,0,79.25,8.31c-9.59,0-17.85,4.89-21.83,12.05V14H43.63L31.37,31,16.63,14H5.08L5,46H15.93L16,30,30.44,47h2.68L46.5,30.5,46.57,46H57.43V39.7c4,7.16,12.23,12,21.81,12,13.48,0,24.36-9.8,24.36-21.8A23.44,23.44,0,0,0,103,25h15.51L98,46h44V36H124.4ZM79.24,39.52c-5.94,0-10.73-4.27-10.73-9.56S73.3,20.4,79.24,20.4,90,24.66,90,30s-4.79,9.56-10.73,9.56h0Zm0,0" style="fill:#03a9f4"/></svg>
