<?xml version="1.0" encoding="utf-8"?>
<!-- Generator: Adobe Illustrator 19.2.1, SVG Export Plug-In . SVG Version: 6.00 Build 0)  -->
<svg version="1.1" id="Layer_3" xmlns="http://www.w3.org/2000/svg" xmlns:xlink="http://www.w3.org/1999/xlink" x="0px" y="0px"
	 viewBox="0 0 1236 840" style="enable-background:new 0 0 1236 840;" xml:space="preserve">
<style type="text/css">
	.st0{fill:#FFFFFF;}
	.st1{fill:#F1F3F5;}
	.st2{fill:#DEE2E6;}
	.st3{fill:#132A57;}
	.st4{fill:#FFF7F7;}
	.st5{fill:#BCC2C9;}
	.st6{fill:#D35050;}
	.st7{fill:#FB7171;}
	.st8{fill:#F88234;}
	.st9{fill:#FDCF42;}
	.st10{fill:#54AF66;}
	.st11{fill:#98D346;}
	.st12{fill:#35A683;}
	.st13{fill:#3BABBC;}
	.st14{fill:#4A9FEA;}
	.st15{fill:#7994FB;}
	.st16{fill:#8A69EC;}
	.st17{fill:#EAABF8;}
	.st18{fill:#BD61D3;}
	.st19{fill:#B6466D;}
	.st20{fill:#F8F9FA;}
	.st21{fill:#17336B;}
	.st22{fill:#ADD0F0;}
	.st23{fill:#5558DD;}
	.st24{fill:#586979;}
	.st25{fill:#6D7379;}
	.st26{fill:#272525;}
	.st27{fill:url(#SVGID_1_);}
	.st28{opacity:0.6;fill:#F8F9FA;enable-background:new    ;}
	.st29{opacity:0.9;fill:#6E5C4E;enable-background:new    ;}
	.st30{opacity:0.8;}
	.st31{fill:#F5E9DD;}
	.st32{fill:#212529;}
	.st33{opacity:0.7;}
	.st34{opacity:0.7;fill:#212529;enable-background:new    ;}
	.st35{fill:#E9ECEF;}
	.st36{fill:url(#SVGID_2_);}
	.st37{fill:#E6EE9C;}
	.st38{fill:#FFCCBC;}
	.st39{fill:#FF5746;}
	.st40{fill:url(#SVGID_3_);}
	.st41{fill:#99E9F2;}
	.st42{fill-rule:evenodd;clip-rule:evenodd;fill:#132A57;}
	.st43{opacity:0.4;fill-rule:evenodd;clip-rule:evenodd;fill:#99E9F2;}
	.st44{fill:url(#SVGID_4_);}
	.st45{fill:#3B5891;}
	.st46{fill-rule:evenodd;clip-rule:evenodd;fill:#FFEE58;}
	.st47{fill:#FDD835;}
</style>
<rect x="292" y="48" class="st0" width="894.6" height="792"/>
<path class="st1" d="M1232,0H4C1.8,0,0,1.8,0,4v44h1236V4C1236,1.8,1234.2,0,1232,0z"/>
<circle class="st2" cx="30.8" cy="24.5" r="8.1"/>
<circle class="st2" cx="60.5" cy="24.5" r="8.1"/>
<circle class="st2" cx="90.2" cy="24.5" r="8.1"/>
<path class="st3" d="M0,836c0,2.2,1.8,4,4,4h288V48H0V836z"/>
<path class="st21" d="M0,48v318.7h76V48H0z M0,836c0,2.2,1.8,4,4,4h72V443.6H0V836z"/>
<path class="st22" d="M22,70v36h36V70H22z M55,86H41V73h14V86z M25,73h13v30H25V73z M41,103V89h14v14H41z"/>
<path class="st22" d="M51,163.4V156h6v-9h-9v6H30v-6h-9v9h6v18h-6v9h9v-6h18v6h9v-9h-6V163.4z M51,150h3v3h-3V150z M27,180h-3v-3h3
	V180z M27,153h-3v-3h3V153z M30,174v-6.2l5.3,6.2H30z M39.5,174L30,163.6v-6.4L45.9,174H39.5z M48,171l-15.9-15h6.4l9.5,8.6V171z
	 M48,160.4l-5.2-4.4H48V160.4L48,160.4z M54,177v3h-3v-3H54z"/>
<polygon class="st22" points="44,233 20,233 20,236 31,236 31,266 34,266 34,236 44,236 "/>
<path class="st22" d="M56,248v-3h-4v-5h-3v5h-5v3h5v11.1c0,2,0.4,3.7,1.4,4.8c1.7,1.7,5.6,1.2,5.6,1.2V263h-1c-2.5,0-3-2.9-3-3.8
	V248H56z"/>
<path class="st22" d="M58,310H31v9h-9v27h27v-9h9V310z M46,343H25v-21h6v15h15V343z M55,334H34v-21h21V334z"/>
<path class="st22" d="M49.9,326c-1.3,0.7-2.3,2.9-3.5,1.4c-1-1.3-1.8-2.7-2.6-4.1c-1.1-1.8-2.5-3.4-4.1-1.6c-1.8,2-3.1,7.5-3.4,10
	h17.3C53.3,330.3,51.7,324.9,49.9,326z"/>
<circle class="st22" cx="49.5" cy="318.2" r="3"/>
<path class="st0" d="M59.3,397.8c0-7.2-5.8-13.1-13-13.2c-0.1,0-0.2,0-0.3,0c-5.9,0-10.7,4.4-12.6,9.4H23v27h27v-10.5
	C55.6,408.9,59.5,403.6,59.3,397.8z M47,418H26v-21h6.6c0,1-0.1,0.6-0.1,1.1c-0.1,7.3,5.7,13.2,12.9,13.3c0.1,0,0.2,0,0.3,0
	c0.4,0,0.8-0.1,1.2-0.3V418z M46,408.3c-5.8,0-10.5-4.7-10.5-10.5c0-5.8,4.7-10.5,10.5-10.5s10.5,4.7,10.5,10.5
	C56.5,403.6,51.8,408.3,46,408.3z"/>
<polygon class="st22" points="39,473.7 42.1,477 32,477 32,480 42.1,480 39,483.1 41.1,485.2 47.9,478.4 41.1,471.6 "/>
<path class="st22" d="M59,466.7c-0.1-1.6-1.5-2.8-3.1-2.7c0,0,0,0-0.1,0h-33c-1.4-0.1-2.7,0.9-2.8,2.3c0,0.1,0,0.2,0,0.3v24.1
	c-0.1,1.7,1.2,3.1,2.8,3.2h33c1.7-0.1,3.1-1.5,3.2-3.2V466.7z M23,491v-24h33.5v24H23z"/>
<rect x="21" y="543" class="st22" width="6" height="6"/>
<rect x="36" y="543" class="st22" width="6" height="6"/>
<rect x="51" y="543" class="st22" width="6" height="6"/>
<path class="st20" d="M1141.9,48H292v50.9h894.6V840h43.4c4.4,0,6-1.4,6-5.5V48H1141.9z"/>
<rect x="1186.9" y="148.9" class="st1" width="49.3" height="49.3"/>
<rect x="1201.7" y="116.8" class="st2" width="20" height="2"/>
<rect x="1201.7" y="122.8" class="st2" width="20" height="2"/>
<rect x="1201.7" y="128.9" class="st2" width="20" height="2"/>
<rect x="1201.7" y="166.6" class="st2" width="20" height="2"/>
<rect x="1201.7" y="172.6" class="st2" width="20" height="2"/>
<rect x="1201.7" y="178.6" class="st2" width="20" height="2"/>
<rect x="1201.7" y="213.3" class="st2" width="20" height="2"/>
<rect x="1201.7" y="219.3" class="st2" width="20" height="2"/>
<rect x="1201.7" y="225.3" class="st2" width="20" height="2"/>
<rect x="1201.7" y="260" class="st2" width="20" height="2"/>
<rect x="1201.7" y="266" class="st2" width="20" height="2"/>
<rect x="1201.7" y="272" class="st2" width="20" height="2"/>
<rect x="1201.7" y="306.7" class="st2" width="20" height="2"/>
<rect x="1201.7" y="312.7" class="st2" width="20" height="2"/>
<rect x="1201.7" y="318.7" class="st2" width="20" height="2"/>
<rect x="1201.7" y="353.4" class="st2" width="20" height="2"/>
<rect x="1201.7" y="359.4" class="st2" width="20" height="2"/>
<rect x="1201.7" y="365.4" class="st2" width="20" height="2"/>
<rect x="1201.7" y="400.1" class="st2" width="20" height="2"/>
<rect x="1201.7" y="406.1" class="st2" width="20" height="2"/>
<rect x="1201.7" y="412.1" class="st2" width="20" height="2"/>
<rect x="1201.7" y="446.8" class="st2" width="20" height="2"/>
<rect x="1201.7" y="452.8" class="st2" width="20" height="2"/>
<rect x="1201.7" y="458.8" class="st2" width="20" height="2"/>
<rect x="1185.7" y="47.6" class="st1" width="2.4" height="790.9"/>
<rect x="1185.7" y="148.9" class="st2" width="2.4" height="49.3"/>
<rect x="1188.1" y="47.6" class="st1" width="48.2" height="51.2"/>
<path class="st2" d="M1198.2,72.9l2.7-1.3l10.7,5.3l10.7-5.3l2.7,1.3l-13.4,6.7L1198.2,72.9z M1198.2,67.6l13.4-6.7l13.4,6.7
	l-13.4,6.7L1198.2,67.6z M1211.5,63.6l-8,4l8,4l8-4L1211.5,63.6z M1211.5,82.2l10.7-5.3l2.7,1.3l-13.4,6.7l-13.4-6.7l2.7-1.3
	L1211.5,82.2z"/>
<path class="st2" d="M653.3,81.5c0-7.8-7.3-11.7-11.3-12.4v-3.9l-10,7.5l10,7.5v-5C647,75.5,650,76.9,653.3,81.5z"/>
<path class="st2" d="M691.7,81.5c0-7.8,7.3-11.7,11.3-12.4v-3.9l10,7.5l-10,7.5v-5C698,75.5,695,76.9,691.7,81.5z"/>
<path class="st2" d="M788.4,65.5c-4.4,0-8.5,2.6-11.4,7.2l0,0c3,4.7,7,7.2,11.4,7.2s8.5-2.6,11.4-7.2
	C796.8,68.1,792.8,65.5,788.4,65.5z M788.4,77.8c-2.8,0-5-2.2-5-5s2.2-5,5-5s5,2.2,5,5S791.1,77.8,788.4,77.8z M788.4,70.3
	c-1.4,0-2.5,1.1-2.5,2.5s1.1,2.5,2.5,2.5s2.5-1.1,2.5-2.5S789.8,70.3,788.4,70.3z"/>
<polygon class="st2" points="843,65.8 853,72.8 843,79.8 "/>
<rect x="745.5" y="59" class="st2" width="1.4" height="28.3"/>
<g>
	<path class="st0" d="M112.6,72.9l-1,2.1c-1.2-0.7-2.6-1.2-3.5-1.2c-0.8,0-1.4,0.3-1.4,0.9c0,2.1,6,0.9,6,4.9c0,2.2-1.9,3.4-4.4,3.4
		c-1.8,0-3.7-0.7-4.9-1.8l1-2.1c1.2,1,2.8,1.7,4,1.7c1,0,1.7-0.4,1.7-1.1c0-2.1-6-0.9-6-4.8c0-2,1.7-3.3,4.3-3.3
		C109.9,71.7,111.5,72.2,112.6,72.9z"/>
	<path class="st0" d="M122.6,83v-4.4h-5.1V83H115V71.8h2.5v4.7h5.1v-4.7h2.5V83H122.6z"/>
	<path class="st0" d="M130.3,80.8l-0.9,2.2h-2.6l4.9-11.2h2.6l4.8,11.2h-2.7l-0.9-2.2H130.3z M132.9,74.4l-1.8,4.4h3.5L132.9,74.4z"
		/>
	<path class="st0" d="M145.4,71.8c2.8,0,4.5,1.4,4.5,3.9c0,2.6-1.6,4.1-4.5,4.1h-2.2V83h-2.5V71.8H145.4z M143.2,77.7h2.1
		c1.4,0,2.2-0.6,2.2-1.9c0-1.2-0.8-1.9-2.2-1.9h-2.1V77.7z"/>
	<path class="st0" d="M154.5,73.9v2.4h5.4v2.1h-5.4v2.5h6.2V83H152V71.8h8.5v2.1H154.5z"/>
	<path class="st0" d="M171.5,72.9l-1,2.1c-1.2-0.7-2.6-1.2-3.5-1.2c-0.8,0-1.4,0.3-1.4,0.9c0,2.1,6,0.9,6,4.9c0,2.2-1.9,3.4-4.4,3.4
		c-1.8,0-3.7-0.7-4.9-1.8l1-2.1c1.2,1,2.8,1.7,4,1.7c1,0,1.7-0.4,1.7-1.1c0-2.1-6-0.9-6-4.8c0-2,1.7-3.3,4.3-3.3
		C168.8,71.7,170.4,72.2,171.5,72.9z"/>
</g>
<rect x="105" y="103" class="st20" width="147" height="1"/>
<rect x="105.6" y="130.3" class="st45" width="59.9" height="59.9"/>
<path class="st45" d="M246.9,135.9v48.8h-48.8v-48.8H246.9 M252.5,130.3h-59.9v59.9h59.9V130.3L252.5,130.3z"/>
<path class="st45" d="M152.6,271.3h-34.1c-7.1,0-12.9-5.8-12.9-12.9v-34.1c0-7.1,5.8-12.9,12.9-12.9h34.1c7.1,0,12.9,5.8,12.9,12.9
	v34.1C165.5,265.5,159.8,271.3,152.6,271.3z"/>
<path class="st45" d="M240.6,216.8c3.5,0,6.3,2.8,6.3,6.3v36.2c0,3.5-2.8,6.3-6.3,6.3h-36.2c-3.5,0-6.3-2.8-6.3-6.3v-36.2
	c0-3.5,2.8-6.3,6.3-6.3H240.6 M240.6,211.3h-36.2c-6.5,0-11.8,5.3-11.8,11.8v36.2c0,6.5,5.3,11.8,11.8,11.8h36.2
	c6.5,0,11.8-5.3,11.8-11.8v-36.2C252.5,216.6,247.2,211.3,240.6,211.3L240.6,211.3z"/>
<path class="st45" d="M135.6,352.2L135.6,352.2c-16.5,0-30-13.4-30-30v0c0-16.5,13.4-30,30-30h0c16.5,0,30,13.4,30,30v0
	C165.5,338.8,152.1,352.2,135.6,352.2z"/>
<path class="st45" d="M222.5,297.9c13.4,0,24.4,10.9,24.4,24.4c0,13.4-10.9,24.4-24.4,24.4s-24.4-10.9-24.4-24.4
	C198.1,308.8,209.1,297.9,222.5,297.9 M222.5,292.3c-16.5,0-30,13.4-30,30v0c0,16.5,13.4,30,30,30c16.5,0,30-13.4,30-30v0
	C252.5,305.7,239.1,292.3,222.5,292.3L222.5,292.3z"/>
<path class="st45" d="M199.7,409.9c4.4,2.8,9.6,4.4,15.1,4.4c15.6,0,28.3-12.7,28.3-28.3c0-0.4,0-0.8,0-1.2c0.6-0.4,4.1-3.2,4.9-5
	c0,0-2.8,1.2-5.6,1.5c0,0,0,0,0,0c0,0,0,0,0,0c0.3-0.2,3.8-2.6,4.3-5.5c0,0-2,1.1-4.8,2c-0.5,0.2-1,0.3-1.5,0.4
	c-1.8-1.9-4.4-3.1-7.2-3.1c-5.5,0-9.9,4.4-9.9,9.9c0,0.8,0.1,1.5,0.3,2.2c-0.8,0-12.4-0.7-20.4-10.3c0,0-4.7,6.5,2.8,13.1
	c0,0-2.3-0.1-4.3-1.3c0,0-0.7,7.8,7.8,9.9c0,0-1.7,0.6-4.4,0.2c0,0,1.5,6.3,9.1,6.9C214.2,405.8,208.2,411.2,199.7,409.9
	L199.7,409.9z M199.7,409.9"/>
<path class="st45" d="M128.8,419.2V397h-7.5v-9.1h7.5v-7.6c0-5.6,4.5-10.1,10.1-10.1h7.8v8.2h-5.6c-1.8,0-3.2,1.4-3.2,3.2v6.3h8.7
	l-1.2,9.1h-7.5v22.3"/>
<polygon class="st45" points="105.9,486.6 134,437.9 162.1,486.6 "/>
<path class="st45" d="M250.6,487h-56.3l28.1-50.7L250.6,487z M205.6,480.4h33.8l-16.9-30.5L205.6,480.4z"/>
<path class="st45" d="M134.7,569.7c15.3,0,27.5-12.3,27.5-27.5c0-15.3-12.3-27.5-27.5-27.5s-27.5,12.3-27.5,27.5
	C107.1,557.4,119.4,569.7,134.7,569.7z M118.4,540.9c0-0.8,0.5-1.3,1.3-1.3h20.8c0.5,0,0.9-0.6,0.5-1.1l-5-5c-0.5-0.5-0.5-1.3,0-1.8
	l1.8-1.8c0.3-0.3,0.5-0.4,0.9-0.4s0.6,0.1,0.9,0.4l11.3,11.3c0.1,0.3,0.3,0.5,0.3,0.9s-0.1,0.6-0.4,0.9l-11.3,11.3
	c-0.3,0.3-0.5,0.4-0.9,0.4s-0.6-0.1-0.9-0.4l-1.8-1.8c-0.5-0.5-0.5-1.3,0-1.8l5-5c0.4-0.4,0.1-1.1-0.5-1.1h-20.6
	c-0.8,0-1.3-0.5-1.3-1.3V540.9z"/>
<g>
	<path class="st45" d="M248.1,527.2l-6.5-3.7l-3.7-6.5h-7.5l-6.5-3.7l-6.5,3.7H210l-3.7,6.5l-6.5,3.7v7.5l-3.7,6.5l3.7,6.5v7.5
		l6.5,3.7l3.7,6.5h7.5l6.5,3.7l6.5-3.7h7.5l3.7-6.5l6.5-3.7v-7.5l3.7-6.5l-3.7-6.5L248.1,527.2L248.1,527.2z M221.4,552.6
		c-0.5,0.5-1.2,0.8-1.9,0.8c-0.7,0-1.4-0.2-1.9-0.8l-8.1-8.1c-1-1-1-2.7,0-3.7l2.2-2.2c1-1,2.7-1,3.7,0l4.2,4.2l13-13
		c1-1,2.7-1,3.7,0l2.2,2.2c1,1,1,2.7,0,3.7L221.4,552.6z"/>
</g>
<g>
	<g>
		<path class="st45" d="M160.7,720.6c0.1,0.8-0.1,1.5-0.7,2.1l-6.9,6.9c-0.3,0.3-0.7,0.6-1.2,0.9c-0.5,0.2-1,0.4-1.5,0.5
			c0,0-0.1,0-0.3,0c-0.2,0-0.4,0-0.7,0c-0.7,0-1.7-0.1-3.2-0.3c-1.5-0.2-3.3-0.8-5.4-1.7c-2.1-0.9-4.6-2.2-7.3-4
			c-2.7-1.8-5.6-4.2-8.6-7.3c-2.4-2.4-4.4-4.7-6-6.9c-1.6-2.2-2.9-4.2-3.9-6.1c-1-1.9-1.7-3.5-2.2-5.1c-0.5-1.5-0.8-2.8-1-3.9
			c-0.2-1.1-0.2-2-0.2-2.6c0-0.6,0.1-1,0.1-1c0.1-0.5,0.2-1,0.5-1.5c0.2-0.5,0.5-0.9,0.9-1.2l6.9-6.9c0.5-0.5,1-0.7,1.7-0.7
			c0.5,0,0.9,0.1,1.2,0.4c0.3,0.3,0.6,0.6,0.9,1l5.6,10.6c0.3,0.6,0.4,1.2,0.3,1.8c-0.1,0.7-0.4,1.2-0.9,1.7l-2.6,2.6
			c-0.1,0.1-0.1,0.2-0.2,0.3s-0.1,0.3-0.1,0.4c0.1,0.7,0.5,1.6,0.9,2.5c0.4,0.8,1.1,1.8,1.9,3c0.9,1.2,2.1,2.6,3.7,4.1
			c1.6,1.6,3,2.8,4.2,3.7c1.2,0.9,2.2,1.5,3,2s1.4,0.7,1.9,0.8l0.7,0.1c0.1,0,0.2,0,0.3-0.1c0.2-0.1,0.3-0.1,0.3-0.2l3-3
			c0.6-0.6,1.4-0.8,2.2-0.8c0.6,0,1.1,0.1,1.4,0.3h0.1l10.1,5.9C160.1,719.4,160.6,719.9,160.7,720.6z"/>
	</g>
</g>
<g>
	<path class="st45" d="M222.3,677.8l7.1,16.8l18.2,1.6c1.3,0.1,1.8,1.7,0.8,2.5l-13.8,11.9l4.1,17.8c0.3,1.2-1.1,2.2-2.1,1.5
		l-15.6-9.4l-15.6,9.4c-1.1,0.7-2.4-0.3-2.1-1.5l4.1-17.8l-13.8-11.9c-1-0.8-0.4-2.4,0.8-2.5l18.2-1.6l7.1-16.8
		C220.1,676.6,221.8,676.6,222.3,677.8z"/>
</g>
<path class="st45" d="M160.7,619c-0.8-0.9-1.5-1.8-1.8-2.7c-0.3-0.9-0.2-2.1-0.2-3.4c0.1-2,0.2-4-1-5.6c-1.2-1.6-3.2-2.2-5-2.7
	c-1.2-0.3-2.4-0.6-3.1-1.2c-0.7-0.5-1.4-1.5-2.1-2.6c-1-1.6-2.2-3.4-4.1-4c-0.5-0.1-0.9-0.2-1.5-0.2c-1.4,0-2.7,0.5-4.1,1
	c-1.2,0.5-2.3,0.9-3.3,0.9s-2.1-0.4-3.3-0.9c-1.3-0.5-2.7-1-4.1-1c-0.5,0-1,0.1-1.5,0.2c-1.9,0.6-3.1,2.4-4.1,4
	c-0.7,1-1.3,2-2.1,2.6c-0.8,0.5-1.9,0.9-3.1,1.2c-1.8,0.5-3.9,1-5,2.7c-1.2,1.6-1.1,3.6-1,5.6c0.1,1.3,0.1,2.5-0.2,3.4
	c-0.3,0.8-1,1.7-1.8,2.7c-1.2,1.5-2.6,3.2-2.6,5.2s1.4,3.7,2.6,5.2c0.8,0.9,1.5,1.8,1.8,2.7c0.3,0.9,0.2,2.1,0.2,3.4
	c-0.1,2-0.2,4,1,5.6c1.2,1.6,3.2,2.2,5,2.7c1.2,0.3,2.4,0.6,3.1,1.2c0.7,0.5,1.4,1.5,2.1,2.6c1,1.6,2.2,3.4,4.1,4
	c0.5,0.1,0.9,0.2,1.5,0.2c1.4,0,2.7-0.5,4.1-1c1.2-0.5,2.3-0.9,3.3-0.9s2.1,0.4,3.3,0.9c1.3,0.5,2.7,1,4.1,1c0.5,0,1-0.1,1.5-0.2
	c1.9-0.6,3.1-2.4,4.1-4c0.7-1,1.3-2,2.1-2.6c0.8-0.5,1.9-0.9,3.1-1.2c1.8-0.5,3.9-1,5-2.7c1.2-1.6,1.1-3.6,1-5.6
	c-0.1-1.3-0.1-2.5,0.2-3.4c0.3-0.8,1-1.7,1.8-2.7c1.2-1.5,2.6-3.2,2.6-5.2S161.9,620.4,160.7,619z M125.6,631.1h-3.1l-5.1-8.4v8.4
	h-3.1v-13.8h3l4.9,8.4v-8.4h3.3V631.1z M137.1,619.8h-6.4v2.8h5.4v2.6h-5.4v3.3h6.4v2.6h-9.5v-13.8h9.5V619.8z M151.7,631.1h-2.9
	l-2.2-8.1l-2.2,8.1h-2.9l-3.3-13.8h3.2l1.7,8.3l2.3-8.3h2.4l2.3,8.3l1.7-8.3h3.2L151.7,631.1z"/>
<g>
	<path class="st45" d="M246.7,610.6l-5.3-5.3c-0.6-0.6-1.7-0.6-2.3,0l-22.3,22.3l-9.5-9.5c-0.6-0.6-1.7-0.6-2.3,0l-5.3,5.3
		c-0.6,0.6-0.6,1.7,0,2.3l16,16c0.3,0.3,0.7,0.5,1.1,0.5c0.4,0,0.8-0.2,1.1-0.5l28.8-28.8c0.3-0.3,0.5-0.7,0.5-1.1
		C247.2,611.4,247,611,246.7,610.6z"/>
</g>
<g id="XMLID_106_">
	<path id="XMLID_107_" class="st45" d="M200.1,760.7c-0.4,0-0.9,0.4-0.7,0.9l4,45.9c0,0.4,0.4,1,0.9,1l17.3,4.8
		c0.4,0.1,1.2,0.1,1.6,0l17.3-4.8c0.4-0.1,0.9-0.6,0.9-1l4-45.9c0-0.4-0.3-0.9-0.7-0.9H200.1z M237,771.2c0,0.4-0.1,1.2-0.1,1.6
		l-0.1,1.2c0,0.4-0.1,1.2-0.1,1.5c0,0.3,0,0.6,0,0.6s-0.4,0-0.9,0h-12.3c-0.4,0-0.9,0-0.9,0s-0.4,0-0.9,0h-6.4
		c-0.4,0-0.9,0.4-0.7,0.9l0.4,4.2c0,0.4,0.4,0.9,0.9,0.9h6c0.4,0,0.9,0,0.9,0s0.4,0,0.9,0h10.2c0.4,0,1.2,0,1.6,0s0.7,0.3,0.7,0.7
		c0,0.4-0.1,1.2-0.1,1.6l-1.2,13.6c0,0.4-0.1,1-0.1,1.3c0,0.3-0.4,0.6-0.9,0.7l-10.3,2.8c-0.4,0.1-0.9,0.3-0.9,0.3s-0.4-0.1-0.9-0.3
		l-10.2-2.7c-0.4-0.1-0.9-0.6-0.9-1l-0.6-7.5c0-0.4,0.3-0.9,0.7-0.9h0.9c0.4,0,1.3,0,1.8,0h1.3c0.4,0,0.9,0.4,0.9,0.9l0.3,2.8
		c0,0.4,0.4,1,0.9,1l4.8,1.3c0.4,0.1,0.9,0.3,0.9,0.3s0.4-0.1,0.9-0.3l4.8-1.3c0.4-0.1,0.9-0.6,0.9-1l0.4-5.8c0-0.4-0.3-0.9-0.7-0.9
		h-5.4c-0.4,0-0.9,0-0.9,0s-0.4,0-0.9,0h-11.2c-0.4,0-0.9-0.4-0.9-0.9l-1.3-14.3c0-0.4-0.1-1.2-0.1-1.6c0-0.4,0.3-0.7,0.7-0.7h12.9
		c0.4,0,0.9,0,0.9,0s0.4,0,0.9,0h12.9C236.7,770.4,237.2,770.7,237,771.2z"/>
</g>
<g>
	<g id="favorite">
		<path class="st45" d="M134.5,811l-3.8-3.8c-14.3-12.5-23.5-21.1-23.5-31.4c0-8.4,6.5-15.1,15.1-15.1c4.6,0,9.4,2.2,12.4,5.7
			c3-3.5,7.6-5.7,12.4-5.7c8.4,0,15.1,6.5,15.1,15.1c0,10.5-9.4,18.9-23.5,31.4L134.5,811z"/>
	</g>
</g>
</svg>
