<svg id="Layer_2" data-name="Layer 2" xmlns="http://www.w3.org/2000/svg" viewBox="0 0 1000 80"><title>svg</title><path d="M747.61,53.49h4.08V33.88h-4.08V53.49ZM806,33.59a13.24,13.24,0,0,0-6.2,1.47c0.08,0.34.7,1.5,0.79,1.85a10.4,10.4,0,0,1,5.21-1.43c3.06,0,4.59,1.57,4.59,4.68v2.79L810,42.74a9.72,9.72,0,0,0-4.8-1.12c-3.43,0-7.23,1.62-7.23,6.15,0,5.55,4.18,6.14,6,6.14a7.54,7.54,0,0,0,5.91-2.77l0.5-.5v2.85h2.23V39.8C812.62,35.63,810.51,33.59,806,33.59Zm4.38,15.3-0.08.1a7,7,0,0,1-5.83,3.11c-2.73,0-4.26-1.6-4.26-4.52v0c0-2.61,1.82-4.18,4.88-4.18a9.42,9.42,0,0,1,5.08,1.17l0.21,0.1v4.27Zm-39.64,4.6h4.09V33.88h-4.09V53.49ZM738.23,37.41a6.7,6.7,0,0,1,4.69,2.22l0.1,0.1L745.37,37l-0.1-.1a8.76,8.76,0,0,0-6.93-3.32,10.55,10.55,0,0,0-7.24,2.64A9.74,9.74,0,0,0,728,43.7a9.75,9.75,0,0,0,3.06,7.51,10.5,10.5,0,0,0,7.24,2.64,8.76,8.76,0,0,0,6.93-3.32l0.1-.1L743,47.72l-0.1.1A6.68,6.68,0,0,1,738.23,50,6.08,6.08,0,0,1,732,43.72,6.08,6.08,0,0,1,738.23,37.41Zm26.18,12.79c-1.2,0-1.82-.68-1.82-2.22V37.6h4.09V33.9H762.6V27.8l-4,2.11v4h-3.36v3.7h3.36V48.66c0,3,1.83,5.07,4.47,5.13a6.86,6.86,0,0,0,3.6-.89l1-3.78-0.21.11A6,6,0,0,1,764.41,50.21Zm24.14-16.62a7.63,7.63,0,0,0-5.71,2.77l-0.41.49V26.42c-0.58.31-2.11,1.2-2.31,1.31V53.49h2.31V50.82l0.41,0.52a6.82,6.82,0,0,0,5.42,2.57c4.3,0,7.15-4.11,7.15-10.48S792.94,33.59,788.56,33.59ZM788,52a6.83,6.83,0,0,1-5.54-3.13V38.62c1.65-2,3.47-3,5.42-3,3.39,0,5.29,2.88,5.29,7.9C793.15,49.16,791.41,52,788,52Zm37.41-18.43a6.13,6.13,0,0,0-5.21,2.74l-0.5.7V34h-2.27V53.49h2.27V42.06c0-4.07,1.9-6.5,5.17-6.5s4.92,2.07,4.92,6.5V53.49H832V41.56C832,36.35,829.77,33.59,825.39,33.59Zm18.85,7.22s4.38-6.08,5-6.8h-2.56c-0.7,1-6.33,9.16-6.33,9.16l-1.32,2V26.42c-0.5.31-2,1.2-2.23,1.31V53.49H839V47.91l3.76-5.18s4.92,10.46,5.13,10.75h2.44ZM761.15,22.09a19.81,19.81,0,0,0-16,8.31l-0.2.27h4.69a15.82,15.82,0,0,1,23,0h4.67l-0.08-.27A20.18,20.18,0,0,0,761.15,22.09Z" style="fill:#aab0b5"/><path d="M525.84,36l8.76-8.8a7.59,7.59,0,0,1,4.66-1.87,5.86,5.86,0,0,1,2.43.54l0.47,0.25,0.07-.53a4.58,4.58,0,1,1,5.11,5.2l-0.48.06L547,31.28c1,2.46.35,5-1.92,7.6l-3.13-3a4.1,4.1,0,0,0,.93-2.61,3.23,3.23,0,0,0-1.25-2.32,2.73,2.73,0,0,0-2.06-.89,5.55,5.55,0,0,0-3.73,2l-7,6.89Z" style="fill:#aab0b5"/><path d="M546.74,58.53a4.59,4.59,0,0,1-4.55-4L542.13,54l-0.45.18a6,6,0,0,1-2.27.46,8.2,8.2,0,0,1-5.33-2.38l3-3.13a4.18,4.18,0,0,0,2.46.93A3.19,3.19,0,0,0,542,48.85a2.72,2.72,0,0,0,.89-1.9c0.07-1.22-.59-2.53-2-3.89l-6.89-7L537,33l8.8,8.76c0.12,0.13,3,3.31,1.32,7.09l-0.25.47,0.53,0.08A4.58,4.58,0,0,1,546.74,58.53Z" style="fill:#aab0b5"/><path d="M519.15,58.36a4.58,4.58,0,0,1-.57-9.13l0.48-.06-0.18-.45c-1-2.46-.35-5,1.92-7.6l3.13,3a4.09,4.09,0,0,0-.93,2.61,3.23,3.23,0,0,0,1.25,2.33,2.73,2.73,0,0,0,2.06.89A5.55,5.55,0,0,0,530,48l7-6.89,3,2.92-8.76,8.8a7.59,7.59,0,0,1-4.66,1.87,5.79,5.79,0,0,1-2.44-.54l-0.47-.25-0.07.53A4.6,4.6,0,0,1,519.15,58.36Z" style="fill:#aab0b5"/><path d="M520.14,38.23s-3-3.27-1.32-7.09l0.24-.47-0.53-.07a4.58,4.58,0,1,1,5.2-5.11L523.79,26l0.45-.18a6,6,0,0,1,2.27-.46,8.2,8.2,0,0,1,5.33,2.38l-3,3.13a4.18,4.18,0,0,0-2.46-.93,3.19,3.19,0,0,0-2.48,1.25,2.72,2.72,0,0,0-.89,1.9c-0.07,1.22.59,2.53,2,3.89l6.89,7-2.92,3Z" style="fill:#aab0b5"/><path id="path314" d="M569.5,30.83v14A4.55,4.55,0,0,1,568.38,48a5.15,5.15,0,0,1-4,1.53l-1.58-.12L558,48.64l-0.79,1.79,4.84,0.75a16.65,16.65,0,0,0,2.5.21c2.62,0,4.6-.74,5.88-2.19A6.78,6.78,0,0,0,572,44.6V30.83H569.5" style="fill:#aab0b5"/><path id="path316" d="M589,48.44a10.57,10.57,0,0,1-5.29,1.26,10.76,10.76,0,0,1-5.33-1.23h0a4.58,4.58,0,0,1-2.62-4.24A4.64,4.64,0,0,1,578.34,40,12.13,12.13,0,0,1,589,40,4.73,4.73,0,0,1,589,48.44Zm1.47-9.85a15.37,15.37,0,0,0-13.5,0h0a6.18,6.18,0,0,0,0,11.28,15.42,15.42,0,0,0,13.49,0,6.22,6.22,0,0,0,0-11.29" style="fill:#aab0b5"/><path id="path318" d="M611,48.44a10.57,10.57,0,0,1-5.29,1.26,10.76,10.76,0,0,1-5.33-1.23,4.59,4.59,0,0,1-2.62-4.24A4.64,4.64,0,0,1,600.4,40,12.13,12.13,0,0,1,611,40,4.73,4.73,0,0,1,611,48.44Zm1.47-9.85a15.38,15.38,0,0,0-13.5,0h0a6.18,6.18,0,0,0,0,11.28,15.41,15.41,0,0,0,13.49,0,6.22,6.22,0,0,0,0-11.29" style="fill:#aab0b5"/><path id="path320" d="M642.9,38.24A10,10,0,0,0,637.74,37a8.59,8.59,0,0,0-6.35,2.43A8.4,8.4,0,0,0,625.05,37a9.64,9.64,0,0,0-5.26,1.32V37.23h-2.37v14h2.37V41.63a3.2,3.2,0,0,1,1.35-1.84,6.53,6.53,0,0,1,3.83-1,7,7,0,0,1,3.53.84,3,3,0,0,1,1.71,2.81v8.77h2.33V42.41a3.08,3.08,0,0,1,1.7-2.83,7.18,7.18,0,0,1,3.57-.83,7,7,0,0,1,3.56.85,3.05,3.05,0,0,1,1.7,2.81v8.77h2.37V42.74a4.92,4.92,0,0,0-2.55-4.5" style="fill:#aab0b5"/><path id="path322" d="M647.37,30.83V51.18h2.37V30.83h-2.37" style="fill:#aab0b5"/><path id="path324" d="M654.11,44.23A4.66,4.66,0,0,1,656.71,40a11,11,0,0,1,5.36-1.21,8.86,8.86,0,0,1,6,1.89A5.49,5.49,0,0,1,670,44.92v1.65a9.78,9.78,0,0,1-4.33,2.58,11.5,11.5,0,0,1-3.6.54,11,11,0,0,1-5.37-1.19A4.6,4.6,0,0,1,654.11,44.23Zm15.89-7v2.39A12.07,12.07,0,0,0,662,37a14.21,14.21,0,0,0-6.8,1.51,6.29,6.29,0,0,0,.09,11.36,14.22,14.22,0,0,0,6.79,1.53,15.16,15.16,0,0,0,3.78-.46A11.21,11.21,0,0,0,670,49v2.15h2.37v-14H670" style="fill:#aab0b5"/><path id="path326" d="M677.4,48.57c-1.65,0-1.9.86-1.9,1.37s0.25,1.41,1.9,1.41,1.88-.88,1.88-1.41S679,48.57,677.4,48.57Zm1.16-18.06h-2.37V46.59h2.37V30.51" style="fill:#aab0b5"/><path id="path328" d="M682.38,30.84h-1v1.93h-0.47V30.84h-1V30.51h2.44v0.33ZM683.22,31v1.72h-0.45V30.51h0.62l0.82,1.8,0.82-1.8h0.61v2.26h-0.44V31.05l-0.77,1.72H684L683.22,31" style="fill:#aab0b5"/><path d="M457.11,47a0.68,0.68,0,0,0-.65-0.7,0.72,0.72,0,0,0-.7.7,0.68,0.68,0,0,0,.7.65,0.64,0.64,0,0,0,.65-0.65" style="fill:#aab0b5"/><path d="M432.78,47a0.72,0.72,0,0,0-.7-0.7,0.68,0.68,0,0,0-.65.7,0.64,0.64,0,0,0,.65.65,0.68,0.68,0,0,0,.7-0.65" style="fill:#aab0b5"/><path d="M469.64,51.7h-3a1.67,1.67,0,0,1,1.59-1.77,1.5,1.5,0,0,1,1.45,1.77m1.24,0.89a2.82,2.82,0,0,0,0-.34c0-1.88-.66-3.26-2.7-3.26-1.77,0-2.85,1.35-2.85,3.22,0,2.1.93,3.45,3.18,3.45a3.64,3.64,0,0,0,1.87-.42V54.08a3.16,3.16,0,0,1-1.82.65,2,2,0,0,1-2-2.15h4.27Z" style="fill:#aab0b5"/><path d="M464.22,55.53V51.75c0-1.73-.7-2.75-2.34-2.75a2.1,2.1,0,0,0-2,1.17h0v-1h-1.12v6.4h1.17V52.59c0-1.59.51-2.71,1.87-2.66,1,0,1.31.79,1.31,2.29v3.31h1.17" style="fill:#aab0b5"/><rect x="455.84" y="49.14" width="1.17" height="6.4" style="fill:#aab0b5"/><path d="M454.69,55.48a0.77,0.77,0,0,1-.56-0.89V46.66h-1.22v8.07a0.82,0.82,0,0,0,.93.93,1.72,1.72,0,0,0,.84-0.19" style="fill:#aab0b5"/><polyline points="452.17 55.53 448.5 50.95 451.86 46.8 450.42 46.8 447.34 50.68 447.34 46.8 446.11 46.8 446.11 55.53 447.34 55.53 447.34 51.28 450.56 55.53 452.17 55.53" style="fill:#aab0b5"/><path d="M444.36,55.53V51.75c0-1.73-.7-2.75-2.33-2.75a2.15,2.15,0,0,0-2,1.08h0V46.66h-1.16v8.87H440V52.59c0-1.59.52-2.71,1.87-2.66,1,0,1.31.79,1.31,2.29v3.31h1.17" style="fill:#aab0b5"/><path d="M437.75,55.48v-1a1.6,1.6,0,0,1-.79.23,1,1,0,0,1-1-1.17v-3.5h1.59V49.14H436V47.27l-1.17.37v1.5h-1.12v0.93h1.12V53.8a1.7,1.7,0,0,0,2,1.87,2.82,2.82,0,0,0,1-.19" style="fill:#aab0b5"/><rect x="431.47" y="49.14" width="1.17" height="6.4" style="fill:#aab0b5"/><path d="M429.89,55.53V51.42c0-1.4-.61-2.43-2.24-2.43a2.27,2.27,0,0,0-2,1.21A1.89,1.89,0,0,0,423.86,49a2.2,2.2,0,0,0-2.05,1.08V49.14h-1.12v6.4h1.17V52.31c0-1.21.51-2.38,1.68-2.38,1,0,1.17,1,1.17,1.77v3.83h1.17V52.31c0-1.21.47-2.38,1.68-2.38,0.93,0,1.12,1,1.12,1.77v3.83h1.21" style="fill:#aab0b5"/><path d="M419.68,53.1c0-1.77-1.5-2.29-2.8-2.89a2.72,2.72,0,0,1-.65-0.33,1.2,1.2,0,0,1-.65-1c0-.93.93-1.21,1.73-1.21a5.34,5.34,0,0,1,1.77.38l0.19-1a6.31,6.31,0,0,0-2-.38c-1.77,0-3.08.84-3.08,2.38s1.63,2.1,2.8,2.66a1.84,1.84,0,0,1,1.4,1.49,1.71,1.71,0,0,1-1.91,1.49,6.2,6.2,0,0,1-2.06-.42l-0.09,1.12a7.51,7.51,0,0,0,1.94.33c1.91,0,3.43-.75,3.43-2.57" style="fill:#aab0b5"/><polyline points="406.75 55.53 404.7 52.17 406.57 49.14 405.21 49.14 404 51.42 402.79 49.14 401.34 49.14 403.2 52.17 401.1 55.53 402.5 55.53 403.91 53.01 405.31 55.53 406.75 55.53" style="fill:#aab0b5"/><path d="M394.12,55.48a0.77,0.77,0,0,1-.56-0.89V46.66h-1.21v8.07a0.82,0.82,0,0,0,.93.93,1.58,1.58,0,0,0,.84-0.19" style="fill:#aab0b5"/><path d="M390.91,55.3V51.48h-1.26v2.92a4.26,4.26,0,0,1-1.4.14,3.41,3.41,0,0,1,0-6.81,4.6,4.6,0,0,1,2.43.61l0.1-1.26a6.16,6.16,0,0,0-2.57-.47,4.38,4.38,0,0,0-4.62,4.48,4.29,4.29,0,0,0,4.58,4.57,9.15,9.15,0,0,0,2.71-.37" style="fill:#aab0b5"/><path d="M413.26,52.31a3.07,3.07,0,1,0-6.11,0,3.07,3.07,0,1,0,6.11,0m-1.26,0c0,1.16-.42,2.43-1.77,2.43s-1.82-1.26-1.82-2.43,0.51-2.38,1.82-2.38S412,51.1,412,52.31Z" style="fill:#aab0b5"/><path d="M400.23,55.53a7,7,0,0,1,0-1.26V51.61c0-1.73-.65-2.62-2.47-2.62a3.65,3.65,0,0,0-2.05.61l0.09,1a2.84,2.84,0,0,1,1.77-.65c1.17,0,1.45.56,1.45,1.68a10.24,10.24,0,0,0-1.21,0c-1.21,0-2.8.51-2.8,2.1,0,1.4.89,2,2.24,2a2.12,2.12,0,0,0,1.87-1h0v0.84h1.12M399,53.05a1.54,1.54,0,0,1-1.68,1.68,1.05,1.05,0,0,1-1.07-1.07c0-1.12,1.45-1.21,2.05-1.21,0.28,0,.47,0,0.7,0v0.56Z" style="fill:#aab0b5"/><path d="M367.57,59.34a18.4,18.4,0,0,1-11.16,4c-8.64,0-16.11-6.21-20.32-13.4a10,10,0,0,0,3.13,1.63,16.76,16.76,0,0,0,4.58.7c5,0,7-1.87,7.1-4.44,0-2.24-1.63-3.5-4.76-3.69l-3.22-.19c-1.49-.09-1.82-0.56-1.82-1.17a1.44,1.44,0,0,1,.58-1.1,2.25,2.25,0,0,1,1-.46,9,9,0,0,0,1,.06c3.64,0,5.7-2.19,5.7-4.81a4.81,4.81,0,0,0-1.17-3.13,22,22,0,0,1,2.76.19V31.64a10.86,10.86,0,0,1-2.76.28,7.61,7.61,0,0,1-2.1-.33,9.43,9.43,0,0,0-2.52-.42c-3.66,0-5.92,2.25-5.92,5.15a4.82,4.82,0,0,0,3.16,4.47c-1.4.65-2.15,1.59-2.15,2.66a2.86,2.86,0,0,0,2.9,2.66c1.21,0.09,1.82.14,3.55,0.24a10,10,0,0,1,2.94.37,1.6,1.6,0,0,1,1,1.4,2.23,2.23,0,0,1-1.59,2.06,11.46,11.46,0,0,1-3.46.42c-5,0-8.73-2.61-10.79-7.19a19,19,0,0,1-1.64-8.13,13.77,13.77,0,0,1,1.26-5.7c5.33-11,21.91-12.89,32.65-12.89a44.73,44.73,0,0,1,7.47.47c7.1,1.12,12.75,4.58,12.75,12.38,0,10.41-10.18,23.82-18.21,29.8M343.78,39.76c-2.29,0-3.54-1.68-3.54-3.83a3,3,0,0,1,3.14-3.22c2.24,0,3.44,1.67,3.44,3.77C346.83,38.4,345.79,39.76,343.78,39.76Zm34.15,5.75c-0.79,0-2.1-.56-3.83-2.43-2.24-2.48-4.63-5.28-4.63-5.28l4-3.74c2.34-2.19,3-2.33,3.18-2.38h-3.69a13.68,13.68,0,0,1-1.59,1.73l-4.25,4V24.87l-3.22.84c0.42,0.56.56,1.5,0.56,3.6V42.24c0,2.61-.14,2.9-0.42,3.64h3.46c-0.23-.61-0.37-1-0.37-3.64V38.51l4.3,5.14c1.49,1.77,2.71,2.57,4.16,2.57a4.88,4.88,0,0,0,2.85-.79A1.61,1.61,0,0,1,377.94,45.51Zm-19.62-7.57c-1.87-.93-3.64-1.78-3.64-3.27,0-1.26,1.35-1.82,2.76-1.82a6.29,6.29,0,0,1,3.92,1.4v-2.1a8,8,0,0,0-3.88-1c-2.52,0-5.32,1.26-5.32,4.16,0,2.38,2.1,3.41,4.06,4.34,1.78,0.84,3.41,1.59,3.41,3.13s-1.63,1.87-2.94,1.87A11.09,11.09,0,0,1,352,43.32v2.15a11.78,11.78,0,0,0,4.58.93c2.62,0,5.74-1.08,5.74-4.21C362.34,40,360.28,38.93,358.32,37.94Z" style="fill:#aab0b5"/><path d="M232.15,29.45a2.77,2.77,0,1,1-2.77-2.76A2.79,2.79,0,0,1,232.15,29.45ZM220.73,35v0.68A5.33,5.33,0,0,0,216.6,34a8.14,8.14,0,0,0-8.26,8.4,8.14,8.14,0,0,0,8.26,8.4,5.18,5.18,0,0,0,4.13-1.74v0.72a0.58,0.58,0,0,0,.6.59h3.45v-16h-3.45A0.61,0.61,0,0,0,220.73,35Zm0,10.23A4.24,4.24,0,0,1,217.29,47c-2.73,0-4.81-1.7-4.81-4.58s2.09-4.58,4.81-4.58a4.35,4.35,0,0,1,3.45,1.74v5.69Zm6.6-10.82h4.09v16h-4.09v-16ZM288.4,34a5.33,5.33,0,0,0-4.13,1.7v-9h-4.09V50.38h3.45a0.61,0.61,0,0,0,.6-0.59V49.06a5.28,5.28,0,0,0,4.13,1.74,8.16,8.16,0,0,0,8.26-8.4A8.15,8.15,0,0,0,288.4,34h0Zm-0.68,12.94a4.17,4.17,0,0,1-3.45-1.74V39.51a4.62,4.62,0,0,1,3.45-1.74c2.73,0,4.81,1.7,4.81,4.58s-2.09,4.58-4.81,4.58h0Zm-9.67-6v9.51H274v-9c0-2.63-.85-3.69-3.15-3.69a4.58,4.58,0,0,0-3.32,1.57V50.38H263.4v-16h3.24a0.61,0.61,0,0,1,.6.59v0.68a5.87,5.87,0,0,1,4.34-1.7A6.64,6.64,0,0,1,276,35.52c1.45,1.19,2,2.72,2,5.39h0ZM253.48,34a5.33,5.33,0,0,0-4.13,1.7v-9h-4.09V50.38h3.45a0.61,0.61,0,0,0,.6-0.59V49.06a5.28,5.28,0,0,0,4.13,1.74,8.16,8.16,0,0,0,8.26-8.4A8.1,8.1,0,0,0,253.48,34ZM252.8,46.94a4.17,4.17,0,0,1-3.45-1.74V39.51a4.63,4.63,0,0,1,3.45-1.74c2.73,0,4.81,1.7,4.81,4.58S255.52,46.94,252.8,46.94ZM241.73,34a6.54,6.54,0,0,1,1.87.21V38s-3.41-1.15-5.54,1.27V50.42H234v-16h3.45a0.61,0.61,0,0,1,.6.59v0.68a5.6,5.6,0,0,1,3.7-1.7h0ZM199.27,48.93c-0.21-.51-0.43-1.06-0.64-1.53-0.34-.76-0.68-1.48-1-2.16l0,0c-2.94-6.37-6.08-12.82-9.41-19.18l-0.13-.25c-0.34-.64-0.68-1.32-1-2a12.2,12.2,0,0,0-1.53-2.33,6.89,6.89,0,0,0-5.41-2.63,7.16,7.16,0,0,0-5.45,2.55,14.67,14.67,0,0,0-1.53,2.33c-0.34.68-.68,1.36-1,2l-0.13.25c-3.28,6.37-6.47,12.82-9.41,19.18l0,0.08c-0.3.68-.64,1.4-1,2.16q-0.32.7-.64,1.53a9.5,9.5,0,0,0-.51,4.58,9,9,0,0,0,5.54,7,8.77,8.77,0,0,0,3.45.68,9.81,9.81,0,0,0,1.11-.09,11.28,11.28,0,0,0,4.26-1.44A21.56,21.56,0,0,0,180,55.26a22.37,22.37,0,0,0,5.28,4.41,11.28,11.28,0,0,0,4.26,1.44,9.8,9.8,0,0,0,1.11.09,8.59,8.59,0,0,0,3.44-.68,9,9,0,0,0,5.54-7A8,8,0,0,0,199.27,48.93Zm-19.2,2.21a20.91,20.91,0,0,1-4.3-7.89,6.83,6.83,0,0,1-.13-2.59,4.1,4.1,0,0,1,.68-1.78A4.53,4.53,0,0,1,180.07,37a4.36,4.36,0,0,1,3.75,1.87,4.1,4.1,0,0,1,.68,1.78,6.79,6.79,0,0,1-.13,2.59A21.54,21.54,0,0,1,180.07,51.14Zm17,2a6.31,6.31,0,0,1-3.87,5,6.47,6.47,0,0,1-3.24.42,8.39,8.39,0,0,1-3.24-1.1,19.89,19.89,0,0,1-4.85-4.12c2.81-3.44,4.51-6.58,5.15-9.38a10.6,10.6,0,0,0,.21-3.61,6.88,6.88,0,0,0-1.15-2.89,7.18,7.18,0,0,0-6-3,7.29,7.29,0,0,0-6,3,6.87,6.87,0,0,0-1.15,2.89,8.78,8.78,0,0,0,.21,3.61c0.64,2.8,2.38,6,5.15,9.42a19.13,19.13,0,0,1-4.85,4.12,8.4,8.4,0,0,1-3.24,1.1,6.83,6.83,0,0,1-3.24-.42,6.31,6.31,0,0,1-3.87-5,7,7,0,0,1,.38-3.31c0.13-.42.34-0.85,0.55-1.36,0.3-.68.64-1.4,1-2.12l0-.08c2.94-6.32,6.09-12.77,9.37-19.06l0.13-.25c0.34-.64.68-1.32,1-2a9.32,9.32,0,0,1,1.19-1.87,4.48,4.48,0,0,1,6.81,0A9.32,9.32,0,0,1,184.76,25c0.34,0.64.68,1.32,1,2l0.13,0.25c3.24,6.32,6.39,12.77,9.32,19.1v0c0.34,0.68.64,1.44,1,2.12,0.21,0.51.43,0.93,0.55,1.36a7.15,7.15,0,0,1,.3,3.27h0Z" style="fill:#aab0b5"/><path d="M28.34,53a12.93,12.93,0,0,0,9.86-3.95,12.69,12.69,0,0,0,3.35-9,12.54,12.54,0,0,0-.21-2.41h-13v3.85h9.24a8,8,0,0,1-2.1,4.84,9.49,9.49,0,0,1-7.14,2.82,10.24,10.24,0,0,1,0-20.48,9.86,9.86,0,0,1,7,2.75L38,28.73a13.5,13.5,0,0,0-9.69-3.88A14.31,14.31,0,0,0,14,38.93,14.31,14.31,0,0,0,28.34,53Zm23.72,0a9.07,9.07,0,1,0-9.14-9.07A9,9,0,0,0,52.06,53Zm0-3.57a5.26,5.26,0,0,1-5.14-5.5,5.15,5.15,0,1,1,10.28,0A5.26,5.26,0,0,1,52.06,49.44ZM72,53a9.07,9.07,0,1,0-9.14-9.07A9,9,0,0,0,72,53Zm0-3.57a5.26,5.26,0,0,1-5.14-5.5,5.15,5.15,0,1,1,10.28,0A5.26,5.26,0,0,1,72,49.44ZM91.56,61.16c4.69,0,8.66-2.75,8.66-9.45V35.42H96.42V36.9H96.28a6.32,6.32,0,0,0-4.79-2,9.08,9.08,0,0,0,0,18.14A6.22,6.22,0,0,0,96.28,51h0.14v1.31c0,3.47-1.86,5.32-4.86,5.32A5,5,0,0,1,87,54.35L83.49,55.8a8.67,8.67,0,0,0,8.07,5.36h0Zm0.27-11.72A5.21,5.21,0,0,1,86.77,44a5.25,5.25,0,0,1,5.07-5.53c2.73,0,4.86,2.33,4.86,5.53S94.56,49.44,91.83,49.44ZM107,25.81h-4V52.47h4V25.81Zm11,27.21a9.06,9.06,0,0,0,7.58-4l-3.11-2.06a5.2,5.2,0,0,1-4.48,2.51,4.63,4.63,0,0,1-4.41-2.75l12.17-5-0.41-1c-0.76-2-3.07-5.77-7.79-5.77s-8.58,3.68-8.58,9.07a8.89,8.89,0,0,0,9,9.07h0Zm-5.07-9.34a5,5,0,0,1,4.76-5.29A3.53,3.53,0,0,1,121,40.3Z" style="fill:#aab0b5"/><path d="M945.3,32.07a5.72,5.72,0,0,1-1,3.33h2.17V18.66H939.5v6.84C943.25,26.66,945.3,29.06,945.3,32.07Z" style="fill:#aab0b5;fill-rule:evenodd"/><path d="M933.32,24.9a16.12,16.12,0,0,1,4.13.66c-2.36-.41-6,0.19-7.9,1.67v8.16h6.93V26.11a8.77,8.77,0,0,1,3.32,1.35v7.94h1.51A7.47,7.47,0,0,1,935,37.61v0.33h0c6.59,0.52,9.38-2.6,9.38-6.12,0-4.14-3.88-6.56-7.85-7.05V18.66h-6.93v6.18c-4.48.9-8.88,3.57-8.88,8,0,6.8,9.5,11,17.77,11,12.56,0,22.23-6.07,22.23-14.59,0-10.32-14-17.68-24.92-17.68-12.56,0-21.81,8-21.81,16.51h0c0,4.41,2.48,8.11,5.6,10.69l0.23-.16a12.4,12.4,0,0,1-4.71-9.67c0.65-9.33,12.15-14.58,22.38-14.58,7.24,0,20.24,1.67,20.24,13.77,0,6.31-6.74,14.52-20.91,14.52-7.25,0-12.89-3.88-12.89-9.47C923.9,28.33,927.68,24.9,933.32,24.9Z" style="fill:#aab0b5"/><path d="M906.49,68.11v-1h2.43V58.91h-6.49v8.24h2.49v1H896v-1h2.27V50.37H896v-1h8.95v1h-2.49v7.44h6.49V50.37h-2.43v-1h8.85v1h-2.27V67.15h2.27v1h-8.85Z" style="fill:#aab0b5"/><path d="M918.77,51.63V49.41h4.06v2.21h-4.06Zm-2,16.48v-1H919V55.65h-2.18v-1H923V67.15h2v1h-8.24Z" style="fill:#aab0b5"/><path d="M925.89,68.11v-1h2.24V47.91h-2.24V47h6.3v20.2h2.12v1h-8.42Z" style="fill:#aab0b5"/><path d="M940.63,68.11c-2.21,0-3.41-1.14-3.41-2.89V55.65H935v-1h2.18V49.38c1.23,0,2.52,0,3.78,0V54.7h3.14v1H941v11.5h3.2v1h-3.57Z" style="fill:#aab0b5"/><path d="M959.41,64.08a7.15,7.15,0,0,1-7,4.37c-5.17,0-7.81-3.54-7.81-7.13,0-5,4.43-7,7.72-7,2.92,0,7.16,1.75,7.5,6.82A7,7,0,0,1,959.41,64.08ZM955,56.85a2.75,2.75,0,0,0-2.74-1.69c-3.17,0-3.23,3.26-3.23,6.09,0,3.81.34,4.49,0.58,4.95a2.86,2.86,0,0,0,2.67,1.48c3.17,0,3.17-3.41,3.14-6.55C955.42,57.71,955.2,57.28,955,56.85Z" style="fill:#aab0b5"/><path d="M970.65,68.11v-1h1.78v-7.9c0-1.78,0-3.54-2-3.54a3.93,3.93,0,0,0-3.35,2.92,10.76,10.76,0,0,0-.12,2.61v5.9h2v1h-8.24v-1H963V55.65h-2.18v-1H967v2a5.38,5.38,0,0,1,2.55-2,6.28,6.28,0,0,1,2.43-.49,6.67,6.67,0,0,1,1.84.25c2.58,0.77,2.71,2.74,2.71,4.15v8.52h2.12v1h-8Z" style="fill:#aab0b5"/><path d="M956.59,41.44h-0.66V41.2h1.63v0.24H956.9v2.37h-0.31V41.44Zm2.82,1.9h0l0.81-2.14h0.41v2.62h-0.31v-2h0l-0.77,2h-0.29l-0.79-2h0v2h-0.31V41.2h0.44Z" style="fill:#aab0b5"/></svg>