<?xml version="1.0" encoding="UTF-8"?>
<svg width="152px" height="171px" viewBox="0 0 152 171" version="1.1" xmlns="http://www.w3.org/2000/svg" xmlns:xlink="http://www.w3.org/1999/xlink">
    <!-- Generator: Sketch 43.2 (39069) - http://www.bohemiancoding.com/sketch -->
    <title>bg_time_comparision-05</title>
    <desc>Created with Sketch.</desc>
    <defs>
        <linearGradient x1="49.8880142%" y1="100.083535%" x2="49.8880142%" y2="0%" id="linearGradient-1">
            <stop stop-color="#526EDE" offset="0%"></stop>
            <stop stop-color="#627BE0" offset="100%"></stop>
        </linearGradient>
        <linearGradient x1="50%" y1="100%" x2="50%" y2="0.0095914061%" id="linearGradient-2">
            <stop stop-color="#627BE0" offset="0%"></stop>
            <stop stop-color="#526EDE" stop-opacity="0" offset="100%"></stop>
        </linearGradient>
        <linearGradient x1="9784%" y1="14745%" x2="14052%" y2="14745%" id="linearGradient-3">
            <stop stop-color="#526EDE" offset="0%"></stop>
            <stop stop-color="#627BE0" offset="100%"></stop>
        </linearGradient>
        <linearGradient x1="8841%" y1="3572.95607%" x2="12166%" y2="3059.12474%" id="linearGradient-4">
            <stop stop-color="#526EDE" offset="0%"></stop>
            <stop stop-color="#627BE0" offset="100%"></stop>
        </linearGradient>
    </defs>
    <g id="Page-1" stroke="none" stroke-width="1" fill="none" fill-rule="evenodd">
        <g id="Banner-Generator---LP" transform="translate(-646.000000, -1436.000000)" fill-rule="nonzero">
            <g id="bg_time_comparision-05" transform="translate(646.000000, 1436.000000)">
                <path d="M132.920367,44.7224884 L135.960273,41.6846255 L127.905941,33.6782954 L124.397264,36.8297232 C112.612045,26.7458934 97.9194342,20.6749092 82.4493916,19.4968703 L82.4493916,10 L68.2442199,10 L68.2442199,19.4968703 C33.3336445,23.0767873 5.41573744,50.0790257 0.69499248,84.8305766 C-4.02575248,119.582128 15.6784391,153.044785 48.3705907,165.795695 C81.0627422,178.546605 118.240257,167.269503 138.324054,138.509998 C158.407851,109.750494 156.174522,70.9883778 132.920367,44.7224884 L132.920367,44.7224884 Z" id="Shape" fill="url(#linearGradient-1)" opacity="0.4"></path>
                <rect id="Rectangle-path" fill="#152365" opacity="0.7" transform="translate(135.500000, 34.000000) rotate(-45.000000) translate(-135.500000, -34.000000) " x="130" y="24" width="11" height="20"></rect>
                <rect id="Rectangle-path" fill="#152365" opacity="0.7" x="63" y="0" width="26" height="11"></rect>
                <circle id="Oval" fill="url(#linearGradient-2)" opacity="0.8" cx="76" cy="95" r="74"></circle>
                <ellipse id="Oval" fill="#FFFFFF" cx="76" cy="95.5" rx="60" ry="60.5"></ellipse>
                <path d="M104.883934,148 C153.631574,116.393407 134.936545,54.7527585 106.711268,44 L75,97.4804523 L104.883934,148 Z" id="Shape" fill="url(#linearGradient-3)" opacity="0.2"></path>
                <path d="M107,44.3207158 C97.1647463,38.9862237 86.1821794,36.1305107 75,36 L75,98 L107,44.3207158 Z" id="Shape" fill="url(#linearGradient-4)" opacity="0.8"></path>
                <path d="M76.5,158 C41.9822031,158 14,130.017797 14,95.5 C14,60.9822031 41.9822031,33 76.5,33 C111.017797,33 139,60.9822031 139,95.5 C139,112.076031 132.415197,127.97315 120.694174,139.694174 C108.97315,151.415197 93.0760306,158 76.5,158 Z M76.5,35.96875 C43.5511939,35.96875 16.8409091,62.6790348 16.8409091,95.6278409 C16.8409091,128.576647 43.5511939,155.286932 76.5,155.286932 C109.448806,155.286932 136.159091,128.576647 136.159091,95.6278409 C136.166628,79.8003446 129.884462,64.618522 118.695395,53.424127 C107.506328,42.229732 92.3274981,35.9403391 76.5,35.9403409 L76.5,35.96875 Z" id="Shape" fill="#FFFFFF"></path>
                <rect id="Rectangle-path" fill="#152365" opacity="0.7" x="76" y="40" width="1" height="14"></rect>
                <rect id="Rectangle-path" fill="#152365" opacity="0.7" transform="translate(101.500000, 51.500000) rotate(-59.980000) translate(-101.500000, -51.500000) " x="97" y="51" width="9" height="1"></rect>
                <path d="M53.2693986,55.9999314 C53.013544,55.9984433 52.7777007,55.86632 52.6497757,55.6528086 L48.0962674,48.043877 C47.8973091,47.7103005 48.0166619,47.2844712 48.3628494,47.0927606 C48.7090369,46.9010499 49.1509648,47.0160549 49.3499232,47.3496314 L53.9034314,54.958563 C54.0330712,55.1748691 54.0321237,55.4416066 53.9009503,55.6570525 C53.769777,55.8724985 53.5286015,56.0034362 53.2693986,55.9999314 Z" id="Shape" fill="#152365" opacity="0.8"></path>
                <path d="M36.2892919,72.9997609 C36.1672861,72.9984443 36.0477783,72.9636747 35.9428543,72.8989683 L28.3489412,68.3489026 C28.0160232,68.1500946 27.9012453,67.7085008 28.0925775,67.3625751 C28.2839097,67.0166493 28.7088985,66.8973867 29.0418165,67.0961946 L36.6357295,71.6462603 C36.9180497,71.8043322 37.0590795,72.143059 36.9766527,72.4650932 C36.8942258,72.7871273 36.6098851,73.0083035 36.2892919,72.9997609 Z" id="Shape" fill="#152365" opacity="0.8"></path>
                <path d="M20.7258753,95 C20.3249855,95 20,94.7761424 20,94.5 C20,94.2238576 20.3249855,94 20.7258753,94 L36.2741247,94 C36.6750145,94 37,94.2238576 37,94.5 C37,94.7761424 36.6750145,95 36.2741247,95 L20.7258753,95 Z" id="Shape" fill="#152365" opacity="0.8"></path>
                <path d="M117.70159,95 C117.314113,95 117,94.7761424 117,94.5 C117,94.2238576 117.314113,94 117.70159,94 L131.29841,94 C131.685887,94 132,94.2238576 132,94.5 C132,94.7761424 131.685887,95 131.29841,95 L117.70159,95 Z" id="Shape" fill="#152365" opacity="0.8"></path>
                <path d="M28.6877619,123.999784 C28.3761534,123.99648 28.1047783,123.778076 28.0238802,123.465489 C27.9429821,123.152902 28.0723517,122.822602 28.3403653,122.657456 L35.9552995,118.096426 C36.2891391,117.897139 36.7153044,118.016689 36.9071663,118.363449 C37.0990281,118.710208 36.9839324,119.152866 36.6500927,119.352153 L29.0351585,123.913182 C28.9286066,123.973008 28.8088486,124.002863 28.6877619,123.999784 Z" id="Shape" fill="#152365" opacity="0.8"></path>
                <path d="M48.7161766,143.999932 C48.459539,143.998445 48.2230955,143.865533 48.0954457,143.651002 C47.9677959,143.43647 47.9682118,143.172707 48.0965376,142.95855 L52.6501639,135.349518 C52.7788707,135.133729 53.0172765,135.000494 53.2755762,135.000001 C53.5338758,134.999508 53.7728274,135.131833 53.9024203,135.347129 C54.0320131,135.562425 54.0325589,135.827984 53.9038521,136.043773 L49.3502259,143.652805 C49.2197368,143.870639 48.9771801,144.003433 48.7161766,143.999932 L48.7161766,143.999932 Z" id="Shape" fill="#152365" opacity="0.8"></path>
                <path d="M76.4995495,150.999999 C76.2236559,150.999999 76,150.686765 76,150.300372 L76,136.699627 C76,136.313234 76.2236559,136 76.4995495,136 C76.7754431,136 76.999099,136.313234 76.999099,136.699627 L76.999099,150.258394 C77.0073702,150.451107 76.9584138,150.640041 76.8638187,150.780471 C76.7692236,150.920902 76.6373987,151.000347 76.4995495,150.999999 Z" id="Shape" fill="#152365" opacity="0.8"></path>
                <path d="M104.269399,143.999931 C104.013544,143.998443 103.777701,143.86632 103.649776,143.652809 L99.0962674,136.043877 C98.8973091,135.710301 99.0166619,135.284471 99.3628494,135.092761 C99.7090369,134.90105 100.150965,135.016055 100.349923,135.349631 L104.903431,142.958563 C105.033071,143.174869 105.032124,143.441607 104.90095,143.657053 C104.769777,143.872498 104.528602,144.003436 104.269399,143.999931 Z" id="Shape" fill="#152365" opacity="0.8"></path>
                <path d="M123.289292,123.999761 C123.167286,123.998444 123.047778,123.963675 122.942854,123.898968 L115.348941,119.348903 C115.016023,119.150095 114.901245,118.708501 115.092577,118.362575 C115.28391,118.016649 115.708898,117.897387 116.041816,118.096195 L123.63573,122.64626 C123.91805,122.804332 124.059079,123.143059 123.976653,123.465093 C123.894226,123.787127 123.609885,124.008303 123.289292,123.999761 Z" id="Shape" fill="#152365" opacity="0.8"></path>
                <path d="M115.687771,72.9997838 C115.376158,72.9964801 115.10478,72.7780718 115.02388,72.4654781 C114.942981,72.1528843 115.072353,71.8225775 115.34037,71.6574283 L122.955404,67.0963061 C123.171363,66.9673875 123.437132,66.9679342 123.652597,67.0977404 C123.868063,67.2275465 124.000492,67.4668915 123.999999,67.7256163 C123.999505,67.9843412 123.866165,68.2231394 123.650206,68.3520581 L116.035172,72.9131802 C115.928619,72.9730079 115.808859,73.0028627 115.687771,72.9997838 Z" id="Shape" fill="#152365" opacity="0.8"></path>
                <path d="M69.3450502,46.9999656 C69.0186712,47.0034241 68.7404843,46.7458408 68.6948048,46.3978799 L68.0055447,40.7970824 C67.958859,40.410428 68.2121375,40.0562348 68.5712582,40.0059698 C68.9303788,39.9557047 69.2593498,40.2284021 69.3060355,40.6150565 L69.9952956,46.2158539 C70.0177252,46.4155992 69.9592534,46.6160791 69.8347935,46.7661616 C69.7103336,46.9162441 69.5319176,47.0014201 69.3450502,46.9999656 L69.3450502,46.9999656 Z" id="Shape" fill="#152365" opacity="0.8"></path>
                <path d="M63.2080767,49 C62.8760979,48.9982017 62.5862682,48.782597 62.4999576,48.4732292 L61.0247094,42.9207802 C60.9187911,42.5276349 61.1631728,42.1260639 61.5705513,42.0238461 C61.9779298,41.9216284 62.3940392,42.1574717 62.4999576,42.5506169 L63.9752058,48.1030659 C64.0787797,48.4801906 63.8485055,48.8675036 63.4588689,48.9715259 L63.2080767,49 Z" id="Shape" fill="#152365" opacity="0.8"></path>
                <path d="M57.2132016,51 C56.8939808,50.9984948 56.6070277,50.8158227 56.4857263,50.5368947 L54.0344506,44.9646923 C53.9157751,44.5966103 54.1125281,44.2035917 54.4890096,44.0567001 C54.8654911,43.9098085 55.2985042,44.0571115 55.4894013,44.3970148 L57.940677,49.9692172 C58.0406162,50.199006 58.0130734,50.4606929 57.8671932,50.6673952 C57.721313,50.8740975 57.4761877,50.9987625 57.2132016,51 Z" id="Shape" fill="#152365" opacity="0.8"></path>
                <path d="M46.2774071,57 C46.0489182,57 45.8337637,56.89391 45.6966703,56.7136459 L42.1251388,52.1176632 C41.909894,51.8046071 41.9787372,51.380439 42.2823096,51.1492756 C42.5858821,50.9181122 43.0194223,50.9597269 43.2720941,51.2442833 L46.8436255,55.840266 C47.015779,56.0551061 47.0485829,56.3479692 46.9281287,56.5946846 C46.8076745,56.8413999 46.5550663,56.9987422 46.2774071,57 Z" id="Shape" fill="#152365" opacity="0.8"></path>
                <path d="M42.1698591,60.9980158 C41.9667564,60.9955879 41.7730239,60.9259056 41.6308582,60.8041463 L37.2264509,57.1077005 C36.9245164,56.8542987 36.9245164,56.4434532 37.2264509,56.1900514 C37.5283855,55.9366496 38.0179181,55.9366495 38.3198527,56.1900513 L42.70886,59.8477233 C42.9739896,60.0244602 43.070447,60.3258124 42.9465328,60.5902602 C42.8226185,60.854708 42.5074123,61.0201921 42.1698591,60.9980158 L42.1698591,60.9980158 Z" id="Shape" fill="#152365" opacity="0.8"></path>
                <path d="M37.3390171,66 C37.1786304,66 37.0225701,65.9475984 36.8942607,65.8506606 L32.1353665,62.1769103 C31.9453079,61.9052691 31.9563411,61.5397917 32.1624343,61.2802858 C32.3685275,61.0207799 32.7200729,60.9297101 33.0248795,61.0568645 L37.7837736,64.7306148 C37.9849484,64.9339661 38.0525731,65.2354925 37.9577205,65.5062127 C37.8628678,65.7769329 37.6223367,65.9689008 37.3390171,66 Z" id="Shape" fill="#152365" opacity="0.8"></path>
                <path d="M31.3639826,77.9856422 C31.2705535,78.0047859 31.1745243,78.0047859 31.0810953,77.9856422 L25.5275704,75.5422137 C25.25678,75.4548934 25.0561939,75.2125237 25.0100004,74.91683 C24.9638069,74.6211363 25.08,74.3232898 25.3098121,74.1483001 C25.5396241,73.9733104 25.8432852,73.9514603 26.0933451,74.0919206 L31.6468699,76.5353491 C31.9129088,76.7094209 32.0478267,77.0409857 31.9845738,77.3652671 C31.921321,77.6895486 31.6733854,77.9373978 31.3639826,77.9856422 L31.3639826,77.9856422 Z" id="Shape" fill="#152365" opacity="0.8"></path>
                <path d="M28.2008597,82.9937419 L28.0183473,82.9937419 L22.5429737,81.5093027 C22.1552858,81.4027243 21.9227163,80.9840225 22.0235151,80.5741059 C22.124314,80.1641893 22.5203107,79.9182851 22.9079986,80.0248634 L28.3833722,81.5093027 C28.6341623,81.5437747 28.8485085,81.7170944 28.9456688,81.963974 C29.0428291,82.2108536 29.0080424,82.4937861 28.8544126,82.7061936 C28.7007827,82.9186012 28.4516498,83.0282139 28.2008597,82.9937419 Z" id="Shape" fill="#152365" opacity="0.8"></path>
                <path d="M27.2043881,88.9944577 L27.2043881,88.9944577 L21.6139219,88.305487 C21.2279808,88.2588209 20.9557864,87.9299881 21.0059587,87.5710183 C21.0561311,87.2120484 21.4096709,86.9588762 21.7956121,87.0055423 L27.3860782,87.694513 C27.7720193,87.7411792 28.0442136,88.070012 27.9940413,88.4289817 C27.9438689,88.7879515 27.5903292,89.0411237 27.2043881,88.9944577 L27.2043881,88.9944577 Z" id="Shape" fill="#152365" opacity="0.8"></path>
                <path d="M21.7373558,102.998808 C21.3538383,103.020393 21.0242819,102.746254 21.0012708,102.386501 C20.9782598,102.026749 21.270508,101.717613 21.6540255,101.696028 L27.2093842,101.005554 C27.5929017,100.958787 27.9442214,101.212511 27.9940787,101.572264 C28.0439359,101.932017 27.7734509,102.261567 27.3899334,102.308334 L21.8345746,102.998808 L21.7373558,102.998808 L21.7373558,102.998808 Z" id="Shape" fill="#152365" opacity="0.8"></path>
                <path d="M22.7992228,109.993671 C22.4115301,110.046962 22.0563858,109.757849 22.0059858,109.347919 C21.9555857,108.937989 22.2290154,108.562474 22.616708,108.509183 L28.0921503,107.024695 C28.3429436,106.955749 28.6094732,107.033511 28.79134,107.228689 C28.9732069,107.423867 29.0427811,107.706808 28.9738548,107.970933 C28.9049284,108.235057 28.707973,108.440237 28.4571798,108.509183 L22.9817375,109.993671 L22.7992228,109.993671 Z" id="Shape" fill="#152365" opacity="0.8"></path>
                <path d="M25.8667357,116.986188 C25.4704982,117.066371 25.0882535,116.789259 25.0129683,116.367241 C24.9376832,115.945222 25.1978666,115.538107 25.5941041,115.457923 L30.9462928,113.089114 C31.1872871,112.952943 31.4799393,112.974125 31.7014198,113.143771 C31.9229003,113.313417 32.034881,113.602168 31.9903622,113.888831 C31.9458433,114.175495 31.7525292,114.410463 31.491556,114.495117 L26.1393673,116.863927 C26.0574507,116.924408 25.9646002,116.966047 25.8667357,116.986188 Z" id="Shape" fill="#152365" opacity="0.8"></path>
                <path d="M32.7159258,130 C32.4077894,130 32.134224,129.800193 32.0367827,129.503966 C31.9393414,129.207739 32.0398889,128.881562 32.286398,128.694211 L36.8823454,125.125056 C37.1953991,124.909954 37.6195639,124.978751 37.8507256,125.282122 C38.0818872,125.585492 38.0402727,126.018744 37.7557186,126.271248 L33.1454536,129.840404 C33.0233578,129.939778 32.872474,129.995841 32.7159258,130 Z" id="Shape" fill="#152365" opacity="0.8"></path>
                <path d="M37.6385808,134.999786 C37.379468,134.996143 37.1474674,134.838287 37.0488006,134.598492 C36.9501337,134.358697 37.0037961,134.083129 37.1852185,133.897957 L40.8898359,130.190626 C41.0541205,130.026221 41.2935706,129.962013 41.5179875,130.02219 C41.7424045,130.082366 41.9176941,130.257784 41.9778264,130.482366 C42.0379587,130.706947 41.9737983,130.946572 41.8095137,131.110977 L38.1048963,134.818308 C37.9800249,134.938869 37.8120355,135.004246 37.6385808,134.999786 Z" id="Shape" fill="#152365" opacity="0.8"></path>
                <path d="M42.7275529,140 C42.4519778,140 42.2000545,139.846432 42.0768136,139.603322 C41.9535726,139.360211 41.9801689,139.069289 42.1455139,138.851844 L45.7250536,134.244868 C45.9782919,133.959631 46.4128042,133.917916 46.7170574,134.149633 C47.0213105,134.381349 47.090308,134.806532 46.8745806,135.120337 L43.2950409,139.727313 C43.1577907,139.89863 42.9489256,139.998993 42.7275529,140 Z" id="Shape" fill="#152365" opacity="0.8"></path>
                <path d="M54.7867984,147 C54.5238123,146.998762 54.278687,146.874098 54.1328068,146.667395 C53.9869266,146.460693 53.9593838,146.199006 54.059323,145.969217 L56.5105987,140.397015 C56.7014958,140.057112 57.1345089,139.909808 57.5109904,140.0567 C57.8874719,140.203592 58.0842249,140.59661 57.9655494,140.964692 L55.5142737,146.492078 C55.4083774,146.788632 55.1179916,146.991379 54.7867984,147 L54.7867984,147 Z" id="Shape" fill="#152365" opacity="0.8"></path>
                <path d="M61.7329134,148.997396 L61.5411311,148.997396 C61.1514946,148.892988 60.9212203,148.504238 61.0247942,148.125714 L62.5000424,142.55266 C62.6059608,142.158056 63.0220702,141.921338 63.4294487,142.023935 C63.8368272,142.126532 64.0812089,142.529593 63.9752906,142.924197 L62.5000424,148.497251 C62.3973456,148.817801 62.0781574,149.025902 61.7329134,148.997396 Z" id="Shape" fill="#152365" opacity="0.8"></path>
                <path d="M68.668529,151 L68.5757172,151 C68.2135424,150.949228 67.9585628,150.598795 68.0055871,150.216439 L68.7083056,144.619571 C68.7250173,144.437349 68.8100928,144.269748 68.9445798,144.154105 C69.0790669,144.038462 69.251794,143.984383 69.4242828,144.003916 C69.7864576,144.054688 70.0414372,144.40512 69.9944129,144.787477 L69.2916944,150.384345 C69.2534593,150.722169 68.9904714,150.981988 68.668529,151 Z" id="Shape" fill="#152365" opacity="0.8"></path>
                <path d="M83.3445287,150.999966 C83.0182763,151.003424 82.7401972,150.745841 82.6945354,150.39788 L82.0055425,144.797082 C81.9588749,144.410428 82.2120553,144.056235 82.5710367,144.00597 C82.9300181,143.955705 83.2588615,144.228402 83.3055291,144.615056 L83.994522,150.215854 C84.0406278,150.598479 83.7906285,150.949158 83.4355278,150.999966 L83.3445287,150.999966 L83.3445287,150.999966 Z" id="Shape" fill="#152365" opacity="0.8"></path>
                <path d="M90.2080767,149 C89.876098,148.998202 89.5862682,148.782597 89.4999576,148.473229 L88.0247095,142.92078 C87.918791,142.527635 88.1631727,142.126064 88.5705513,142.023846 C88.9779298,141.921628 89.3940392,142.157472 89.4999576,142.550617 L90.9752058,148.103066 C91.0787797,148.480191 90.8485055,148.867504 90.4588689,148.971526 L90.2080767,149 Z" id="Shape" fill="#152365" opacity="0.8"></path>
                <path d="M97.2244023,147 C96.9097258,146.998523 96.6268577,146.81924 96.5072831,146.545487 L94.0909031,141.076669 C93.9519977,140.830423 93.9736058,140.531393 94.1466584,140.305087 C94.319711,140.07878 94.6142604,139.964359 94.9066808,140.009848 C95.1991012,140.055337 95.4387879,140.252863 95.5251415,140.519524 L97.9415215,145.988342 C98.040038,146.213867 98.0128873,146.470699 97.8690838,146.673566 C97.7252803,146.876433 97.4836446,146.998785 97.2244023,147 Z" id="Shape" fill="#152365" opacity="0.8"></path>
                <path d="M109.285222,140 C109.059204,140 108.846376,139.895131 108.710766,139.716941 L105.17786,135.17385 C105.001883,134.975806 104.952002,134.697865 105.048375,134.452351 C105.144748,134.206838 105.371444,134.034334 105.63685,134.004555 C105.902257,133.974775 106.162501,134.092642 106.312411,134.310522 L109.845317,138.853613 C110.015608,139.06598 110.048057,139.355473 109.928906,139.599349 C109.809755,139.843225 109.559878,139.998757 109.285222,140 Z" id="Shape" fill="#152365" opacity="0.8"></path>
                <path d="M114.336981,134.999773 C114.166599,134.997345 114.004077,134.927638 113.884815,134.805836 L110.189969,131.10809 C109.936677,130.854599 109.936677,130.443609 110.189969,130.190118 C110.443261,129.936627 110.853929,129.936627 111.107221,130.190118 L114.802067,133.887864 C114.99411,134.072925 115.052822,134.357048 114.949879,134.603162 C114.846935,134.849276 114.603486,135.006814 114.336981,134.999773 Z" id="Shape" fill="#152365" opacity="0.8"></path>
                <path d="M120.29425,130 C120.140671,130 119.991234,129.949496 119.868371,129.856067 L115.311466,126.315323 C115.092924,126.16508 114.974699,125.904258 115.004569,125.638263 C115.034439,125.372268 115.207467,125.145069 115.453727,125.048482 C115.699987,124.951895 115.978773,125.001887 116.17742,125.178255 L120.734325,128.718999 C120.968732,128.909663 121.059312,129.229332 120.960463,129.517069 C120.861614,129.804806 120.59476,129.998245 120.29425,130 Z" id="Shape" fill="#152365" opacity="0.8"></path>
                <path d="M127.363983,117.985642 C127.270554,118.004786 127.174524,118.004786 127.081095,117.985642 L121.52757,115.542214 C121.25678,115.454893 121.056194,115.212524 121.01,114.91683 C120.963807,114.621136 121.08,114.32329 121.309812,114.1483 C121.539624,113.97331 121.843285,113.95146 122.093345,114.091921 L127.64687,116.535349 C127.912909,116.709421 128.047827,117.040986 127.984574,117.365267 C127.921321,117.689549 127.673385,117.937398 127.363983,117.985642 Z" id="Shape" fill="#152365" opacity="0.8"></path>
                <path d="M129.20086,109.993742 L129.018347,109.993742 L123.542974,108.509303 C123.155286,108.402724 122.922716,107.984023 123.023515,107.574106 C123.124314,107.164189 123.520311,106.918285 123.907999,107.024863 L129.383372,108.509303 C129.634162,108.543775 129.848509,108.717094 129.945669,108.963974 C130.042829,109.210854 130.008042,109.493786 129.854413,109.706194 C129.700783,109.918601 129.45165,110.028214 129.20086,109.993742 Z" id="Shape" fill="#152365" opacity="0.8"></path>
                <path d="M130.262663,102.998825 L130.165443,102.998825 L124.610068,102.308346 C124.22655,102.261577 123.956064,101.932024 124.005921,101.572269 C124.055779,101.212513 124.407099,100.958786 124.790618,101.005554 L130.345993,101.696034 C130.594086,101.709997 130.815392,101.847055 130.926547,102.055579 C131.037703,102.264103 131.02182,102.512414 130.884882,102.706975 C130.747944,102.901535 130.510756,103.012788 130.262663,102.998825 L130.262663,102.998825 Z" id="Shape" fill="#152365" opacity="0.8"></path>
                <path d="M124.737356,88.9988079 C124.353838,89.0203931 124.024282,88.7462541 124.001271,88.3865013 C123.97826,88.0267485 124.270508,87.717613 124.654025,87.6960279 L130.209384,87.0055544 C130.592902,86.9587866 130.944221,87.212511 130.994079,87.5722637 C131.043936,87.9320165 130.773451,88.2615666 130.389933,88.3083345 L124.834575,88.9988079 L124.737356,88.9988079 Z" id="Shape" fill="#152365" opacity="0.8"></path>
                <path d="M123.799223,82.9936709 C123.41153,83.0469617 123.056386,82.7578486 123.005986,82.3479187 C122.955586,81.9379888 123.229015,81.5624741 123.616708,81.5091831 L129.09215,80.0246954 C129.342944,79.955749 129.609473,80.0335109 129.79134,80.2286888 C129.973207,80.4238667 130.042781,80.7068084 129.973855,80.9709327 C129.904928,81.2350569 129.707973,81.4402368 129.45718,81.5091831 L123.981738,82.9936709 L123.799223,82.9936709 Z" id="Shape" fill="#152365" opacity="0.8"></path>
                <path d="M121.882765,77.9859924 C121.479199,78.0673107 121.089886,77.7862767 121.013208,77.3582853 C120.936531,76.930294 121.201526,76.5174169 121.605091,76.4360984 L127.056262,74.0337628 C127.416348,73.9174567 127.80083,74.1102815 127.944531,74.4792465 C128.088232,74.8482114 127.944129,75.2725794 127.611609,75.4596652 L122.160438,77.8620009 C122.077007,77.9233386 121.982439,77.9655665 121.882765,77.9859924 Z" id="Shape" fill="#152365" opacity="0.8"></path>
                <path d="M115.715926,65.9937891 C115.407789,65.9937891 115.134224,65.7912918 115.036783,65.491077 C114.939341,65.1908623 115.039889,64.8602945 115.286398,64.670422 L119.882345,61.1267391 C120.195399,60.9087418 120.619564,60.9784653 120.850726,61.2859197 C121.081887,61.5933742 121.040273,62.0324584 120.755719,62.2883613 L116.159771,65.9055646 C116.024985,65.9834364 115.869269,66.0143885 115.715926,65.9937891 L115.715926,65.9937891 Z" id="Shape" fill="#152365" opacity="0.8"></path>
                <path d="M110.638581,60.9997859 C110.379468,60.9961434 110.147467,60.8382874 110.048801,60.5984923 C109.950134,60.3586972 110.003796,60.0831291 110.185219,59.8979568 L113.889836,56.1906259 C114.054121,56.0262209 114.293571,55.9620135 114.517988,56.0221898 C114.742404,56.0823662 114.917694,56.2577842 114.977826,56.4823655 C115.037959,56.7069469 114.973798,56.9465723 114.809514,57.1109773 L111.104896,60.8183082 C110.980025,60.9388686 110.812036,61.0042456 110.638581,60.9997859 Z" id="Shape" fill="#152365" opacity="0.8"></path>
                <path d="M105.719667,57 C105.447079,57 105.197886,56.8482039 105.075981,56.6078977 C104.954076,56.3675915 104.980384,56.0800248 105.143937,55.8650885 L108.684678,51.3112559 C108.834921,51.092861 109.095742,50.9747157 109.361737,51.0045657 C109.627732,51.0344157 109.854931,51.2073267 109.951518,51.4534209 C110.048105,51.6995151 109.998113,51.9781131 109.821745,52.1766259 L106.281004,56.7304585 C106.145242,56.8997997 105.93864,56.999005 105.719667,57 Z" id="Shape" fill="#152365" opacity="0.8"></path>
                <rect id="Rectangle-path" fill="#152365" opacity="0.7" transform="translate(96.000000, 46.500000) rotate(-67.490000) translate(-96.000000, -46.500000) " x="93" y="46" width="6" height="1"></rect>
                <rect id="Rectangle-path" fill="#152365" opacity="0.7" transform="translate(90.000000, 44.500000) rotate(-75.010000) translate(-90.000000, -44.500000) " x="87" y="44" width="6" height="1"></rect>
                <rect id="Rectangle-path" fill="#152365" opacity="0.7" transform="translate(83.000000, 43.500000) rotate(-82.490000) translate(-83.000000, -43.500000) " x="80" y="43" width="6" height="1"></rect>
            </g>
        </g>
    </g>
</svg>