<?xml version="1.0" encoding="UTF-8"?>
<svg width="126px" height="82px" viewBox="0 0 126 82" version="1.1" xmlns="http://www.w3.org/2000/svg" xmlns:xlink="http://www.w3.org/1999/xlink">
    <!-- Generator: Sketch 43.2 (39069) - http://www.bohemiancoding.com/sketch -->
    <title>bg_time_comparision-04</title>
    <desc>Created with Sketch.</desc>
    <defs>
        <linearGradient x1="50%" y1="100%" x2="50%" y2="0%" id="linearGradient-1">
            <stop stop-color="#526EDE" offset="0%"></stop>
            <stop stop-color="#627BE0" offset="100%"></stop>
        </linearGradient>
        <linearGradient x1="17.8571429%" y1="88.2857143%" x2="82.1428571%" y2="11.7142857%" id="linearGradient-2">
            <stop stop-color="#FFFFFF" stop-opacity="0.6" offset="0%"></stop>
            <stop stop-color="#FFFFFF" stop-opacity="0.2" offset="100%"></stop>
        </linearGradient>
        <linearGradient x1="50%" y1="0%" x2="50%" y2="100%" id="linearGradient-3">
            <stop stop-color="#627BE0" offset="0%"></stop>
            <stop stop-color="#526EDE" stop-opacity="0" offset="100%"></stop>
        </linearGradient>
        <linearGradient x1="6900%" y1="16000%" x2="6900%" y2="18600%" id="linearGradient-4">
            <stop stop-color="#627BE0" offset="0%"></stop>
            <stop stop-color="#526EDE" stop-opacity="0" offset="100%"></stop>
        </linearGradient>
    </defs>
    <g id="Page-1" stroke="none" stroke-width="1" fill="none" fill-rule="evenodd">
        <g id="Banner-Generator---LP" transform="translate(-343.000000, -1469.000000)" fill-rule="nonzero">
            <g id="bg_time_comparision-04" transform="translate(343.000000, 1469.000000)">
                <g id="Group" opacity="0.4" fill="url(#linearGradient-1)">
                    <rect id="Rectangle-path" x="0" y="0" width="100" height="82" rx="2"></rect>
                </g>
                <circle id="Oval" fill="url(#linearGradient-2)" cx="33" cy="33" r="7"></circle>
                <path d="M75.18,33 L30,82 L98,82 C99.1045695,82 100,81.1045695 100,80 L100,57.5 L75.18,33 Z" id="Shape" fill="url(#linearGradient-3)" opacity="0.8"></path>
                <path d="M2,82 L54,82 L22,56 L0,75.83 L0,80 C0,81.1045695 0.8954305,82 2,82 Z" id="Shape" fill="url(#linearGradient-4)" opacity="0.8"></path>
                <rect id="Rectangle-path" fill="#152365" opacity="0.9" x="80" y="14" width="46" height="3"></rect>
                <rect id="Rectangle-path" fill="#152365" opacity="0.9" x="80" y="22" width="46" height="3"></rect>
                <rect id="Rectangle-path" fill="#152365" opacity="0.9" x="80" y="30" width="46" height="3"></rect>
                <rect id="Rectangle-path" fill="#152365" opacity="0.9" x="80" y="38" width="46" height="3"></rect>
                <rect id="Rectangle-path" fill="#152365" opacity="0.9" x="80" y="46" width="23" height="3"></rect>
            </g>
        </g>
    </g>
</svg>