<?xml version="1.0" encoding="utf-8"?>
<!-- Generator: Adobe Illustrator 19.2.1, SVG Export Plug-In . SVG Version: 6.00 Build 0)  -->
<svg version="1.1" id="Layer_3" xmlns="http://www.w3.org/2000/svg" xmlns:xlink="http://www.w3.org/1999/xlink" x="0px" y="0px"
	 viewBox="0 0 1236 840" style="enable-background:new 0 0 1236 840;" xml:space="preserve">
<style type="text/css">
	.st0{fill:#FFFFFF;}
	.st1{fill:#F1F3F5;}
	.st2{fill:#DEE2E6;}
	.st3{fill:#132A57;}
	.st4{fill:#FFF7F7;}
	.st5{fill:#BCC2C9;}
	.st6{fill:#D35050;}
	.st7{fill:#FB7171;}
	.st8{fill:#F88234;}
	.st9{fill:#FDCF42;}
	.st10{fill:#54AF66;}
	.st11{fill:#98D346;}
	.st12{fill:#35A683;}
	.st13{fill:#3BABBC;}
	.st14{fill:#4A9FEA;}
	.st15{fill:#7994FB;}
	.st16{fill:#8A69EC;}
	.st17{fill:#EAABF8;}
	.st18{fill:#BD61D3;}
	.st19{fill:#B6466D;}
	.st20{fill:#F8F9FA;}
	.st21{fill:#17336B;}
	.st22{fill:#ADD0F0;}
	.st23{fill:#5558DD;}
	.st24{fill:#586979;}
	.st25{fill:#6D7379;}
	.st26{fill:#272525;}
	.st27{fill:url(#SVGID_1_);}
	.st28{opacity:0.6;fill:#F8F9FA;enable-background:new    ;}
	.st29{opacity:0.9;fill:#6E5C4E;enable-background:new    ;}
	.st30{opacity:0.8;}
	.st31{fill:#F5E9DD;}
	.st32{fill:#212529;}
	.st33{opacity:0.7;}
	.st34{opacity:0.7;fill:#212529;enable-background:new    ;}
	.st35{fill:#E9ECEF;}
	.st36{fill:url(#SVGID_2_);}
	.st37{fill:#E6EE9C;}
	.st38{fill:#FFCCBC;}
	.st39{fill:#FF5746;}
	.st40{fill:url(#SVGID_3_);}
	.st41{fill:#99E9F2;}
	.st42{fill-rule:evenodd;clip-rule:evenodd;fill:#132A57;}
	.st43{opacity:0.4;fill-rule:evenodd;clip-rule:evenodd;fill:#99E9F2;}
	.st44{fill:url(#SVGID_4_);}
	.st45{fill:#3B5891;}
	.st46{fill-rule:evenodd;clip-rule:evenodd;fill:#FFEE58;}
	.st47{fill:#FDD835;}
</style>
<rect x="292" y="48" class="st0" width="894.6" height="792"/>
<path class="st1" d="M1232,0H4C1.8,0,0,1.8,0,4v44h1236V4C1236,1.8,1234.2,0,1232,0z"/>
<circle class="st2" cx="30.8" cy="24.5" r="8.1"/>
<circle class="st2" cx="60.5" cy="24.5" r="8.1"/>
<circle class="st2" cx="90.2" cy="24.5" r="8.1"/>
<path class="st3" d="M0,836c0,2.2,1.8,4,4,4h288V48H0V836z"/>
<path class="st21" d="M0,48v240.7h76V48H0z M0,836c0,2.2,1.8,4,4,4h72V365.6H0V836z"/>
<path class="st22" d="M22,70v36h36V70H22z M55,86H41V73h14V86z M25,73h13v30H25V73z M41,103V89h14v14H41z"/>
<path class="st22" d="M51,163.4V156h6v-9h-9v6H30v-6h-9v9h6v18h-6v9h9v-6h18v6h9v-9h-6V163.4z M51,150h3v3h-3V150z M27,180h-3v-3h3
	V180z M27,153h-3v-3h3V153z M30,174v-6.2l5.3,6.2H30z M39.5,174L30,163.6v-6.4L45.9,174H39.5z M48,171l-15.9-15h6.4l9.5,8.6V171z
	 M48,160.4l-5.2-4.4H48V160.4L48,160.4z M54,177v3h-3v-3H54z"/>
<polygon class="st22" points="44,233 20,233 20,236 31,236 31,266 34,266 34,236 44,236 "/>
<path class="st22" d="M56,248v-3h-4v-5h-3v5h-5v3h5v11.1c0,2,0.4,3.7,1.4,4.8c1.7,1.7,5.6,1.2,5.6,1.2V263h-1c-2.5,0-3-2.9-3-3.8
	V248H56z"/>
<path class="st0" d="M58,310H31v9h-9v27h27v-9h9V310z M46,343H25v-21h6v15h15V343z M55,334H34v-21h21V334z"/>
<path class="st0" d="M49.9,326c-1.3,0.7-2.3,2.9-3.5,1.4c-1-1.3-1.8-2.7-2.6-4.1c-1.1-1.8-2.5-3.4-4.1-1.6c-1.8,2-3.1,7.5-3.4,10
	h17.3C53.3,330.3,51.7,324.9,49.9,326z"/>
<circle class="st0" cx="49.5" cy="318.2" r="3"/>
<path class="st22" d="M59.3,397.8c0-7.2-5.8-13.1-13-13.2c-0.1,0-0.2,0-0.3,0c-5.9,0-10.7,4.4-12.6,9.4H23v27h27v-10.5
	C55.6,408.9,59.5,403.6,59.3,397.8z M47,418H26v-21h6.6c0,1-0.1,0.6-0.1,1.1c-0.1,7.3,5.7,13.2,12.9,13.3c0.1,0,0.2,0,0.3,0
	c0.4,0,0.8-0.1,1.2-0.3V418z M46,408.3c-5.8,0-10.5-4.7-10.5-10.5c0-5.8,4.7-10.5,10.5-10.5s10.5,4.7,10.5,10.5
	C56.5,403.6,51.8,408.3,46,408.3z"/>
<polygon class="st22" points="39,473.7 42.1,477 32,477 32,480 42.1,480 39,483.1 41.1,485.2 47.9,478.4 41.1,471.6 "/>
<path class="st22" d="M59,466.7c-0.1-1.6-1.5-2.8-3.1-2.7c0,0,0,0-0.1,0h-33c-1.4-0.1-2.7,0.9-2.8,2.3c0,0.1,0,0.2,0,0.3v24.1
	c-0.1,1.7,1.2,3.1,2.8,3.2h33c1.7-0.1,3.1-1.5,3.2-3.2V466.7z M23,491v-24h33.5v24H23z"/>
<rect x="21" y="543" class="st22" width="6" height="6"/>
<rect x="36" y="543" class="st22" width="6" height="6"/>
<rect x="51" y="543" class="st22" width="6" height="6"/>
<path class="st20" d="M1141.9,48H292v50.9h894.6V840h43.4c4.4,0,6-1.4,6-5.5V48H1141.9z"/>
<rect x="1186.9" y="148.9" class="st1" width="49.3" height="49.3"/>
<rect x="1201.7" y="116.8" class="st2" width="20" height="2"/>
<rect x="1201.7" y="122.8" class="st2" width="20" height="2"/>
<rect x="1201.7" y="128.9" class="st2" width="20" height="2"/>
<rect x="1201.7" y="166.6" class="st2" width="20" height="2"/>
<rect x="1201.7" y="172.6" class="st2" width="20" height="2"/>
<rect x="1201.7" y="178.6" class="st2" width="20" height="2"/>
<rect x="1201.7" y="213.3" class="st2" width="20" height="2"/>
<rect x="1201.7" y="219.3" class="st2" width="20" height="2"/>
<rect x="1201.7" y="225.3" class="st2" width="20" height="2"/>
<rect x="1201.7" y="260" class="st2" width="20" height="2"/>
<rect x="1201.7" y="266" class="st2" width="20" height="2"/>
<rect x="1201.7" y="272" class="st2" width="20" height="2"/>
<rect x="1201.7" y="306.7" class="st2" width="20" height="2"/>
<rect x="1201.7" y="312.7" class="st2" width="20" height="2"/>
<rect x="1201.7" y="318.7" class="st2" width="20" height="2"/>
<rect x="1201.7" y="353.4" class="st2" width="20" height="2"/>
<rect x="1201.7" y="359.4" class="st2" width="20" height="2"/>
<rect x="1201.7" y="365.4" class="st2" width="20" height="2"/>
<rect x="1201.7" y="400.1" class="st2" width="20" height="2"/>
<rect x="1201.7" y="406.1" class="st2" width="20" height="2"/>
<rect x="1201.7" y="412.1" class="st2" width="20" height="2"/>
<rect x="1201.7" y="446.8" class="st2" width="20" height="2"/>
<rect x="1201.7" y="452.8" class="st2" width="20" height="2"/>
<rect x="1201.7" y="458.8" class="st2" width="20" height="2"/>
<rect x="1185.7" y="47.6" class="st1" width="2.4" height="790.9"/>
<rect x="1185.7" y="148.9" class="st2" width="2.4" height="49.3"/>
<rect x="1188.1" y="47.6" class="st1" width="48.2" height="51.2"/>
<path class="st2" d="M1198.2,72.9l2.7-1.3l10.7,5.3l10.7-5.3l2.7,1.3l-13.4,6.7L1198.2,72.9z M1198.2,67.6l13.4-6.7l13.4,6.7
	l-13.4,6.7L1198.2,67.6z M1211.5,63.6l-8,4l8,4l8-4L1211.5,63.6z M1211.5,82.2l10.7-5.3l2.7,1.3l-13.4,6.7l-13.4-6.7l2.7-1.3
	L1211.5,82.2z"/>
<path class="st2" d="M653.3,81.5c0-7.8-7.3-11.7-11.3-12.4v-3.9l-10,7.5l10,7.5v-5C647,75.5,650,76.9,653.3,81.5z"/>
<path class="st2" d="M691.7,81.5c0-7.8,7.3-11.7,11.3-12.4v-3.9l10,7.5l-10,7.5v-5C698,75.5,695,76.9,691.7,81.5z"/>
<path class="st2" d="M788.4,65.5c-4.4,0-8.5,2.6-11.4,7.2l0,0c3,4.7,7,7.2,11.4,7.2s8.5-2.6,11.4-7.2
	C796.8,68.1,792.8,65.5,788.4,65.5z M788.4,77.8c-2.8,0-5-2.2-5-5s2.2-5,5-5s5,2.2,5,5S791.1,77.8,788.4,77.8z M788.4,70.3
	c-1.4,0-2.5,1.1-2.5,2.5s1.1,2.5,2.5,2.5s2.5-1.1,2.5-2.5S789.8,70.3,788.4,70.3z"/>
<polygon class="st2" points="843,65.8 853,72.8 843,79.8 "/>
<rect x="745.5" y="59" class="st2" width="1.4" height="28.3"/>
<path class="st20" d="M324,148h45.1c1.1,0,2,0.9,2,2v336.9c0,1.1-0.9,2-2,2H324c-1.1,0-2-0.9-2-2V150C322,148.9,322.9,148,324,148z"
	/>
<polygon class="st24" points="357,212 347.3,212 344.8,212 336,212 336,215 345,215 345,235 348,235 348,215 357,215 "/>
<path class="st23" d="M346.2,164.4c-6.1,0-11.1,5-11.1,11.1c0,6.1,5,11.1,11.1,11.1c1,0,1.8-0.8,1.9-1.9c0-0.5-0.2-0.9-0.5-1.2
	c-0.2-0.4-0.5-0.1-0.5-0.6c0-1,0.9-1.2,1.9-1.2h2.2c3.5,0,6.2-3.3,6.2-6.8C357.3,169.4,352.4,164.4,346.2,164.4z M339.5,175.5
	c-1,0-1.9-0.8-1.9-1.9c0-1,0.8-1.8,1.9-1.8s1.9,0.8,1.9,1.8C341.3,174.7,340.5,175.5,339.5,175.5
	C339.5,175.5,339.5,175.5,339.5,175.5L339.5,175.5z M343.2,170.6c-1,0-1.9-0.8-1.9-1.8s0.8-1.9,1.8-1.9c1,0,1.9,0.8,1.9,1.8
	c0,0,0,0,0,0C345,169.7,344.2,170.5,343.2,170.6L343.2,170.6z M349.3,170.6c-1,0-1.8-0.8-1.9-1.9c0-1,0.8-1.9,1.9-1.9
	s1.9,0.8,1.9,1.9C351.2,169.7,350.3,170.5,349.3,170.6L349.3,170.6z M353,175.5c-1,0-1.8-0.8-1.9-1.9c0-1,0.8-1.9,1.9-1.9
	s1.9,0.8,1.9,1.9C354.9,174.7,354,175.5,353,175.5L353,175.5z"/>
<path class="st24" d="M356.9,399.8h-18.5v4.9h-3.7v17.3H352v-3.7h4.9L356.9,399.8L356.9,399.8z M349.5,419.6h-12.3v-12.4h12.3
	L349.5,419.6L349.5,419.6z M354.4,415.9H352v-11.1h-11.1v-2.5h13.5L354.4,415.9L354.4,415.9z"/>
<polygon class="st24" points="344.6,409.7 342.1,409.7 342.1,412.2 339.7,412.2 339.7,414.6 342.1,414.6 342.1,417.1 344.6,417.1 
	344.6,414.6 347,414.6 347,412.2 344.6,412.2 "/>
<path class="st24" d="M333.5,314.4l2.5-1.2l9.9,4.9l9.9-4.9l2.5,1.2l-12.3,6.2L333.5,314.4z M333.5,309.5l12.3-6.2l12.3,6.2
	l-12.3,6.2L333.5,309.5z M345.8,305.8l-7.4,3.7l7.4,3.7l7.4-3.7L345.8,305.8z M345.8,323.1l9.9-4.9l2.5,1.2l-12.3,6.2l-12.3-6.2
	l2.5-1.2L345.8,323.1z"/>
<path class="st24" d="M358.1,351.9h-24.6v22.2h24.6L358.1,351.9L358.1,351.9z M350.7,354.4h4.9v2.5h-4.9V354.4z M343.3,354.4h4.9
	v2.5h-4.9V354.4z M340.9,371.6H336v-2.5h4.9L340.9,371.6L340.9,371.6z M340.9,356.8H336v-2.5h4.9L340.9,356.8L340.9,356.8z
	 M348.3,371.6h-4.9v-2.5h4.9V371.6z M343.4,366.8v-7.6l6.6,3.8L343.4,366.8z M350.7,371.6v-2.5h4.9v2.5H350.7z"/>
<path class="st24" d="M354.6,448.3h-5.3v-1.3h-6.7v1.3h-5.3v2.7h1.3V471h14.7v-20.1h1.3V448.3z M341.3,468.3v-12h1.3v12H341.3z
	 M345.3,468.3v-12h1.3v12H345.3z M350.6,468.3h-1.3v-12h1.3V468.3z M341.3,453.6v-1.3h9.3v1.3H341.3z"/>
<path class="st24" d="M344.8,272.5l-1.8-1.8l1.8-1.8l1.8,1.8c0.5,0.5,1.3,0.5,1.8,0c0,0,0,0,0,0l6.2-6.2c0.5-0.5,0.5-1.3,0-1.8
	l-2.7-2.7c-0.5-0.5-1.3-0.5-1.8,0c0,0,0,0,0,0l-2.6,2.7l-1.8-1.8l2.6-2.7c1.5-1.5,3.8-1.5,5.3,0c0,0,0,0,0,0l2.6,2.7
	c1.5,1.5,1.5,3.8,0,5.3l-6.2,6.2C348.6,273.9,346.2,273.9,344.8,272.5C344.8,272.5,344.8,272.5,344.8,272.5z"/>
<path class="st24" d="M338.6,278.6l-2.6-2.6c-1.5-1.5-1.5-3.8,0-5.3l6.2-6.2c1.5-1.5,3.8-1.5,5.3,0c0,0,0,0,0,0l1.8,1.8l-1.8,1.8
	l-1.8-1.8c-0.5-0.5-1.3-0.5-1.8,0c0,0,0,0,0,0l-6.2,6.2c-0.5,0.5-0.5,1.3,0,1.8l2.6,2.7c0.5,0.5,1.3,0.5,1.8,0c0,0,0,0,0,0l2.6-2.7
	l1.8,1.8l-2.6,2.7C342.4,280.1,340,280.1,338.6,278.6C338.6,278.7,338.6,278.7,338.6,278.6z"/>
<g>
	<path class="st0" d="M98.2,83V71.8h2.5V83H98.2z"/>
	<path class="st0" d="M113.5,83v-7.6l-3,6.4h-1.6l-3-6.4V83h-2.3V71.8h2.8l3.3,6.9l3.2-6.9h2.8V83H113.5z"/>
	<path class="st0" d="M120.7,80.8l-0.9,2.2h-2.6l4.9-11.2h2.6l4.8,11.2h-2.7l-0.9-2.2H120.7z M123.3,74.4l-1.8,4.4h3.5L123.3,74.4z"
		/>
	<path class="st0" d="M140.2,77.3v4.3c-1.2,0.9-3,1.5-4.5,1.5c-3.4,0-6-2.5-6-5.7c0-3.2,2.6-5.7,6.1-5.7c1.7,0,3.4,0.6,4.5,1.6
		l-1.4,1.8c-0.8-0.8-2-1.2-3.1-1.2c-2,0-3.5,1.5-3.5,3.5c0,2,1.6,3.5,3.5,3.5c0.7,0,1.5-0.2,2.2-0.6v-2.9H140.2z"/>
	<path class="st0" d="M145.3,73.9v2.4h5.4v2.1h-5.4v2.5h6.2V83h-8.7V71.8h8.5v2.1H145.3z"/>
</g>
<linearGradient id="SVGID_1_" gradientUnits="userSpaceOnUse" x1="772.8905" y1="498.1207" x2="1128.358" y2="142.6531">
	<stop  offset="0" style="stop-color:#20E8C6"/>
	<stop  offset="1" style="stop-color:#32A2FF"/>
</linearGradient>
<path class="st27" d="M765.9,150.3h369.5c0.9,0,1.7,0.9,1.7,2v336.2c0,1.1-0.8,2-1.7,2H765.9c-0.9,0-1.7-0.9-1.7-2V152.3
	C764.2,151.2,764.9,150.3,765.9,150.3z"/>
<rect x="99" y="103" class="st20" width="84" height="1"/>
<rect x="183" y="103" class="st21" width="85" height="1"/>
<g>
	<path class="st0" d="M984.9,242.3h-10.1v-64h10.1v27.4h11.4v-27.4h10.2v64h-10.2v-27.4h-11.4V242.3z"/>
	<path class="st0" d="M1022.5,178.3v49.3c0,4.6,2,6.2,5.2,6.2s5.2-1.6,5.2-6.2v-49.3h9.5V227c0,10.2-5.1,16.1-15,16.1
		c-9.9,0-15-5.8-15-16.1v-48.7H1022.5z"/>
	<path class="st0" d="M1063.8,206.6h14.1v20.3c0,10.2-5.1,16.1-15,16.1c-9.9,0-15-5.8-15-16.1v-33.3c0-10.2,5.1-16.1,15-16.1
		c9.9,0,15,5.8,15,16.1v6.2h-9.5V193c0-4.6-2-6.3-5.2-6.3c-3.2,0-5.2,1.7-5.2,6.3v34.5c0,4.6,2,6.2,5.2,6.2c3.2,0,5.2-1.6,5.2-6.2
		v-11.8h-4.6V206.6z"/>
	<path class="st0" d="M1093.5,205.3h13.8v9.1h-13.8v18.7h17.4v9.1h-27.4v-64h27.4v9.1h-17.4V205.3z"/>
</g>
<g>
	<path class="st41" d="M942.7,255.6c4.7,0,7.1,2.8,7.1,7.7v1h-4.6V263c0-2.2-0.9-3-2.4-3s-2.4,0.8-2.4,3c0,6.3,9.4,7.5,9.4,16.3
		c0,4.9-2.5,7.7-7.2,7.7s-7.2-2.8-7.2-7.7v-1.9h4.6v2.2c0,2.2,1,3,2.5,3c1.5,0,2.5-0.8,2.5-3c0-6.3-9.4-7.5-9.4-16.3
		C935.6,258.4,938,255.6,942.7,255.6z"/>
	<path class="st41" d="M951.8,255.9h14.9v4.4h-5v26.3h-4.8v-26.3h-5V255.9z"/>
	<path class="st41" d="M968.9,263.3c0-4.9,2.6-7.7,7.3-7.7s7.3,2.8,7.3,7.7v16c0,4.9-2.6,7.7-7.3,7.7s-7.3-2.8-7.3-7.7V263.3z
		 M973.8,279.6c0,2.2,1,3,2.5,3c1.5,0,2.5-0.8,2.5-3V263c0-2.2-1-3-2.5-3c-1.5,0-2.5,0.8-2.5,3V279.6z"/>
	<path class="st41" d="M1000.8,275.2v4.1c0,4.9-2.5,7.7-7.2,7.7s-7.2-2.8-7.2-7.7v-16c0-4.9,2.5-7.7,7.2-7.7s7.2,2.8,7.2,7.7v3h-4.6
		V263c0-2.2-1-3-2.5-3c-1.5,0-2.5,0.8-2.5,3v16.6c0,2.2,1,3,2.5,3c1.5,0,2.5-0.8,2.5-3v-4.4H1000.8z"/>
	<path class="st41" d="M1010,274.4l-1.5,2.8v9.4h-4.8v-30.7h4.8v13.4l6.3-13.4h4.8l-6.7,13.7l6.7,17h-5L1010,274.4z"/>
	<path class="st41" d="M1043.8,263.5v4c0,4.9-2.4,7.6-7.2,7.6h-2.3v11.5h-4.8v-30.7h7.1C1041.4,255.9,1043.8,258.6,1043.8,263.5z
		 M1034.3,260.3v10.4h2.3c1.5,0,2.4-0.7,2.4-2.9v-4.6c0-2.2-0.8-2.9-2.4-2.9H1034.3z"/>
	<path class="st41" d="M1051.3,286.7h-4.8v-30.7h4.8v13.2h5.5v-13.2h4.9v30.7h-4.9v-13.2h-5.5V286.7z"/>
	<path class="st41" d="M1064.7,263.3c0-4.9,2.6-7.7,7.3-7.7s7.3,2.8,7.3,7.7v16c0,4.9-2.6,7.7-7.3,7.7s-7.3-2.8-7.3-7.7V263.3z
		 M1069.6,279.6c0,2.2,1,3,2.5,3c1.5,0,2.5-0.8,2.5-3V263c0-2.2-1-3-2.5-3c-1.5,0-2.5,0.8-2.5,3V279.6z"/>
	<path class="st41" d="M1081.6,255.9h14.9v4.4h-5v26.3h-4.8v-26.3h-5V255.9z"/>
	<path class="st41" d="M1098.7,263.3c0-4.9,2.6-7.7,7.3-7.7s7.3,2.8,7.3,7.7v16c0,4.9-2.6,7.7-7.3,7.7s-7.3-2.8-7.3-7.7V263.3z
		 M1103.5,279.6c0,2.2,1,3,2.5,3c1.5,0,2.5-0.8,2.5-3V263c0-2.2-1-3-2.5-3c-1.5,0-2.5,0.8-2.5,3V279.6z"/>
	<path class="st41" d="M1003.8,297.1h4.8v26.3h7.9v4.4h-12.8V297.1z"/>
	<path class="st41" d="M1019,297.1h4.8v30.7h-4.8V297.1z"/>
	<path class="st41" d="M1041.6,304.2v1.1c0,3.2-1,5.2-3.1,6.2c2.6,1,3.6,3.3,3.6,6.6v2.5c0,4.7-2.5,7.3-7.3,7.3h-7.6v-30.7h7.3
		C1039.4,297.1,1041.6,299.4,1041.6,304.2z M1032,301.5v8.1h1.9c1.8,0,2.9-0.8,2.9-3.2v-1.7c0-2.2-0.7-3.2-2.5-3.2H1032z M1032,314
		v9.4h2.8c1.6,0,2.5-0.7,2.5-3v-2.7c0-2.9-0.9-3.7-3.1-3.7H1032z"/>
	<path class="st41" d="M1055,327.8c-0.3-0.8-0.4-1.3-0.4-3.8v-4.8c0-2.9-1-3.9-3.2-3.9h-1.7v12.5h-4.8v-30.7h7.3
		c5,0,7.2,2.3,7.2,7.1v2.4c0,3.2-1,5.2-3.2,6.2c2.4,1,3.2,3.3,3.2,6.5v4.7c0,1.5,0,2.6,0.5,3.7H1055z M1049.7,301.5v9.4h1.9
		c1.8,0,2.9-0.8,2.9-3.2v-3c0-2.2-0.7-3.2-2.5-3.2H1049.7z"/>
	<path class="st41" d="M1079,327.8h-4.9l-0.8-5.6h-5.9l-0.8,5.6h-4.4l4.9-30.7h7.1L1079,327.8z M1067.9,318.1h4.7l-2.3-15.5
		L1067.9,318.1z"/>
	<path class="st41" d="M1091.6,327.8c-0.3-0.8-0.4-1.3-0.4-3.8v-4.8c0-2.9-1-3.9-3.2-3.9h-1.7v12.5h-4.8v-30.7h7.3
		c5,0,7.2,2.3,7.2,7.1v2.4c0,3.2-1,5.2-3.2,6.2c2.4,1,3.2,3.3,3.2,6.5v4.7c0,1.5,0,2.6,0.5,3.7H1091.6z M1086.3,301.5v9.4h1.9
		c1.8,0,2.9-0.8,2.9-3.2v-3c0-2.2-0.7-3.2-2.5-3.2H1086.3z"/>
	<path class="st41" d="M1103.6,317.7l-6.1-20.5h5l3.7,14l3.7-14h4.6l-6.1,20.5v10.2h-4.8V317.7z"/>
</g>
<path class="st20" d="M640,148H394.2c-1.1,0-2,0.8-2,1.7v54.7l-9.7,8.3l9.7,8.3v273.1c0,0.9,0.9,1.7,2,1.7H640c1.1,0,2-0.8,2-1.7
	V149.7C642,148.8,641.1,148,640,148z"/>
<rect x="412.1" y="428.3" class="st2" width="209.9" height="1"/>
<ellipse class="st0" cx="616.3" cy="428.8" rx="7" ry="7"/>
<path class="st2" d="M616.3,421.8c3.9,0,7,3.1,7,7s-3.1,7-7,7s-7-3.1-7-7l0,0C609.3,425,612.4,421.8,616.3,421.8 M616.3,420.8
	c-4.4,0-8,3.6-8,8s3.6,8,8,8s8-3.6,8-8S620.7,420.8,616.3,420.8L616.3,420.8z"/>
<rect x="412.6" y="358.7" class="st2" width="209.9" height="1"/>
<rect x="412.6" y="358.7" class="st23" width="26.9" height="1"/>
<ellipse class="st23" cx="437.1" cy="359.2" rx="7" ry="7"/>
<polygon class="st0" points="435.3,359.1 435.6,371.7 433.9,371.7 432.8,370.7 429.8,370.4 429.9,372.8 430.7,374 432.4,375.5 
	432.7,377.6 434.1,378.9 434.3,380.2 435.2,381.2 435.7,383 436.4,384 436.7,386.8 449.5,387.2 449.7,384.2 450.9,382.8 
	451.4,379.8 452.3,378.6 452.1,370.2 449.5,368 447.8,367.1 447,366.7 443.7,366 442.9,365.1 440,364.7 439.5,359.4 438.2,358.1 
	437,358 "/>
<rect x="429.1" y="369.6" class="st26" width="1.3" height="4.1"/>
<rect x="434.6" y="358.7" class="st26" width="1.6" height="18.3"/>
<rect x="443.3" y="365.5" class="st26" width="1.6" height="5.5"/>
<rect x="447.4" y="366.9" class="st26" width="1.6" height="5.4"/>
<rect x="451.5" y="369.9" class="st26" width="1.6" height="9.6"/>
<rect x="448.8" y="383.6" class="st26" width="1.6" height="3.8"/>
<rect x="450.2" y="379.4" class="st26" width="1.6" height="4.2"/>
<rect x="438.9" y="358.6" class="st26" width="1.6" height="12.5"/>
<rect x="429.2" y="369.6" class="st26" width="3.9" height="1.4"/>
<rect x="430.4" y="373.7" class="st26" width="1.5" height="1.4"/>
<rect x="431.9" y="375" class="st26" width="1.4" height="3.1"/>
<rect x="433.2" y="378.1" class="st26" width="1.5" height="2.8"/>
<rect x="434.7" y="380.8" class="st26" width="1.4" height="2.7"/>
<rect x="436" y="383.6" class="st26" width="1.5" height="3"/>
<rect x="433.2" y="371" class="st26" width="2.2" height="1.4"/>
<rect x="448" y="366.9" class="st26" width="2.2" height="1.6"/>
<rect x="450.2" y="368.5" class="st26" width="1.4" height="1.4"/>
<rect x="436.2" y="357.2" class="st26" width="2.7" height="1.4"/>
<rect x="444.5" y="365.5" class="st26" width="3" height="1.5"/>
<rect x="440.5" y="364.1" class="st26" width="2.8" height="1.4"/>
<g>
	<path class="st24" d="M411.7,181.2v-12h8.5v2.3h-5.9v2.5h5.8v2.3h-5.8v5H411.7z"/>
	<path class="st24" d="M422.2,181.2v-12h2.6v12H422.2z"/>
	<path class="st24" d="M427.3,181.2v-12h2.6v9.8h5.1v2.3H427.3z"/>
	<path class="st24" d="M438,181.2v-9.8h-3.5v-2.3h9.6v2.3h-3.5v9.8H438z"/>
	<path class="st24" d="M445.6,181.2v-12h8.5v2.3h-5.9v2.5h5.8v2.3h-5.8v2.7h5.9v2.3H445.6z"/>
	<path class="st24" d="M463.3,181.2l-2.4-4.3H459v4.3h-2.6v-12h5.6c2.5,0,4,1.6,4,3.9c0,2.1-1.3,3.3-2.6,3.6l2.7,4.6H463.3z
		 M463.5,173c0-1-0.8-1.6-1.8-1.6H459v3.2h2.7C462.7,174.7,463.5,174,463.5,173z"/>
</g>
<g>
	<path class="st24" d="M412.3,405.2c0-3.6,2.6-6.2,6.3-6.2c3.6,0,6.3,2.6,6.3,6.2c0,3.6-2.6,6.2-6.3,6.2
		C414.9,411.5,412.3,408.9,412.3,405.2z M422.2,405.2c0-2.3-1.4-3.9-3.7-3.9s-3.6,1.7-3.6,3.9c0,2.2,1.4,3.9,3.6,3.9
		S422.2,407.5,422.2,405.2z"/>
	<path class="st24" d="M426.8,411.2v-12h5.6c2.6,0,4,1.8,4,3.9c0,2.1-1.4,3.9-4,3.9h-3.1v4.3H426.8z M433.9,403.1
		c0-1-0.8-1.6-1.8-1.6h-2.7v3.2h2.7C433.1,404.7,433.9,404.1,433.9,403.1z"/>
	<path class="st24" d="M445.7,411.2l-0.7-2h-5.1l-0.8,2h-2.9l4.6-12h3.2l4.6,12H445.7z M442.4,401.8l-1.9,5.2h3.7L442.4,401.8z"/>
	<path class="st24" d="M448.8,405.2c0-3.7,2.8-6.2,6.4-6.2c2.6,0,4.2,1.4,5,2.9l-2.2,1.1c-0.5-1-1.6-1.7-2.8-1.7
		c-2.2,0-3.8,1.7-3.8,3.9c0,2.3,1.6,3.9,3.8,3.9c1.2,0,2.3-0.8,2.8-1.7l2.2,1.1c-0.9,1.5-2.4,3-5,3
		C451.6,411.5,448.8,408.9,448.8,405.2z"/>
	<path class="st24" d="M461.9,411.2v-12h2.6v12H461.9z"/>
	<path class="st24" d="M469.6,411.2v-9.8H466v-2.3h9.6v2.3h-3.5v9.8H469.6z"/>
	<path class="st24" d="M481.2,411.2v-4.9l-4.6-7.1h2.9l3,4.8l3-4.8h2.9l-4.6,7.1v4.9H481.2z"/>
</g>
<g>
	<path class="st24" d="M443.7,469.6v-12h4.7c3.8,0,6.4,2.4,6.4,6s-2.6,6-6.4,6H443.7z M452.2,463.6c0-2.1-1.3-3.8-3.8-3.8h-2.2v7.5
		h2.2C450.8,467.3,452.2,465.6,452.2,463.6z"/>
	<path class="st24" d="M463.6,469.6l-2.4-4.3h-1.9v4.3h-2.6v-12h5.6c2.5,0,4,1.6,4,3.9c0,2.1-1.3,3.3-2.6,3.6l2.7,4.6H463.6z
		 M463.8,461.4c0-1-0.8-1.6-1.8-1.6h-2.7v3.2h2.7C463,463,463.8,462.4,463.8,461.4z"/>
	<path class="st24" d="M467.8,463.6c0-3.6,2.6-6.2,6.3-6.2c3.6,0,6.3,2.6,6.3,6.2s-2.6,6.2-6.3,6.2
		C470.4,469.8,467.8,467.2,467.8,463.6z M477.7,463.6c0-2.3-1.4-3.9-3.7-3.9s-3.6,1.7-3.6,3.9c0,2.2,1.4,3.9,3.6,3.9
		S477.7,465.8,477.7,463.6z"/>
	<path class="st24" d="M482.3,469.6v-12h5.6c2.6,0,4,1.8,4,3.9c0,2.1-1.4,3.9-4,3.9h-3.1v4.3H482.3z M489.4,461.4
		c0-1-0.8-1.6-1.8-1.6h-2.7v3.2h2.7C488.6,463,489.4,462.4,489.4,461.4z"/>
	<path class="st24" d="M497.7,467.9l1.4-1.9c0.8,0.9,2.2,1.6,3.8,1.6c1.4,0,2.1-0.6,2.1-1.3c0-2.1-6.9-0.7-6.9-5.2
		c0-2,1.7-3.7,4.6-3.7c1.9,0,3.5,0.6,4.7,1.7l-1.4,1.9c-1-0.9-2.3-1.3-3.5-1.3c-1.1,0-1.7,0.5-1.7,1.2c0,1.9,6.9,0.6,6.9,5.1
		c0,2.2-1.6,3.9-4.8,3.9C500.5,469.8,498.8,469,497.7,467.9z"/>
	<path class="st24" d="M517.8,469.6v-5h-5.7v5h-2.6v-12h2.6v4.7h5.7v-4.7h2.6v12H517.8z"/>
	<path class="st24" d="M531.2,469.6l-0.7-2h-5.1l-0.8,2h-2.9l4.6-12h3.2l4.6,12H531.2z M527.9,460.1l-1.9,5.2h3.7L527.9,460.1z"/>
	<path class="st24" d="M535.5,469.6v-12h4.7c3.8,0,6.4,2.4,6.4,6s-2.6,6-6.4,6H535.5z M544,463.6c0-2.1-1.3-3.8-3.8-3.8H538v7.5h2.2
		C542.6,467.3,544,465.6,544,463.6z"/>
	<path class="st24" d="M547.9,463.6c0-3.6,2.6-6.2,6.3-6.2c3.6,0,6.3,2.6,6.3,6.2s-2.6,6.2-6.3,6.2
		C550.6,469.8,547.9,467.2,547.9,463.6z M557.9,463.6c0-2.3-1.4-3.9-3.7-3.9s-3.6,1.7-3.6,3.9c0,2.2,1.4,3.9,3.6,3.9
		S557.9,465.8,557.9,463.6z"/>
	<path class="st24" d="M571.4,469.6l-2.1-8.2l-2.1,8.2h-2.7l-3.4-12h2.9l2.1,8.7l2.3-8.7h2l2.3,8.7l2.1-8.7h2.9l-3.4,12H571.4z"/>
</g>
<g>
	<path class="st24" d="M412.9,338.8v-12h6.3c2.3,0,3.5,1.5,3.5,3.1c0,1.5-0.9,2.5-2.1,2.8c1.3,0.2,2.3,1.4,2.3,3
		c0,1.8-1.2,3.2-3.5,3.2H412.9z M420,330.3c0-0.8-0.5-1.3-1.4-1.3h-3.2v2.6h3.2C419.5,331.6,420,331.1,420,330.3z M420.3,335.2
		c0-0.8-0.5-1.4-1.5-1.4h-3.3v2.8h3.3C419.7,336.6,420.3,336.1,420.3,335.2z"/>
	<path class="st24" d="M425.1,338.8v-12h2.6v9.8h5.1v2.3H425.1z"/>
	<path class="st24" d="M434.1,334v-7.2h2.6v7.1c0,1.7,1,2.8,2.8,2.8c1.9,0,2.8-1.2,2.8-2.8v-7.1h2.6v7.2c0,3-1.8,5-5.4,5
		C435.9,339,434.1,337,434.1,334z"/>
	<path class="st24" d="M454.3,338.8l-2.4-4.3h-1.9v4.3h-2.6v-12h5.6c2.5,0,4,1.6,4,3.9c0,2.1-1.3,3.3-2.6,3.6l2.7,4.6H454.3z
		 M454.6,330.7c0-1-0.8-1.6-1.8-1.6h-2.7v3.2h2.7C453.8,332.3,454.6,331.7,454.6,330.7z"/>
</g>
<g>
	<path class="st24" d="M597.7,411.2v-8.7l-2,2l-1.5-1.5l3.8-3.8h2.2v12H597.7z"/>
	<path class="st24" d="M602.3,405.2c0-3.1,1.5-6.2,5-6.2c3.4,0,5,3.1,5,6.2c0,3.1-1.5,6.2-5,6.2
		C603.8,411.5,602.3,408.3,602.3,405.2z M609.6,405.2c0-2.2-0.6-3.9-2.4-3.9c-1.7,0-2.4,1.7-2.4,3.9c0,2.2,0.6,3.9,2.4,3.9
		C609,409.2,609.6,407.5,609.6,405.2z"/>
	<path class="st24" d="M613.7,405.2c0-3.1,1.5-6.2,5-6.2c3.4,0,5,3.1,5,6.2c0,3.1-1.5,6.2-5,6.2
		C615.3,411.5,613.7,408.3,613.7,405.2z M621.1,405.2c0-2.2-0.6-3.9-2.4-3.9c-1.7,0-2.4,1.7-2.4,3.9c0,2.2,0.6,3.9,2.4,3.9
		C620.4,409.2,621.1,407.5,621.1,405.2z"/>
</g>
<path class="st2" d="M428.1,474.1h-15.5c-1.1,0-2-0.9-2-2v-15.5c0-1.1,0.9-2,2-2h15.5c1.1,0,2,0.9,2,2v15.5
	C430.1,473.2,429.2,474.1,428.1,474.1z M412.7,456.6v15.5h15.5l0-15.5H412.7z"/>
<rect x="957.8" y="348.6" class="st46" width="155.1" height="46.5"/>
<g>
	<path d="M977.9,370.3h4.4v2.9h-4.4v5.9h5.5v2.9h-8.7v-20.2h8.7v2.9h-5.5V370.3z"/>
	<path d="M996.9,361.7l-3.3,9.8l3.5,10.4h-3.3l-2.6-8l-2.6,8h-3l3.5-10.4l-3.3-9.8h3.3l2.4,7.4l2.5-7.4H996.9z"/>
	<path d="M1009.1,366.7v2.6c0,3.2-1.6,5-4.7,5h-1.5v7.6h-3.2v-20.2h4.7C1007.6,361.7,1009.1,363.5,1009.1,366.7z M1002.9,364.6v6.8
		h1.5c1,0,1.6-0.5,1.6-1.9v-3c0-1.4-0.5-1.9-1.6-1.9H1002.9z"/>
	<path d="M1011.7,361.7h3.2v17.3h5.2v2.9h-8.4V361.7z"/>
	<path d="M1022.3,366.6c0-3.2,1.7-5.1,4.8-5.1c3.1,0,4.8,1.8,4.8,5.1v10.5c0,3.2-1.7,5.1-4.8,5.1c-3.1,0-4.8-1.8-4.8-5.1V366.6z
		 M1025.4,377.3c0,1.4,0.6,2,1.6,2c1,0,1.6-0.5,1.6-2v-10.9c0-1.4-0.6-2-1.6-2c-1,0-1.6,0.5-1.6,2V377.3z"/>
	<path d="M1041.6,381.9c-0.2-0.5-0.3-0.8-0.3-2.5v-3.2c0-1.9-0.6-2.6-2.1-2.6h-1.1v8.2h-3.2v-20.2h4.8c3.3,0,4.7,1.5,4.7,4.6v1.6
		c0,2.1-0.7,3.4-2.1,4.1c1.6,0.7,2.1,2.2,2.1,4.3v3.1c0,1,0,1.7,0.3,2.5H1041.6z M1038.1,364.6v6.2h1.2c1.2,0,1.9-0.5,1.9-2.1v-2
		c0-1.4-0.5-2.1-1.6-2.1H1038.1z"/>
	<path d="M1050.7,370.3h4.4v2.9h-4.4v5.9h5.5v2.9h-8.7v-20.2h8.7v2.9h-5.5V370.3z"/>
</g>
<rect x="1067.8" y="348.6" class="st47" width="45.1" height="46.5"/>
<polygon points="1091.9,363.4 1089.7,365.6 1094.4,370.3 1079.5,370.3 1079.5,373.4 1094.3,373.4 1089.6,378.1 1091.8,380.3 
	1100.3,371.8 "/>
</svg>
