<svg id="Layer_3" data-name="Layer 3" xmlns="http://www.w3.org/2000/svg" viewBox="0 0 184 160"><title>svg_sign</title><path d="M1.23,132.75c14-4,24.6-10.6,31.3-19.86S43,91,44,74H1.23V0h76v64.1a149.81,149.81,0,0,1-4.32,35.23A71.75,71.75,0,0,1,56.37,131a85,85,0,0,1-30.81,21.64C13.77,157.56,5.23,160,1.23,160V132.75Z" style="fill:#f1f3f5"/><path d="M106.23,132.75c15-4,24.8-10.6,31.5-19.86S148.43,91,149.4,74H106.23V0h77v64.1a150.7,150.7,0,0,1-4.62,35.23A72,72,0,0,1,161.92,131a86,86,0,0,1-31.09,21.64c-11.79,4.88-19.6,7.33-24.6,7.33V132.75Z" style="fill:#f1f3f5"/></svg>
