<svg id="Layer_2" data-name="Layer 2" xmlns="http://www.w3.org/2000/svg" viewBox="0 0 488.26 80"><title>svg</title><path d="M247.61,53.55h4.08V33.95h-4.08V53.55ZM306,33.66a13.24,13.24,0,0,0-6.2,1.47c0.08,0.34.7,1.5,0.79,1.85a10.4,10.4,0,0,1,5.21-1.43c3.06,0,4.59,1.57,4.59,4.68V43L310,42.8a9.72,9.72,0,0,0-4.8-1.12c-3.43,0-7.23,1.62-7.23,6.15,0,5.55,4.18,6.14,6,6.14a7.54,7.54,0,0,0,5.91-2.77l0.5-.5v2.85h2.23V39.87C312.62,35.7,310.51,33.66,306,33.66ZM310.38,49l-0.08.1a7,7,0,0,1-5.83,3.11c-2.73,0-4.26-1.6-4.26-4.52v0c0-2.61,1.82-4.18,4.88-4.18a9.42,9.42,0,0,1,5.08,1.17l0.21,0.1V49Zm-39.64,4.6h4.09V33.95h-4.09V53.56ZM238.23,37.48a6.7,6.7,0,0,1,4.69,2.22l0.1,0.1L245.37,37l-0.1-.1a8.76,8.76,0,0,0-6.93-3.32,10.55,10.55,0,0,0-7.24,2.64A9.74,9.74,0,0,0,228,43.77a9.75,9.75,0,0,0,3.06,7.51,10.5,10.5,0,0,0,7.24,2.64,8.76,8.76,0,0,0,6.93-3.32l0.1-.1L243,47.79l-0.1.1a6.68,6.68,0,0,1-4.69,2.22A6.08,6.08,0,0,1,232,43.79,6.08,6.08,0,0,1,238.23,37.48Zm26.18,12.79c-1.2,0-1.82-.68-1.82-2.22V37.67h4.09V34H262.6v-6.1l-4,2.11v4h-3.36v3.7h3.36V48.73c0,3,1.83,5.07,4.47,5.13a6.86,6.86,0,0,0,3.6-.89l1-3.78-0.21.11A6,6,0,0,1,264.41,50.27Zm24.14-16.62a7.63,7.63,0,0,0-5.71,2.77l-0.41.49V26.49c-0.58.31-2.11,1.2-2.31,1.31V53.56h2.31V50.88l0.41,0.52A6.82,6.82,0,0,0,288.27,54c4.3,0,7.15-4.11,7.15-10.48S292.94,33.66,288.56,33.66ZM288,52.08A6.83,6.83,0,0,1,282.44,49V38.68c1.65-2,3.47-3,5.42-3,3.39,0,5.29,2.88,5.29,7.9C293.15,49.23,291.41,52.08,288,52.08Zm37.41-18.43a6.13,6.13,0,0,0-5.21,2.74l-0.5.7v-3h-2.27V53.55h2.27V42.12c0-4.07,1.9-6.5,5.17-6.5s4.92,2.07,4.92,6.5V53.56H332V41.63C332,36.42,329.77,33.66,325.39,33.66Zm18.85,7.22s4.38-6.08,5-6.8h-2.56c-0.7,1-6.33,9.16-6.33,9.16l-1.32,2V26.49c-0.5.31-2,1.2-2.23,1.31V53.55H339V48l3.76-5.18s4.92,10.46,5.13,10.75h2.44ZM261.15,22.16a19.81,19.81,0,0,0-16,8.31l-0.2.27h4.69a15.82,15.82,0,0,1,23,0h4.67l-0.08-.27A20.18,20.18,0,0,0,261.15,22.16Z" style="fill:#aab0b5"/><path d="M25.84,36.05l8.76-8.8a7.59,7.59,0,0,1,4.66-1.87,5.86,5.86,0,0,1,2.43.54l0.47,0.25,0.07-.53a4.58,4.58,0,1,1,5.11,5.2l-0.48.06L47,31.35c1,2.46.35,5-1.92,7.6l-3.13-3a4.1,4.1,0,0,0,.93-2.61A3.23,3.23,0,0,0,41.68,31a2.73,2.73,0,0,0-2.06-.89,5.55,5.55,0,0,0-3.73,2l-7,6.89Z" style="fill:#aab0b5"/><path d="M46.74,58.59a4.59,4.59,0,0,1-4.55-4l-0.06-.49-0.45.18a6,6,0,0,1-2.27.46,8.2,8.2,0,0,1-5.33-2.38l3-3.13a4.18,4.18,0,0,0,2.46.93A3.19,3.19,0,0,0,42,48.92a2.72,2.72,0,0,0,.89-1.9c0.07-1.22-.59-2.53-2-3.89l-6.89-7,2.92-3,8.8,8.76c0.12,0.13,3,3.31,1.32,7.09l-0.25.47,0.53,0.08A4.58,4.58,0,0,1,46.74,58.59Z" style="fill:#aab0b5"/><path d="M19.15,58.43a4.58,4.58,0,0,1-.57-9.13l0.48-.06-0.18-.45c-1-2.46-.35-5,1.92-7.6l3.13,3A4.09,4.09,0,0,0,23,46.8a3.23,3.23,0,0,0,1.25,2.33,2.73,2.73,0,0,0,2.06.89,5.55,5.55,0,0,0,3.73-2l7-6.89,3,2.92-8.76,8.8a7.59,7.59,0,0,1-4.66,1.87,5.79,5.79,0,0,1-2.44-.54L23.76,54l-0.07.53A4.6,4.6,0,0,1,19.15,58.43Z" style="fill:#aab0b5"/><path d="M20.14,38.3s-3-3.27-1.32-7.09l0.24-.47-0.53-.07a4.58,4.58,0,1,1,5.2-5.11L23.79,26l0.45-.18a6,6,0,0,1,2.27-.46,8.2,8.2,0,0,1,5.33,2.38l-3,3.13A4.18,4.18,0,0,0,26.38,30a3.19,3.19,0,0,0-2.48,1.25,2.72,2.72,0,0,0-.89,1.9c-0.07,1.22.59,2.53,2,3.89l6.89,7-2.92,3Z" style="fill:#aab0b5"/><path id="path314" d="M69.5,30.9v14a4.55,4.55,0,0,1-1.12,3.13,5.15,5.15,0,0,1-4,1.53l-1.58-.12L58,48.71,57.21,50.5l4.84,0.75a16.65,16.65,0,0,0,2.5.21c2.62,0,4.6-.74,5.88-2.19A6.78,6.78,0,0,0,72,44.67V30.9H69.5" style="fill:#aab0b5"/><path id="path316" d="M89,48.51a10.57,10.57,0,0,1-5.29,1.26,10.76,10.76,0,0,1-5.33-1.23h0a4.58,4.58,0,0,1-2.62-4.24,4.64,4.64,0,0,1,2.62-4.24,12.13,12.13,0,0,1,10.64,0A4.73,4.73,0,0,1,89,48.51Zm1.47-9.85a15.37,15.37,0,0,0-13.5,0h0a6.18,6.18,0,0,0,0,11.28,15.42,15.42,0,0,0,13.49,0,6.22,6.22,0,0,0,0-11.29" style="fill:#aab0b5"/><path id="path318" d="M111,48.51a10.57,10.57,0,0,1-5.29,1.26,10.76,10.76,0,0,1-5.33-1.23,4.59,4.59,0,0,1-2.62-4.24,4.64,4.64,0,0,1,2.62-4.24,12.13,12.13,0,0,1,10.64,0A4.73,4.73,0,0,1,111,48.51Zm1.47-9.85a15.38,15.38,0,0,0-13.5,0h0a6.18,6.18,0,0,0,0,11.28,15.41,15.41,0,0,0,13.49,0,6.22,6.22,0,0,0,0-11.29" style="fill:#aab0b5"/><path id="path320" d="M142.9,38.31a10,10,0,0,0-5.16-1.21,8.59,8.59,0,0,0-6.35,2.43,8.4,8.4,0,0,0-6.34-2.43,9.64,9.64,0,0,0-5.26,1.32V37.3h-2.37v14h2.37V41.7a3.2,3.2,0,0,1,1.35-1.84,6.53,6.53,0,0,1,3.83-1,7,7,0,0,1,3.53.84,3,3,0,0,1,1.71,2.81v8.77h2.33V42.48a3.08,3.08,0,0,1,1.7-2.83,7.18,7.18,0,0,1,3.57-.83,7,7,0,0,1,3.56.85,3.05,3.05,0,0,1,1.7,2.81v8.77h2.37V42.81a4.92,4.92,0,0,0-2.55-4.5" style="fill:#aab0b5"/><path id="path322" d="M147.37,30.9V51.25h2.37V30.9h-2.37" style="fill:#aab0b5"/><path id="path324" d="M154.11,44.29A4.66,4.66,0,0,1,156.71,40a11,11,0,0,1,5.36-1.21,8.86,8.86,0,0,1,6,1.89A5.49,5.49,0,0,1,170,45v1.65a9.78,9.78,0,0,1-4.33,2.58,11.5,11.5,0,0,1-3.6.54,11,11,0,0,1-5.37-1.19A4.6,4.6,0,0,1,154.11,44.29Zm15.89-7v2.39a12.07,12.07,0,0,0-8-2.59,14.21,14.21,0,0,0-6.8,1.51A6.29,6.29,0,0,0,155.28,50a14.22,14.22,0,0,0,6.79,1.53,15.16,15.16,0,0,0,3.78-.46A11.21,11.21,0,0,0,170,49.1v2.15h2.37v-14H170" style="fill:#aab0b5"/><path id="path326" d="M177.4,48.64c-1.65,0-1.9.86-1.9,1.37s0.25,1.41,1.9,1.41,1.88-.88,1.88-1.41S179,48.64,177.4,48.64Zm1.16-18.06h-2.37V46.66h2.37V30.58" style="fill:#aab0b5"/><path id="path328" d="M182.38,30.91h-1v1.93h-0.47V30.91h-1V30.58h2.44v0.33Zm0.84,0.21v1.72h-0.45V30.58h0.62l0.82,1.8,0.82-1.8h0.61v2.26h-0.44V31.12l-0.77,1.72H184l-0.78-1.72" style="fill:#aab0b5"/><path d="M445.3,32.13a5.72,5.72,0,0,1-1,3.33h2.17V18.73H439.5v6.84C443.25,26.72,445.3,29.13,445.3,32.13Z" style="fill:#aab0b5;fill-rule:evenodd"/><path d="M433.32,25a16.12,16.12,0,0,1,4.13.66c-2.36-.41-6,0.19-7.9,1.67v8.16h6.93V26.18a8.77,8.77,0,0,1,3.32,1.35v7.94h1.51A7.47,7.47,0,0,1,435,37.68V38h0c6.59,0.52,9.38-2.6,9.38-6.12,0-4.14-3.88-6.56-7.85-7.05V18.73h-6.93v6.18c-4.48.9-8.88,3.57-8.88,8,0,6.8,9.5,11,17.77,11,12.56,0,22.23-6.07,22.23-14.59,0-10.32-14-17.68-24.92-17.68-12.56,0-21.81,8-21.81,16.51h0c0,4.41,2.48,8.11,5.6,10.69l0.23-.16A12.4,12.4,0,0,1,415.08,29c0.65-9.33,12.15-14.58,22.38-14.58,7.24,0,20.24,1.67,20.24,13.77,0,6.31-6.74,14.52-20.91,14.52-7.25,0-12.89-3.88-12.89-9.47C423.9,28.4,427.68,25,433.32,25Z" style="fill:#aab0b5"/><path d="M406.49,68.17v-1h2.43V59h-6.49v8.24h2.49v1H396v-1h2.27V50.44H396v-1h8.95v1h-2.49v7.44h6.49V50.44h-2.43v-1h8.85v1h-2.27V67.22h2.27v1h-8.85Z" style="fill:#aab0b5"/><path d="M418.77,51.7V49.48h4.06V51.7h-4.06Zm-2,16.48v-1H419V55.72h-2.18v-1H423V67.22h2v1h-8.24Z" style="fill:#aab0b5"/><path d="M425.89,68.17v-1h2.24V48h-2.24V47h6.3v20.2h2.12v1h-8.42Z" style="fill:#aab0b5"/><path d="M440.63,68.17c-2.21,0-3.41-1.14-3.41-2.89V55.72H435v-1h2.18V49.45c1.23,0,2.52,0,3.78,0v5.32h3.14v1H441v11.5h3.2v1h-3.57Z" style="fill:#aab0b5"/><path d="M459.41,64.15a7.15,7.15,0,0,1-7,4.37c-5.17,0-7.81-3.54-7.81-7.13,0-5,4.43-7,7.72-7,2.92,0,7.16,1.75,7.5,6.82A7,7,0,0,1,459.41,64.15ZM455,56.92a2.75,2.75,0,0,0-2.74-1.69c-3.17,0-3.23,3.26-3.23,6.09,0,3.81.34,4.49,0.58,4.95a2.86,2.86,0,0,0,2.67,1.48c3.17,0,3.17-3.41,3.14-6.55C455.42,57.78,455.2,57.35,455,56.92Z" style="fill:#aab0b5"/><path d="M470.65,68.17v-1h1.78v-7.9c0-1.78,0-3.54-2-3.54a3.93,3.93,0,0,0-3.35,2.92,10.76,10.76,0,0,0-.12,2.61v5.9h2v1h-8.24v-1H463V55.72h-2.18v-1H467v2a5.38,5.38,0,0,1,2.55-2,6.28,6.28,0,0,1,2.43-.49,6.67,6.67,0,0,1,1.84.25c2.58,0.77,2.71,2.74,2.71,4.15v8.52h2.12v1h-8Z" style="fill:#aab0b5"/><path d="M456.59,41.51h-0.66V41.26h1.63v0.24H456.9v2.37h-0.31V41.51Zm2.82,1.9h0l0.81-2.14h0.41v2.62h-0.31v-2h0l-0.77,2h-0.29l-0.79-2h0v2h-0.31V41.26h0.44Z" style="fill:#aab0b5"/></svg>
