<svg id="Layer_2" data-name="Layer 2" xmlns="http://www.w3.org/2000/svg" viewBox="0 0 488.26 80"><title>svg</title><path d="M457.11,47a0.68,0.68,0,0,0-.65-0.7,0.72,0.72,0,0,0-.7.7,0.68,0.68,0,0,0,.7.65,0.64,0.64,0,0,0,.65-0.65" style="fill:#aab0b5"/><path d="M432.78,47a0.72,0.72,0,0,0-.7-0.7,0.68,0.68,0,0,0-.65.7,0.64,0.64,0,0,0,.65.65,0.68,0.68,0,0,0,.7-0.65" style="fill:#aab0b5"/><path d="M469.64,51.7h-3a1.67,1.67,0,0,1,1.59-1.77,1.5,1.5,0,0,1,1.45,1.77m1.24,0.89a2.82,2.82,0,0,0,0-.34c0-1.88-.66-3.26-2.7-3.26-1.77,0-2.85,1.35-2.85,3.22,0,2.1.93,3.45,3.18,3.45a3.64,3.64,0,0,0,1.87-.42V54.08a3.16,3.16,0,0,1-1.82.65,2,2,0,0,1-2-2.15h4.27Z" style="fill:#aab0b5"/><path d="M464.22,55.53V51.75c0-1.73-.7-2.75-2.34-2.75a2.1,2.1,0,0,0-2,1.17h0v-1h-1.12v6.4h1.17V52.59c0-1.59.51-2.71,1.87-2.66,1,0,1.31.79,1.31,2.29v3.31h1.17" style="fill:#aab0b5"/><rect x="455.84" y="49.14" width="1.17" height="6.4" style="fill:#aab0b5"/><path d="M454.69,55.48a0.77,0.77,0,0,1-.56-0.89V46.66h-1.22v8.07a0.82,0.82,0,0,0,.93.93,1.72,1.72,0,0,0,.84-0.19" style="fill:#aab0b5"/><polyline points="452.17 55.53 448.5 50.95 451.86 46.8 450.42 46.8 447.34 50.68 447.34 46.8 446.11 46.8 446.11 55.53 447.34 55.53 447.34 51.28 450.56 55.53 452.17 55.53" style="fill:#aab0b5"/><path d="M444.36,55.53V51.75c0-1.73-.7-2.75-2.33-2.75a2.15,2.15,0,0,0-2,1.08h0V46.66h-1.16v8.87H440V52.59c0-1.59.52-2.71,1.87-2.66,1,0,1.31.79,1.31,2.29v3.31h1.17" style="fill:#aab0b5"/><path d="M437.75,55.48v-1a1.6,1.6,0,0,1-.79.23,1,1,0,0,1-1-1.17v-3.5h1.59V49.14H436V47.27l-1.17.37v1.5h-1.12v0.93h1.12V53.8a1.7,1.7,0,0,0,2,1.87,2.82,2.82,0,0,0,1-.19" style="fill:#aab0b5"/><rect x="431.47" y="49.14" width="1.17" height="6.4" style="fill:#aab0b5"/><path d="M429.89,55.53V51.42c0-1.4-.61-2.43-2.24-2.43a2.27,2.27,0,0,0-2,1.21A1.89,1.89,0,0,0,423.86,49a2.2,2.2,0,0,0-2.05,1.08V49.14h-1.12v6.4h1.17V52.31c0-1.21.51-2.38,1.68-2.38,1,0,1.17,1,1.17,1.77v3.83h1.17V52.31c0-1.21.47-2.38,1.68-2.38,0.93,0,1.12,1,1.12,1.77v3.83h1.21" style="fill:#aab0b5"/><path d="M419.68,53.1c0-1.77-1.5-2.29-2.8-2.89a2.72,2.72,0,0,1-.65-0.33,1.2,1.2,0,0,1-.65-1c0-.93.93-1.21,1.73-1.21a5.34,5.34,0,0,1,1.77.38l0.19-1a6.31,6.31,0,0,0-2-.38c-1.77,0-3.08.84-3.08,2.38s1.63,2.1,2.8,2.66a1.84,1.84,0,0,1,1.4,1.49,1.71,1.71,0,0,1-1.91,1.49,6.2,6.2,0,0,1-2.06-.42l-0.09,1.12a7.51,7.51,0,0,0,1.94.33c1.91,0,3.43-.75,3.43-2.57" style="fill:#aab0b5"/><polyline points="406.75 55.53 404.7 52.17 406.57 49.14 405.21 49.14 404 51.42 402.79 49.14 401.34 49.14 403.2 52.17 401.1 55.53 402.5 55.53 403.91 53.01 405.31 55.53 406.75 55.53" style="fill:#aab0b5"/><path d="M394.12,55.48a0.77,0.77,0,0,1-.56-0.89V46.66h-1.21v8.07a0.82,0.82,0,0,0,.93.93,1.58,1.58,0,0,0,.84-0.19" style="fill:#aab0b5"/><path d="M390.91,55.3V51.48h-1.26v2.92a4.26,4.26,0,0,1-1.4.14,3.41,3.41,0,0,1,0-6.81,4.6,4.6,0,0,1,2.43.61l0.1-1.26a6.16,6.16,0,0,0-2.57-.47,4.38,4.38,0,0,0-4.62,4.48,4.29,4.29,0,0,0,4.58,4.57,9.15,9.15,0,0,0,2.71-.37" style="fill:#aab0b5"/><path d="M413.26,52.31a3.07,3.07,0,1,0-6.11,0,3.07,3.07,0,1,0,6.11,0m-1.26,0c0,1.16-.42,2.43-1.77,2.43s-1.82-1.26-1.82-2.43,0.51-2.38,1.82-2.38S412,51.1,412,52.31Z" style="fill:#aab0b5"/><path d="M400.23,55.53a7,7,0,0,1,0-1.26V51.61c0-1.73-.65-2.62-2.47-2.62a3.65,3.65,0,0,0-2.05.61l0.09,1a2.84,2.84,0,0,1,1.77-.65c1.17,0,1.45.56,1.45,1.68a10.24,10.24,0,0,0-1.21,0c-1.21,0-2.8.51-2.8,2.1,0,1.4.89,2,2.24,2a2.12,2.12,0,0,0,1.87-1h0v0.84h1.12M399,53.05a1.54,1.54,0,0,1-1.68,1.68,1.05,1.05,0,0,1-1.07-1.07c0-1.12,1.45-1.21,2.05-1.21,0.28,0,.47,0,0.7,0v0.56Z" style="fill:#aab0b5"/><path d="M367.57,59.34a18.4,18.4,0,0,1-11.16,4c-8.64,0-16.11-6.21-20.32-13.4a10,10,0,0,0,3.13,1.63,16.76,16.76,0,0,0,4.58.7c5,0,7-1.87,7.1-4.44,0-2.24-1.63-3.5-4.76-3.69l-3.22-.19c-1.49-.09-1.82-0.56-1.82-1.17a1.44,1.44,0,0,1,.58-1.1,2.25,2.25,0,0,1,1-.46,9,9,0,0,0,1,.06c3.64,0,5.7-2.19,5.7-4.81a4.81,4.81,0,0,0-1.17-3.13,22,22,0,0,1,2.76.19V31.64a10.86,10.86,0,0,1-2.76.28,7.61,7.61,0,0,1-2.1-.33,9.43,9.43,0,0,0-2.52-.42c-3.66,0-5.92,2.25-5.92,5.15a4.82,4.82,0,0,0,3.16,4.47c-1.4.65-2.15,1.59-2.15,2.66a2.86,2.86,0,0,0,2.9,2.66c1.21,0.09,1.82.14,3.55,0.24a10,10,0,0,1,2.94.37,1.6,1.6,0,0,1,1,1.4,2.23,2.23,0,0,1-1.59,2.06,11.46,11.46,0,0,1-3.46.42c-5,0-8.73-2.61-10.79-7.19a19,19,0,0,1-1.64-8.13,13.77,13.77,0,0,1,1.26-5.7c5.33-11,21.91-12.89,32.65-12.89a44.73,44.73,0,0,1,7.47.47c7.1,1.12,12.75,4.58,12.75,12.38,0,10.41-10.18,23.82-18.21,29.8M343.78,39.76c-2.29,0-3.54-1.68-3.54-3.83a3,3,0,0,1,3.14-3.22c2.24,0,3.44,1.67,3.44,3.77C346.83,38.4,345.79,39.76,343.78,39.76Zm34.15,5.75c-0.79,0-2.1-.56-3.83-2.43-2.24-2.48-4.63-5.28-4.63-5.28l4-3.74c2.34-2.19,3-2.33,3.18-2.38h-3.69a13.68,13.68,0,0,1-1.59,1.73l-4.25,4V24.87l-3.22.84c0.42,0.56.56,1.5,0.56,3.6V42.24c0,2.61-.14,2.9-0.42,3.64h3.46c-0.23-.61-0.37-1-0.37-3.64V38.51l4.3,5.14c1.49,1.77,2.71,2.57,4.16,2.57a4.88,4.88,0,0,0,2.85-.79A1.61,1.61,0,0,1,377.94,45.51Zm-19.62-7.57c-1.87-.93-3.64-1.78-3.64-3.27,0-1.26,1.35-1.82,2.76-1.82a6.29,6.29,0,0,1,3.92,1.4v-2.1a8,8,0,0,0-3.88-1c-2.52,0-5.32,1.26-5.32,4.16,0,2.38,2.1,3.41,4.06,4.34,1.78,0.84,3.41,1.59,3.41,3.13s-1.63,1.87-2.94,1.87A11.09,11.09,0,0,1,352,43.32v2.15a11.78,11.78,0,0,0,4.58.93c2.62,0,5.74-1.08,5.74-4.21C362.34,40,360.28,38.93,358.32,37.94Z" style="fill:#aab0b5"/><path d="M232.15,29.45a2.77,2.77,0,1,1-2.77-2.76A2.79,2.79,0,0,1,232.15,29.45ZM220.73,35v0.68A5.33,5.33,0,0,0,216.6,34a8.14,8.14,0,0,0-8.26,8.4,8.14,8.14,0,0,0,8.26,8.4,5.18,5.18,0,0,0,4.13-1.74v0.72a0.58,0.58,0,0,0,.6.59h3.45v-16h-3.45A0.61,0.61,0,0,0,220.73,35Zm0,10.23A4.24,4.24,0,0,1,217.29,47c-2.73,0-4.81-1.7-4.81-4.58s2.09-4.58,4.81-4.58a4.35,4.35,0,0,1,3.45,1.74v5.69Zm6.6-10.82h4.09v16h-4.09v-16ZM288.4,34a5.33,5.33,0,0,0-4.13,1.7v-9h-4.09V50.38h3.45a0.61,0.61,0,0,0,.6-0.59V49.06a5.28,5.28,0,0,0,4.13,1.74,8.16,8.16,0,0,0,8.26-8.4A8.15,8.15,0,0,0,288.4,34h0Zm-0.68,12.94a4.17,4.17,0,0,1-3.45-1.74V39.51a4.62,4.62,0,0,1,3.45-1.74c2.73,0,4.81,1.7,4.81,4.58s-2.09,4.58-4.81,4.58h0Zm-9.67-6v9.51H274v-9c0-2.63-.85-3.69-3.15-3.69a4.58,4.58,0,0,0-3.32,1.57V50.38H263.4v-16h3.24a0.61,0.61,0,0,1,.6.59v0.68a5.87,5.87,0,0,1,4.34-1.7A6.64,6.64,0,0,1,276,35.52c1.45,1.19,2,2.72,2,5.39h0ZM253.48,34a5.33,5.33,0,0,0-4.13,1.7v-9h-4.09V50.38h3.45a0.61,0.61,0,0,0,.6-0.59V49.06a5.28,5.28,0,0,0,4.13,1.74,8.16,8.16,0,0,0,8.26-8.4A8.1,8.1,0,0,0,253.48,34ZM252.8,46.94a4.17,4.17,0,0,1-3.45-1.74V39.51a4.63,4.63,0,0,1,3.45-1.74c2.73,0,4.81,1.7,4.81,4.58S255.52,46.94,252.8,46.94ZM241.73,34a6.54,6.54,0,0,1,1.87.21V38s-3.41-1.15-5.54,1.27V50.42H234v-16h3.45a0.61,0.61,0,0,1,.6.59v0.68a5.6,5.6,0,0,1,3.7-1.7h0ZM199.27,48.93c-0.21-.51-0.43-1.06-0.64-1.53-0.34-.76-0.68-1.48-1-2.16l0,0c-2.94-6.37-6.08-12.82-9.41-19.18l-0.13-.25c-0.34-.64-0.68-1.32-1-2a12.2,12.2,0,0,0-1.53-2.33,6.89,6.89,0,0,0-5.41-2.63,7.16,7.16,0,0,0-5.45,2.55,14.67,14.67,0,0,0-1.53,2.33c-0.34.68-.68,1.36-1,2l-0.13.25c-3.28,6.37-6.47,12.82-9.41,19.18l0,0.08c-0.3.68-.64,1.4-1,2.16q-0.32.7-.64,1.53a9.5,9.5,0,0,0-.51,4.58,9,9,0,0,0,5.54,7,8.77,8.77,0,0,0,3.45.68,9.81,9.81,0,0,0,1.11-.09,11.28,11.28,0,0,0,4.26-1.44A21.56,21.56,0,0,0,180,55.26a22.37,22.37,0,0,0,5.28,4.41,11.28,11.28,0,0,0,4.26,1.44,9.8,9.8,0,0,0,1.11.09,8.59,8.59,0,0,0,3.44-.68,9,9,0,0,0,5.54-7A8,8,0,0,0,199.27,48.93Zm-19.2,2.21a20.91,20.91,0,0,1-4.3-7.89,6.83,6.83,0,0,1-.13-2.59,4.1,4.1,0,0,1,.68-1.78A4.53,4.53,0,0,1,180.07,37a4.36,4.36,0,0,1,3.75,1.87,4.1,4.1,0,0,1,.68,1.78,6.79,6.79,0,0,1-.13,2.59A21.54,21.54,0,0,1,180.07,51.14Zm17,2a6.31,6.31,0,0,1-3.87,5,6.47,6.47,0,0,1-3.24.42,8.39,8.39,0,0,1-3.24-1.1,19.89,19.89,0,0,1-4.85-4.12c2.81-3.44,4.51-6.58,5.15-9.38a10.6,10.6,0,0,0,.21-3.61,6.88,6.88,0,0,0-1.15-2.89,7.18,7.18,0,0,0-6-3,7.29,7.29,0,0,0-6,3,6.87,6.87,0,0,0-1.15,2.89,8.78,8.78,0,0,0,.21,3.61c0.64,2.8,2.38,6,5.15,9.42a19.13,19.13,0,0,1-4.85,4.12,8.4,8.4,0,0,1-3.24,1.1,6.83,6.83,0,0,1-3.24-.42,6.31,6.31,0,0,1-3.87-5,7,7,0,0,1,.38-3.31c0.13-.42.34-0.85,0.55-1.36,0.3-.68.64-1.4,1-2.12l0-.08c2.94-6.32,6.09-12.77,9.37-19.06l0.13-.25c0.34-.64.68-1.32,1-2a9.32,9.32,0,0,1,1.19-1.87,4.48,4.48,0,0,1,6.81,0A9.32,9.32,0,0,1,184.76,25c0.34,0.64.68,1.32,1,2l0.13,0.25c3.24,6.32,6.39,12.77,9.32,19.1v0c0.34,0.68.64,1.44,1,2.12,0.21,0.51.43,0.93,0.55,1.36a7.15,7.15,0,0,1,.3,3.27h0Z" style="fill:#aab0b5"/><path d="M28.34,53a12.93,12.93,0,0,0,9.86-3.95,12.69,12.69,0,0,0,3.35-9,12.54,12.54,0,0,0-.21-2.41h-13v3.85h9.24a8,8,0,0,1-2.1,4.84,9.49,9.49,0,0,1-7.14,2.82,10.24,10.24,0,0,1,0-20.48,9.86,9.86,0,0,1,7,2.75L38,28.73a13.5,13.5,0,0,0-9.69-3.88A14.31,14.31,0,0,0,14,38.93,14.31,14.31,0,0,0,28.34,53Zm23.72,0a9.07,9.07,0,1,0-9.14-9.07A9,9,0,0,0,52.06,53Zm0-3.57a5.26,5.26,0,0,1-5.14-5.5,5.15,5.15,0,1,1,10.28,0A5.26,5.26,0,0,1,52.06,49.44ZM72,53a9.07,9.07,0,1,0-9.14-9.07A9,9,0,0,0,72,53Zm0-3.57a5.26,5.26,0,0,1-5.14-5.5,5.15,5.15,0,1,1,10.28,0A5.26,5.26,0,0,1,72,49.44ZM91.56,61.16c4.69,0,8.66-2.75,8.66-9.45V35.42H96.42V36.9H96.28a6.32,6.32,0,0,0-4.79-2,9.08,9.08,0,0,0,0,18.14A6.22,6.22,0,0,0,96.28,51h0.14v1.31c0,3.47-1.86,5.32-4.86,5.32A5,5,0,0,1,87,54.35L83.49,55.8a8.67,8.67,0,0,0,8.07,5.36h0Zm0.27-11.72A5.21,5.21,0,0,1,86.77,44a5.25,5.25,0,0,1,5.07-5.53c2.73,0,4.86,2.33,4.86,5.53S94.56,49.44,91.83,49.44ZM107,25.81h-4V52.47h4V25.81Zm11,27.21a9.06,9.06,0,0,0,7.58-4l-3.11-2.06a5.2,5.2,0,0,1-4.48,2.51,4.63,4.63,0,0,1-4.41-2.75l12.17-5-0.41-1c-0.76-2-3.07-5.77-7.79-5.77s-8.58,3.68-8.58,9.07a8.89,8.89,0,0,0,9,9.07h0Zm-5.07-9.34a5,5,0,0,1,4.76-5.29A3.53,3.53,0,0,1,121,40.3Z" style="fill:#aab0b5"/></svg>
