<svg version="1.1" xmlns="http://www.w3.org/2000/svg" x="0px" y="0px"
	 viewBox="0 0 1236 840" style="enable-background:new 0 0 1236 840;" xml:space="preserve">
<style type="text/css">
	.st0{fill:#FFFFFF;}
	.st1{fill:#F1F3F5;}
	.st2{fill:#DEE2E6;}
	.st3{fill:#132A57;}
	.st4{fill:#FFF7F7;}
	.st5{fill:#BCC2C9;}
	.st6{fill:#D35050;}
	.st7{fill:#FB7171;}
	.st8{fill:#F88234;}
	.st9{fill:#FDCF42;}
	.st10{fill:#54AF66;}
	.st11{fill:#98D346;}
	.st12{fill:#35A683;}
	.st13{fill:#3BABBC;}
	.st14{fill:#4A9FEA;}
	.st15{fill:#7994FB;}
	.st16{fill:#8A69EC;}
	.st17{fill:#EAABF8;}
	.st18{fill:#BD61D3;}
	.st19{fill:#B6466D;}
	.st20{fill:#F8F9FA;}
	.st21{fill:#17336B;}
	.st22{fill:#ADD0F0;}
	.st23{fill:#5558DD;}
	.st24{fill:#586979;}
	.st25{fill:#6D7379;}
	.st26{fill:#272525;}
	.st27{fill:url(#SVGID_1_);}
	.st28{opacity:0.6;fill:#F8F9FA;enable-background:new    ;}
	.st29{opacity:0.9;fill:#6E5C4E;enable-background:new    ;}
	.st30{opacity:0.8;}
	.st31{fill:#F5E9DD;}
	.st32{fill:#212529;}
	.st33{opacity:0.7;}
	.st34{opacity:0.7;fill:#212529;enable-background:new    ;}
	.st35{fill:#E9ECEF;}
	.st36{fill:url(#SVGID_2_);}
	.st37{fill:#E6EE9C;}
	.st38{fill:#FFCCBC;}
	.st39{fill:#FF5746;}
	.st40{opacity:0.8;fill:url(#SVGID_3_);}
	.st41{opacity:0.6;fill:url(#SVGID_4_);}
	.st42{fill:url(#SVGID_5_);}
	.st43{fill:#99E9F2;}
	.st44{fill-rule:evenodd;clip-rule:evenodd;fill:#132A57;}
	.st45{opacity:0.4;fill-rule:evenodd;clip-rule:evenodd;fill:#99E9F2;}
	.st46{opacity:0.5;}
	.st47{fill:#D8F5A2;}
</style>
<rect x="292" y="48" class="st0" width="894.6" height="792"/>
<path class="st1" d="M1232,0H4C1.8,0,0,1.8,0,4v44h1236V4C1236,1.8,1234.2,0,1232,0z"/>
<circle class="st2" cx="30.8" cy="24.5" r="8.1"/>
<circle class="st2" cx="60.5" cy="24.5" r="8.1"/>
<circle class="st2" cx="90.2" cy="24.5" r="8.1"/>
<path class="st3" d="M0,836c0,2.2,1.8,4,4,4h288V48H0V836z"/>
<path class="st4" d="M106,125h64c0.6,0,1,0.4,1,1v64c0,0.6-0.4,1-1,1h-64c-0.6,0-1-0.4-1-1v-64C105,125.4,105.4,125,106,125z"/>
<path class="st5" d="M199,125h64c0.6,0,1,0.4,1,1v64c0,0.6-0.4,1-1,1h-64c-0.6,0-1-0.4-1-1v-64C198,125.4,198.4,125,199,125z"/>
<path class="st6" d="M106,215h64c0.6,0,1,0.4,1,1v64c0,0.6-0.4,1-1,1h-64c-0.6,0-1-0.4-1-1v-64C105,215.4,105.4,215,106,215z"/>
<path class="st7" d="M199,215h64c0.6,0,1,0.4,1,1v64c0,0.6-0.4,1-1,1h-64c-0.6,0-1-0.4-1-1v-64C198,215.4,198.4,215,199,215z"/>
<path class="st8" d="M106,305h64c0.6,0,1,0.4,1,1v64c0,0.6-0.4,1-1,1h-64c-0.6,0-1-0.4-1-1v-64C105,305.4,105.4,305,106,305z"/>
<path class="st9" d="M199,305h64c0.6,0,1,0.4,1,1v64c0,0.6-0.4,1-1,1h-64c-0.6,0-1-0.4-1-1v-64C198,305.4,198.4,305,199,305z"/>
<path class="st10" d="M199,395h64c0.6,0,1,0.4,1,1v64c0,0.6-0.4,1-1,1h-64c-0.6,0-1-0.4-1-1v-64C198,395.4,198.4,395,199,395z"/>
<path class="st11" d="M106,395h64c0.6,0,1,0.4,1,1v64c0,0.6-0.4,1-1,1h-64c-0.6,0-1-0.4-1-1v-64C105,395.4,105.4,395,106,395z"/>
<path class="st12" d="M106,484h64c0.6,0,1,0.4,1,1v64c0,0.6-0.4,1-1,1h-64c-0.6,0-1-0.4-1-1v-64C105,484.4,105.4,484,106,484z"/>
<path class="st13" d="M199,484h64c0.6,0,1,0.4,1,1v64c0,0.6-0.4,1-1,1h-64c-0.6,0-1-0.4-1-1v-64C198,484.4,198.4,484,199,484z"/>
<path class="st14" d="M106,574h64c0.6,0,1,0.4,1,1v64c0,0.6-0.4,1-1,1h-64c-0.6,0-1-0.4-1-1v-64C105,574.4,105.4,574,106,574z"/>
<path class="st15" d="M199,574h64c0.6,0,1,0.4,1,1v64c0,0.6-0.4,1-1,1h-64c-0.6,0-1-0.4-1-1v-64C198,574.4,198.4,574,199,574z"/>
<path class="st16" d="M106,663h64c0.6,0,1,0.4,1,1v64c0,0.6-0.4,1-1,1h-64c-0.6,0-1-0.4-1-1v-64C105,663.4,105.4,663,106,663z"/>
<path class="st17" d="M199,663h64c0.6,0,1,0.4,1,1v64c0,0.6-0.4,1-1,1h-64c-0.6,0-1-0.4-1-1v-64C198,663.4,198.4,663,199,663z"/>
<path class="st18" d="M106,752h64c0.6,0,1,0.4,1,1v64c0,0.6-0.4,1-1,1h-64c-0.6,0-1-0.4-1-1v-64C105,752.4,105.4,752,106,752z"/>
<path class="st19" d="M199,752h64c0.6,0,1,0.4,1,1v64c0,0.6-0.4,1-1,1h-64c-0.6,0-1-0.4-1-1v-64C198,752.4,198.4,752,199,752z"/>
<rect x="105" y="103" class="st20" width="78" height="1"/>
<rect x="183" y="103" class="st21" width="81" height="1"/>
<path class="st21" d="M0,48v77.7h76V48H0z M0,836c0,2.2,1.8,4,4,4h72V202.6H0V836z"/>
<path class="st22" d="M22,70v36h36V70H22z M55,86H41V73h14V86z M25,73h13v30H25V73z M41,103V89h14v14H41z"/>
<path class="st0" d="M51,163.4V156h6v-9h-9v6H30v-6h-9v9h6v18h-6v9h9v-6h18v6h9v-9h-6V163.4z M51,150h3v3h-3V150z M27,180h-3v-3h3
	V180z M27,153h-3v-3h3V153z M30,174v-6.2l5.3,6.2H30z M39.5,174L30,163.6v-6.4L45.9,174H39.5z M48,171l-15.9-15h6.4l9.5,8.6V171z
	 M48,160.4l-5.2-4.4H48V160.4L48,160.4z M54,177v3h-3v-3H54z"/>
<polygon class="st22" points="44,233 20,233 20,236 31,236 31,266 34,266 34,236 44,236 "/>
<path class="st22" d="M56,248v-3h-4v-5h-3v5h-5v3h5v11.1c0,2,0.4,3.7,1.4,4.8c1.7,1.7,5.6,1.2,5.6,1.2V263h-1c-2.5,0-3-2.9-3-3.8
	V248H56z"/>
<path class="st22" d="M58,310H31v9h-9v27h27v-9h9V310z M46,343H25v-21h6v15h15V343z M55,334H34v-21h21V334z"/>
<path class="st22" d="M49.9,326c-1.3,0.7-2.3,2.9-3.5,1.4c-1-1.3-1.8-2.7-2.6-4.1c-1.1-1.8-2.5-3.4-4.1-1.6c-1.8,2-3.1,7.5-3.4,10
	h17.3C53.3,330.3,51.7,324.9,49.9,326z"/>
<circle class="st22" cx="49.5" cy="318.2" r="3"/>
<path class="st22" d="M59.3,397.8c0-7.2-5.8-13.1-13-13.2c-0.1,0-0.2,0-0.3,0c-5.9,0-10.7,4.4-12.6,9.4H23v27h27v-10.5
	C55.6,408.9,59.5,403.6,59.3,397.8z M47,418H26v-21h6.6c0,1-0.1,0.6-0.1,1.1c-0.1,7.3,5.7,13.2,12.9,13.3c0.1,0,0.2,0,0.3,0
	c0.4,0,0.8-0.1,1.2-0.3V418z M46,408.3c-5.8,0-10.5-4.7-10.5-10.5c0-5.8,4.7-10.5,10.5-10.5s10.5,4.7,10.5,10.5
	C56.5,403.6,51.8,408.3,46,408.3z"/>
<polygon class="st22" points="39,473.7 42.1,477 32,477 32,480 42.1,480 39,483.1 41.1,485.2 47.9,478.4 41.1,471.6 "/>
<path class="st22" d="M59,466.7c-0.1-1.6-1.5-2.8-3.1-2.7c0,0,0,0-0.1,0h-33c-1.4-0.1-2.7,0.9-2.8,2.3c0,0.1,0,0.2,0,0.3v24.1
	c-0.1,1.7,1.2,3.1,2.8,3.2h33c1.7-0.1,3.1-1.5,3.2-3.2V466.7z M23,491v-24h33.5v24H23z"/>
<rect x="21" y="543" class="st22" width="6" height="6"/>
<rect x="36" y="543" class="st22" width="6" height="6"/>
<rect x="51" y="543" class="st22" width="6" height="6"/>
<path class="st20" d="M1141.9,48H292v50.9h894.6V840h43.4c4.4,0,6-1.4,6-5.5V48H1141.9z"/>
<rect x="1186.9" y="148.9" class="st1" width="49.3" height="49.3"/>
<rect x="1201.7" y="116.8" class="st2" width="20" height="2"/>
<rect x="1201.7" y="122.8" class="st2" width="20" height="2"/>
<rect x="1201.7" y="128.9" class="st2" width="20" height="2"/>
<rect x="1201.7" y="166.6" class="st2" width="20" height="2"/>
<rect x="1201.7" y="172.6" class="st2" width="20" height="2"/>
<rect x="1201.7" y="178.6" class="st2" width="20" height="2"/>
<rect x="1201.7" y="213.3" class="st2" width="20" height="2"/>
<rect x="1201.7" y="219.3" class="st2" width="20" height="2"/>
<rect x="1201.7" y="225.3" class="st2" width="20" height="2"/>
<rect x="1201.7" y="260" class="st2" width="20" height="2"/>
<rect x="1201.7" y="266" class="st2" width="20" height="2"/>
<rect x="1201.7" y="272" class="st2" width="20" height="2"/>
<rect x="1201.7" y="306.7" class="st2" width="20" height="2"/>
<rect x="1201.7" y="312.7" class="st2" width="20" height="2"/>
<rect x="1201.7" y="318.7" class="st2" width="20" height="2"/>
<rect x="1201.7" y="353.4" class="st2" width="20" height="2"/>
<rect x="1201.7" y="359.4" class="st2" width="20" height="2"/>
<rect x="1201.7" y="365.4" class="st2" width="20" height="2"/>
<rect x="1201.7" y="400.1" class="st2" width="20" height="2"/>
<rect x="1201.7" y="406.1" class="st2" width="20" height="2"/>
<rect x="1201.7" y="412.1" class="st2" width="20" height="2"/>
<rect x="1201.7" y="446.8" class="st2" width="20" height="2"/>
<rect x="1201.7" y="452.8" class="st2" width="20" height="2"/>
<rect x="1201.7" y="458.8" class="st2" width="20" height="2"/>
<rect x="1185.7" y="47.6" class="st1" width="2.4" height="790.9"/>
<rect x="1185.7" y="148.9" class="st2" width="2.4" height="49.3"/>
<rect x="1188.1" y="47.6" class="st1" width="48.2" height="51.2"/>
<path class="st2" d="M1198.2,72.9l2.7-1.3l10.7,5.3l10.7-5.3l2.7,1.3l-13.4,6.7L1198.2,72.9z M1198.2,67.6l13.4-6.7l13.4,6.7
	l-13.4,6.7L1198.2,67.6z M1211.5,63.6l-8,4l8,4l8-4L1211.5,63.6z M1211.5,82.2l10.7-5.3l2.7,1.3l-13.4,6.7l-13.4-6.7l2.7-1.3
	L1211.5,82.2z"/>
<path class="st2" d="M653.3,81.5c0-7.8-7.3-11.7-11.3-12.4v-3.9l-10,7.5l10,7.5v-5C647,75.5,650,76.9,653.3,81.5z"/>
<path class="st2" d="M691.7,81.5c0-7.8,7.3-11.7,11.3-12.4v-3.9l10,7.5l-10,7.5v-5C698,75.5,695,76.9,691.7,81.5z"/>
<path class="st2" d="M788.4,65.5c-4.4,0-8.5,2.6-11.4,7.2l0,0c3,4.7,7,7.2,11.4,7.2s8.5-2.6,11.4-7.2
	C796.8,68.1,792.8,65.5,788.4,65.5z M788.4,77.8c-2.8,0-5-2.2-5-5s2.2-5,5-5s5,2.2,5,5S791.1,77.8,788.4,77.8z M788.4,70.3
	c-1.4,0-2.5,1.1-2.5,2.5s1.1,2.5,2.5,2.5s2.5-1.1,2.5-2.5S789.8,70.3,788.4,70.3z"/>
<polygon class="st2" points="843,65.8 853,72.8 843,79.8 "/>
<rect x="745.5" y="59" class="st2" width="1.4" height="28.3"/>
<path class="st20" d="M324,135h45.1c1.1,0,2,0.9,2,2v336.9c0,1.1-0.9,2-2,2H324c-1.1,0-2-0.9-2-2V137C322,135.9,322.9,135,324,135z"
	/>
<polygon class="st23" points="357,199 347.3,199 344.8,199 336,199 336,202 345,202 345,222 348,222 348,202 357,202 "/>
<path class="st20" d="M640,135H394.2c-1.1,0-2,0.9-2,2v63.9l-9.7,9.7l9.7,9.7V531c0,1.1,0.9,2,2,2H640c1.1,0,2-0.9,2-2V137
	C642,135.9,641.1,135,640,135z"/>
<rect x="412.1" y="441" class="st2" width="209.9" height="1"/>
<rect x="412.1" y="505.3" class="st2" width="209.9" height="1"/>
<ellipse class="st0" cx="535.8" cy="441.5" rx="7" ry="7"/>
<path class="st2" d="M535.8,434.5c3.9,0,7,3.1,7,7s-3.1,7-7,7s-7-3.1-7-7l0,0C528.8,437.7,531.9,434.5,535.8,434.5 M535.8,433.5
	c-4.4,0-8,3.6-8,8s3.6,8,8,8s8-3.6,8-8S540.2,433.5,535.8,433.5L535.8,433.5z"/>
<path class="st24" d="M603.4,420.5v-8.7l-2,2l-1.5-1.5l3.8-3.8h2.2v12L603.4,420.5L603.4,420.5z"/>
<path class="st24" d="M608,419.2c0-0.8,0.7-1.5,1.5-1.5c0.8,0,1.5,0.7,1.5,1.5s-0.7,1.5-1.5,1.5C608.7,420.7,608,420,608,419.2z"/>
<path class="st24" d="M617.9,420.5V418h-5.7v-2l4.8-7.5h3.5v7.3h1.5v2.2h-1.5v2.5L617.9,420.5L617.9,420.5z M617.9,410.7l-3.2,5h3.2
	V410.7z"/>
<ellipse class="st0" cx="419.5" cy="506.1" rx="7" ry="7"/>
<path class="st2" d="M419.5,499.1c3.9,0,7,3.1,7,7s-3.1,7-7,7s-7-3.1-7-7S415.7,499.1,419.5,499.1 M419.5,498.1c-4.4,0-8,3.6-8,8
	s3.6,8,8,8s8-3.6,8-8S423.9,498.1,419.5,498.1L419.5,498.1z"/>
<path class="st24" d="M610.9,479.1c0-3.1,1.5-6.2,5-6.2s5,3.1,5,6.2s-1.5,6.2-5,6.2S610.9,482.2,610.9,479.1z M618.2,479.1
	c0-2.2-0.7-3.9-2.4-3.9s-2.4,1.7-2.4,3.9s0.7,4,2.4,4S618.2,481.3,618.2,479.1L618.2,479.1z"/>
<rect x="412.6" y="375.1" class="st2" width="209.9" height="1"/>
<rect x="412.6" y="375.1" class="st23" width="83.3" height="1"/>
<path class="st24" d="M412.1,485.1v-12h2.1v10.2h5.3v1.9L412.1,485.1L412.1,485.1z"/>
<path class="st24" d="M421.8,485.1v-12h8.2v1.9h-6.1v3.1h6v1.9h-6v3.3h6.1v1.9L421.8,485.1L421.8,485.1z"/>
<path class="st24" d="M435.4,485.1V475h-3.6v-1.9h9.4v1.9h-3.6v10.2L435.4,485.1L435.4,485.1z"/>
<path class="st24" d="M446.1,485.1V475h-3.6v-1.9h9.4v1.9h-3.6v10.2L446.1,485.1L446.1,485.1z"/>
<path class="st24" d="M454,485.1v-12h8.2v1.9h-6.1v3.1h6v1.9h-6v3.3h6.1v1.9L454,485.1L454,485.1z"/>
<path class="st24" d="M471.6,485.1l-2.7-4.5h-2.1v4.5h-2.1v-12h5.2c2-0.2,3.8,1.4,3.9,3.4c0,0.1,0,0.3,0,0.4
	c0.1,1.7-1.1,3.3-2.8,3.5l2.9,4.7L471.6,485.1L471.6,485.1z M471.8,476.9c0-1-0.8-1.9-1.9-1.9c-0.1,0-0.1,0-0.2,0h-2.9v3.8h2.9
	c1,0.1,2-0.7,2-1.7C471.8,477,471.8,476.9,471.8,476.9z"/>
<path class="st24" d="M480.6,483.5l1.2-1.6c1,1.1,2.4,1.7,3.8,1.7c1.7,0,2.4-0.9,2.4-1.6c0-2.5-7-1-7-5.4c0-2,1.8-3.5,4.4-3.5
	c1.7-0.1,3.3,0.5,4.5,1.7l-1.2,1.6c-0.9-0.9-2.2-1.4-3.5-1.4c-1.2,0-2,0.6-2,1.5c0,2.2,7,0.9,7,5.3c0,2-1.4,3.7-4.6,3.7
	C483.7,485.5,481.9,484.8,480.6,483.5z"/>
<path class="st24" d="M492.4,485.1v-12h5.3c2.1-0.1,3.9,1.5,4,3.6c0.1,2.1-1.5,3.9-3.6,4c-0.1,0-0.3,0-0.4,0h-3.2v4.5L492.4,485.1
	L492.4,485.1z M499.4,476.9c0-1-0.8-1.9-1.9-1.9c-0.1,0-0.1,0-0.2,0h-2.9v3.8h2.9c1,0.1,2-0.7,2.1-1.7
	C499.5,477,499.5,477,499.4,476.9L499.4,476.9z"/>
<path class="st24" d="M510.8,485.1l-0.9-2.3h-5.5l-0.9,2.3h-2.4l4.7-12h2.6l4.7,12H510.8L510.8,485.1z M507.1,475.2L505,481h4.3
	L507.1,475.2z"/>
<path class="st24" d="M513.7,479.1c-0.1-3.3,2.5-6.1,5.9-6.2c0.1,0,0.3,0,0.4,0c2,0,3.8,1,4.8,2.7l-1.8,0.9c-0.6-1.1-1.8-1.7-3-1.8
	c-2.4,0.2-4.2,2.2-4.1,4.6c0.1,2.2,1.9,3.9,4.1,4.1c1.2,0,2.4-0.7,3-1.8l1.8,0.9c-1,1.7-2.8,2.8-4.8,2.7c-3.3,0.1-6.2-2.5-6.3-5.8
	C513.7,479.4,513.7,479.3,513.7,479.1z"/>
<path class="st24" d="M526.8,485.1v-12h2.1v12H526.8z"/>
<path class="st24" d="M540.2,485.1l-6.2-8.6v8.6h-2.1v-12h2.1l6.1,8.4v-8.4h2.1v12L540.2,485.1L540.2,485.1z"/>
<path class="st24" d="M544.6,479.1c-0.1-3.3,2.5-6.1,5.9-6.2c0.1,0,0.3,0,0.4,0c1.9-0.1,3.8,0.9,4.8,2.5l-1.7,1
	c-0.7-1-1.9-1.6-3.1-1.6c-2.4,0.2-4.2,2.2-4.1,4.7c0.1,2.2,1.9,3.9,4.1,4.1c1,0,2.1-0.4,2.8-1.1v-1.9h-3.6v-1.9h5.7v4.5
	c-1.3,1.4-3.1,2.2-5,2.2c-3.4,0.1-6.2-2.5-6.3-5.9C544.6,479.4,544.6,479.3,544.6,479.1z"/>
<path class="st24" d="M412.1,422.5v-12h2.1v10.2h5.3v1.9L412.1,422.5L412.1,422.5z"/>
<path class="st24" d="M421.8,422.5v-12h2.1v12H421.8z"/>
<path class="st24" d="M435.2,422.5l-6.3-8.6v8.6h-2.1v-12h2.2l6.1,8.4v-8.4h2.1v12H435.2L435.2,422.5z"/>
<path class="st24" d="M440.1,422.5v-12h8.2v1.9h-6.1v3.1h6v1.9h-6v3.3h6.1v1.9L440.1,422.5L440.1,422.5z"/>
<path class="st24" d="M464.2,422.5v-5.2H458v5.2h-2.1v-12h2.1v4.9h6.2v-4.9h2.1v12H464.2z"/>
<path class="st24" d="M469.2,422.5v-12h8.2v1.9h-6.1v3.1h6v1.9h-6v3.3h6.1v1.9L469.2,422.5L469.2,422.5z"/>
<path class="st24" d="M479.9,422.5v-12h2.1v12H479.9L479.9,422.5z"/>
<path class="st24" d="M484.4,416.5c-0.1-3.3,2.5-6.1,5.9-6.2c0.1,0,0.3,0,0.4,0c1.9-0.1,3.8,0.9,4.8,2.5l-1.7,1
	c-0.7-1-1.9-1.6-3.1-1.6c-2.4,0.2-4.2,2.2-4.1,4.7c0.1,2.2,1.9,3.9,4.1,4.1c1,0,2.1-0.4,2.8-1.1v-1.9H490V416h5.7v4.5
	c-1.3,1.4-3.1,2.2-5,2.2c-3.4,0.1-6.2-2.5-6.3-5.8C484.4,416.7,484.4,416.6,484.4,416.5z"/>
<path class="st24" d="M506.6,422.5v-5.2h-6.2v5.2h-2.1v-12h2.1v4.9h6.2v-4.9h2.1v12H506.6z"/>
<path class="st24" d="M514.4,422.5v-10.2h-3.6v-1.9h9.4v1.9h-3.6v10.2H514.4L514.4,422.5z"/>
<ellipse class="st23" cx="495.8" cy="375.6" rx="7" ry="7"/>
<path class="st24" d="M411.4,354.9l1.2-1.6c1,1.1,2.4,1.7,3.8,1.7c1.7,0,2.4-0.9,2.4-1.6c0-2.5-7-1-7-5.4c0-2,1.8-3.5,4.4-3.5
	c1.7-0.1,3.3,0.5,4.5,1.7l-1.2,1.6c-0.9-0.9-2.2-1.4-3.5-1.4c-1.2,0-2,0.6-2,1.5c0,2.2,7,0.9,7,5.3c0,2-1.4,3.7-4.6,3.7
	C414.4,356.9,412.6,356.2,411.4,354.9z"/>
<path class="st24" d="M423.2,356.6v-12h2.1v12H423.2z"/>
<path class="st24" d="M427.7,356.6v-1.7l6.1-8.5h-6.1v-1.9h8.9v1.7l-6.1,8.5h6.3v1.9H427.7z"/>
<path class="st24" d="M439.1,356.6v-12h8.2v1.9h-6.1v3.1h6v1.9h-6v3.3h6.1v1.9L439.1,356.6L439.1,356.6z"/>
<path class="st24" d="M415,167.3v-10.2h-3.6v-1.9h9.4v1.9h-3.6v10.2H415z"/>
<path class="st24" d="M426.3,167.3v-5l-4.7-7h2.4l3.3,5.2l3.3-5.2h2.4l-4.6,7v5H426.3L426.3,167.3z"/>
<path class="st24" d="M434.7,167.3v-12h5.3c2.1-0.1,3.9,1.5,4,3.6s-1.5,3.9-3.6,4c-0.1,0-0.3,0-0.4,0h-3.2v4.5L434.7,167.3
	L434.7,167.3z M441.7,159c0-1-0.8-1.9-1.9-1.9c-0.1,0-0.1,0-0.2,0h-2.9v3.8h2.9c1,0.1,2-0.6,2.1-1.7
	C441.7,159.2,441.7,159.1,441.7,159L441.7,159z"/>
<path class="st24" d="M446,167.3v-12h8.2v1.9h-6.1v3.1h6v1.9h-6v3.3h6.1v1.9L446,167.3L446,167.3z"/>
<path class="st24" d="M456.7,167.3v-12h8.2v1.9h-6.1v3.1h6v1.9h-6v5.2L456.7,167.3L456.7,167.3z"/>
<path class="st24" d="M474.9,167.3L474,165h-5.5l-0.9,2.3h-2.4l4.7-12h2.6l4.7,12L474.9,167.3L474.9,167.3z M471.2,157.4l-2.2,5.7
	h4.3L471.2,157.4z"/>
<path class="st24" d="M477.8,161.3c-0.1-3.3,2.5-6.1,5.9-6.2c0.1,0,0.3,0,0.4,0c2,0,3.8,1,4.8,2.7l-1.8,0.9c-0.6-1.1-1.8-1.7-3-1.8
	c-2.4,0.2-4.2,2.2-4.1,4.6c0.1,2.2,1.9,3.9,4.1,4.1c1.2,0,2.4-0.7,3-1.8l1.8,0.9c-1,1.7-2.8,2.8-4.8,2.7c-3.3,0.1-6.2-2.5-6.3-5.8
	C477.8,161.6,477.8,161.4,477.8,161.3z"/>
<path class="st24" d="M490.9,167.3v-12h8.2v1.9H493v3.1h6v1.9h-6v3.3h6.1v1.9L490.9,167.3L490.9,167.3z"/>
<path class="st0" d="M412.7,185.1h209.1c0.6,0,1,0.4,1,1v31.1c0,0.6-0.4,1-1,1H412.7c-0.6,0-1-0.4-1-1v-31.1
	C411.7,185.5,412.1,185.1,412.7,185.1z"/>
<path class="st1" d="M621.8,185.1c0.6,0,1,0.4,1,1v31.1c0,0.6-0.4,1-1,1H412.7c-0.6,0-1-0.4-1-1v-31.1c0-0.6,0.4-1,1-1H621.8
	 M621.8,184.1H412.7c-1.1,0-2,0.9-2,2v31.1c0,1.1,0.9,2,2,2h209.1c1.1,0,2-0.9,2-2v-31.1C623.8,185,622.9,184.1,621.8,184.1
	L621.8,184.1z"/>
<path class="st24" d="M433.5,207.4V199l-3.4,8.4H429l-3.4-8.4v8.4H423v-12h3.6l2.9,7.3l2.9-7.3h3.6v12L433.5,207.4L433.5,207.4z"/>
<path class="st24" d="M437.8,203.1c0-2.5,2-4.6,4.6-4.6c2.5,0,4.6,2,4.6,4.6c0,2.5-2,4.6-4.6,4.6c0,0,0,0,0,0
	c-2.4,0.1-4.5-1.8-4.6-4.2C437.8,203.3,437.8,203.2,437.8,203.1z M444.6,203.1c-0.2-1.2-1.3-2.1-2.5-1.9s-2.1,1.3-1.9,2.5
	c0.1,1.1,1.1,1.9,2.2,1.9c1.3,0,2.3-1.1,2.2-2.4C444.6,203.2,444.6,203.1,444.6,203.1L444.6,203.1z"/>
<path class="st24" d="M454.5,207.4v-5.3c0.1-0.8-0.4-1.5-1.2-1.6c-0.1,0-0.3,0-0.4,0c-0.8,0-1.5,0.4-2,1v5.9h-2.3v-8.7h2.3v1.1
	c0.8-0.9,1.9-1.4,3-1.4c1.4-0.2,2.7,0.8,2.8,2.2c0,0.2,0,0.4,0,0.6v6.2L454.5,207.4L454.5,207.4z"/>
<path class="st24" d="M459.5,205.3v-4.6h-1.4v-2h1.4v-2.4h2.3v2.4h1.8v2h-1.8v3.9c-0.1,0.5,0.2,0.9,0.7,1c0,0,0.1,0,0.1,0
	c0.3,0,0.6-0.1,0.8-0.2l0.5,1.7c-0.5,0.4-1.2,0.6-1.9,0.6c-1.2,0.2-2.3-0.7-2.5-1.9C459.5,205.7,459.5,205.5,459.5,205.3z"/>
<path class="st24" d="M464.4,206.3l1-1.6c0.8,0.7,1.9,1.1,3,1.2c1,0,1.5-0.4,1.5-0.9c0-1.4-5.2-0.3-5.2-3.7c0-1.5,1.3-2.7,3.6-2.7
	c1.3,0,2.5,0.4,3.5,1.2l-0.9,1.6c-0.7-0.7-1.6-1-2.6-1c-0.6-0.1-1.2,0.3-1.4,0.9c0,1.3,5.1,0.2,5.1,3.7c0,1.6-1.4,2.8-3.8,2.8
	C466.9,207.7,465.5,207.2,464.4,206.3z"/>
<path class="st24" d="M473.2,203.1c-0.1-2.4,1.8-4.5,4.3-4.6c0.1,0,0.1,0,0.2,0c2.6,0,4.4,1.9,4.4,4.8v0.5h-6.5
	c0.2,1.2,1.3,2.1,2.5,2c0.9,0,1.7-0.3,2.3-0.9l1,1.5c-1,0.8-2.3,1.3-3.6,1.2c-2.4,0.1-4.5-1.7-4.6-4.2
	C473.2,203.3,473.2,203.2,473.2,203.1z M477.7,200.3c-1.1,0-2.1,0.8-2.1,1.9h4.3C479.8,201.2,478.9,200.3,477.7,200.3
	C477.8,200.3,477.7,200.3,477.7,200.3z"/>
<path class="st24" d="M483.7,207.4v-8.7h2.3v1.2c0.7-0.9,1.7-1.4,2.8-1.4v2.2c-0.2,0-0.4-0.1-0.6-0.1c-0.8,0-1.6,0.4-2.1,1v5.8
	L483.7,207.4L483.7,207.4z"/>
<path class="st24" d="M490.2,207.4v-8.7h2.3v1.2c0.7-0.9,1.7-1.4,2.8-1.4v2.2c-0.2,0-0.4-0.1-0.6-0.1c-0.8,0-1.6,0.4-2.1,1v5.8
	L490.2,207.4L490.2,207.4z"/>
<path class="st24" d="M501.9,207.4v-0.9c-0.7,0.8-1.7,1.2-2.8,1.1c-1.6,0.1-2.9-1.2-3-2.8c0,0,0-0.1,0-0.1c0-1.5,1.2-2.8,2.7-2.8
	c0.1,0,0.2,0,0.3,0c1-0.1,2,0.3,2.8,1.1v-1.2c0-0.9-0.8-1.5-1.9-1.5c-0.9,0-1.9,0.4-2.5,1l-0.9-1.5c1.1-0.9,2.4-1.4,3.8-1.4
	c2,0,3.8,0.8,3.8,3.3v5.6L501.9,207.4L501.9,207.4z M501.9,205.4v-1.1c-0.5-0.5-1.1-0.8-1.8-0.8c-0.7-0.2-1.4,0.3-1.6,1
	s0.3,1.4,1,1.6c0.2,0,0.4,0,0.6,0C500.7,206.2,501.4,205.9,501.9,205.4z"/>
<path class="st24" d="M506.9,205.3v-4.6h-1.4v-2h1.4v-2.4h2.3v2.4h1.8v2h-1.8v3.9c-0.1,0.5,0.2,0.9,0.7,1c0,0,0.1,0,0.1,0
	c0.3,0,0.6-0.1,0.8-0.2l0.5,1.7c-0.5,0.4-1.2,0.6-1.9,0.6c-1.2,0.2-2.3-0.7-2.5-1.9C506.8,205.7,506.8,205.5,506.9,205.3z"/>
<path class="st0" d="M562.6,330.4h59c0.6,0,1,0.4,1,1v31.1c0,0.6-0.4,1-1,1h-59c-0.6,0-1-0.4-1-1v-31.1
	C561.6,330.9,562,330.4,562.6,330.4z"/>
<path class="st1" d="M621.5,364h-59c-0.8,0-1.5-0.7-1.5-1.5v-31.1c0-0.8,0.7-1.5,1.5-1.5h59c0.8,0,1.5,0.7,1.5,1.5v31.1
	C623,363.3,622.4,364,621.5,364z M562.5,330.9c-0.3,0-0.5,0.2-0.5,0.5v31.1c0,0.3,0.2,0.5,0.5,0.5h59c0.3,0,0.5-0.2,0.5-0.5v-31.1
	c0-0.3-0.2-0.5-0.5-0.5L562.5,330.9L562.5,330.9z"/>
<path class="st24" d="M569.3,351.5l1.3-1.7c0.9,0.9,2.1,1.4,3.3,1.4c1.5,0,2.3-0.6,2.3-1.5s-0.7-1.4-2.4-1.4c-0.5,0-1.3,0-1.5,0
	v-2.3c0.2,0,1,0,1.5,0c1.3,0,2.2-0.4,2.2-1.3s-1-1.4-2.2-1.4c-1.1,0-2.2,0.5-3,1.2l-1.3-1.6c1.2-1.3,2.9-2,4.6-1.9
	c2.8,0,4.5,1.3,4.5,3.3c-0.1,1.5-1.2,2.6-2.7,2.8c1.5,0.1,2.8,1.3,2.8,2.9c0,2.1-1.8,3.5-4.7,3.5
	C572.3,353.5,570.5,352.8,569.3,351.5z"/>
<path class="st24" d="M580.4,353.2v-2c4.9-3.6,6.3-4.9,6.3-6.4c-0.1-0.9-0.9-1.7-1.8-1.6c0,0-0.1,0-0.1,0c-1.2,0-2.4,0.5-3.2,1.4
	l-1.5-1.7c1.2-1.3,2.9-2,4.6-2c2.5,0,4.6,1.4,4.6,3.8c0,2.1-1.7,3.9-4.8,6.1h4.9v2.3L580.4,353.2L580.4,353.2z"/>
<path class="st0" d="M412.7,232.2h209.1c0.6,0,1,0.4,1,1v31.1c0,0.6-0.4,1-1,1H412.7c-0.6,0-1-0.4-1-1v-31.1
	C411.7,232.6,412.1,232.2,412.7,232.2z"/>
<path class="st1" d="M621.8,232.2c0.6,0,1,0.4,1,1v31.1c0,0.6-0.4,1-1,1H412.7c-0.6,0-1-0.4-1-1v-31.1c0-0.6,0.4-1,1-1H621.8
	 M621.8,231.2H412.7c-1.1,0-2,0.9-2,2v31.1c0,1.1,0.9,2,2,2h209.1c1.1,0,2-0.9,2-2v-31.1C623.8,232.1,622.9,231.2,621.8,231.2
	L621.8,231.2z"/>
<path class="st24" d="M422.2,252.9l1.4-1.9c1,1,2.4,1.6,3.8,1.6c1.4,0,2.1-0.6,2.1-1.3c0-2.1-6.9-0.7-6.9-5.2c0-2,1.7-3.7,4.5-3.7
	c1.7-0.1,3.4,0.5,4.7,1.7l-1.4,1.9c-1-0.9-2.2-1.3-3.5-1.3c-1.1,0-1.7,0.5-1.7,1.2c0,1.9,6.9,0.6,6.9,5.1c0,2.2-1.6,3.9-4.8,3.9
	C425.4,254.9,423.6,254.2,422.2,252.9z"/>
<path class="st24" d="M433.2,250.2c-0.1-2.4,1.8-4.5,4.3-4.6c0.1,0,0.1,0,0.2,0c2.6,0,4.4,1.9,4.4,4.8v0.5h-6.5
	c0.2,1.2,1.3,2.1,2.5,2c0.9,0,1.7-0.3,2.3-0.9l1,1.5c-1,0.8-2.3,1.3-3.6,1.2c-2.4,0.1-4.5-1.7-4.6-4.2
	C433.2,250.5,433.2,250.3,433.2,250.2z M437.7,247.5c-1.1,0-2.1,0.8-2.1,1.9h4.3C439.8,248.3,438.9,247.4,437.7,247.5
	C437.8,247.5,437.7,247.5,437.7,247.5L437.7,247.5z"/>
<path class="st24" d="M454.5,254.6v-5.5c0.1-0.7-0.3-1.3-1-1.4c-0.1,0-0.2,0-0.3,0c-0.7,0-1.4,0.4-1.8,1v5.9h-2.3V249
	c0.1-0.7-0.3-1.3-1-1.4c-0.1,0-0.2,0-0.3,0c-0.7,0-1.4,0.4-1.8,1v5.9h-2.3v-8.7h2.3v1.2c0.7-0.8,1.7-1.3,2.8-1.4
	c1.1-0.1,2.1,0.6,2.4,1.6c0.7-1,1.8-1.6,3-1.6c1.3-0.1,2.4,0.8,2.6,2.1c0,0.2,0,0.4,0,0.6v6.3L454.5,254.6L454.5,254.6z"/>
<path class="st24" d="M458.8,243.5c0-0.8,0.6-1.4,1.4-1.4c0.8,0,1.4,0.6,1.4,1.4c0,0.8-0.6,1.4-1.4,1.4l0,0
	C459.4,244.9,458.8,244.3,458.8,243.5z M459,254.5v-8.7h2.3v8.7H459L459,254.5z"/>
<path class="st24" d="M463,251.2v-1.9h4.3v1.9H463z"/>
<path class="st24" d="M469,254.6v-12h6.3c2.3,0,3.5,1.5,3.5,3.1c0.1,1.3-0.8,2.5-2.1,2.8c1.4,0.3,2.4,1.6,2.3,3
	c0.1,1.7-1.3,3.2-3.1,3.3c-0.1,0-0.3,0-0.4,0L469,254.6L469,254.6z M476.2,246c0-0.7-0.5-1.3-1.3-1.3c0,0-0.1,0-0.1,0h-3.2v2.6h3.2
	c0.7,0.1,1.3-0.5,1.4-1.2C476.2,246.1,476.2,246,476.2,246z M476.4,250.9c0-0.8-0.6-1.4-1.4-1.4c-0.1,0-0.1,0-0.2,0h-3.3v2.8h3.3
	c0.7,0.1,1.4-0.4,1.5-1.1C476.4,251.1,476.4,251.1,476.4,250.9L476.4,250.9z"/>
<path class="st24" d="M480.4,250.2c0-2.5,2-4.6,4.6-4.6c2.5,0,4.6,2,4.6,4.6c0,2.5-2,4.6-4.6,4.6c0,0,0,0,0,0
	c-2.4,0.1-4.5-1.8-4.6-4.2C480.4,250.4,480.4,250.3,480.4,250.2z M487.2,250.2c-0.2-1.2-1.3-2.1-2.5-1.9s-2.1,1.3-1.9,2.5
	c0.1,1.1,1.1,1.9,2.2,1.9c1.3,0,2.3-1.1,2.2-2.4C487.2,250.3,487.2,250.3,487.2,250.2L487.2,250.2z"/>
<path class="st24" d="M491.2,254.6v-12h2.3v12H491.2z"/>
<path class="st24" d="M501.8,254.6v-1.1c-0.6,0.8-1.6,1.3-2.7,1.3c-2.2,0-3.9-1.7-3.9-4.6s1.6-4.6,3.9-4.6c1.1,0,2,0.5,2.7,1.3v-4.4
	h2.3v12L501.8,254.6L501.8,254.6z M501.8,251.8v-3.1c-0.5-0.6-1.2-1-2-1c-1.4,0.2-2.4,1.5-2.2,2.9c0.2,1.1,1,2,2.2,2.2
	C500.5,252.7,501.3,252.4,501.8,251.8z"/>
<rect x="415" y="305" class="st23" width="21" height="3"/>
<rect x="415" y="299" class="st23" width="9" height="3"/>
<rect x="415" y="293" class="st23" width="15" height="3"/>
<rect x="415" y="287" class="st23" width="21" height="3"/>
<path class="st24" d="M346.2,151.4c-6.1,0-11.1,5-11.1,11.1c0,6.1,5,11.1,11.1,11.1c1,0,1.8-0.8,1.9-1.9c0-0.5-0.2-0.9-0.5-1.2
	c-0.2-0.4-0.5-0.1-0.5-0.6c0-1,0.9-1.2,1.9-1.2h2.2c3.5,0,6.2-3.3,6.2-6.8C357.3,156.4,352.4,151.4,346.2,151.4z M339.5,162.5
	c-1,0-1.9-0.8-1.9-1.9c0-1,0.8-1.8,1.9-1.8s1.9,0.8,1.9,1.8C341.3,161.7,340.5,162.5,339.5,162.5
	C339.5,162.5,339.5,162.5,339.5,162.5L339.5,162.5z M343.2,157.6c-1,0-1.9-0.8-1.9-1.8s0.8-1.9,1.8-1.9c1,0,1.9,0.8,1.9,1.8
	c0,0,0,0,0,0C345,156.7,344.2,157.5,343.2,157.6L343.2,157.6z M349.3,157.6c-1,0-1.8-0.8-1.9-1.9c0-1,0.8-1.9,1.9-1.9
	s1.9,0.8,1.9,1.9C351.2,156.7,350.3,157.5,349.3,157.6L349.3,157.6z M353,162.5c-1,0-1.8-0.8-1.9-1.9c0-1,0.8-1.9,1.9-1.9
	s1.9,0.8,1.9,1.9C354.9,161.7,354,162.5,353,162.5L353,162.5z"/>
<path class="st24" d="M356.9,386.8h-18.5v4.9h-3.7v17.3H352v-3.7h4.9L356.9,386.8L356.9,386.8z M349.5,406.6h-12.3v-12.4h12.3
	L349.5,406.6L349.5,406.6z M354.4,402.9H352v-11.1h-11.1v-2.5h13.5L354.4,402.9L354.4,402.9z"/>
<polygon class="st24" points="344.6,396.7 342.1,396.7 342.1,399.2 339.7,399.2 339.7,401.6 342.1,401.6 342.1,404.1 344.6,404.1 
	344.6,401.6 347,401.6 347,399.2 344.6,399.2 "/>
<path class="st24" d="M333.5,301.4l2.5-1.2l9.9,4.9l9.9-4.9l2.5,1.2l-12.3,6.2L333.5,301.4z M333.5,296.5l12.3-6.2l12.3,6.2
	l-12.3,6.2L333.5,296.5z M345.8,292.8l-7.4,3.7l7.4,3.7l7.4-3.7L345.8,292.8z M345.8,310.1l9.9-4.9l2.5,1.2l-12.3,6.2l-12.3-6.2
	l2.5-1.2L345.8,310.1z"/>
<path class="st24" d="M358.1,338.9h-24.6v22.2h24.6L358.1,338.9L358.1,338.9z M350.7,341.4h4.9v2.5h-4.9V341.4z M343.3,341.4h4.9
	v2.5h-4.9V341.4z M340.9,358.6H336v-2.5h4.9L340.9,358.6L340.9,358.6z M340.9,343.8H336v-2.5h4.9L340.9,343.8L340.9,343.8z
	 M348.3,358.6h-4.9v-2.5h4.9V358.6z M343.4,353.8v-7.6l6.6,3.8L343.4,353.8z M350.7,358.6v-2.5h4.9v2.5H350.7z"/>
<path class="st24" d="M354.6,435.3h-5.3v-1.3h-6.7v1.3h-5.3v2.7h1.3V458h14.7v-20.1h1.3V435.3z M341.3,455.3v-12h1.3v12H341.3z
	 M345.3,455.3v-12h1.3v12H345.3z M350.6,455.3h-1.3v-12h1.3V455.3z M341.3,440.6v-1.3h9.3v1.3H341.3z"/>
<path class="st24" d="M344.8,259.5l-1.8-1.8l1.8-1.8l1.8,1.8c0.5,0.5,1.3,0.5,1.8,0c0,0,0,0,0,0l6.2-6.2c0.5-0.5,0.5-1.3,0-1.8
	l-2.7-2.7c-0.5-0.5-1.3-0.5-1.8,0c0,0,0,0,0,0l-2.6,2.7l-1.8-1.8l2.6-2.7c1.5-1.5,3.8-1.5,5.3,0c0,0,0,0,0,0l2.6,2.7
	c1.5,1.5,1.5,3.8,0,5.3l-6.2,6.2C348.6,260.9,346.2,260.9,344.8,259.5C344.8,259.5,344.8,259.5,344.8,259.5z"/>
<path class="st24" d="M338.6,265.6l-2.6-2.6c-1.5-1.5-1.5-3.8,0-5.3l6.2-6.2c1.5-1.5,3.8-1.5,5.3,0c0,0,0,0,0,0l1.8,1.8l-1.8,1.8
	l-1.8-1.8c-0.5-0.5-1.3-0.5-1.8,0c0,0,0,0,0,0l-6.2,6.2c-0.5,0.5-0.5,1.3,0,1.8l2.6,2.7c0.5,0.5,1.3,0.5,1.8,0c0,0,0,0,0,0l2.6-2.7
	l1.8,1.8l-2.6,2.7C342.4,267.1,340,267.1,338.6,265.6C338.6,265.7,338.6,265.7,338.6,265.6z"/>
<rect x="454" y="305" class="st25" width="20" height="3"/>
<rect x="459" y="299" class="st25" width="9" height="3"/>
<rect x="456" y="293" class="st25" width="15" height="3"/>
<rect x="454" y="287" class="st25" width="20" height="3"/>
<rect x="492" y="305" class="st25" width="21" height="3"/>
<rect x="504" y="299" class="st25" width="9" height="3"/>
<rect x="498" y="293" class="st25" width="15" height="3"/>
<rect x="492" y="287" class="st25" width="21" height="3"/>
<polygon class="st25" points="547.2,287 541.3,287 539.8,287 538.4,287 530,287 530,290 538,290 538,308 541,308 541,290 547.2,290 
	550,290 550,287 "/>
<path class="st25" d="M581,295v-3h-4v-5h-3v5h-3v3h3v7.3c0,3.1,2.5,5.7,5.6,5.7c0.1,0,0.1,0,0.2,0h1.2v-3h-1.2
	c-1.5,0.1-2.7-1-2.8-2.5c0-0.1,0-0.2,0-0.3V295H581z"/>
<rect x="606" y="305" class="st25" width="15" height="3"/>
<path class="st25" d="M618,287v9.3c0,2.5-2,4.5-4.5,4.5s-4.5-2-4.5-4.5V287h-3v9.3c0,4.1,3.4,7.5,7.5,7.5s7.5-3.4,7.5-7.5V287H618z"
	/>
<polygon class="st0" points="494,375.4 494.3,388.1 492.6,388.1 491.5,387.1 488.5,386.8 488.6,389.2 489.5,390.4 491.1,391.9 
	491.5,393.9 492.8,395.2 493,396.5 493.9,397.5 494.4,399.4 495.1,400.3 495.4,403.2 508.2,403.5 508.4,400.5 509.6,399.2 
	510.1,396.2 511.1,395 510.8,386.6 508.2,384.4 506.5,383.5 505.7,383 502.5,382.4 501.6,381.5 498.8,381.1 498.2,375.8 497,374.4 
	495.7,374.4 "/>
<rect x="487.9" y="386" class="st26" width="1.3" height="4.1"/>
<rect x="493.3" y="375" class="st26" width="1.6" height="18.3"/>
<rect x="502" y="381.8" class="st26" width="1.6" height="5.5"/>
<rect x="506.1" y="383.3" class="st26" width="1.6" height="5.4"/>
<rect x="510.2" y="386.2" class="st26" width="1.6" height="9.6"/>
<rect x="507.5" y="400" class="st26" width="1.6" height="3.8"/>
<rect x="508.9" y="395.8" class="st26" width="1.6" height="4.2"/>
<rect x="497.7" y="375" class="st26" width="1.6" height="12.5"/>
<rect x="488" y="386" class="st26" width="3.9" height="1.4"/>
<rect x="494.7" y="402.7" class="st26" width="14.4" height="1.4"/>
<rect x="489.1" y="390" class="st26" width="1.5" height="1.4"/>
<rect x="490.6" y="391.4" class="st26" width="1.4" height="3.1"/>
<rect x="491.9" y="394.5" class="st26" width="1.5" height="2.8"/>
<rect x="493.5" y="397.2" class="st26" width="1.4" height="2.7"/>
<rect x="494.7" y="400" class="st26" width="1.5" height="3"/>
<rect x="491.9" y="387.4" class="st26" width="2.2" height="1.4"/>
<rect x="506.7" y="383.3" class="st26" width="2.2" height="1.6"/>
<rect x="508.9" y="384.9" class="st26" width="1.4" height="1.4"/>
<rect x="494.9" y="373.6" class="st26" width="2.7" height="1.4"/>
<rect x="503.2" y="381.9" class="st26" width="3" height="1.5"/>
<rect x="499.2" y="380.5" class="st26" width="2.8" height="1.4"/>
<polygon class="st24" points="613.3,246.6 609.9,251.4 606.5,246.6 "/>
<polygon class="st24" points="613.3,199.4 609.9,204.3 606.5,199.4 "/>
<polygon class="st24" points="613.3,344.8 609.9,349.7 606.5,344.8 "/>
<linearGradient id="SVGID_1_" gradientUnits="userSpaceOnUse" x1="702.3808" y1="189.3608" x2="1089.6392" y2="576.6192" gradientTransform="matrix(1 0 0 -1 0 840)">
	<stop  offset="0" style="stop-color:#DBAD80"/>
	<stop  offset="1" style="stop-color:#E8CDB0"/>
</linearGradient>
<path class="st27" d="M680.6,286h430.9c1.1,0,2,0.9,2,2v338c0,1.1-0.9,2-2,2H680.6c-1.1,0-2-0.9-2-2V288
	C678.6,286.9,679.5,286,680.6,286z"/>
<rect x="700.7" y="425.1" class="st28" width="223.6" height="58"/>
<path class="st29" d="M913.4,553.5h171c1.1,0,2,0.9,2,2v46.4c0,1.1-0.9,2-2,2h-171c-1.1,0-2-0.9-2-2v-46.4
	C911.4,554.4,912.3,553.5,913.4,553.5z"/>
<path class="st20" d="M958.2,573.6l-1,2.1c-1.1-0.7-2.3-1-3.5-1.2c-0.8,0-1.4,0.3-1.4,0.9c0,2.1,6,0.9,6,5c0,2.2-1.9,3.4-4.4,3.4
	c-1.8,0-3.6-0.6-5-1.8l1-2.1c1.1,1,2.5,1.6,4,1.7c1,0,1.7-0.4,1.7-1.1c0-2.1-6-0.9-6-4.8c0-2,1.8-3.3,4.3-3.3
	C955.4,572.4,956.9,572.8,958.2,573.6z"/>
<path class="st20" d="M968.9,583.7v-4.4h-5.1v4.4h-2.5v-11.2h2.5v4.7h5.1v-4.7h2.5v11.2H968.9z"/>
<path class="st20" d="M986.4,578.1c0.2,3.3-2.4,6.1-5.7,6.3c-3.3,0.2-6.1-2.4-6.3-5.7c-0.2-3.3,2.4-6.1,5.7-6.3c0.1,0,0.2,0,0.3,0
	c3.2-0.1,5.9,2.3,6,5.5C986.4,578,986.4,578.1,986.4,578.1z M977,578.1c0,1.9,1.5,3.5,3.4,3.5c0,0,0,0,0,0c1.9,0,3.5-1.5,3.6-3.4
	c0-1.9-1.5-3.5-3.4-3.6C978.6,574.6,977,576.2,977,578.1C977,578.1,977,578.1,977,578.1L977,578.1z"/>
<path class="st20" d="M994.1,572.5c2.8,0,4.5,1.4,4.5,3.9s-1.6,4.1-4.5,4.1h-2.2v3.2h-2.5v-11.2H994.1z M991.9,578.4h2.1
	c1.4,0,2.2-0.6,2.2-1.9s-0.8-1.9-2.2-1.9h-2.1L991.9,578.4L991.9,578.4z"/>
<path class="st20" d="M1014.5,583.7l-5.4-7.2v7.2h-2.4v-11.2h2.3l5.4,7.2v-7.2h2.4v11.2H1014.5L1014.5,583.7z"/>
<path class="st20" d="M1031.8,578.1c0.2,3.3-2.4,6.1-5.7,6.3c-3.3,0.2-6.1-2.4-6.3-5.7c-0.2-3.3,2.4-6.1,5.7-6.3c0.1,0,0.2,0,0.3,0
	c3.2-0.1,5.9,2.3,6,5.5C1031.8,578,1031.8,578.1,1031.8,578.1z M1022.3,578.1c0,1.9,1.5,3.5,3.4,3.5c0,0,0,0,0,0
	c1.9,0,3.5-1.5,3.5-3.5c0-1.9-1.5-3.5-3.5-3.5S1022.3,576.2,1022.3,578.1C1022.3,578.1,1022.3,578.1,1022.3,578.1z"/>
<path class="st20" d="M1044.2,583.7l-2.3-8l-2.3,8h-2.6l-3.7-11.2h2.7l2.3,8.5l2.3-8.5h2.5l2.4,8.5l2.3-8.5h2.6l-3.7,11.2H1044.2
	L1044.2,583.7z"/>
<g class="st30">
	<path class="st31" d="M717,573.3l-6.9-9.3v9.3h-2.2v-13h2.2l7,9.3v-9.3h2.2v13H717z"/>
	<path class="st31" d="M732,568.4c0.1,2.8-2.2,5.2-5,5.3s-5.2-2.2-5.3-5c-0.1-2.8,2.2-5.2,5-5.3c0,0,0.1,0,0.1,0
		c2.7-0.2,5,1.9,5.1,4.5C732,568.1,732,568.2,732,568.4z M723.8,568.4c0.1,1.7,1.5,2.9,3.2,2.8c1.7-0.1,2.9-1.5,2.8-3.2
		c-0.1-1.6-1.4-2.8-3-2.8c-1.7,0-3,1.3-3,3C723.8,568.3,723.8,568.4,723.8,568.4L723.8,568.4z"/>
	<path class="st31" d="M743.3,573.3l-2.5-7.3l-2.5,7.3h-2.2l-3.6-9.8h2.2l2.6,7.7l2.5-7.7h2.2l2.5,7.7l2.5-7.7h2.2l-3.6,9.8H743.3
		L743.3,573.3z"/>
	<path class="st31" d="M758,560.7c0,0.7-0.6,1.2-1.3,1.2c-0.7,0-1.2-0.6-1.2-1.3c0-0.7,0.6-1.2,1.2-1.2
		C757.4,559.4,758,559.9,758,560.7C758,560.6,758,560.6,758,560.7z M755.7,573.3v-9.8h2.1v9.8H755.7z"/>
	<path class="st31" d="M770.6,567.2v6.1h-2.1v-5.5c0.1-1.2-0.8-2.3-2-2.4c-0.1,0-0.3,0-0.4,0c-1.5,0-2.8,1.2-2.8,2.7v5.2h-2.1v-9.8
		h2.1v1.9c0.7-1.3,2.1-2.1,3.6-2c1.9-0.1,3.5,1.3,3.7,3.2C770.6,566.8,770.6,567,770.6,567.2z"/>
	<path class="st31" d="M785,564.4l-0.8,1.6c-0.9-0.5-1.8-0.8-2.8-0.9c-0.8,0-1.5,0.3-1.5,1c0,1.8,5.2,0.8,5.2,4.4
		c0,2-1.8,2.9-3.8,2.9c-1.5,0-2.9-0.5-4-1.4l0.8-1.5c0.9,0.8,2.1,1.2,3.3,1.2c0.9,0,1.6-0.3,1.6-1.1c0-2-5.2-0.9-5.2-4.5
		c0-2,1.7-2.8,3.6-2.8C782.7,563.4,784,563.7,785,564.4z"/>
	<path class="st31" d="M793.1,572.7c-0.7,0.5-1.6,0.7-2.4,0.7c-1.4,0.1-2.7-1-2.8-2.4c0-0.2,0-0.3,0-0.5v-5.1h-1.4v-1.6h1.4v-2.7
		h2.1v2.7h2.9v1.6H790v4.7c0,1,0.4,1.3,1.1,1.3c0.5,0,1-0.2,1.5-0.4L793.1,572.7z"/>
	<path class="st31" d="M804.5,568.4c0.1,2.8-2.2,5.2-5,5.3s-5.2-2.2-5.3-5c-0.1-2.8,2.2-5.2,5-5.3c0,0,0.1,0,0.1,0
		c2.7-0.2,5,1.9,5.1,4.5C804.5,568.1,804.5,568.2,804.5,568.4z M796.3,568.4c0.1,1.7,1.5,2.9,3.2,2.8c1.7-0.1,2.9-1.5,2.8-3.2
		c-0.1-1.6-1.4-2.8-3-2.8c-1.7,0-3,1.3-3,3C796.3,568.3,796.3,568.4,796.3,568.4L796.3,568.4z"/>
	<path class="st31" d="M815,565l-1.2,1.4c-0.7-0.8-1.8-1.2-2.8-1.1c-1.7,0.1-3,1.7-2.9,3.4c0.1,1.5,1.4,2.8,2.9,2.9
		c1.1,0.1,2.2-0.4,2.9-1.2l1.2,1.2c-1,1.3-2.6,1.9-4.2,1.8c-2.8,0-5-2.2-5-5s2.2-5,5-5C812.5,563.3,813.9,563.9,815,565z"/>
	<path class="st31" d="M819.7,570.6v2.8h-2.1v-13.7h2.1v8.3l4.3-4.4h2.5l-3.7,3.8l3.9,6h-2.5l-2.9-4.5L819.7,570.6z"/>
	<path class="st31" d="M830.5,572.3c0.1,0.6-0.4,1.2-1.1,1.3c-0.6,0.1-1.2-0.4-1.3-1.1c0-0.1,0-0.1,0-0.2c-0.1-0.6,0.4-1.2,1.1-1.3
		c0.6-0.1,1.2,0.4,1.3,1.1C830.5,572.1,830.5,572.2,830.5,572.3z M830,569.2h-1.3l-0.3-5.5v-3.2h2v3.2L830,569.2z"/>
	<path class="st31" d="M715.7,589.5c0,1.3-1,2.8-2.4,4.3l-3.4,3.6h6.3v2H707v-1.6l4.8-5.1c0.8-0.7,1.4-1.7,1.6-2.8
		c0-1-0.8-1.7-2.2-1.7c-1.3,0.1-2.6,0.7-3.5,1.6l-0.9-1.7c1.3-1.1,3-1.8,4.7-1.8C714,586.2,715.7,587.5,715.7,589.5z"/>
	<path class="st31" d="M724,594.1v-3.1h2v3.1h1.9v2H726v3.2h-2v-3.2h-6.2v-1.6l4.4-8.2h2.1l-4.2,7.8L724,594.1L724,594.1z"/>
	<path class="st31" d="M744.3,599.3v-5.4h-6.9v5.4h-2.2v-13h2.2v5.6h6.9v-5.6h2.2v13L744.3,599.3L744.3,599.3z"/>
	<path class="st31" d="M762.7,592.8c0.2,3.8-2.7,7-6.5,7.2c-3.8,0.2-7-2.7-7.2-6.5c-0.2-3.8,2.7-7,6.5-7.2c0.1,0,0.2,0,0.3,0
		c3.7-0.1,6.7,2.7,6.9,6.4C762.7,592.7,762.7,592.7,762.7,592.8z M751.2,592.8c0,2.6,2.1,4.6,4.7,4.6c2.5,0,4.6-2.1,4.5-4.7
		s-2.1-4.6-4.7-4.5C753.2,588.3,751.2,590.3,751.2,592.8z"/>
	<path class="st31" d="M776.3,593.9c0,3.4-2.1,5.5-5.6,5.5s-5.7-2.1-5.7-5.5v-7.6h2.2v7.6c-0.1,1.8,1.2,3.3,3,3.5c0.2,0,0.3,0,0.5,0
		c1.8,0.1,3.3-1.2,3.4-2.9c0-0.2,0-0.4,0-0.6v-7.6h2.2L776.3,593.9L776.3,593.9z"/>
	<path class="st31" d="M785.5,595.3c-0.2,0-0.4,0-0.6,0h-3.1v3.9h-2.2v-13h5.3c3.3,0,5.2,1.6,5.2,4.4c0.1,1.8-1,3.6-2.7,4.2l2.9,4.3
		h-2.5L785.5,595.3z M784.9,593.4c2,0,3.2-0.8,3.2-2.6s-1.2-2.5-3.2-2.5h-3.1v5.1H784.9z"/>
	<path class="st31" d="M806.9,587.5l-0.9,1.9c-1.1-0.7-2.5-1.1-3.8-1.2c-1.3,0-2.1,0.5-2.1,1.3c0,2.8,7,1.3,7,6c0,2.3-2,3.7-4.9,3.7
		c-2,0-3.8-0.7-5.3-2.1l1-1.9c1.2,1.1,2.7,1.8,4.4,1.9c1.5,0,2.4-0.6,2.4-1.6c0-2.9-7-1.3-7-5.9c0-2.2,1.9-3.6,4.7-3.6
		C804,586.2,805.6,586.7,806.9,587.5z"/>
	<path class="st31" d="M818.9,599.3v-5.4H812v5.4h-2.2v-13h2.2v5.6h6.9v-5.6h2.2v13L818.9,599.3L818.9,599.3z"/>
	<path class="st31" d="M824.7,599.3v-13h2.2v13H824.7z"/>
	<path class="st31" d="M835.6,586.3c3.3,0,5.1,1.6,5.1,4.4s-1.9,4.6-5.1,4.6h-3v3.9h-2.2v-13L835.6,586.3L835.6,586.3z M832.6,593.4
		h2.9c2,0,3.1-0.8,3.1-2.6s-1.1-2.5-3.1-2.5h-2.9V593.4z"/>
	<path class="st31" d="M848.3,586.3c3.3,0,5.1,1.6,5.1,4.4s-1.9,4.6-5.1,4.6h-3v3.9h-2.2v-13L848.3,586.3L848.3,586.3z M845.3,593.4
		h2.9c2,0,3.1-0.8,3.1-2.6s-1.1-2.5-3.1-2.5h-2.9V593.4z"/>
	<path class="st31" d="M855.8,599.3v-13h2.2v13H855.8L855.8,599.3z"/>
	<path class="st31" d="M870.7,599.3l-6.9-9.3v9.3h-2.2v-13h2.2l7,9.3v-9.3h2.2v13H870.7L870.7,599.3z"/>
	<path class="st31" d="M887.2,592.9v4.8c-1.5,1.1-3.2,1.7-5,1.7c-3.6,0.2-6.7-2.6-6.9-6.3s2.6-6.7,6.3-6.9c0.2,0,0.5,0,0.7,0
		c1.8,0,3.6,0.6,5,1.8l-1.3,1.6c-1-0.9-2.4-1.5-3.7-1.5c-2.5-0.1-4.7,1.8-4.8,4.4c-0.1,2.5,1.8,4.7,4.4,4.8c0.1,0,0.3,0,0.4,0
		c1.1,0,2.1-0.3,3-0.9v-3.6H887.2L887.2,592.9z"/>
</g>
<rect x="922.6" y="431.2" class="st32" width="1.8" height="44.7"/>
<g class="st33">
	<polygon class="st32" points="934.1,484.9 930.6,484.9 930.6,483.9 933.1,483.9 933.1,481.4 934.1,481.4 	"/>
	<path class="st32" d="M924.6,484.9h-6v-1h6V484.9z M912.7,484.9h-6v-1h6V484.9z M900.7,484.9h-6v-1h6V484.9z M888.8,484.9h-6v-1h6
		V484.9z M876.9,484.9h-6v-1h6V484.9z M864.9,484.9h-6v-1h6V484.9z M853,484.9h-6v-1h6V484.9z M841.1,484.9h-6v-1h6V484.9z
		 M829.2,484.9h-6v-1h6V484.9z M817.2,484.9h-6v-1h6V484.9z M805.3,484.9h-6v-1h6V484.9z M793.4,484.9h-6v-1h6V484.9z M781.4,484.9
		h-6v-1h6V484.9z M769.5,484.9h-6v-1h6V484.9z M757.6,484.9h-6v-1h6V484.9z M745.6,484.9h-6v-1h6V484.9z M733.7,484.9h-6v-1h6V484.9
		z M721.8,484.9h-6v-1h6V484.9z M709.9,484.9h-6v-1h6V484.9z"/>
	<polygon class="st32" points="698,484.9 694.5,484.9 694.5,481.4 695.5,481.4 695.5,483.9 698,483.9 	"/>
	<path class="st32" d="M695.5,475.3h-1v-6.1h1V475.3z M695.5,463.1h-1v-6.1h1V463.1z M695.5,451h-1v-6.1h1V451L695.5,451z
		 M695.5,438.9h-1v-6.1h1V438.9z M695.5,426.7h-1v-6.1h1V426.7z M695.5,414.6h-1v-6.1h1V414.6z M695.5,402.4h-1v-6.1h1V402.4z
		 M695.5,390.3h-1v-6.1h1V390.3z M695.5,378.2h-1v-6.1h1V378.2z M695.5,366h-1v-6.1h1V366L695.5,366z M695.5,353.9h-1v-6.1h1V353.9z
		 M695.5,341.7h-1v-6.1h1V341.7z M695.5,329.6h-1v-6.1h1V329.6z M695.5,317.5h-1v-6.1h1V317.5z"/>
	<polygon class="st32" points="695.5,305.3 694.5,305.3 694.5,301.8 698,301.8 698,302.8 695.5,302.8 	"/>
	<path class="st32" d="M924.6,302.8h-6v-1h6V302.8z M912.7,302.8h-6v-1h6V302.8z M900.7,302.8h-6v-1h6V302.8z M888.8,302.8h-6v-1h6
		V302.8z M876.9,302.8h-6v-1h6V302.8z M864.9,302.8h-6v-1h6V302.8z M853,302.8h-6v-1h6V302.8z M841.1,302.8h-6v-1h6V302.8z
		 M829.2,302.8h-6v-1h6V302.8z M817.2,302.8h-6v-1h6V302.8z M805.3,302.8h-6v-1h6V302.8z M793.4,302.8h-6v-1h6V302.8z M781.4,302.8
		h-6v-1h6V302.8z M769.5,302.8h-6v-1h6V302.8z M757.6,302.8h-6v-1h6V302.8z M745.6,302.8h-6v-1h6V302.8z M733.7,302.8h-6v-1h6V302.8
		z M721.8,302.8h-6v-1h6V302.8z M709.9,302.8h-6v-1h6V302.8z"/>
	<polygon class="st32" points="934.1,305.3 933.1,305.3 933.1,302.8 930.6,302.8 930.6,301.8 934.1,301.8 	"/>
	<path class="st32" d="M934.1,475.3h-1v-6.1h1V475.3z M934.1,463.1h-1v-6.1h1V463.1z M934.1,451h-1v-6.1h1V451L934.1,451z
		 M934.1,438.9h-1v-6.1h1V438.9z M934.1,426.7h-1v-6.1h1V426.7z M934.1,414.6h-1v-6.1h1V414.6z M934.1,402.4h-1v-6.1h1V402.4z
		 M934.1,390.3h-1v-6.1h1V390.3z M934.1,378.2h-1v-6.1h1V378.2z M934.1,366h-1v-6.1h1V366L934.1,366z M934.1,353.9h-1v-6.1h1V353.9z
		 M934.1,341.7h-1v-6.1h1V341.7z M934.1,329.6h-1v-6.1h1V329.6z M934.1,317.5h-1v-6.1h1V317.5z"/>
</g>
<rect x="691" y="480.4" class="st0" width="8" height="8"/>
<rect x="929.5" y="480.4" class="st0" width="8" height="8"/>
<rect x="929.5" y="298.3" class="st0" width="8" height="8"/>
<rect x="691" y="298.3" class="st0" width="8" height="8"/>
<g class="st33">
	<path class="st32" d="M698.5,480.4c0.3,0,0.5,0.2,0.5,0.5v7c0,0.3-0.2,0.5-0.5,0.5h-7c-0.3,0-0.5-0.2-0.5-0.5v-7
		c0-0.3,0.2-0.5,0.5-0.5H698.5 M698.5,479.4h-7c-0.8,0-1.5,0.7-1.5,1.5v7c0,0.8,0.7,1.5,1.5,1.5h7c0.8,0,1.5-0.7,1.5-1.5v-7
		C700,480,699.3,479.4,698.5,479.4L698.5,479.4z"/>
	<path class="st32" d="M937.1,480.4c0.3,0,0.5,0.2,0.5,0.5v7c0,0.3-0.2,0.5-0.5,0.5h-7c-0.3,0-0.5-0.2-0.5-0.5v-7
		c0-0.3,0.2-0.5,0.5-0.5H937.1 M937.1,479.4h-7c-0.8,0-1.5,0.7-1.5,1.5v7c0,0.8,0.7,1.5,1.5,1.5h7c0.8,0,1.5-0.7,1.5-1.5v-7
		C938.6,480,937.9,479.4,937.1,479.4L937.1,479.4z"/>
	<path class="st32" d="M937.1,298.3c0.3,0,0.5,0.2,0.5,0.5v7c0,0.3-0.2,0.5-0.5,0.5h-7c-0.3,0-0.5-0.2-0.5-0.5v-7
		c0-0.3,0.2-0.5,0.5-0.5H937.1 M937.1,297.3h-7c-0.8,0-1.5,0.7-1.5,1.5v7c0,0.8,0.7,1.5,1.5,1.5h7c0.8,0,1.5-0.7,1.5-1.5v-7
		C938.6,297.9,937.9,297.3,937.1,297.3L937.1,297.3z"/>
	<path class="st32" d="M698.5,298.3c0.3,0,0.5,0.2,0.5,0.5v7c0,0.3-0.2,0.5-0.5,0.5h-7c-0.3,0-0.5-0.2-0.5-0.5v-7
		c0-0.3,0.2-0.5,0.5-0.5H698.5 M698.5,297.3h-7c-0.8,0-1.5,0.7-1.5,1.5v7c0,0.8,0.7,1.5,1.5,1.5h7c0.8,0,1.5-0.7,1.5-1.5v-7
		C700,297.9,699.3,297.3,698.5,297.3L698.5,297.3z"/>
</g>
<path class="st34" d="M814.8,296.8h-1v-6h1V296.8z M814.8,284.8h-1v-6h1V284.8z"/>
<path class="st34" d="M814.3,262.1c2.8,0,5,2.2,5,5s-2.2,5-5,5s-5-2.2-5-5S811.5,262.1,814.3,262.1 M814.3,261.1c-3.3,0-6,2.7-6,6
	s2.7,6,6,6s6-2.7,6-6S817.6,261.1,814.3,261.1L814.3,261.1z"/>
<path class="st20" d="M721.2,325.2v27.4h-5.4v-27.4h-10.2v-4.9h25.8v4.9H721.2z"/>
<path class="st20" d="M757,337.3v15.2h-5.3v-13.8c0-3.7-2.2-5.9-5.9-5.9c-4.4,0-7,3.3-7,7.6v12.1h-5.3v-34.1h5.3v14.5
	c1.8-3.5,4.9-5,9.1-5C753.6,327.9,757,331.5,757,337.3z"/>
<path class="st20" d="M785.7,342.4h-18.5c0.7,3.6,3.9,6.2,7.6,6.1c2.6,0,5.1-1,6.9-2.9l2.8,3c-2.6,2.8-6.3,4.3-10.1,4.1
	c-7.5,0-12.5-5-12.5-12.4s5.1-12.4,12.4-12.5C782.8,327.9,786.3,333.5,785.7,342.4z M781.1,338.5c-0.2-4-2.8-6.4-6.8-6.4
	s-6.6,2.4-7.2,6.4H781.1L781.1,338.5z"/>
<path class="st20" d="M826,352.6l-17.2-23.1v23.1h-5.4v-32.2h5.3l17.3,23.2v-23.2h5.3v32.2L826,352.6L826,352.6z"/>
<path class="st20" d="M861.1,342.4h-18.5c0.7,3.6,3.9,6.2,7.6,6.1c2.6,0,5.1-1,6.9-2.9l2.8,3c-2.6,2.8-6.3,4.3-10.1,4.1
	c-7.5,0-12.5-5-12.5-12.4s5.1-12.4,12.4-12.5C858.2,327.9,861.7,333.5,861.1,342.4z M856.5,338.5c-0.2-4-2.8-6.4-6.8-6.4
	s-6.6,2.4-7.2,6.4H856.5L856.5,338.5z"/>
<path class="st20" d="M888.7,352.6l-6.2-18.1l-6.2,18.1h-5.4l-9-24.5h5.4l6.3,19.2l6.2-19.2h5.5l6.2,19.2l6.3-19.2h5.4l-8.9,24.5
	L888.7,352.6L888.7,352.6z"/>
<path class="st20" d="M714,403.4l-3.1,7.3h-5.7l14.2-32.2h5.5l14.1,32.2h-5.8l-3.1-7.3H714z M722.1,384.2l-6.1,14.3h12.2
	L722.1,384.2z"/>
<path class="st20" d="M768.9,398.5c0,7.3-4.6,12.3-11.6,12.3c-3.9,0-6.9-1.6-8.7-4.4v13.2h-5.3v-33.4h5.3v4.2
	c1.8-2.9,5.1-4.6,8.6-4.4C764.1,386,768.9,391,768.9,398.5z M763.5,398.3c0-4.6-3.1-7.9-7.5-7.9s-7.5,3.3-7.5,7.9s3.1,8,7.5,8
	S763.5,403,763.5,398.3L763.5,398.3z"/>
<path class="st20" d="M800.2,398.5c0,7.3-4.6,12.3-11.6,12.3c-3.9,0-6.9-1.6-8.7-4.4v13.2h-5.3v-33.4h5.3v4.2
	c1.8-2.9,5.1-4.6,8.6-4.4C795.4,386,800.2,391,800.2,398.5z M794.8,398.3c0-4.6-3.1-7.9-7.5-7.9s-7.5,3.3-7.5,7.9s3.1,8,7.5,8
	S794.8,403,794.8,398.3L794.8,398.3z"/>
<path class="st20" d="M805.9,410.6v-34.2h5.3v34.2H805.9z"/>
<path class="st20" d="M840.8,400.4h-18.5c0.7,3.6,3.9,6.2,7.6,6.1c2.6,0,5.1-1,6.9-2.9l2.8,3c-2.6,2.8-6.3,4.3-10.1,4.1
	c-7.5,0-12.5-5-12.5-12.4s5.1-12.4,12.4-12.5C838,386,841.5,391.6,840.8,400.4z M836.2,396.5c-0.2-4-2.8-6.4-6.8-6.4
	s-6.6,2.4-7.2,6.4H836.2L836.2,396.5z"/>
<path class="st32" d="M738.5,468.7v-24.1l-10.2,20.7h-3.5l-10.2-20.7v24.1h-5.1v-32.2h6.5l10.6,21.4l10.6-21.4h6.4v32.2H738.5
	L738.5,468.7z"/>
<path class="st32" d="M766.4,465.7c-1.8,2.2-4.6,3.2-8.1,3.2c-5.3,0-8.6-3.3-8.6-7.6s3.4-7.3,9.2-7.4h7.4v-0.7c0-3.1-2-4.9-5.8-4.9
	c-2.6,0.1-5.1,0.9-7.2,2.5l-2.2-3.7c3.1-2.1,6.8-3.2,10.5-3.1c6.3,0,9.8,3.2,9.9,8.6v16.1h-5.2L766.4,465.7L766.4,465.7z
	 M766.4,460.1v-2.3h-6.7c-3.5,0-5.1,0.9-5.1,3.3s1.8,3.6,4.7,3.6C763.2,464.7,766.1,462.7,766.4,460.1L766.4,460.1z"/>
<path class="st32" d="M798.8,448l-2.9,3.4c-1.8-1.9-4.4-2.9-7-2.8c-4.2,0-7.3,3.2-7.3,7.8s3,7.8,7.3,7.8c2.7,0.1,5.4-0.9,7.2-3l3,3
	c-2.2,2.9-5.8,4.6-10.4,4.6c-7.3,0-12.3-5-12.3-12.4s5.1-12.5,12.3-12.5C793.1,444,796.6,445.4,798.8,448z"/>
<path class="st32" d="M830.4,456.5c0,7.3-4.6,12.3-11.6,12.3c-3.9,0-6.9-1.6-8.7-4.4v4.2h-5.3v-34.2h5.3v13.9
	c1.8-2.9,5.1-4.6,8.6-4.4C825.7,444,830.4,449,830.4,456.5z M825.1,456.3c0-4.6-3.1-7.9-7.5-7.9s-7.5,3.3-7.5,7.9s3.1,8,7.5,8
	S825.1,461,825.1,456.3L825.1,456.3z"/>
<path class="st32" d="M859.2,456.4c0,7.4-5.2,12.4-12.8,12.4s-12.8-5.1-12.8-12.4s5.2-12.4,12.8-12.4S859.2,449,859.2,456.4z
	 M838.9,456.4c0,4.7,3.1,8,7.5,8s7.5-3.2,7.5-8s-3.1-7.9-7.5-7.9S838.9,451.8,838.9,456.4L838.9,456.4z"/>
<path class="st32" d="M888,456.4c0,7.4-5.2,12.4-12.8,12.4s-12.8-5.1-12.8-12.4s5.2-12.4,12.8-12.4S888,449,888,456.4z M867.7,456.4
	c0,4.7,3.1,8,7.5,8s7.5-3.2,7.5-8s-3.1-7.9-7.5-7.9S867.7,451.8,867.7,456.4L867.7,456.4z"/>
<path class="st32" d="M899,461.8v6.9h-5.3v-34.2h5.3v20.6l10.8-11h6.1l-9.1,9.5l9.8,15h-6.3l-7.2-11.2L899,461.8z"/>
<g>
	<path class="st0" d="M109.4,71.8c2.5,0,4,1.1,4,2.8c0,1.2-0.7,2.2-1.9,2.5c1.4,0.3,2.3,1.4,2.3,2.8c0,1.9-1.6,3.1-4.2,3.1h-5.3
		V71.8H109.4z M106.8,76.3h2.5c0.9,0,1.5-0.5,1.5-1.2c0-0.8-0.6-1.2-1.5-1.2h-2.5V76.3z M106.8,80.9h2.5c1.2,0,1.9-0.5,1.9-1.4
		c0-0.8-0.7-1.3-1.9-1.3h-2.5V80.9z"/>
	<path class="st0" d="M118.3,80.8l-0.9,2.2h-2.6l4.9-11.2h2.6l4.8,11.2h-2.7l-0.9-2.2H118.3z M120.9,74.4l-1.8,4.4h3.5L120.9,74.4z"
		/>
	<path class="st0" d="M138,73.6l-1.5,1.8c-0.8-0.9-1.9-1.5-2.9-1.5c-1.9,0-3.4,1.5-3.4,3.4s1.5,3.5,3.4,3.5c1,0,2.1-0.5,2.9-1.3
		l1.5,1.6c-1.2,1.2-2.9,2-4.5,2c-3.3,0-5.9-2.5-5.9-5.7c0-3.2,2.6-5.7,6-5.7C135.2,71.7,136.9,72.4,138,73.6z"/>
	<path class="st0" d="M144.3,78.4l-1.6,1.8V83h-2.5V71.8h2.5v5.1l4.7-5.1h2.9l-4.2,4.7l4.5,6.5h-3L144.3,78.4z"/>
	<path class="st0" d="M161.7,77.3v4.3c-1.2,0.9-3,1.5-4.5,1.5c-3.4,0-6-2.5-6-5.7c0-3.2,2.6-5.7,6.1-5.7c1.7,0,3.4,0.6,4.5,1.6
		l-1.4,1.8c-0.8-0.8-2-1.2-3.1-1.2c-2,0-3.5,1.5-3.5,3.5c0,2,1.6,3.5,3.5,3.5c0.7,0,1.5-0.2,2.2-0.6v-2.9H161.7z"/>
	<path class="st0" d="M169.7,79.8h-0.2h-2.3V83h-2.5V71.8h4.9c2.9,0,4.6,1.4,4.6,3.9c0,1.7-0.7,3-2.1,3.6l2.4,3.7h-2.9L169.7,79.8z
		 M169.4,77.7c1.4,0,2.2-0.6,2.2-1.9c0-1.2-0.8-1.9-2.2-1.9h-2.3v3.8H169.4z"/>
	<path class="st0" d="M187.9,77.4c0,3.2-2.6,5.7-6,5.7s-6-2.5-6-5.7c0-3.3,2.6-5.7,6-5.7S187.9,74.1,187.9,77.4z M178.5,77.4
		c0,2,1.6,3.5,3.5,3.5c1.9,0,3.4-1.5,3.4-3.5s-1.5-3.5-3.4-3.5C180,73.9,178.5,75.4,178.5,77.4z"/>
	<path class="st0" d="M200.2,78.3c0,3-1.9,4.8-5,4.8c-3.1,0-5.1-1.8-5.1-4.8v-6.5h2.5v6.5c0,1.6,1.1,2.6,2.6,2.6
		c1.5,0,2.5-1,2.5-2.6v-6.5h2.5V78.3z"/>
	<path class="st0" d="M211.1,83l-5.4-7.2V83h-2.4V71.8h2.3L211,79v-7.2h2.4V83H211.1z"/>
	<path class="st0" d="M221.3,71.8c3.5,0,5.9,2.3,5.9,5.6c0,3.3-2.4,5.6-6,5.6h-4.7V71.8H221.3z M219.1,80.9h2.3
		c1.9,0,3.2-1.4,3.2-3.5c0-2.1-1.4-3.5-3.4-3.5h-2.2V80.9z"/>
</g>
</svg>
